<svg xmlns="http://www.w3.org/2000/svg" width="338" height="112" viewBox="0 0 338 112">
  <g fill="none" fill-rule="evenodd" transform="translate(54 38)">
    <rect width="230" height="37"/>
    <path fill="#004929" fill-rule="nonzero" d="M12.6018974 4.60724839C11.7623953 3.65417719 9.22024106 3.85155881 7.95507591 4.22376412 1.10899533 6.2032197-1.22623941 17.2227531.594652485 23.8604146 1.46962651 27.0297994 2.40372041 27.9828705 4.06498867 30.3232525L4.73304316 31.1578947 3.52108589 28.7611181C1.41050665 24.2100621.151253484 18.8638402 1.49327446 13.906742 1.7335532 13.0003692 2.07031557 12.1197955 2.4983122 11.2787468 2.86691318 10.479119 3.35477164 9.73452581 3.94674893 9.06807279 3.77205487 9.63051354 3.55673759 10.1807387 3.30234239 10.7147993 3.18410265 11.0024126 2.71114372 12.0964707 2.88850332 12.4348392 3.12498279 11.6058363 4.6266274 9.45155706 5.1173223 8.86505171 5.55247885 8.3406933 6.03090453 7.85037549 6.54802308 7.39878832 7.10627765 6.91004453 7.77027544 6.54425646 8.49306669 6.32728814 7.79167573 6.9462438 7.12842437 7.60340135 6.50663917 8.29546477 5.8991982 9.01641942 5.35540682 9.78413297 4.88084283 10.5907309 3.85516093 12.3838242 3.1668416 14.3345114 2.84711941 16.354274 2.20271286 20.3639404 2.95944716 25.0559833 5.50160143 28.3607154L5.79720077 28.6426891C5.66122507 28.2648443 5.32424183 27.762931 5.12323428 27.3117731 4.44450134 25.6967017 4.08375214 23.9760991 4.05907668 22.236246 3.85215715 17.9446058 5.76764083 9.688415 9.92376747 7.71459889 12.0461707 6.71077241 12.0993786 8.84249381 12.2057943 9.09063069L12.5546015 8.33494109C13.2992103 6.59252884 14.402905 5.01042209 15.8002822 3.68237456 17.1482152 2.43041121 19.436154.811882 22.3566755 1.17280838 21.4810665 1.3638155 20.6822563 1.7928017 20.0569126 2.4078533 20.6481113 2.26686644 21.0855983 2.05820588 21.7536528 1.94541639 22.4412629 1.83570082 23.1375259 1.78286922 23.8346721 1.7875111 23.6573125 1.89466112 22.5162991 2.15971643 21.8364206 2.42477173 20.4411918 2.98871919 17.7807978 4.61288787 17.3019269 5.58851697 18.1343259 4.9661033 19.0536182 4.45741512 20.0332647 4.07713779 21.0915352 3.65200229 22.1903456 3.32527824 23.3144173 3.10150868 25.2562919 2.6860489 27.2645205 2.63624176 29.226404 2.95488235 29.8708105 3.06767183 30.4088013 3.28197187 31 3.38348241 30.8560361 3.24623014 30.6825695 3.14040584 30.4915691 3.07331131L28.8480368 2.2555875C24.6623503.377642457 20.352512-1.25216569 15.906698 1.35891103 14.8927714 1.9617736 14.0096807 2.74480854 13.3054239 3.66545614 13.0807684 3.93615092 12.814729 4.38166941 12.6018974 4.60724839zM33.2194006 18.5080575C34.2045109 18.3706561 34.9047699 18.26188 35.3142435 19.0519382 35.6268372 19.8056189 35.542846 20.6585487 35.0887363 21.341962 33.8484469 23.5174846 29.6290893 24.3304431 27.1485105 25.0403505 25.6411731 25.475455 24.181311 25.9162846 22.6561704 26.3914646 19.4693982 27.3990751 9.5648863 30.8341109 12.5558234 35.5229346 12.9510802 36.0868731 13.4380172 36.5856306 13.9978823 37 13.843588 36.0668153 13.6418184 35.8549881 13.9504071 34.8359274 14.14403 34.2220675 14.4385642 33.6421812 14.8227638 33.1184096 16.3203361 31.1290245 18.380781 29.5984481 20.7571628 28.7101137 22.0970018 28.1998037 23.4896347 27.8293797 24.9112421 27.6051772 24.5373749 27.9028803 19.570283 30.1413786 18.4190096 31.5039428 19.4444491 30.9134593 20.5457824 30.4553597 21.6947978 30.1413786 24.5670469 29.3971208 28.8694862 29.1681185 31.231377 28.0517319L32.7446487 27.2444984C31.0711482 29.1566683 27.2197233 29.883751 24.8697013 30.5421328 22.0924025 31.3207409 19.0658591 32.8321566 18.0866832 34.8359274 18.5376976 34.0458693 20.0569037 33.158485 20.9411291 32.774906 24.2347206 31.3379161 27.468968 31.1089136 32.0265864 28.7673643 34.1944742 27.6754575 35.9678678 25.9746029 37.1123664 23.8896135 37.6227247 22.8762779 38.251771 21.2847114 37.895707 19.9164221 37.4684303 18.2676049 36.3468289 17.8382255 35.6406354 17.1512184 37.3497423 16.9393911 37.4684303 15.8001043 37.1004976 14.1799124 36.7958471 13.0017181 36.4153066 11.8430059 35.961093 10.7105263 35.9076834 11.4891345 36.0441745 12.3364432 35.961093 13.2238275 35.8844877 14.6327108 35.4104857 15.9946569 34.5902468 17.1626685 34.1979376 17.6686567 33.7345695 18.1195329 33.2134662 18.5023325L33.2194006 18.5080575z"/>
    <path fill="#004929" fill-rule="nonzero" d="M29.6614902,18.6803417 C29.8331265,18.0778756 29.9487574,17.4612933 30.0069547,16.8382106 C29.598155,17.8017869 27.4850639,20.5054685 26.725042,20.5678175 C27.2826257,19.9131132 27.7833887,19.2134803 28.2220548,18.4762903 C29.5175467,16.3564225 31.1469875,12.5984752 30.9109201,10.1045132 C30.7857535,10.9519944 30.5834175,11.786677 30.3063572,12.5984752 C29.1949847,15.450978 27.5919238,18.0932919 25.567736,20.4091108 C24.3413371,21.7694538 22.9537214,23.1524691 21.1976102,23.9006577 C20.9154809,24.0196878 20.2303097,24.2067348 20,24.3371011 C21.6409563,24.4221225 25.7001641,23.4075334 27.3065739,22.5289786 C29.2610453,21.5027768 30.9026068,19.9826385 32.0624684,18.1248683 C34.2791989,14.8260367 37.3826215,7.82593871 32.0624684,5.84210526 C31.3772972,10.1781984 32.6382425,14.962071 29.6902789,18.6860098 L29.6614902,18.6803417 Z"/>
    <path fill="#0F4F34" fill-rule="nonzero" d="M5,19.8702209 L5,19.9388328 C5.01705422,21.0427684 5.19958694,22.1401519 5.54304636,23.2036179 C5.62913907,21.7742023 5.10596026,21.4883192 5.67549669,18.8181711 C5.85430464,17.9719571 6.61589404,15.621998 7.07284768,15.147432 C7.07284768,16.1079993 6.50993377,19.4070902 6.41059603,20.9737296 C6.22324087,23.0670857 6.22324087,25.169802 6.41059603,27.2631579 C6.41059603,24.4043269 7.33112583,21.8256613 7.85430464,19.2012545 C8.13245033,17.8061449 8.26490066,16.3881647 8.38410596,14.9587492 C8.45033113,14.2097355 8.43708609,13.4664394 8.50331126,12.7174257 C8.57066094,12.0331131 8.73753615,11.3588442 9,10.7105263 L8.78145695,10.9049268 C6.46686327,13.4787894 5.14444322,16.6140584 5,19.8702209 Z"/>
    <path fill="#FDE30B" fill-rule="nonzero" d="M29.3521836,5.05574307 C28.3951762,4.87672213 27.4122364,4.87672213 26.455229,5.05574307 C25.654193,5.20002616 24.9053544,5.54631096 24.2825132,6.06047023 L22.7587151,7.72366264 C23.0890773,7.60837272 23.3953277,7.43527246 23.6625649,7.21278442 C23.9812299,7.01978598 24.1956045,6.87219894 24.5258573,6.69622978 C25.20249,6.27537635 26.0268485,6.14796197 26.8028636,6.34429145 C26.7565123,6.48052565 26.710161,6.45214352 26.6000768,6.55431917 C26.3203584,6.82356541 25.975482,7.01887365 25.5977305,7.12196163 C25.4129757,7.15153687 25.2414685,7.23456325 25.1052482,7.36037146 C25.4818523,7.36037146 26.3103813,7.11060877 26.4784047,7.207108 C25.3248043,7.82515781 24.0630778,8.22565248 22.7587151,8.38780432 C22.281186,8.50051759 21.7946274,8.57268619 21.3044439,8.60350845 C21.1827718,8.73406622 21.2580926,8.69433124 21.0321302,8.76244834 C20.9336337,8.79083047 20.7714043,8.81353616 20.6787017,8.84191829 C20.1630438,8.97247606 19.1896671,9.55147137 19.0622011,9.55714779 C19.0622011,9.39253148 19.5083321,7.68392766 20.3252733,7.50228208 C20.2585535,7.7096391 20.2272316,7.92636489 20.2325707,8.14371806 C20.3368611,8.01316029 20.4759149,7.80880901 20.6265566,7.62148699 C20.703518,7.53495081 20.7751051,7.44396421 20.8409312,7.34901862 C21.1498171,6.90005045 21.587221,6.5505084 22.0982095,6.34429145 L22.0460643,6.47484922 L21.9939191,6.58837771 C21.93598,6.70758263 21.9939191,6.58837771 21.9243922,6.7246119 C21.7407261,7.2271056 21.4745692,7.69685696 21.1364206,8.11533594 C20.9782366,8.26456615 20.8346912,8.42800641 20.7076713,8.60350845 L20.9394276,8.60350845 C21.2754744,8.22886443 22.0228886,8.26292298 22.7876846,6.77569972 C23.5524806,5.28847647 23.5582745,5.55526843 24.5722086,4.86842105 C23.2388141,4.95242609 21.9345038,5.28779273 20.7308469,5.85611894 C19.8553277,6.28434518 19.1204661,6.94529267 18.6102762,7.76339761 C18.3268396,8.33959545 18.1316124,8.95356736 18.0308853,9.58552991 C17.9341233,9.9923124 17.8161593,10.3939725 17.6774569,10.7889319 C17.6774569,10.2837301 17.602136,8.39915716 17.6774569,7.91666108 C17.729602,7.54769347 17.8512741,7.50228208 17.9323889,7.1616966 C17.7481005,7.16395352 17.5701777,7.2280694 17.4283188,7.34334218 C15.7014938,8.35977796 14.6044856,10.1517607 14.5023947,12.1228917 C14.5031812,12.9464195 14.6102521,13.7665449 14.8210597,14.5637543 C15.05861,12.7586513 15.1513125,11.4190151 16.2521552,9.77285197 C16.2521552,10.6754035 16.3043004,11.6971598 16.2521552,12.6110642 C16.2185575,13.0158449 16.1388794,13.4156773 16.014605,13.8031134 C15.9566659,14.0301704 15.887139,14.7113414 15.6495887,14.8362227 L15.3888628,13.5476743 C15.1542665,14.183797 15.0251658,14.8526233 15.0064648,15.5287464 C14.8982696,16.1608076 14.7033753,16.7756424 14.4270739,17.3565552 C14.3111957,17.1749097 14.4270739,16.8343242 14.4618373,16.61862 C14.5125278,15.7396041 14.4206151,14.8582736 14.1895236,14.0074647 C13.856894,13.0989438 13.72651,12.1312155 13.8071256,11.1692524 L13.8071256,10.857049 C13.8092669,10.8419846 13.8092669,10.826702 13.8071256,10.8116377 C13.30055,11.3166687 12.8517607,11.8743696 12.4687326,12.47483 C10.151169,15.7614799 11.8893417,19.4057445 11.8487844,19.6498308 L11.9878382,19.6157722 C11.9878382,19.3773624 11.87196,19.0481298 11.8487844,18.6678093 C11.7966392,17.9071684 11.6517915,16.3404752 11.9588686,15.6990392 C12.0457773,16.0680068 11.9588686,16.3064166 12.0921285,16.9478526 L12.2253884,17.3224967 C12.2253884,16.6242964 12.4745265,15.0519269 12.9728027,14.7964877 C13.5985449,15.5287464 13.5000484,19.7917414 12.8569245,21.1257012 L12.6946951,20.8305271 C12.5904047,20.4899416 12.6135804,20.3139724 12.3065032,20.120974 C12.3065032,20.6204994 12.3992057,20.9781141 12.3934118,21.443581 C12.3934118,21.7557843 12.4861144,22.4937195 12.2775336,22.7264529 C12.3141604,23.4688712 12.2538011,24.2128317 12.0979224,24.9402585 C12.0052199,25.3659904 11.7213184,26.5410103 11.4432107,26.7567144 C11.1477214,26.6999501 11.1477214,26.6148038 10.979698,26.3707175 C10.9218441,26.2940098 10.8579134,26.2218854 10.788499,26.1550133 C10.2050563,25.3336156 9.80976646,24.3983477 9.6297172,23.4133003 C9.58336593,23.1862433 9.56019029,22.9591863 9.53122075,22.7094236 L9.49066338,22.1417812 C9.49066338,22.045282 9.49066338,22.0396055 9.49066338,22.045282 C9.52881125,22.0085136 9.56370028,21.9686351 9.59495374,21.926077 C9.76297711,22.3915438 9.96576392,23.3168011 10.4176888,23.6573866 C10.4814218,23.4757409 10.0642604,22.3631617 10.0352908,21.9544591 C9.95948555,21.2136053 9.9946204,20.4658739 10.1395812,19.7349771 C10.5449359,20.1827911 10.8914077,20.6786115 11.170897,21.2108476 C11.2385068,21.3526713 11.29657,21.4986782 11.3447143,21.6479323 L11.5301194,22.0850169 C11.680761,22.4539846 11.7039366,22.7888936 11.8140209,23.1010969 C11.9813989,22.1913609 11.9157022,21.255148 11.6228219,20.3764131 C11.3427899,19.6231241 10.9876441,18.8987153 10.5625366,18.2136954 C10.2474672,17.701261 10.0961275,17.1081773 10.1279934,16.5107679 C9.82407847,16.8479068 9.59693991,17.2445956 9.46169384,17.674435 C9.34341821,17.8939514 9.23704865,18.1194298 9.14302884,18.3499296 L8.67372221,19.7122714 C8.30311479,21.106498 8.20676638,22.5570947 8.38982066,23.9866192 C8.46494273,24.4938116 8.60510414,24.989687 8.80698212,25.4624896 L9.46748775,26.7169794 C9.78319883,27.0622957 10.0555237,27.4434426 10.278635,27.8522643 C9.57870945,27.8486408 8.89398295,27.6519129 8.30291203,27.2846219 C7.52073431,26.8191551 7.24262667,26.0812199 7.05722159,25.990397 C7.05722159,27.6933245 6.82546522,29.5949267 7.29477186,31.2694719 C7.36429876,31.5192346 7.45700131,31.7179095 7.54390994,31.9619958 C7.58400669,32.0797344 7.63042261,32.1953159 7.68296376,32.3082576 C7.72324414,32.4173941 7.78200574,32.5191013 7.85678103,32.6091082 C8.25100776,33.4248999 8.90599036,34.0925085 9.72241974,34.5107104 C10.1337873,34.7434438 10.6030939,34.9477951 10.9681102,35.1918814 C11.1766909,35.3281156 11.2925691,35.4359676 11.5185315,35.6062603 C11.5938524,35.6630246 11.7039366,35.7538474 11.7792575,35.8219645 C11.9588686,35.9865808 11.7792575,35.935493 12.0805407,36.0263158 C12.0457773,35.6062603 10.9739041,33.8919801 10.6668269,33.4548954 L9.04453239,31.0367385 C8.87615616,30.756862 8.73456777,30.4623251 8.62157703,30.1568927 C8.45323329,29.8001802 8.35871017,29.41432 8.34346939,29.0216078 C8.48831712,29.0556663 9.18938011,29.6687202 9.60654156,29.9355122 C10.1279934,30.2647448 10.661033,30.855093 10.852232,30.9459158 C10.7942929,30.3782733 10.4640401,29.9014536 10.4292766,29.3735462 C10.6726208,29.4700454 10.4930096,29.3735462 10.6784147,29.5778975 C11.2578056,30.2647448 11.6054402,31.7462916 11.6923488,31.8144087 C11.7734635,31.496529 11.7213184,30.8777987 11.7734635,30.4861254 C11.8135032,30.0882793 11.891087,29.6949243 12.0052199,29.3111055 C12.1579511,28.5677997 12.4071838,27.8467088 12.7468403,27.1654169 C12.9000971,26.8556714 13.0949553,26.5674019 13.3262312,26.3082768 C14.1373784,25.4908717 14.0794393,25.3092261 15.2845724,24.7018487 C15.4698857,24.6208606 15.6643862,24.5617881 15.8639633,24.5258795 C15.8002303,24.6337316 15.8639633,24.5599381 15.7364973,24.639408 L15.2556029,24.9856699 C15.0244098,25.1440978 14.8452458,25.3649907 14.739945,25.6214294 L16.3100943,25.053787 C16.5833011,25.005528 16.8510779,24.9313864 17.1096538,24.8324065 C17.3556539,24.6957288 17.621304,24.5962163 17.8976254,24.5372324 C17.729602,25.1048749 17.0575086,25.4114018 16.6229654,25.7065759 C16.3824265,25.8606581 16.1306825,25.9972584 15.8697572,26.1152784 C14.7109754,26.7226559 13.4305215,27.3981503 13.082887,28.7491394 C12.9322454,29.3167818 13.0481235,29.1805477 13.082887,29.237312 C13.3492786,28.602052 13.7905745,28.0517913 14.357547,27.647913 C15.9450781,26.7283322 17.3008528,26.8248315 18.9926742,24.9062 C19.2558154,24.5941174 19.4959059,24.2640476 19.7111189,23.9185021 C19.9504091,23.5423052 20.1448128,23.1404309 20.2905098,22.7207765 C19.8022924,22.8030209 19.30837,22.8485652 18.813063,22.8570107 C17.6542812,22.8172757 16.2405674,22.4937195 15.1513125,23.021627 C14.9778755,23.1481275 14.7811472,23.2406423 14.5719216,23.2940954 C14.7920902,22.1588104 17.8918315,21.7898428 18.9057656,21.3981696 C20.002531,21.0304152 21.0131197,20.4514113 21.8780409,19.6952422 L23.0368227,18.276136 C23.4874675,17.6684337 23.8356652,16.9938251 24.0681385,16.2780345 C23.7958248,16.2780345 23.3844573,16.9024413 21.6752541,16.7662071 C19.6300042,16.6072671 17.2255319,16.3291224 15.7654669,18.0774612 C15.4975586,18.3453671 15.3075382,18.6785087 15.2150455,19.0424533 C15.9103146,18.7813378 15.69594,18.3669588 17.602136,18.0377262 C18.7339738,17.9595617 19.8692621,17.9406135 21.0031606,17.980962 C20.9046642,18.3556059 21.0031606,18.0661083 20.8872825,18.196666 L20.8177556,18.2704596 L20.7018774,18.3556059 C19.7574702,18.957307 18.1641452,18.7472793 17.2255319,19.2922161 L19.9892266,19.2922161 C19.5067341,19.5688787 18.9693792,19.7411391 18.4132833,19.7974178 C16.9706,20.1096211 15.313542,20.2458553 14.357547,21.4379045 C14.1373784,21.7046965 14.3865165,21.6138737 14.0330881,21.6819908 C14.1405679,20.3626238 14.5826966,19.0904497 15.3193359,17.980962 C16.148159,17.0096722 17.3264286,16.3877717 18.6102762,16.243976 C20.1718728,16.0896508 21.7010568,15.7069749 23.146907,15.1086911 C23.9496797,14.7153038 24.6539657,14.153221 25.2095386,13.4625279 C25.441295,13.1730303 25.4181193,13.4114401 25.4702645,12.9402968 C23.9870238,12.9743554 23.2859608,12.4521243 21.8201018,12.2704787 C20.9336337,12.1569503 19.4445991,12.2704787 18.6971848,12.781357 L18.430665,13.1616774 C19.1650816,13.1889844 19.8967782,13.2648425 20.6207626,13.3887344 L20.9857789,13.3887344 L21.3392074,13.5079394 C20.8003738,13.7917605 19.7806458,13.717967 19.2012549,13.8712305 C19.3171331,14.092611 19.2881636,14.0642289 19.7285007,14.1153168 C19.9420914,14.1108979 20.153964,14.1535772 20.3484489,14.2401981 C19.8675545,14.399138 18.3089929,14.3821088 17.5036396,14.7794585 C17.2327969,14.9426945 16.9403746,15.0687513 16.6345532,15.1541025 C16.7989223,14.4836649 17.0419526,13.8341217 17.3587919,13.2184416 L17.8338924,12.4464479 C18.3629671,11.659266 19.0837828,11.0135421 19.9312875,10.5675514 C20.561481,10.2188651 21.2439034,9.96982205 21.9533617,9.8296162 C21.872247,10.0226146 21.9070105,9.93746828 21.7737505,10.068026 C21.6404906,10.1985838 21.2928561,10.3915822 21.1943596,10.5959335 C21.4620922,10.5233505 21.7236165,10.4303517 21.9765374,10.3177886 C22.2414694,10.2009394 22.5195772,10.1151976 22.8050664,10.0623496 C23.1570195,10.0029374 23.5141623,9.97821618 23.8711456,9.98855603 C24.2316613,9.94650631 24.5971364,9.99737887 24.931431,10.1361431 L24.421567,10.5391693 C23.0484105,11.2657516 22.0750338,11.1692524 20.9220459,11.5098379 C20.6844956,11.5836314 19.7980276,11.8050119 19.6647677,12.0263925 L20.6671139,11.8106884 C21.0887454,11.7474167 21.5154708,11.7227124 21.9417739,11.7368948 C23.9812299,11.7368948 25.5166158,11.53822 27.0172382,10.2894065 C27.2489946,10.0964081 27.5676596,9.88638043 27.6255987,9.59688276 C27.0462078,9.59688276 25.6209061,9.26197371 25.3659741,8.97815248 C25.4702645,8.72271337 25.9453651,8.64324343 26.2176788,8.5467442 C26.5122193,8.42496179 26.7936473,8.2747412 27.0577956,8.09830666 C27.5720889,7.77357349 28.0619637,7.41314313 28.5236546,7.01978598 C28.7423954,6.81801315 28.9725865,6.62849758 29.2131298,6.45214352 C29.7350511,6.08159043 30.3253237,5.81364313 30.9513025,5.6631205 C31.3056836,5.60556132 31.6559596,5.52592993 32,5.42471067 L29.3521836,5.05574307 Z"/>
    <path fill="#004929" fill-rule="nonzero" d="M64.9637619,25.4984463 C65.0127606,25.6141013 65.0443436,25.7357169 65.0575818,25.8597155 C65.0652606,25.9382535 65.0350899,26.0158753 64.9754894,26.070919 C64.8895591,26.1238511 64.7904934,26.1545123 64.6881659,26.1598467 C64.5104203,26.1686497 64.3323109,26.1686497 64.1545652,26.1598467 C63.9317429,26.1598467 63.7558306,26.1598467 63.6209645,26.1598467 C63.5174414,26.156012 63.4149108,26.1391916 63.3160498,26.1098249 C63.2558369,26.0916441 63.2027406,26.0568019 63.1635924,26.009781 C63.1260991,25.9615052 63.094617,25.9092843 63.0697725,25.8541575 L61.8970236,22.6305254 L56.0684616,22.6305254 L54.8957127,25.8152516 C54.8777149,25.8728296 54.8499914,25.9272624 54.8136203,25.9764331 C54.77099,26.0249595 54.716696,26.0630802 54.6552992,26.0875929 C54.5620028,26.1246618 54.4629955,26.1471844 54.362112,26.1542887 C54.1980564,26.1630222 54.033613,26.1630222 53.8695575,26.1542887 C53.6996917,26.1648594 53.5292774,26.1648594 53.3594117,26.1542887 C53.2569653,26.149191 53.158674,26.1142537 53.077952,26.0542449 C53.0204898,25.9981968 52.9925216,25.9207065 53.0017233,25.8430415 C53.0133717,25.7187873 53.0450112,25.5969542 53.0955432,25.4817724 L57.7865388,13.1763906 C57.810939,13.1090533 57.8487616,13.0467867 57.8979499,12.9929771 C57.9539969,12.9383999 58.0251193,12.8998778 58.103181,12.8818173 C58.2154927,12.8483439 58.3316498,12.8278168 58.4491419,12.8206795 C58.5898717,12.8206795 58.7657841,12.8206795 58.9827426,12.8206795 C59.1997012,12.8206795 59.4049322,12.8206795 59.5691171,12.8206795 C59.692371,12.8277976 59.8143545,12.8483112 59.9326692,12.8818173 C60.0146689,12.9017046 60.0895722,12.9420005 60.1496278,12.998535 C60.202674,13.0527477 60.2426852,13.1172199 60.2669026,13.1875066 L64.9578982,25.4984463 L64.9637619,25.4984463 Z M58.9475602,14.6047931 L56.5551524,21.2076808 L61.4103328,21.2076808 L58.9475602,14.6047931 Z M81.3939738,25.8263676 C81.3952475,25.8780793 81.3787868,25.9287869 81.3470639,25.9708752 C81.3033511,26.0148422 81.245713,26.0441096 81.182879,26.0542449 C81.091028,26.0820491 80.9968779,26.1025001 80.9014193,26.1153828 C80.7511324,26.1261885 80.6001979,26.1261885 80.449911,26.1153828 C80.3035092,26.1254356 80.1565319,26.1254356 80.0101301,26.1153828 C79.9124987,26.103839 79.8162755,26.0833642 79.7228067,26.0542449 C79.6620881,26.0370503 79.6087018,26.0020178 79.5703493,25.9542012 C79.5386264,25.9121129 79.5221657,25.8614053 79.5234394,25.8096936 L79.5234394,14.2879879 L74.6037578,25.8763894 C74.5842964,25.92279 74.5542622,25.9645431 74.5158016,25.9986651 C74.4640811,26.0392346 74.4042468,26.0694822 74.3398893,26.0875929 C74.2521705,26.1135345 74.1617224,26.1303081 74.070157,26.1376148 C73.9451467,26.1437189 73.8198877,26.1437189 73.6948774,26.1376148 C73.5660158,26.1456937 73.4367319,26.1456937 73.3078703,26.1376148 C73.2161839,26.12792 73.1257957,26.109295 73.038138,26.0820349 C72.9756636,26.0636644 72.9178006,26.0334047 72.8680894,25.9931071 C72.8318066,25.9627537 72.803667,25.9246505 72.785997,25.8819474 L68.0950015,14.2935459 L68.0950015,25.8263676 C68.0962751,25.8780793 68.0798145,25.9287869 68.0480915,25.9708752 C68.0100293,26.0189785 67.9565337,26.0540828 67.8956342,26.070919 C67.7999215,26.0991795 67.7018354,26.1196332 67.6024469,26.1320568 C67.4521478,26.1425523 67.3012377,26.1425523 67.1509386,26.1320568 C67.0025964,26.1425419 66.8536363,26.1425419 66.705294,26.1320568 C66.6096755,26.1200022 66.5154488,26.0995346 66.4238343,26.070919 C66.364074,26.0549569 66.3121659,26.0195318 66.2772407,25.9708752 C66.2492933,25.9274044 66.2350508,25.8772621 66.2361945,25.8263676 L66.2361945,13.6488195 C66.2119141,13.4190655 66.3005898,13.1915106 66.476608,13.0318829 C66.6286165,12.9134109 66.8192758,12.8485883 67.0160725,12.8484694 L68.1595027,12.8484694 C68.3568168,12.8469283 68.5536343,12.8674493 68.7458771,12.9096073 C68.9121925,12.9452039 69.069558,13.0112874 69.2091129,13.1041367 C69.3423238,13.1941986 69.4541774,13.309686 69.5374826,13.443174 C69.6345456,13.5955103 69.7132234,13.7577115 69.7720324,13.9267188 L73.7711061,23.5198031 L73.8238798,23.5198031 L77.9754108,13.9545087 C78.0445029,13.7723493 78.1329116,13.5973031 78.2392793,13.432058 C78.3210836,13.3010323 78.4262334,13.1844411 78.5500578,13.0874628 C78.6607521,13.0028611 78.7884282,12.9404609 78.9253374,12.9040493 C79.0821424,12.8645952 79.2439517,12.8458913 79.4061645,12.8484694 L80.5789134,12.8484694 C80.684342,12.847526 80.7892541,12.862536 80.8896918,12.8929333 C80.98371,12.9233848 81.0697066,12.9726715 81.1418328,13.0374409 C81.2158148,13.1090241 81.2736695,13.1941174 81.3118814,13.2875503 C81.3584938,13.4027147 81.3804213,13.5255303 81.3763826,13.6488195 L81.3763826,25.8263676 L81.3939738,25.8263676 Z M105.435326,25.4706564 C105.484251,25.586334 105.515831,25.7079395 105.529146,25.8319256 C105.536825,25.9104636 105.506654,25.9880854 105.447053,26.043129 C105.361123,26.0960612 105.262057,26.1267224 105.15973,26.1320568 C104.981984,26.1408597 104.803875,26.1408597 104.626129,26.1320568 C104.403307,26.1320568 104.227395,26.1320568 104.092529,26.1320568 C103.989005,26.128222 103.886475,26.1114016 103.787614,26.0820349 C103.727401,26.0638542 103.674305,26.029012 103.635156,25.9819911 C103.597663,25.9337153 103.566181,25.8814944 103.541337,25.8263676 L102.368588,22.6027355 L96.5576169,22.6027355 L95.384868,25.7874616 C95.3668702,25.8450396 95.3391467,25.8994725 95.3027756,25.9486432 C95.2601453,25.9971696 95.2058513,26.0352903 95.1444545,26.0598029 C95.0511581,26.0968717 94.9521508,26.1193945 94.8512673,26.1264988 C94.6872117,26.1352322 94.5227683,26.1352322 94.3587128,26.1264988 C94.188847,26.1370695 94.0184327,26.1370695 93.848567,26.1264988 C93.7461206,26.121401 93.6478293,26.0864637 93.5671073,26.026455 C93.5089033,25.9708409 93.4808101,25.8930043 93.4908786,25.8152516 C93.502527,25.6909974 93.5341665,25.5691643 93.5846985,25.4539824 L98.2756941,13.1486007 C98.3000943,13.0812633 98.3379169,13.0189968 98.3871052,12.9651871 C98.4431522,12.91061 98.5142746,12.8720878 98.5923363,12.8540274 C98.704648,12.8205539 98.8208051,12.8000268 98.9382972,12.7928895 C99.079027,12.7928895 99.2549394,12.7928895 99.4718979,12.7928895 C99.6888565,12.7928895 99.8940875,12.7928895 100.058272,12.7928895 C100.181526,12.8000076 100.30351,12.8205213 100.421825,12.8540274 C100.503824,12.8739147 100.578727,12.9142106 100.638783,12.9707451 C100.691829,13.0249578 100.731841,13.08943 100.756058,13.1597167 L105.447053,25.4706564 L105.435326,25.4706564 Z M99.4073967,14.6047931 L97.014989,21.2076808 L101.870169,21.2076808 L99.4073967,14.6047931 Z M93.2387376,22.2970462 C93.243303,22.6860732 93.1879928,23.0736521 93.0745527,23.4475494 C92.9695208,23.7849195 92.8113734,24.1053329 92.6054532,24.397965 C92.4036186,24.6775765 92.1585008,24.9267761 91.8783489,25.1371772 C91.585304,25.3621594 91.2618992,25.5490749 90.9166948,25.6929758 C90.5397763,25.8417947 90.1463839,25.9499297 89.7439459,26.015339 C89.2812554,26.0915722 88.8120972,26.1269245 88.342511,26.1209408 L84.7011257,26.1209408 C84.5309622,26.119355 84.3660926,26.0646595 84.2320261,25.9653172 C84.0699186,25.8234156 83.9874272,25.6176525 84.0092039,25.4095186 L84.0092039,13.5598916 C83.9874272,13.3517577 84.0699186,13.1459946 84.2320261,13.004093 C84.3660926,12.9047507 84.5309622,12.8500552 84.7011257,12.8484694 L87.8792752,12.8484694 C88.5729336,12.8308158 89.2657675,12.9056541 89.9374495,13.0707888 C90.4261097,13.1995097 90.8813255,13.4228191 91.2743832,13.7266313 C91.630779,14.0109586 91.9085531,14.3734591 92.0835799,14.7826487 C92.2703497,15.2318898 92.3620025,15.7115836 92.3533122,16.1943772 C92.3542296,16.4979835 92.3148283,16.800492 92.2360373,17.094771 C92.1592551,17.3742187 92.0407855,17.6418482 91.8842126,17.889563 C91.7283103,18.1357544 91.5301263,18.3555389 91.2978382,18.5398474 C91.0554759,18.7360041 90.7825039,18.8953719 90.4886414,19.0122763 C90.8658095,19.0785613 91.2285472,19.2044419 91.5617067,19.3846613 C91.8900308,19.5662083 92.183474,19.7992461 92.4295409,20.0738517 C92.6840747,20.3668217 92.8825289,20.6997693 93.0159153,21.0576153 C93.163818,21.4556341 93.2372407,21.8750803 93.2328738,22.2970462 L93.2387376,22.2970462 Z M90.453459,16.3666747 C90.4566124,16.0705092 90.4090858,15.7758179 90.3127291,15.4940709 C90.2262865,15.2424396 90.0751539,15.0151463 89.8729483,14.8326705 C89.647637,14.6392201 89.3789912,14.4966991 89.0872065,14.4158216 C88.6687324,14.3092684 88.2362091,14.2605962 87.8030465,14.2713139 L85.8738746,14.2713139 L85.8738746,18.5676374 L87.9906863,18.5676374 C88.3901228,18.5817854 88.7885966,18.521354 89.1634352,18.3897818 C89.4404071,18.2783784 89.6899875,18.1137282 89.8964033,17.906237 C90.0898236,17.7008723 90.2338743,17.4581358 90.3185929,17.1948148 C90.4095174,16.9253659 90.4550321,16.644009 90.453459,16.3611168 L90.453459,16.3666747 Z M91.2919744,22.4026479 C91.2994233,22.0452514 91.2316473,21.6900318 91.0926071,21.3577465 C90.9633129,21.0651893 90.762298,20.8060641 90.5062327,20.6018604 C90.2235561,20.3843475 89.8959835,20.2253152 89.5445786,20.1349895 C89.0696565,20.0201956 88.5803397,19.9678309 88.09037,19.9793658 L85.8738746,19.9793658 L85.8738746,24.6536324 L88.571197,24.6536324 C88.9481386,24.6591146 89.3237783,24.6103917 89.6853085,24.5091247 C89.9914119,24.4192776 90.2761902,24.2739313 90.5238239,24.0811598 C90.7730916,23.8931866 90.9736696,23.6536365 91.1101984,23.3808535 C91.2523972,23.0746356 91.3224346,22.7427086 91.3154294,22.4082059 L91.2919744,22.4026479 Z M115.978338,25.8319256 C115.979067,25.8820781 115.966996,25.9316546 115.943156,25.9764331 C115.911931,26.0271604 115.861681,26.0648676 115.802426,26.0820349 C115.703541,26.1132322 115.601254,26.1337416 115.497511,26.1431728 C115.325631,26.1518953 115.153382,26.1518953 114.981502,26.1431728 C114.827225,26.1518349 114.672543,26.1518349 114.518266,26.1431728 C114.419623,26.1340582 114.322866,26.1115981 114.230943,26.076477 C114.165326,26.0482634 114.1087,26.004175 114.066758,25.9486432 C114.021591,25.8871143 113.986042,25.8197221 113.96121,25.7485557 L112.67705,22.6194094 C112.524593,22.2636983 112.366272,21.9357771 112.207951,21.6412038 C112.054454,21.3589501 111.856755,21.1003519 111.621576,20.8742017 C111.397625,20.659294 111.130431,20.489193 110.835835,20.3739829 C110.488037,20.2477147 110.117499,20.1872904 109.745178,20.1961273 L108.502064,20.1961273 L108.502064,25.8263676 C108.504234,25.8781932 108.487686,25.9291697 108.455154,25.9708752 C108.415307,26.0171848 108.362454,26.0518677 108.302697,26.070919 C108.211158,26.0997907 108.116906,26.1202639 108.021237,26.1320568 C107.723156,26.1643338 107.422166,26.1643338 107.124084,26.1320568 C107.028466,26.1200022 106.934239,26.0995346 106.842625,26.070919 C106.781342,26.0548509 106.727606,26.0195884 106.690167,25.9708752 C106.658444,25.9287869 106.641984,25.8780793 106.643257,25.8263676 L106.643257,13.5598916 C106.621481,13.3517577 106.703972,13.1459946 106.86608,13.004093 C107.000146,12.9047507 107.165016,12.8500552 107.335179,12.8484694 L110.308098,12.8484694 C110.659922,12.8484694 110.95311,12.8484694 111.187659,12.8484694 L111.820944,12.9040493 C112.315491,12.9812902 112.796762,13.121508 113.251697,13.3208982 C113.643536,13.4985493 113.995846,13.7457017 114.28958,14.0489944 C114.571868,14.341277 114.787462,14.6856475 114.922864,15.060548 C115.067921,15.4648615 115.139306,15.8896305 115.133959,16.3166529 C115.139919,16.7201469 115.076544,17.12187 114.946319,17.506062 C114.82492,17.8440269 114.640185,18.158458 114.400991,18.4342456 C114.155099,18.7078189 113.86637,18.9440034 113.544885,19.1345519 C113.194252,19.3399692 112.82058,19.5077424 112.430773,19.6347707 C112.65634,19.7274666 112.867443,19.8490201 113.058194,19.9960399 C113.253252,20.1521777 113.428397,20.3293818 113.580067,20.5240486 C113.754994,20.7486232 113.909938,20.986582 114.043303,21.2354708 C114.187942,21.5022542 114.332581,21.8023854 114.47722,22.1358646 L115.732061,25.0538075 C115.831745,25.2983588 115.896246,25.4706564 115.925565,25.5707002 C115.951511,25.6444221 115.967279,25.7210179 115.972475,25.7985775 L115.978338,25.8319256 Z M113.181332,16.5167404 C113.197071,16.0528299 113.068608,15.5947661 112.811916,15.1994977 C112.515623,14.8072358 112.077241,14.5321991 111.58053,14.4269376 C111.388471,14.3776691 111.192285,14.3441971 110.994156,14.3268938 C110.76547,14.3268938 110.472282,14.2935459 110.102867,14.2935459 L108.537247,14.2935459 L108.537247,18.739935 L110.349144,18.739935 C110.779892,18.7479963 111.209293,18.6917276 111.621576,18.5731953 C111.946775,18.4727703 112.247726,18.3121948 112.507002,18.1007665 C112.739696,17.9064374 112.920541,17.662647 113.034739,17.3893442 C113.146954,17.1050771 113.202622,16.8035608 113.198924,16.5000665 L113.181332,16.5167404 Z M130.35624,25.3650547 C130.364725,25.4723586 130.364725,25.580114 130.35624,25.6874179 C130.343275,25.7666251 130.317566,25.8434782 130.280011,25.9152953 C130.251938,25.9691756 130.209487,26.0151607 130.156873,26.0486869 C130.109683,26.0775794 130.054729,26.0930128 129.998551,26.0931509 L123.266973,26.0931509 C123.096809,26.0915651 122.93194,26.0368696 122.797873,25.9375273 C122.635766,25.7956257 122.553274,25.5898626 122.575051,25.3817286 L122.575051,13.5598916 C122.553274,13.3517577 122.635766,13.1459946 122.797873,13.004093 C122.93194,12.9047507 123.096809,12.8500552 123.266973,12.8484694 L129.898868,12.8484694 C130.01985,12.84515 130.130054,12.9140475 130.174464,13.020767 C130.205205,13.0964378 130.228753,13.17456 130.244829,13.2542024 C130.255901,13.3688277 130.255901,13.4841722 130.244829,13.5987975 C130.255059,13.7060332 130.255059,13.8139252 130.244829,13.9211608 C130.229265,13.9991119 130.205698,14.0754342 130.174464,14.1490382 C130.148095,14.2007975 130.107605,14.2449327 130.057189,14.2768719 C130.009999,14.3057643 129.955046,14.3211978 129.898868,14.3213358 L124.427994,14.3213358 L124.427994,18.4731516 L129.11899,18.4731516 C129.17537,18.4719208 129.230739,18.4874709 129.277311,18.5176155 C129.325457,18.5519305 129.365419,18.5954911 129.394586,18.6454491 C129.431917,18.7149562 129.455752,18.7902621 129.464951,18.8677686 C129.473438,18.9806378 129.473438,19.0939366 129.464951,19.2068057 C129.473663,19.3122461 129.473663,19.4181707 129.464951,19.523611 C129.455567,19.5993134 129.431724,19.6727646 129.394586,19.7403725 C129.367214,19.7885223 129.326715,19.8288294 129.277311,19.8570902 C129.228309,19.8805787 129.173875,19.8920443 129.11899,19.8904381 L124.427994,19.8904381 L124.427994,24.6258425 L129.975096,24.6258425 C130.031275,24.6259805 130.086228,24.6414139 130.133418,24.6703064 C130.184345,24.7033141 130.226496,24.747073 130.256556,24.7981401 C130.295139,24.8695603 130.320901,24.9465733 130.332785,25.0260175 C130.34185,25.1407218 130.34185,25.2559083 130.332785,25.3706127 L130.35624,25.3650547 Z M141.174848,25.4650984 C141.248204,25.5751345 141.30356,25.6950641 141.339033,25.8208096 C141.364278,25.8982305 141.336244,25.9823752 141.268668,26.032013 C141.176233,26.0957084 141.066175,26.1324132 140.952026,26.1376148 C140.756734,26.1484078 140.560944,26.1484078 140.365652,26.1376148 C140.136966,26.1376148 139.955189,26.1376148 139.826187,26.1376148 C139.72015,26.1306786 139.6156,26.110111 139.515409,26.076477 C139.450708,26.0564218 139.390896,26.0242957 139.339496,25.9819911 C139.296684,25.9383006 139.262874,25.8874031 139.239813,25.8319256 L136.132028,20.5629545 L132.989061,25.8319256 C132.95975,25.8898332 132.920071,25.942487 132.871786,25.9875491 C132.821897,26.0330924 132.761747,26.0673008 132.695874,26.0875929 C132.594652,26.115528 132.490372,26.1323128 132.385095,26.1376148 C132.256093,26.1376148 132.080181,26.1376148 131.869086,26.1376148 C131.673834,26.1496577 131.477963,26.1496577 131.282711,26.1376148 C131.179252,26.1324528 131.08041,26.0953681 131.001252,26.032013 C130.943922,25.9762198 130.92364,25.8950487 130.948478,25.8208096 C130.983866,25.6950357 131.039227,25.5750941 131.112663,25.4650984 L134.92996,19.3513134 L131.288575,13.4598479 C131.219835,13.3455906 131.164766,13.2244173 131.12439,13.0985788 C131.093611,13.0256569 131.112115,12.9423448 131.1713,12.8873754 C131.259043,12.8239897 131.365907,12.7889269 131.476215,12.7873315 C131.622809,12.7873315 131.816312,12.7873315 132.062589,12.7873315 C132.308867,12.7873315 132.45546,12.7873315 132.590326,12.7873315 C132.699439,12.7927424 132.807592,12.8095173 132.912832,12.8373534 C132.980135,12.8545678 133.041048,12.8892103 133.088745,12.9373972 L133.20602,13.0874628 L136.208257,18.0396287 L139.233949,13.1041367 C139.269131,13.0485569 139.304314,12.998535 139.339496,12.9540712 C139.381964,12.9079921 139.436609,12.8734614 139.497817,12.8540274 C139.58891,12.8257006 139.683546,12.8088817 139.779277,12.8040055 C139.902416,12.8040055 140.066601,12.8040055 140.277695,12.8040055 C140.459295,12.7932698 140.641424,12.7932698 140.823024,12.8040055 C140.932532,12.8096695 141.038171,12.8443298 141.127938,12.9040493 C141.19158,12.9562123 141.218797,13.0379058 141.198303,13.1152527 C141.168251,13.2426456 141.116774,13.3646268 141.045846,13.4765219 L137.422052,19.3235235 L141.198303,25.4373085 L141.174848,25.4650984 Z M151.242897,16.7335019 C151.253137,17.3476446 151.135576,17.9576789 150.896937,18.5287315 C150.67915,19.0462534 150.342657,19.5113853 149.911828,19.8904381 C149.456633,20.279012 148.921611,20.5742034 148.340344,20.757484 C147.620774,20.9764024 146.867647,21.0797236 146.112121,21.0631732 L144.511319,21.0631732 L144.511319,25.8263676 C144.513973,25.8782521 144.497376,25.9293798 144.464409,25.9708752 C144.424562,26.0171848 144.371708,26.0518677 144.311952,26.070919 C144.220413,26.0997907 144.12616,26.1202639 144.030492,26.1320568 C143.73241,26.1643338 143.431421,26.1643338 143.133339,26.1320568 C143.03772,26.1200022 142.943494,26.0995346 142.851879,26.070919 C142.790597,26.0548509 142.73686,26.0195884 142.699422,25.9708752 C142.667699,25.9287869 142.651238,25.8780793 142.652512,25.8263676 L142.652512,13.5987975 C142.639149,13.3907213 142.722741,13.1875596 142.881198,13.0429989 C143.022788,12.9313135 143.201275,12.87033 143.38548,12.8707013 L146.37599,12.8707013 C146.680904,12.8707013 146.962364,12.8707013 147.243824,12.9040493 C147.57314,12.9379232 147.900105,12.9898851 148.223069,13.0596729 C148.635156,13.1489949 149.030569,13.2970385 149.395818,13.4987538 C149.766303,13.7014882 150.09749,13.9627729 150.375063,14.2713139 C150.654766,14.6019825 150.867488,14.9788616 151.002484,15.3829111 C151.155114,15.8240558 151.230387,16.2859397 151.225306,16.7501758 L151.242897,16.7335019 Z M149.296134,16.8724515 C149.313393,16.4022848 149.204443,15.9356608 148.979492,15.5163029 C148.796058,15.1841645 148.522885,14.9041383 148.187887,14.7048369 C147.891345,14.535065 147.562695,14.4217875 147.220369,14.3713576 C146.896366,14.3237169 146.569002,14.2995622 146.241123,14.2991038 L144.511319,14.2991038 L144.511319,19.6236548 L146.18835,19.6236548 C146.662893,19.6365715 147.135911,19.5668695 147.583921,19.4180092 C147.935052,19.2985938 148.255009,19.1090483 148.52212,18.8622106 C148.782329,18.6174776 148.982523,18.3214603 149.108495,17.9951648 C149.241336,17.6382714 149.306837,17.2619936 149.301998,16.8835675 L149.296134,16.8724515 Z M164.694327,19.3235235 C164.707198,20.3018124 164.572937,21.2768488 164.295593,22.2192344 C164.065699,23.0188121 163.666702,23.765741 163.122844,24.414639 C162.583863,25.02103 161.90052,25.4972879 161.129171,25.8041355 C160.241261,26.1440349 159.2895,26.3085746 158.332165,26.2876804 C157.403415,26.3079051 156.479368,26.156894 155.611387,25.8430415 C154.874782,25.5670722 154.221975,25.1220947 153.711534,24.5480307 C153.18357,23.9306544 152.803431,23.2119167 152.597422,22.4415538 C152.337007,21.4984289 152.212736,20.5261847 152.228007,19.551401 C152.216391,18.5896295 152.350676,17.6312681 152.626741,16.705712 C152.854444,15.9120768 153.253819,15.1720115 153.79949,14.5325393 C154.342662,13.9307282 155.027641,13.4585379 155.799027,13.1541587 C156.682456,12.8119438 157.630095,12.6436447 158.584306,12.6594979 C159.500983,12.6405546 160.412889,12.7896466 161.2699,13.0985788 C162.01246,13.3704313 162.672997,13.8113695 163.193209,14.3824736 C163.729367,14.9916526 164.117718,15.7050838 164.330775,16.4722765 C164.592746,17.4000773 164.71902,18.3575897 164.706055,19.3179655 L164.694327,19.3235235 Z M162.724109,19.4457992 C162.728539,18.7442219 162.657812,18.0440309 162.513014,17.3559963 C162.392973,16.7635889 162.156249,16.1979234 161.815229,15.6886005 C161.489775,15.2157619 161.038811,14.8323996 160.507614,14.5770031 C159.874326,14.2931453 159.17894,14.1559863 158.478758,14.1768282 C157.774936,14.1521333 157.076251,14.2995134 156.449903,14.6047931 C155.916125,14.880223 155.459704,15.2728216 155.118833,15.7497383 C154.764029,16.2558754 154.51519,16.8219468 154.385865,17.4171341 C154.235035,18.0763055 154.160322,18.7490756 154.163042,19.4235672 C154.157568,20.1433238 154.226305,20.8618655 154.368273,21.56895 C154.482758,22.1750064 154.719695,22.7543903 155.066059,23.2752518 C155.384596,23.7495843 155.832305,24.133624 156.361946,24.3868491 C156.999922,24.6687028 157.699056,24.8039044 158.402529,24.781466 C159.111784,24.804103 159.815616,24.6569136 160.448976,24.3535012 C160.989678,24.0778038 161.449215,23.6785266 161.78591,23.191882 C162.132126,22.6826897 162.376605,22.1174925 162.507151,21.5244861 C162.652526,20.8552966 162.72328,20.1734754 162.718245,19.4902631 L162.724109,19.4457992 Z M175.86476,25.8374835 C175.865488,25.8876361 175.853418,25.9372126 175.829578,25.9819911 C175.798353,26.0327184 175.748103,26.0704256 175.688848,26.0875929 C175.589963,26.1187902 175.487676,26.1392995 175.383933,26.1487307 C175.212053,26.1574533 175.039804,26.1574533 174.867924,26.1487307 C174.713647,26.1573928 174.558965,26.1573928 174.404688,26.1487307 C174.306045,26.1396162 174.209288,26.1171561 174.117365,26.0820349 C174.051748,26.0538214 173.995122,26.0097329 173.95318,25.9542012 C173.908013,25.8926722 173.872464,25.8252801 173.847632,25.7541137 L172.563472,22.6249674 C172.411015,22.2692563 172.252694,21.941335 172.094373,21.6467618 C171.940876,21.3645081 171.743177,21.1059099 171.507998,20.8797597 C171.284047,20.664852 171.016853,20.494751 170.722256,20.3795409 C170.374458,20.2532727 170.003921,20.1928483 169.6316,20.2016853 L168.388486,20.2016853 L168.388486,25.8263676 C168.390655,25.8781932 168.374107,25.9291697 168.341576,25.9708752 C168.301729,26.0171848 168.248876,26.0518677 168.189119,26.070919 C168.09758,26.0997907 168.003327,26.1202639 167.907659,26.1320568 C167.609578,26.1643338 167.308588,26.1643338 167.010506,26.1320568 C166.914888,26.1200022 166.820661,26.0995346 166.729047,26.070919 C166.667764,26.0548509 166.614028,26.0195884 166.576589,25.9708752 C166.544866,25.9287869 166.528406,25.8780793 166.529679,25.8263676 L166.529679,13.5598916 C166.507903,13.3517577 166.590394,13.1459946 166.752502,13.004093 C166.886568,12.9047507 167.051438,12.8500552 167.221601,12.8484694 L170.19452,12.8484694 C170.546344,12.8484694 170.839531,12.8484694 171.074081,12.8484694 L171.707366,12.9040493 C172.201913,12.9812902 172.683183,13.121508 173.138119,13.3208982 C173.529958,13.4985493 173.882268,13.7457017 174.176002,14.0489944 C174.45829,14.341277 174.673884,14.6856475 174.809286,15.060548 C174.954455,15.4648353 175.025842,15.8896226 175.020381,16.3166529 C175.026341,16.7201469 174.962965,17.12187 174.832741,17.506062 C174.711342,17.8440269 174.526607,18.158458 174.287413,18.4342456 C174.041521,18.7078189 173.752791,18.9440034 173.431306,19.1345519 C173.080651,19.3399287 172.706983,19.5076998 172.317195,19.6347707 C172.542762,19.7274666 172.753865,19.8490201 172.944616,19.9960399 C173.139674,20.1521777 173.314819,20.3293818 173.466489,20.5240486 C173.641416,20.7486232 173.79636,20.986582 173.929725,21.2354708 C174.074364,21.5022542 174.219003,21.8023854 174.363642,22.1358646 L175.618483,25.0538075 C175.718167,25.2983588 175.782668,25.4706564 175.811987,25.5707002 C175.837933,25.6444221 175.853701,25.7210179 175.858897,25.7985775 L175.86476,25.8374835 Z M173.067754,16.5222984 C173.083492,16.0583879 172.95503,15.6003242 172.698338,15.2050557 C172.402045,14.8127938 171.963663,14.537757 171.466952,14.4324956 C171.274893,14.3832271 171.078707,14.3497551 170.880578,14.3324517 C170.651892,14.3324517 170.358704,14.2991038 169.989288,14.2991038 L168.423669,14.2991038 L168.423669,18.745493 L170.235566,18.745493 C170.666314,18.7535543 171.095715,18.6972856 171.507998,18.5787533 C171.833197,18.4783283 172.134148,18.3177528 172.393424,18.1063245 C172.626118,17.9119954 172.806963,17.6682049 172.921161,17.3949022 C173.033245,17.1106013 173.088909,16.8091084 173.085346,16.5056244 L173.067754,16.5222984 Z M185.997311,13.6099135 C186.005658,13.7209325 186.005658,13.8323738 185.997311,13.9433927 C185.987274,14.02251 185.963498,14.0995086 185.926946,14.1712702 C185.901075,14.2233393 185.86048,14.2675898 185.809671,14.2991038 C185.764298,14.327267 185.711442,14.3426823 185.657214,14.3435677 L181.734369,14.3435677 L181.734369,25.8263676 C181.734834,25.8779703 181.718449,25.9284465 181.687459,25.9708752 C181.65002,26.0195884 181.596283,26.0548509 181.535001,26.070919 C181.443387,26.0995346 181.34916,26.1200022 181.253541,26.1320568 C181.103242,26.1425323 180.952333,26.1425323 180.802033,26.1320568 C180.655632,26.1421291 180.508653,26.1421291 180.362252,26.1320568 C180.262701,26.1205256 180.164531,26.1000543 180.069065,26.070919 C180.007783,26.0548509 179.954046,26.0195884 179.916608,25.9708752 C179.885617,25.9284465 179.869232,25.8779703 179.869698,25.8263676 L179.869698,14.3324517 L175.940989,14.3324517 C175.886761,14.3315664 175.833905,14.316151 175.788532,14.2879879 C175.736357,14.257984 175.69536,14.2132959 175.671257,14.1601542 C175.639729,14.086647 175.616153,14.0102966 175.600892,13.9322768 C175.590337,13.8213421 175.590337,13.7097322 175.600892,13.5987975 C175.590229,13.4841548 175.590229,13.3688452 175.600892,13.2542024 C175.61545,13.1724216 175.639034,13.0923173 175.671257,13.015209 C175.693562,12.9595936 175.734841,12.9126417 175.788532,12.8818173 C175.833905,12.8536542 175.886761,12.8382388 175.940989,12.8373534 L185.65135,12.8373534 C185.705578,12.8382388 185.758434,12.8536542 185.803807,12.8818173 C185.856399,12.9138365 185.897339,12.9604025 185.921082,13.015209 C185.958471,13.0905836 185.982256,13.171369 185.991447,13.2542024 C185.999843,13.3689297 185.999843,13.4840704 185.991447,13.5987975 L185.997311,13.6099135 Z M201.15509,22.2970462 C201.159656,22.6860732 201.104345,23.0736521 200.990905,23.4475494 C200.885789,23.7848894 200.727648,24.1052911 200.521806,24.397965 C200.319971,24.6775765 200.074853,24.9267761 199.794701,25.1371772 C199.501657,25.3621594 199.178252,25.5490749 198.833047,25.6929758 C198.456129,25.8417947 198.062736,25.9499297 197.660298,26.015339 C197.197608,26.0915722 196.72845,26.1269245 196.258863,26.1209408 L192.605751,26.1209408 C192.435587,26.119355 192.270718,26.0646595 192.136651,25.9653172 C191.974544,25.8234156 191.892052,25.6176525 191.913829,25.4095186 L191.913829,13.5598916 C191.892052,13.3517577 191.974544,13.1459946 192.136651,13.004093 C192.270718,12.9047507 192.435587,12.8500552 192.605751,12.8484694 L195.7839,12.8484694 C196.477559,12.8308158 197.170393,12.9056541 197.842074,13.0707888 C198.330735,13.1995097 198.785951,13.4228191 199.179008,13.7266313 C199.535404,14.0109586 199.813178,14.3734591 199.988205,14.7826487 C200.174975,15.2318898 200.266628,15.7115836 200.257937,16.1943772 C200.258793,16.49798 200.219392,16.8004812 200.140662,17.094771 C200.06388,17.3742187 199.945411,17.6418482 199.788838,17.889563 C199.632935,18.1357544 199.434751,18.3555389 199.202463,18.5398474 C198.960101,18.7360041 198.687129,18.8953719 198.393266,19.0122763 C198.770434,19.0785613 199.133172,19.2044419 199.466332,19.3846613 C199.794656,19.5662083 200.088099,19.7992461 200.334166,20.0738517 C200.5887,20.3668217 200.787154,20.6997693 200.92054,21.0576153 C201.068443,21.4556341 201.141866,21.8750803 201.137499,22.2970462 L201.15509,22.2970462 Z M198.369811,16.3666747 C198.372965,16.0705092 198.325438,15.7758179 198.229082,15.4940709 C198.142639,15.2424396 197.991506,15.0151463 197.789301,14.8326705 C197.563989,14.6392201 197.295344,14.4966991 197.003559,14.4158216 C196.585085,14.3092684 196.152562,14.2605962 195.719399,14.2713139 L193.766772,14.2713139 L193.766772,18.5676374 L195.883584,18.5676374 C196.28302,18.5817854 196.681494,18.521354 197.056333,18.3897818 C197.333305,18.2783784 197.582885,18.1137282 197.789301,17.906237 C197.982569,17.7007691 198.1266,17.458066 198.21149,17.1948148 C198.302415,16.9253659 198.34793,16.644009 198.346357,16.3611168 L198.369811,16.3666747 Z M199.208327,22.4026479 C199.215776,22.0452514 199.148,21.6900318 199.00896,21.3577465 C198.879665,21.0651893 198.67865,20.8060641 198.422585,20.6018604 C198.140004,20.3842089 197.812399,20.2251609 197.460931,20.1349895 C196.986009,20.0201956 196.496692,19.9678309 196.006722,19.9793658 L193.766772,19.9793658 L193.766772,24.6536324 L196.464095,24.6536324 C196.841036,24.6591146 197.216676,24.6103917 197.578206,24.5091247 C197.884309,24.4192776 198.169088,24.2739313 198.416721,24.0811598 C198.665989,23.8931866 198.866567,23.6536365 199.003096,23.3808535 C199.145295,23.0746356 199.215332,22.7427086 199.208327,22.4082059 L199.208327,22.4026479 Z M211.985426,25.8096936 C211.985316,25.8621962 211.971196,25.9138194 211.94438,25.9597592 C211.910881,26.0108511 211.85869,26.0484478 211.797786,26.065361 C211.702469,26.0962235 211.604311,26.118553 211.504599,26.1320568 C211.346479,26.1427516 211.187756,26.1427516 211.029636,26.1320568 C210.833635,26.1325631 210.637792,26.1214252 210.443261,26.0987089 C210.219875,26.091487 210.014205,25.9815707 209.892069,25.8041355 L204.731974,19.2012478 L204.731974,25.8263676 C204.730577,25.8759668 204.714306,25.9241632 204.685064,25.9653172 C204.647306,26.0137191 204.593694,26.0488999 204.532607,26.065361 C204.440992,26.0939766 204.346766,26.1144442 204.251147,26.1264988 C204.100846,26.1369543 203.949939,26.1369543 203.799639,26.1264988 C203.653237,26.1365516 203.50626,26.1365516 203.359858,26.1264988 C203.260301,26.1150008 203.162127,26.0945289 203.066671,26.065361 C203.005584,26.0488999 202.951971,26.0137191 202.914213,25.9653172 C202.884972,25.9241632 202.868701,25.8759668 202.867303,25.8263676 L202.867303,13.1096947 C202.86603,13.057983 202.88249,13.0072754 202.914213,12.9651871 C202.951652,12.9164739 203.005389,12.8812114 203.066671,12.8651433 C203.162136,12.836008 203.260307,12.8155367 203.359858,12.8040055 C203.50626,12.7939527 203.653237,12.7939527 203.799639,12.8040055 C203.949939,12.79355 204.100846,12.79355 204.251147,12.8040055 C204.34676,12.8160917 204.440983,12.8365587 204.532607,12.8651433 C204.593889,12.8812114 204.647626,12.9164739 204.685064,12.9651871 C204.716787,13.0072754 204.733248,13.057983 204.731974,13.1096947 L204.731974,18.9956023 L209.675111,13.1096947 C209.715866,13.0497162 209.767478,12.9970324 209.827568,12.9540712 C209.890468,12.9081326 209.96215,12.8741606 210.038663,12.8540274 C210.138374,12.827018 210.24041,12.808419 210.343578,12.7984475 C210.497854,12.7897593 210.652538,12.7897593 210.806813,12.7984475 C210.957113,12.787952 211.108023,12.787952 211.258322,12.7984475 C211.35038,12.8119801 211.440753,12.8343263 211.528054,12.8651433 C211.636973,12.8989378 211.710423,12.9955087 211.70983,13.1041367 C211.707651,13.1969247 211.683609,13.2880763 211.639465,13.3709201 C211.562766,13.5018914 211.474494,13.6264655 211.375597,13.7433052 L206.743239,18.9956023 L211.727421,25.2816848 C211.815417,25.3940174 211.890139,25.5151659 211.950244,25.642954 C211.972971,25.6923006 211.986844,25.7448987 211.99129,25.7985775 L211.985426,25.8096936 Z M226.281235,25.7096498 C226.256826,25.7954911 226.212783,25.875188 226.152233,25.9430852 C226.08563,26.0065279 226.002789,26.0524915 225.911819,26.076477 C225.791548,26.1111566 225.667702,26.1335163 225.542403,26.1431728 C225.39581,26.1431728 225.214033,26.1431728 224.997075,26.1431728 C224.780116,26.1431728 224.586613,26.1431728 224.410701,26.1431728 C224.281548,26.1335907 224.153806,26.1112373 224.029557,26.076477 C223.943495,26.052826 223.866247,26.0065817 223.806735,25.9430852 C223.750218,25.874272 223.710198,25.7946125 223.68946,25.7096498 L220.757588,15.7052744 L218.054402,25.7096498 C218.040992,25.7947725 218.004638,25.8751758 217.948854,25.9430852 C217.892551,26.0048691 217.819583,26.050978 217.737759,26.076477 C217.619568,26.1114502 217.49763,26.1338204 217.374207,26.1431728 C217.225659,26.1431728 217.030201,26.1431728 216.787833,26.1431728 C216.545465,26.1431728 216.350007,26.1431728 216.201458,26.1431728 C216.070279,26.1343626 215.940507,26.111998 215.814451,26.076477 C215.725146,26.05257 215.644182,26.0065245 215.579901,25.9430852 C215.522466,25.8754961 215.484126,25.7951624 215.46849,25.7096498 L211.774331,13.4820799 C211.739362,13.3620421 211.715813,13.2392753 211.703966,13.1152527 C211.69484,13.0370336 211.727907,12.9597207 211.791922,12.9096073 C211.879552,12.8557446 211.980769,12.8250441 212.08511,12.8206795 C212.268723,12.8118822 212.452688,12.8118822 212.636302,12.8206795 C212.859124,12.8206795 213.035036,12.8206795 213.164039,12.8206795 C213.26641,12.8266123 213.36724,12.847226 213.46309,12.8818173 C213.523044,12.9008366 213.573271,12.9405107 213.60382,12.9929771 C213.632735,13.0510636 213.652492,13.1128611 213.662457,13.1763906 L216.805424,24.2923633 L219.784206,13.2097385 C219.802814,13.1436419 219.83041,13.080119 219.866299,13.020767 C219.902817,12.9675585 219.956194,12.9266948 220.018756,12.9040493 C220.119709,12.8730686 220.223912,12.8525693 220.329534,12.8429114 C220.503372,12.8342528 220.67757,12.8342528 220.851408,12.8429114 C221.011546,12.8340057 221.172097,12.8340057 221.332235,12.8429114 C221.430116,12.8530641 221.526491,12.873571 221.619558,12.9040493 C221.684491,12.9253007 221.740165,12.966345 221.777879,13.020767 C221.812168,13.0808503 221.839684,13.1441903 221.859972,13.2097385 L225.06744,24.2923633 L228.140042,13.1763906 C228.140042,13.1096947 228.186952,13.0485569 228.204543,12.998535 C228.231016,12.9439566 228.279664,12.9018552 228.339409,12.8818173 C228.434221,12.8504425 228.532647,12.8299178 228.632597,12.8206795 C228.798609,12.8119809 228.965002,12.8119809 229.131015,12.8206795 C229.300866,12.8096942 229.471309,12.8096942 229.641161,12.8206795 C229.741122,12.8288063 229.836641,12.8634806 229.916757,12.9207233 C229.976146,12.9735838 230.006445,13.0494837 229.998849,13.1263687 C229.988289,13.249784 229.968696,13.3723548 229.940212,13.4931958 L226.234325,25.7207658 L226.281235,25.7096498 Z"/>
  </g>
</svg>
