<svg xmlns="http://www.w3.org/2000/svg" width="338" height="112" viewBox="0 0 338 112">
  <g fill="none" fill-rule="evenodd" transform="translate(79 40)">
    <rect width="180" height="33"/>
    <polygon fill="#000" fill-rule="nonzero" points="119.472 7.835 119.472 18.624 118.117 18.624 118.117 7.835 112.283 7.835 112.283 6.621 125.285 6.621 125.285 7.835"/>
    <polygon fill="#000" fill-rule="nonzero" points="129.949 18.624 129.949 6.621 142.211 6.621 142.211 7.835 131.289 7.835 131.289 11.912 141.761 11.912 141.761 13.11 131.289 13.11 131.289 17.431 142.211 17.431 142.211 18.624"/>
    <path fill="#000" fill-rule="nonzero" d="M156.589412,18.7248387 L150.352941,18.7248387 C148.171765,18.7248387 146.88,17.3409677 146.88,14.9404839 L146.88,10.3045161 C146.88,6.91403226 148.960588,6.53612903 151.867059,6.53612903 L157.335882,6.53612903 C159.829412,6.53612903 160.586471,7.60064516 160.586471,9.99580645 L160.586471,10.2406452 L159.247059,10.2406452 L159.247059,10.0330645 C159.247059,8.35645161 158.887059,7.73370968 157.129412,7.73370968 L152.020588,7.73370968 C149.214706,7.73370968 148.235294,8.07967742 148.235294,10.2566129 L148.235294,13.5619355 C148.235294,16.2924194 148.341176,17.5219355 150.591176,17.5219355 L156.557647,17.5219355 C158.722941,17.5219355 159.395294,17.2291935 159.395294,15.5153226 L159.395294,14.8766129 L160.734706,14.8766129 L160.734706,15.6696774 C160.734706,18.4214516 158.998235,18.7301613 156.605294,18.7301613"/>
    <polygon fill="#000" fill-rule="nonzero" points="178.242 18.624 178.242 13.11 167.061 13.11 167.061 18.624 165.722 18.624 165.722 6.621 167.061 6.621 167.061 11.912 178.242 11.912 178.242 6.621 179.582 6.621 179.582 18.624"/>
    <path fill="#000" fill-rule="nonzero" d="M38.0276471,13.5566129 L32.4529412,13.5566129 L32.4529412,15.9091935 L37.9588235,15.9091935 C38.9911765,15.9091935 39.42,15.6643548 39.42,14.7009677 C39.42,13.7375806 39.06,13.5619355 38.0276471,13.5619355 M38.2341176,9.17080645 L32.4529412,9.17080645 L32.4529412,11.3477419 L37.8529412,11.3477419 C38.9541176,11.3477419 39.2294118,11.156129 39.2294118,10.1874194 C39.2294118,9.47951613 39.1288235,9.16548387 38.2341176,9.16548387 M38.7158824,18.5385484 L29.2711765,18.5385484 L29.2711765,6.53612903 L38.6470588,6.53612903 C41.0188235,6.53612903 42.4111765,6.98854839 42.4111765,9.61258065 C42.4111765,11.1348387 42.12,12.1195161 40.5370588,12.3803226 L40.5370588,12.5027419 C42.3105882,12.6251613 42.6017647,13.695 42.6017647,15.2012903 C42.6017647,18.1393548 41.2411765,18.5385484 38.7158824,18.5385484"/>
    <rect width="3.182" height="11.997" x="47.843" y="6.536" fill="#000" fill-rule="nonzero"/>
    <polygon fill="#000" fill-rule="nonzero" points="61.158 15.664 61.158 15.755 69.189 15.755 69.189 18.539 55.821 18.539 55.821 15.84 64.149 9.426 64.149 9.32 56.202 9.32 56.202 6.536 69.205 6.536 69.205 9.235"/>
    <path fill="#000" fill-rule="nonzero" d="M84.9229412,11.1774194 C84.9229412,9.39435484 84.0811765,9.22403226 83.0117647,9.22403226 L79.0570588,9.22403226 C77.9029412,9.22403226 77.1670588,9.39435484 77.1670588,11.1774194 L77.1670588,13.8759677 C77.1670588,15.6590323 77.9082353,15.8453226 79.0570588,15.8453226 L83.0117647,15.8453226 C84.1658824,15.8453226 84.9229412,15.6537097 84.9229412,13.8759677 L84.9229412,11.1774194 Z M83.0117647,18.6290323 L79.0570588,18.6290323 C76.3041176,18.6290323 73.8952941,17.921129 73.8952941,14.2219355 L73.8952941,10.8420968 C73.8952941,7.11629032 76.32,6.45096774 79.0570588,6.45096774 L83.0117647,6.45096774 C85.6588235,6.45096774 88.1894118,7.14290323 88.1894118,10.8420968 L88.1894118,14.2325806 C88.1894118,17.9583871 85.7647059,18.6396774 83.0117647,18.6396774 L83.0117647,18.6290323 Z"/>
    <polygon fill="#000" fill-rule="nonzero" points="104.146 18.539 96.718 9.565 96.718 18.539 93.536 18.539 93.536 6.536 98.126 6.536 104.696 14.749 104.696 6.536 107.878 6.536 107.878 18.539"/>
    <path fill="#FFCC0C" fill-rule="nonzero" d="M24.9723529,0 C24.8066143,3.05414746 22.2970364,5.44639191 19.2547059,5.45032258 L5.71764706,5.45032258 C2.67531658,5.44639191 0.16573862,3.05414746 0,0 L1.09058824,7.3344892e-16 C1.25466656,2.44938313 3.27584976,4.35355792 5.71764706,4.35919355 L19.2494118,4.35919355 C21.6922384,4.35616899 23.7149171,2.45058528 23.8764706,0 L24.9723529,0 Z M16.2794118,2.18225806 L8.69294118,2.18225806 L8.69294118,3.24677419 L16.2794118,3.24677419 L16.2794118,2.18225806 Z M13.0288235,27.2516129 L11.97,27.2516129 L11.97,32.7019355 L13.0288235,32.7019355 L13.0288235,27.2516129 Z M10.8582353,27.2516129 L9.79941176,27.2516129 L9.79941176,30.5196774 L10.8582353,30.5196774 L10.8582353,27.2516129 Z M15.1941176,27.2516129 L14.1352941,27.2516129 L14.1352941,30.5196774 L15.1941176,30.5196774 L15.1941176,27.2516129 Z M19.5352941,7.63258065 L19.5352941,6.56806452 L5.43705882,6.56806452 L5.43705882,7.63258065 L11.9435294,7.63258065 L11.9435294,25.0693548 L9.77294118,25.0693548 L9.77294118,26.133871 L15.1941176,26.133871 L15.1941176,25.0693548 L13.0235294,25.0693548 L13.0235294,7.63258065 L19.5352941,7.63258065 Z M16.2794118,13.1201613 L18.4870588,10.9006452 L17.7247059,10.1129032 L15.1941176,12.6677419 L15.1941176,21.8225806 L16.2529412,21.8225806 L16.2794118,13.1201613 Z M8.68764706,21.8225806 L9.74647059,21.8225806 L9.74647059,12.6677419 L7.24764706,10.1129032 L6.48,10.8846774 L8.68764706,13.1041935 L8.68764706,21.8225806 Z"/>
  </g>
</svg>
