<svg xmlns="http://www.w3.org/2000/svg" width="338" height="112" viewBox="0 0 338 112">
  <g fill="none" fill-rule="evenodd" transform="translate(88 38)">
    <rect width="162" height="37"/>
    <path fill="#F60" fill-rule="nonzero" d="M60.6166667,25.2508182 L48.5333333,25.2508182 L48.5333333,22.3681818 C48.7408443,22.3009863 48.9104185,22.1482044 49,21.9477273 C49.0891684,21.7257031 49.1322783,21.4875881 49.1266667,21.2480909 L49.1266667,12.6775455 C49.1311084,12.5413232 49.1221759,12.4049918 49.1,12.2705455 C49.0449726,12.0150166 48.8765812,11.7992029 48.6433333,11.6852727 L48.6433333,8.67481818 L54.8633333,8.67481818 L54.8633333,11.6852727 C54.6347404,11.7712277 54.4594511,11.960567 54.39,12.1965455 C54.2962011,12.4839872 54.2511243,12.7853361 54.2566667,13.0879091 L54.2566667,21.756 C54.6744464,21.7979658 55.0954115,21.7186091 55.47,21.5272727 C55.7566667,21.3232121 55.9,20.889303 55.9,20.2255455 L55.9,17.1982727 L60.6266667,17.1982727 L60.6266667,25.271 L60.6166667,25.2508182 Z M75.0266667,25.2508182 L68.5066667,25.2508182 L68.5066667,22.3681818 C68.741658,22.2241445 68.926776,22.0103221 69.0366667,21.756 C69.1143779,21.4656721 69.1480931,21.1651471 69.1366667,20.8646364 L66.5566667,20.8646364 C66.546546,21.1617711 66.5802475,21.4587736 66.6566667,21.7459091 C66.7580478,22.0019096 66.9349137,22.2203052 67.1633333,22.3715455 L67.1633333,25.2541818 L61.5766667,25.2541818 L61.5766667,22.2 C61.7672139,21.9996449 61.9288054,21.773172 62.0566667,21.5272727 C62.1913823,21.2042702 62.2843674,20.8651241 62.3333333,20.5181818 L64.0533333,10.6761818 L64.4333333,8.658 L71.84,8.658 L73.6666667,18.5706364 L74.0966667,20.7132727 C74.1699977,21.3723644 74.5087099,21.9720197 75.0333333,22.3715455 L75.0333333,25.2541818 L75.0266667,25.2508182 Z M68.5066667,17.6523636 L67.7733333,12.7549091 L67,17.6523636 L68.5066667,17.6523636 Z M89.7666667,11.5574545 C89.5328828,11.7131197 89.3551739,11.9408145 89.26,12.2066364 C89.1811412,12.5448017 89.1475091,12.8920996 89.16,13.2392727 L89.16,25.2508182 L84.2033333,25.2508182 L81.0166667,17.8037273 L81.0166667,20.3802727 C81.0067422,20.7440465 81.0403178,21.1077009 81.1166667,21.4633636 C81.187032,21.7300438 81.3733359,21.9501989 81.6233333,22.0620909 L81.6233333,25.2508182 L76.49,25.2508182 L76.49,22.2 C76.7140115,22.103372 76.8953623,21.927549 77,21.7055455 C77.081147,21.4676575 77.1195277,21.2170544 77.1133333,20.9655455 L77.1133333,12.7818182 C77.1199755,12.5346758 77.0815599,12.2884052 77,12.0552727 C76.9001129,11.834951 76.7250035,11.6582497 76.5066667,11.5574545 L76.5066667,8.67481818 L82.07,8.67481818 L84.9366667,16.1454545 L84.9366667,12.6270909 C84.9387464,12.4239315 84.9083565,12.2217622 84.8466667,12.0283636 C84.7834998,11.8419208 84.6676227,11.6782181 84.5133333,11.5574545 L84.5133333,8.67481818 L89.7666667,8.67481818 L89.7666667,11.5574545 Z M104.783333,20.0741818 C104.783333,21.5878182 104.471111,22.7527576 103.846667,23.569 C102.986667,24.6902121 101.542222,25.2508182 99.5133333,25.2508182 L91.6133333,25.2508182 L91.6133333,22.2 C91.8951563,22.1280377 92.1358321,21.9434613 92.28,21.6887273 C92.3829527,21.3629954 92.4258838,21.0209838 92.4066667,20.6796364 L92.4066667,13.0879091 C92.407682,12.7850947 92.3475716,12.4852438 92.23,12.2066364 C92.1280426,11.9405915 91.8998515,11.7444861 91.6233333,11.6852727 L91.6233333,8.67481818 L99.3333333,8.67481818 C100.888889,8.67481818 102.076667,8.92933333 102.896667,9.43836364 C104.161111,10.2209697 104.793333,11.5899697 104.793333,13.5453636 L104.793333,20.0741818 L104.783333,20.0741818 Z M99.5,20.3802727 L99.5,13.5453636 C99.5,13.0520303 99.3611111,12.7291212 99.0833333,12.5766364 C98.6390658,12.3930283 98.1589601,12.3147766 97.68,12.3479091 L97.68,21.7660909 L98.16,21.8434545 C98.54217,21.8765755 98.9180957,21.7298423 99.1787009,21.44583 C99.4393062,21.1618176 99.5554133,20.7723247 99.4933333,20.3903636 L99.5,20.3802727 Z M118.166667,14.4400909 L113.666667,14.4400909 L113.666667,13.3906364 C113.666667,12.7963939 113.434444,12.4600303 112.97,12.3815455 L112,12.1931818 L112,15.355 L115.186667,15.355 L115.186667,18.5672727 L112,18.5672727 L112,20.7099091 C111.993388,21.0005644 112.014597,21.2911851 112.063333,21.5777273 C112.130513,21.8246254 112.26713,22.0466008 112.456667,22.2168182 L112.456667,25.2440909 L106.25,25.2440909 L106.25,22.2 C106.685677,21.8992084 106.927556,21.3853618 106.883333,20.8545455 L106.883333,12.9331818 C106.895226,12.6427103 106.819691,12.3554111 106.666667,12.1090909 C106.524511,11.9082938 106.32062,11.7604891 106.086667,11.6886364 L106.086667,8.67481818 L118.17,8.67481818 L118.17,14.4367273 L118.166667,14.4400909 Z M131.5,20.7132727 C131.5,22.3614545 131.062222,23.5600303 130.186667,24.309 C129.226667,25.1252424 127.642222,25.5333636 125.433333,25.5333636 C123.224444,25.5333636 121.621111,25.0949697 120.623333,24.2181818 C119.621111,23.3436364 119.12,22.0127576 119.12,20.2255455 L119.12,13.3906364 C119.12,11.6908788 119.63,10.4283939 120.65,9.60318182 C121.67,8.7779697 123.275556,8.36536364 125.466667,8.36536364 C127.624444,8.36536364 129.18,8.75218182 130.133333,9.52581818 C131.086667,10.2994545 131.558889,11.5327879 131.55,13.2258182 L131.55,20.7099091 L131.5,20.7132727 Z M126.343333,20.3769091 L126.343333,13.3906364 C126.350662,13.1100485 126.341758,12.8292683 126.316667,12.5497273 C126.232222,12.1752424 125.937778,11.988 125.433333,11.988 C124.742222,11.988 124.396667,12.4555455 124.396667,13.3906364 L124.396667,20.3802727 C124.354701,20.8189111 124.461656,21.2589235 124.7,21.6281818 C124.888778,21.8302606 125.159322,21.9332574 125.433333,21.9073636 C125.733375,21.9478693 126.02687,21.7964372 126.17,21.5272727 C126.323275,21.1702348 126.392857,20.7823278 126.373333,20.3937273 L126.343333,20.3769091 Z M146.39,25.2474545 L140.81,25.2474545 C140.68751,24.7893501 140.615958,24.3189053 140.596667,23.8448182 C140.554444,23.2326364 140.533333,22.6462424 140.533333,22.0856364 L140.533333,20.2255455 C140.576888,19.7735465 140.372336,19.3336314 140,19.0785455 C139.639168,18.9075015 139.256672,18.7875214 138.863333,18.722 L138.863333,20.7099091 C138.8575,21.0779892 138.891027,21.4456306 138.963333,21.8064545 C139.001295,22.0812015 139.202492,22.3042624 139.47,22.3681818 L139.47,25.2508182 L133.136667,25.2508182 L133.136667,22.3681818 C133.393875,22.2039596 133.582452,21.9502374 133.666667,21.6550909 C133.74691,21.2352309 133.780451,20.8076433 133.766667,20.3802727 L133.766667,12.9331818 C133.773334,12.70232 133.730111,12.4727614 133.64,12.2604545 C133.534373,12.0540961 133.352287,11.8981577 133.133333,11.8265455 L133.133333,8.66472727 L140.666667,8.66472727 C142.066667,8.66472727 143.171111,8.85981818 143.98,9.25 C145.413333,9.94739394 146.13,11.2222121 146.13,13.0744545 C146.13,14.3324545 145.907778,15.2675455 145.463333,15.8797273 C145.013393,16.440099 144.405482,16.8494485 143.72,17.0536364 C144.546667,17.1904242 145.127778,17.4965152 145.463333,17.9719091 C145.758718,18.461796 145.899393,19.0307829 145.866667,19.6032727 L145.866667,20.8545455 C145.844597,21.2081411 145.887542,21.5628057 145.993333,21.9006364 C146.091453,22.0997269 146.25199,22.2605409 146.45,22.3580909 L146.45,25.2407273 L146.39,25.2474545 Z M140.776667,14.1810909 L140.776667,13.8447273 C140.71,13.1316364 140.55,12.6764242 140.296667,12.4790909 C140.043333,12.2817576 139.554444,12.1842121 138.83,12.1864545 L138.83,15.503 L139.183333,15.5299091 C139.540481,15.5504441 139.897002,15.4798799 140.22,15.3247273 C140.610879,15.0842262 140.828034,14.6367814 140.776667,14.1777273 L140.776667,14.1810909 Z M161.92,16.1454545 L158.153333,16.1454545 L158.153333,13.2392727 C158.166309,13.0739634 158.140026,12.9079151 158.076667,12.7549091 C157.922039,12.5296131 157.679528,12.3815601 157.41,12.3479091 L157.41,20.5181818 C157.403668,20.8930424 157.450818,21.2668724 157.55,21.6281818 C157.593524,21.8837649 157.763163,22.099326 158,22.2 L158,25.2272727 L151.666667,25.2272727 L151.666667,22.3681818 C151.884288,22.2857007 152.052532,22.1072523 152.123333,21.8838182 C152.214146,21.6039169 152.256982,21.310436 152.25,21.016 L152.25,12.3479091 C151.93,12.3479091 151.727778,12.4409697 151.643333,12.6270909 C151.549176,12.8700108 151.506043,13.1300166 151.516667,13.3906364 L151.516667,16.1454545 L147.736667,16.1454545 L147.736667,8.67481818 L161.92,8.67481818 L161.92,16.1454545 Z"/>
    <path fill="#240005" fill-rule="nonzero" d="M52.8233333,34.0467273 L51.3033333,29.8522727 C51.2818023,29.7892922 51.245157,29.732669 51.1966667,29.6874545 C51.1471626,29.649104 51.0856395,29.6300018 51.0233333,29.6336364 L50.3566667,29.6336364 C50.2933071,29.629787 50.2306647,29.6488699 50.18,29.6874545 C50.1299569,29.7313238 50.0930196,29.7883983 50.0733333,29.8522727 L48.5466667,34.0467273 C48.5339849,34.074137 48.5271701,34.1039361 48.5266667,34.1341818 C48.5251953,34.1631201 48.536123,34.1913001 48.5566667,34.2115455 C48.5866014,34.2362032 48.6248115,34.2482525 48.6633333,34.2451818 L49.3866667,34.2451818 C49.4284239,34.246643 49.4701248,34.2409565 49.51,34.2283636 C49.542632,34.216024 49.5706102,34.1936733 49.59,34.1644545 C49.6158986,34.1237282 49.63609,34.0795826 49.65,34.0332727 L49.8433333,33.4816364 L51.53,33.4816364 L51.7233333,34.0332727 C51.7372031,34.079598 51.7573969,34.1237491 51.7833333,34.1644545 C51.802886,34.193521 51.8308108,34.2158291 51.8633333,34.2283636 C51.9032085,34.2409565 51.9449094,34.246643 51.9866667,34.2451818 L52.71,34.2451818 C52.7485218,34.2482525 52.7867319,34.2362032 52.8166667,34.2115455 C52.8372104,34.1913001 52.848138,34.1631201 52.8466667,34.1341818 C52.8460652,34.1039483 52.839255,34.0741694 52.8266667,34.0467273 L52.8233333,34.0467273 Z M50.1766667,32.4994545 L50.6933333,30.9521818 L51.21,32.4994545 L50.1766667,32.4994545 Z M62.4,30.6090909 C62.4585878,30.61583 62.5171368,30.5961362 62.56,30.5552727 C62.5903379,30.5123031 62.6045184,30.4598351 62.6,30.4072727 L62.6,29.8354545 C62.6042283,29.782919 62.5900744,29.7305498 62.56,29.6874545 C62.5171368,29.646591 62.4585878,29.6268973 62.4,29.6336364 L59.84,29.6336364 C59.7878579,29.6284603 59.7356516,29.6428279 59.6933333,29.674 C59.6532322,29.71749 59.633778,29.7763832 59.64,29.8354545 L59.64,34.04 C59.633778,34.0990714 59.6532322,34.1579646 59.6933333,34.2014545 C59.7356516,34.2326267 59.7878579,34.2469942 59.84,34.2418182 L60.5066667,34.2418182 C60.5588087,34.2469942 60.6110151,34.2326267 60.6533333,34.2014545 C60.6934344,34.1579646 60.7128887,34.0990714 60.7066667,34.04 L60.7066667,30.6090909 L62.4,30.6090909 Z M71.31,29.6504545 L69.7633333,29.6504545 C69.7047456,29.6437155 69.6461965,29.6634092 69.6033333,29.7042727 C69.5732589,29.7473679 69.5591051,29.7997372 69.5633333,29.8522727 L69.5633333,34.04 C69.5571113,34.0990714 69.5765656,34.1579646 69.6166667,34.2014545 C69.6589849,34.2326267 69.7111913,34.2469942 69.7633333,34.2418182 L70.43,34.2418182 C70.4821421,34.2469942 70.5343484,34.2326267 70.5766667,34.2014545 C70.6167678,34.1579646 70.636222,34.0990714 70.63,34.04 L70.63,32.8761818 L71.2966667,32.8761818 C71.6408743,32.8865505 71.9828885,32.8175258 72.2966667,32.6743636 C72.5516982,32.5538031 72.764422,32.3579133 72.9066667,32.1126364 C73.0488573,31.8523779 73.1201661,31.5587464 73.1133333,31.2616364 C73.1176921,31.0322067 73.0792459,30.8039968 73,30.5889091 C72.9282728,30.3944461 72.8143864,30.2186159 72.6666667,30.0742727 C72.5048823,29.9227964 72.3127846,29.8080958 72.1033333,29.7379091 C71.8514346,29.6560093 71.5879556,29.6162418 71.3233333,29.6201818 L71.31,29.6504545 Z M71.31,31.9478182 L70.6433333,31.9478182 L70.6433333,30.6090909 L71.31,30.6090909 C71.4605478,30.6049855 71.609997,30.636068 71.7466667,30.6999091 C71.8532747,30.7499702 71.9418097,30.8322569 72,30.9353636 C72.0552657,31.0385316 72.0828441,31.1544862 72.08,31.2717273 C72.0839716,31.3890861 72.0563234,31.5053344 72,31.6080909 C71.9411292,31.7106493 71.8527889,31.792755 71.7466667,31.8435455 C71.6101909,31.9079782 71.4606015,31.9390899 71.31,31.9343636 L71.31,31.9478182 Z M83.6433333,31.1270909 C83.6453816,30.9251649 83.6068268,30.724917 83.53,30.5384545 C83.4593722,30.3712906 83.3575195,30.2194067 83.23,30.0910909 C83.1030727,29.9665017 82.9580758,29.862153 82.8,29.7816364 C82.6412355,29.7016829 82.4732996,29.6418061 82.3,29.6033636 C81.9709125,29.5274391 81.6290875,29.5274391 81.3,29.6033636 C81.1288824,29.6419722 80.9631724,29.7018538 80.8066667,29.7816364 C80.6496326,29.8622194 80.5057447,29.966579 80.38,30.0910909 C80.2534817,30.2195403 80.152747,30.3714449 80.0833333,30.5384545 C80.0065952,30.724944 79.968044,30.9251733 79.97,31.1270909 L79.97,32.7786364 C79.9681358,32.9805455 80.0066835,33.1807565 80.0833333,33.3672727 C80.152747,33.5342824 80.2534817,33.686187 80.38,33.8146364 C80.5057447,33.9391483 80.6496326,34.0435078 80.8066667,34.1240909 C80.9633839,34.2033757 81.1290321,34.2632349 81.3,34.3023636 C81.6290745,34.3784041 81.9709255,34.3784041 82.3,34.3023636 C82.4731534,34.2634057 82.6410283,34.2035507 82.8,34.1240909 C82.9580489,34.0435295 83.1030394,33.9391854 83.23,33.8146364 C83.3575195,33.6863205 83.4593722,33.5344367 83.53,33.3672727 C83.6067381,33.1807833 83.6452894,32.9805539 83.6433333,32.7786364 L83.6433333,31.1102727 L83.6433333,31.1270909 Z M82.5633333,32.6810909 C82.5657024,32.8157716 82.5310919,32.9484871 82.4633333,33.0645455 C82.3983427,33.1690211 82.30449,33.252035 82.1933333,33.3033636 C82.0680404,33.3616274 81.9312597,33.3903824 81.7933333,33.3874545 C81.6573465,33.3887789 81.5228425,33.358873 81.4,33.3 C81.289856,33.2484583 81.1971324,33.165418 81.1333333,33.0611818 C81.0655748,32.9451235 81.0309643,32.812408 81.0333333,32.6777273 L81.0333333,31.2078182 C81.0309643,31.0731374 81.0655748,30.940422 81.1333333,30.8243636 C81.196628,30.7188817 81.2894017,30.6346264 81.4,30.5821818 C81.5241658,30.5240807 81.6598281,30.4953211 81.7966667,30.4980909 C81.9345822,30.4952803 82.0713372,30.5240299 82.1966667,30.5821818 C82.3082738,30.634415 82.4021761,30.7186425 82.4666667,30.8243636 C82.5344252,30.940422 82.5690357,31.0731374 82.5666667,31.2078182 L82.5666667,32.6642727 L82.5633333,32.6810909 Z M92.8766667,31.8973636 L94.1133333,29.8455455 C94.1285471,29.8203139 94.1355416,29.7909054 94.1333333,29.7614545 C94.1320742,29.732397 94.1202001,29.7048384 94.1,29.6840909 C94.0759428,29.660734 94.0433306,29.6485456 94.01,29.6504545 L93.2066667,29.6504545 C93.1678835,29.6487777 93.1292051,29.6556653 93.0933333,29.6706364 C93.0612902,29.6855872 93.0328547,29.7073947 93.01,29.7345455 C92.9794666,29.7717254 92.9516173,29.8110689 92.9266667,29.8522727 L92.26,30.9790909 L91.5733333,29.8522727 C91.5495063,29.8103303 91.5215902,29.7708924 91.49,29.7345455 C91.4672972,29.7072334 91.4388231,29.6853963 91.4066667,29.6706364 C91.3718252,29.6561412 91.3343346,29.6492627 91.2966667,29.6504545 L90.4866667,29.6504545 C90.45441,29.649083 90.4230323,29.6612611 90.4,29.6840909 C90.3800585,29.7050134 90.368229,29.7324685 90.3666667,29.7614545 C90.3642597,29.7905096 90.3700372,29.8196596 90.3833333,29.8455455 L91.6266667,31.8973636 L90.4033333,34.04 C90.3855625,34.0681115 90.3762958,34.1008398 90.3766667,34.1341818 C90.3769051,34.1658621 90.3874448,34.1965871 90.4066667,34.2216364 C90.4262331,34.2457835 90.4557662,34.2594426 90.4866667,34.2586364 L91.27,34.2586364 C91.3120603,34.2639131 91.3546064,34.2639131 91.3966667,34.2586364 C91.4323344,34.2503201 91.4647916,34.2316045 91.49,34.2048182 C91.5243419,34.1657092 91.5524549,34.1214543 91.5733333,34.0736364 L92.26,32.8257273 L92.9266667,34.0736364 C92.9497326,34.1210079 92.9788713,34.1651132 93.0133333,34.2048182 C93.0378619,34.2307628 93.0690021,34.249384 93.1033333,34.2586364 C93.1442804,34.2638781 93.1857196,34.2638781 93.2266667,34.2586364 L94,34.2586364 C94.0309004,34.2594426 94.0604335,34.2457835 94.08,34.2216364 C94.0992219,34.1965871 94.1097616,34.1658621 94.11,34.1341818 C94.1103708,34.1008398 94.1011041,34.0681115 94.0833333,34.04 L92.8666667,31.8973636 L92.8766667,31.8973636 Z M104.523333,31.1270909 C104.525382,30.9251649 104.486827,30.724917 104.41,30.5384545 C104.339446,30.3712502 104.237584,30.2193529 104.11,30.0910909 C103.979937,29.9606376 103.830327,29.8516664 103.666667,29.7681818 C103.507915,29.6881967 103.339976,29.6283185 103.166667,29.5899091 C102.837579,29.5139846 102.495754,29.5139846 102.166667,29.5899091 C101.995559,29.628551 101.829853,29.6884311 101.673333,29.7681818 C101.516272,29.8487195 101.372377,29.9530839 101.246667,30.0776364 C101.120083,30.2060318 101.019339,30.35795 100.95,30.525 C100.873262,30.7114894 100.834711,30.9117188 100.836667,31.1136364 L100.836667,32.7651818 C100.834802,32.9670909 100.87335,33.1673019 100.95,33.3538182 C101.019339,33.5208682 101.120083,33.6727864 101.246667,33.8011818 C101.372411,33.9256937 101.516299,34.0300533 101.673333,34.1106364 C101.830063,34.1898908 101.995708,34.2497487 102.166667,34.2889091 C102.495741,34.3649495 102.837592,34.3649495 103.166667,34.2889091 C103.339829,34.2499826 103.507708,34.1901263 103.666667,34.1106364 C103.824716,34.0300749 103.969706,33.9257308 104.096667,33.8011818 C104.224251,33.6729198 104.326112,33.5210225 104.396667,33.3538182 C104.473405,33.1673288 104.511956,32.9670994 104.51,32.7651818 L104.51,31.1102727 L104.523333,31.1270909 Z M103.443333,32.6810909 C103.445702,32.8157716 103.411092,32.9484871 103.343333,33.0645455 C103.278343,33.1690211 103.18449,33.252035 103.073333,33.3033636 C102.94804,33.3616274 102.81126,33.3903824 102.673333,33.3874545 C102.536484,33.3903432 102.400795,33.3615781 102.276667,33.3033636 C102.166523,33.2518219 102.073799,33.1687816 102.01,33.0645455 C101.942241,32.9484871 101.907631,32.8157716 101.91,32.6810909 L101.91,31.2078182 C101.907631,31.0731374 101.942241,30.940422 102.01,30.8243636 C102.073295,30.7188817 102.166068,30.6346264 102.276667,30.5821818 C102.400795,30.5239674 102.536484,30.4952022 102.673333,30.4980909 C102.811249,30.4952803 102.948004,30.5240299 103.073333,30.5821818 C103.18494,30.634415 103.278843,30.7186425 103.343333,30.8243636 C103.411092,30.940422 103.445702,31.0731374 103.443333,31.2078182 L103.443333,32.6642727 L103.443333,32.6810909 Z M111.796667,32.9064545 C111.792824,32.9882489 111.780536,33.0694156 111.76,33.1486364 C111.744844,33.2074847 111.712289,33.2602808 111.666667,33.3 C111.594927,33.345052 111.510977,33.3662303 111.426667,33.3605455 C111.380701,33.3552143 111.335282,33.3743109 111.306667,33.411 C111.283314,33.4529425 111.27287,33.500953 111.276667,33.5489091 L111.276667,34.0736364 C111.269808,34.1125736 111.269808,34.1524264 111.276667,34.1913636 C111.286351,34.2197979 111.308489,34.2421369 111.336667,34.2519091 C111.380787,34.2595659 111.425879,34.2595659 111.47,34.2519091 C111.693289,34.2631576 111.917109,34.2473478 112.136667,34.2048182 C112.290218,34.1781715 112.432716,34.1068591 112.546667,33.9996364 C112.657297,33.881035 112.734416,33.734688 112.77,33.5758182 C112.825621,33.3475469 112.859111,33.1143586 112.87,32.8795455 L113,30.6090909 L114.1,30.6090909 L114.1,34.04 C114.093778,34.0990714 114.113232,34.1579646 114.153333,34.2014545 C114.195652,34.2326267 114.247858,34.2469942 114.3,34.2418182 L114.966667,34.2418182 C115.018782,34.2466806 115.07088,34.2323428 115.113333,34.2014545 C115.153434,34.1579646 115.172889,34.0990714 115.166667,34.04 L115.166667,29.8354545 C115.172889,29.7763832 115.153434,29.71749 115.113333,29.674 C115.07088,29.6431117 115.018782,29.628774 114.966667,29.6336364 L112.223333,29.6336364 C112.171191,29.6284603 112.118985,29.6428279 112.076667,29.674 C112.036566,29.71749 112.017111,29.7763832 112.023333,29.8354545 L111.776667,32.8896364 L111.796667,32.9064545 Z M125.623333,34.6219091 C125.617111,34.6809805 125.636566,34.7398737 125.676667,34.7833636 C125.71912,34.8142519 125.771218,34.8285897 125.823333,34.8237273 L126.386667,34.8237273 C126.438755,34.8282868 126.490751,34.8139773 126.533333,34.7833636 C126.573434,34.7398737 126.592889,34.6809805 126.586667,34.6219091 L126.586667,33.4009091 C126.591185,33.3483468 126.577005,33.2958788 126.546667,33.2529091 C126.503803,33.2120456 126.445254,33.1923518 126.386667,33.1990909 L126.053333,33.1990909 L126.053333,29.8354545 C126.059555,29.7763832 126.040101,29.71749 126,29.674 C125.957547,29.6431117 125.905449,29.628774 125.853333,29.6336364 L123.213333,29.6336364 C123.161218,29.628774 123.10912,29.6431117 123.066667,29.674 C123.026566,29.71749 123.007111,29.7763832 123.013333,29.8354545 L122.793333,32.7349091 C122.790187,32.8150886 122.775592,32.8943904 122.75,32.9703636 C122.725758,33.039196 122.678645,33.0974345 122.616667,33.1351818 C122.52917,33.180236 122.431417,33.2011248 122.333333,33.1957273 C122.274697,33.1885089 122.21595,33.208269 122.173333,33.2495455 C122.142995,33.2925151 122.128815,33.3449831 122.133333,33.3975455 L122.133333,34.6017273 C122.127111,34.6607987 122.146566,34.7196918 122.186667,34.7631818 C122.22912,34.7940701 122.281218,34.8084079 122.333333,34.8035455 L122.903333,34.8035455 C122.955475,34.8087215 123.007682,34.794354 123.05,34.7631818 C123.090101,34.7196918 123.109555,34.6607987 123.103333,34.6017273 L123.103333,34.1610909 L125.62,34.1610909 L125.62,34.6017273 L125.623333,34.6219091 Z M123.856667,32.8089091 L124.03,30.5956364 L125.03,30.5956364 L125.03,33.263 L123.6,33.263 C123.680117,33.2371298 123.748594,33.183518 123.793333,33.1116364 C123.84461,33.0190421 123.872112,32.9149727 123.873333,32.8089091 L123.856667,32.8089091 Z M133.73,29.6504545 C133.677858,29.6452785 133.625652,29.659646 133.583333,29.6908182 C133.543232,29.7343082 133.523778,29.7932013 133.53,29.8522727 L133.53,34.04 C133.525482,34.0925623 133.539662,34.1450303 133.57,34.188 C133.612863,34.2288635 133.671412,34.2485573 133.73,34.2418182 L134.356667,34.2418182 C134.404054,34.2438635 134.451152,34.2334308 134.493333,34.2115455 C134.530266,34.1908839 134.562154,34.1621531 134.586667,34.1274545 C134.613333,34.0938182 134.64,34.0500909 134.666667,34.003 L136.126667,31.6181818 L136.126667,34.0568182 C136.120445,34.1158896 136.139899,34.1747828 136.18,34.2182727 C136.222318,34.2494449 136.274525,34.2638124 136.326667,34.2586364 L136.993333,34.2586364 C137.045449,34.2634988 137.097547,34.249161 137.14,34.2182727 C137.180101,34.1747828 137.199555,34.1158896 137.193333,34.0568182 L137.193333,29.8354545 C137.197562,29.782919 137.183408,29.7305498 137.153333,29.6874545 C137.110716,29.6461781 137.05197,29.626418 136.993333,29.6336364 L136.346667,29.6336364 C136.299293,29.6317443 136.252233,29.6421686 136.21,29.6639091 C136.174275,29.684972 136.143555,29.7136748 136.12,29.748 C136.093333,29.7816364 136.066667,29.8253636 136.04,29.8724545 L134.583333,32.2673636 L134.583333,29.8354545 C134.589555,29.7763832 134.570101,29.71749 134.53,29.674 C134.487682,29.6428279 134.435475,29.6284603 134.383333,29.6336364 L133.73,29.6504545 Z M147.916667,29.6504545 L147.25,29.6504545 C147.197858,29.6452785 147.145652,29.659646 147.103333,29.6908182 C147.063232,29.7343082 147.043778,29.7932013 147.05,29.8522727 L147.05,31.4365455 L145.516667,31.4365455 L145.516667,29.8354545 C145.523349,29.7769255 145.505186,29.7182751 145.466667,29.674 C145.423188,29.6425996 145.369866,29.628251 145.316667,29.6336364 L144.65,29.6336364 C144.597858,29.6284603 144.545652,29.6428279 144.503333,29.674 C144.463232,29.71749 144.443778,29.7763832 144.45,29.8354545 L144.45,34.04 C144.443778,34.0990714 144.463232,34.1579646 144.503333,34.2014545 C144.545652,34.2326267 144.597858,34.2469942 144.65,34.2418182 L145.316667,34.2418182 C145.369866,34.2472035 145.423188,34.232855 145.466667,34.2014545 C145.505186,34.1571794 145.523349,34.098529 145.516667,34.04 L145.516667,32.4557273 L147.05,32.4557273 L147.05,34.04 C147.043778,34.0990714 147.063232,34.1579646 147.103333,34.2014545 C147.145652,34.2326267 147.197858,34.2469942 147.25,34.2418182 L147.916667,34.2418182 C147.968782,34.2466806 148.02088,34.2323428 148.063333,34.2014545 C148.103434,34.1579646 148.122889,34.0990714 148.116667,34.04 L148.116667,29.8354545 C148.122889,29.7763832 148.103434,29.71749 148.063333,29.674 C148.02088,29.6431117 147.968782,29.628774 147.916667,29.6336364 L147.916667,29.6504545 Z M158.103333,30.6090909 C158.161921,30.61583 158.22047,30.5961362 158.263333,30.5552727 C158.293671,30.5123031 158.307852,30.4598351 158.303333,30.4072727 L158.303333,29.8354545 C158.307562,29.782919 158.293408,29.7305498 158.263333,29.6874545 C158.22047,29.646591 158.161921,29.6268973 158.103333,29.6336364 L155.543333,29.6336364 C155.491191,29.6284603 155.438985,29.6428279 155.396667,29.674 C155.356566,29.71749 155.337111,29.7763832 155.343333,29.8354545 L155.343333,34.04 C155.337111,34.0990714 155.356566,34.1579646 155.396667,34.2014545 C155.438985,34.2326267 155.491191,34.2469942 155.543333,34.2418182 L156.21,34.2418182 C156.262142,34.2469942 156.314348,34.2326267 156.356667,34.2014545 C156.396768,34.1579646 156.416222,34.0990714 156.41,34.04 L156.41,30.6090909 L158.103333,30.6090909 Z"/>
    <path fill="#66B721" d="M21.7333333,28.0157273 C21.48,27.343 18.8066667,19.9900909 24.78,18.2611818 C30.3666667,16.6567273 36.7466667,15.6274545 37.6866667,8.33509091 C42.62,19.3039091 39.9966667,26.4819091 30.4266667,28.6144545 C28.2299997,29.0473306 25.9981144,29.2725481 23.76,29.2871818 C24.93,27.6053636 26.4266667,26.3103636 27.7866667,24.716 C28.9433333,23.3705455 29.9533333,21.9443636 30.9866667,20.8242727 C27.5,22.8424545 24.3333333,24.8169091 21.7333333,28.0157273 Z M18.51,34.2653636 C13.7,36.9058182 13,30.4375455 12.6866667,27.5044545 C13.6566667,28.3352727 14.54,29.4116364 17.02,29.5226364 C18.7333333,29.6067273 19.9466667,30.4173636 19.5366667,32.264 C18.2370055,31.5602897 16.8045536,31.1418931 15.3333333,31.0362727 C16.28,32.8862727 17,32.9905455 18.4966667,34.2653636 L18.51,34.2653636 Z"/>
    <path fill="#240005" d="M20.88,36.778 C20.3333333,33.9357273 18.3033333,33.1789091 16.6266667,31.9545455 C17.8707669,32.341248 19.0588143,32.8920394 20.16,33.5926364 C20.47,28.7187273 25.6266667,25.5636364 28.72,22.6406364 C23.8566667,27.6860909 20.9266667,29.7984545 20.88,36.7679091 L20.88,36.778 Z M21.2733333,7.71281818 C24.91,7.84063636 28.17,8.88336364 30.53,10.4911818 L28.8633333,11.6213636 C26.88,10.4474545 24.2166667,9.68727273 21.26,9.57627273 C18.3033333,9.68727273 15.64,10.4474545 13.6566667,11.6213636 L11.99,10.4911818 C14.3466667,8.88336364 17.61,7.84063636 21.2466667,7.71281818 L21.2733333,7.71281818 Z M29.3333333,16.0916364 L28.9666667,13.4982727 C28.5222222,13.2740303 28.0566667,13.0722121 27.57,12.8928182 L28.04,16.4818182 C28.4733333,16.354 28.9033333,16.2228182 29.3266667,16.0815455 L29.3333333,16.0916364 Z M32.7566667,28.8465455 L32.7366667,28.8465455 L32.63,28.8835455 L32.5933333,28.8835455 L32.5233333,28.9070909 L32.4866667,28.9070909 L32.38,28.9407273 L32.3433333,28.9407273 L32.27,28.9642727 L32.2333333,28.9642727 L32.1233333,28.9979091 L32.0866667,28.9979091 L31.7166667,29.1055455 L31.68,29.1055455 L31.6033333,29.1257273 L31.5666667,29.1257273 L31.4533333,29.156 L31.4166667,29.156 L31.3333333,29.2636364 L31.2966667,29.2636364 L31.26,29.2636364 L31.22,29.2636364 L31.18,29.2636364 L31.14,29.2636364 L31.0633333,29.2838182 L31.0233333,29.2838182 L30.9833333,29.2838182 L30.9433333,29.2838182 L30.9033333,29.2838182 L30.8633333,29.2838182 L30.7866667,29.3006364 L30.7466667,29.3006364 L30.6666667,29.3174545 L30.6266667,29.3174545 L30.5866667,29.3174545 L30.5166667,29.3174545 L30.4766667,29.3174545 L30.4366667,29.3174545 L30.4033333,29.3174545 L30.3633333,29.3174545 L30.3233333,29.3174545 C35.12,30.266 39.3233333,31.9881818 42.5233333,34.2350909 C41.3003831,33.073777 39.9493092,32.0580313 38.4966667,31.2078182 L38.4966667,25.1700909 C38.1395717,25.5859876 37.7505929,25.9728791 37.3333333,26.3271818 L37.3333333,30.7671818 C36.3195508,30.2385629 35.2754818,29.7713122 34.2066667,29.3679091 L34.2066667,28.2780909 C33.7444444,28.4843939 33.2588889,28.6738788 32.75,28.8465455 L32.7566667,28.8465455 Z M4.04666667,17.8810909 L5.61666667,19.5090909 L7.33333333,17.6052727 L7.33333333,16.5961818 L9.03333333,14.8403636 L10.67,16.5221818 L10.67,17.5110909 L12.67,19.7142727 L13.5466667,13.4982727 C13.9911111,13.2740303 14.4566667,13.0722121 14.9433333,12.8928182 L13.1166667,26.788 C12.6542242,26.3758275 12.238364,25.9133203 11.8766667,25.4089091 L12.4666667,21.2178182 L9.93333333,18.4360909 L9.77,18.6042727 L9.77,28.86 C10.3233333,28.6806061 10.8877778,28.5146667 11.4633333,28.3621818 L11.73,26.4785455 L11.88,27.6692727 C11.94,28.2040909 12.01,28.8431818 12.1133333,29.5226364 C7.35,30.4745455 3.18,32.19 0,34.4234545 C1.22402926,33.2619776 2.5762257,32.2462289 4.03,31.3961818 L4.03,17.8979091 L4.05,17.8777273 L4.04666667,17.8810909 Z M14.25,27.75 C16.2987707,27.3895515 18.3736992,27.2016616 20.4533333,27.1882727 C20.5972943,27.5894476 20.7722775,27.9785851 20.9766667,28.3520909 C21.022484,28.481081 21.0992065,28.5966333 21.2,28.6884545 L20.7733333,28.6884545 C19.8488889,28.6884545 18.9355556,28.7153636 18.0333333,28.7691818 C17.75,28.7355455 17.4466667,28.7220909 17.12,28.7052727 L17.0533333,28.7052727 C16.0426816,28.6980923 15.0606441,28.3658068 14.25,27.7567273 L14.25,27.75 Z M22.6666667,18.0156364 C22.6047309,17.2654629 22.0047914,16.6758498 21.26,16.6331818 L21.2366667,16.6331818 C20.4397409,16.6850438 19.8228047,17.3578653 19.8333333,18.1636364 L19.8333333,19.6066364 C19.8335862,19.7071752 19.8436345,19.8074455 19.8633333,19.906 L20.45,19.906 C20.9798655,19.0619048 21.7535462,18.4021133 22.6666667,18.0156364 Z M21.2333333,14.5107273 L22.6666667,14.5107273 C22.686302,14.4121631 22.6963497,14.3118991 22.6966667,14.2113636 L22.6966667,12.7818182 C22.7033316,11.974965 22.0816111,11.3046827 21.2833333,11.2580909 L21.26,11.2580909 C20.4564598,11.2977545 19.8270092,11.9700286 19.8333333,12.7818182 L19.8333333,14.2248182 C19.8335862,14.3253571 19.8436345,14.4256273 19.8633333,14.5241818 L21.2333333,14.5107273 Z M5.18,30.7705455 C6.19378258,30.2419265 7.23785155,29.7746758 8.30666667,29.3712727 L8.30666667,18.6076364 L8.15,18.4461818 L5.17333333,21.7156364 L5.17333333,30.7705455 L5.18,30.7705455 Z M7.20666667,22.1730909 L7.33666667,22.1091818 L7.33666667,24.3157273 L6.24333333,25.5165455 L6.24333333,23.2292727 L7.20666667,22.1730909 Z M21.26,0 L18.81,2.072 L18.81,4.33572727 C18.2766667,4.403 17.7511111,4.48821212 17.2333333,4.59136364 L17.2333333,2.50254545 C16.2921704,2.70921342 15.3674298,2.98578479 14.4666667,3.33 L14.4666667,5.45245455 C13.9284316,5.65541454 13.4020315,5.88900141 12.89,6.15209091 L12.89,4.03636364 C12.1236266,4.41964937 11.3919488,4.8698502 10.7033333,5.38181818 L10.7033333,8.35190909 C13.3333333,6.39090909 17.0666667,5.106 21.26,4.97481818 C25.4533333,5.106 29.1966667,6.38418182 31.8166667,8.33845455 L31.8166667,5.38181818 C31.1280512,4.8698502 30.3963734,4.41964937 29.63,4.03636364 L29.63,6.15881818 C29.1179471,5.89577426 28.5915496,5.66218854 28.0533333,5.45918182 L28.0533333,3.33 C27.1526989,2.98452615 26.227948,2.70682741 25.2866667,2.49918182 L25.2866667,4.588 C24.7688889,4.48709091 24.2433333,4.40187879 23.71,4.33236364 L23.71,2.072 L21.26,0 Z"/>
  </g>
</svg>
