<svg xmlns="http://www.w3.org/2000/svg" width="338" height="112" viewBox="0 0 338 112">
  <g fill="none" fill-rule="evenodd" transform="translate(105 40)">
    <rect width="128" height="33"/>
    <path fill="#FF7300" d="M76.48,0.696164384 L127.75662,0.696164384 L127.75662,8.96876712 C106.726761,13.8328767 96.2704225,-0.185342466 76.48,5.00424658 L76.48,0.696164384 Z"/>
    <path fill="#7F7A76" d="M0,32.7332877 L51.2766197,32.7332877 L51.2766197,24.4652055 C30.2467606,19.6010959 19.7904225,33.6193151 0,28.429726 L0,32.7332877 Z"/>
    <path fill="#FF7300" fill-rule="nonzero" d="M-3.18993286e-15,8.19123288 C-3.18993286e-15,5.78027397 0.677558685,3.88465753 2.03267606,2.50438356 C3.42579377,1.12036536 5.32847388,0.377307671 7.28788732,0.452054795 C8.61674069,0.432398425 9.92726995,0.764520849 11.0873239,1.41493151 C12.1956604,2.04282297 13.0929786,2.98688631 13.6653521,4.12726027 C14.2768211,5.33995542 14.5861206,6.68323509 14.5667606,8.04205479 C14.5912294,9.42246533 14.2704776,10.7870257 13.6338028,12.0110959 C13.0434125,13.1463024 12.1199839,14.072498 10.988169,14.6646575 C9.84902689,15.2660379 8.57967246,15.5765642 7.29239437,15.5687671 C5.94610267,15.5931572 4.61860553,15.2493491 3.45239437,14.5742466 C2.35107005,13.9416806 1.45930735,12.9985155 0.887887324,11.8619178 C0.301271403,10.7280212 -0.0033434676,9.4686889 -4.06710662e-15,8.19123288 Z M2.07774648,8.22287671 C2.07774648,9.98287671 2.57051643,11.3676712 3.55605634,12.3772603 C4.52544069,13.3856089 5.87388626,13.9371082 7.26985915,13.8961644 C8.67719916,13.9413346 10.0373028,13.3841577 11.0107042,12.3636986 C11.98723,11.3420548 12.4769953,9.8909589 12.48,8.01041096 C12.5029016,6.93953271 12.2873379,5.87701698 11.8490141,4.90027397 C11.4569813,4.04453023 10.8179765,3.32644823 10.0146479,2.83890411 C9.19751641,2.35005682 8.26181732,2.09666102 7.31042254,2.10657534 C5.93893248,2.07648127 4.60981924,2.58409569 3.6056338,3.52150685 C2.58704225,4.45876712 2.07774648,6.02589041 2.07774648,8.22287671 Z M28.0022535,10.1847945 L30.0169014,10.6730137 C29.6876011,12.1018878 28.8852919,13.3766812 27.7408451,14.2894521 C26.5753522,15.1435695 25.1587874,15.5826999 23.7160563,15.5371233 C22.3204722,15.5975594 20.9358186,15.2656246 19.7183099,14.5787671 C18.6719252,13.9143522 17.8539136,12.9439971 17.3746479,11.7986301 C16.8360314,10.5647078 16.5626759,9.23080196 16.5723944,7.88383562 C16.5380085,6.50466627 16.8478687,5.13874965 17.4738028,3.91027397 C18.0553009,2.81503376 18.9563026,1.92394925 20.056338,1.35616438 C21.1924549,0.755351779 22.4587577,0.444814513 23.7430986,0.452054795 C25.1098552,0.408272489 26.4549516,0.802559606 27.5830986,1.57767123 C28.6369879,2.34619388 29.3996944,3.45065112 29.7464789,4.71041096 L27.7678873,5.16246575 C27.5116378,4.24650665 26.9738125,3.43497839 26.2309859,2.84342466 C25.4860675,2.33521534 24.5982427,2.08011191 23.6980282,2.11561644 C22.6625664,2.0781423 21.6404088,2.35889502 20.7684507,2.92027397 C19.9955108,3.44085731 19.4143837,4.2016039 19.1143662,5.08561644 C18.7967671,5.98409568 18.6351753,6.93055838 18.6366197,7.88383562 C18.6132513,8.99359517 18.8045733,10.0973768 19.2,11.1341096 C19.5343114,12.0070842 20.1561066,12.739205 20.9622535,13.2090411 C21.7483636,13.664687 22.64138,13.9018738 23.5492958,13.8961644 C24.5824998,13.925792 25.5939673,13.5950815 26.4112676,12.960411 C27.2455989,12.246325 27.806443,11.2635048 27.9977465,10.180274 L28.0022535,10.1847945 Z M32.536338,15.2975342 L32.536338,0.709726027 L43.5335211,0.709726027 L43.5335211,2.43205479 L34.5464789,2.43205479 L34.5464789,6.89835616 L42.9656338,6.89835616 L42.9656338,8.5890411 L34.5464789,8.5890411 L34.5464789,13.5616438 L43.8895775,13.5616438 L43.8895775,15.2839726 L32.536338,15.2975342 Z M44.9983099,15.2975342 L50.8574648,0.709726027 L53.0253521,0.709726027 L59.2540845,15.2975342 L56.96,15.2975342 L55.1842254,10.8764384 L48.8067606,10.8764384 L47.1391549,15.2975342 L44.9983099,15.2975342 Z M49.388169,9.30780822 L54.5352113,9.30780822 L52.9442254,5.2709589 C52.4619718,4.04589041 52.1014085,3.03780822 51.8670423,2.24671233 C51.6692307,3.19714862 51.3949045,4.12993139 51.0467606,5.03589041 L49.3746479,9.31232877 L49.388169,9.30780822 Z M60.8450704,15.2975342 L60.8450704,0.709726027 L62.9092958,0.709726027 L70.9002817,12.1647945 L70.9002817,0.709726027 L72.8292958,0.709726027 L72.8292958,15.2975342 L70.7605634,15.2975342 L62.7560563,3.83342466 L62.7560563,15.2975342 L60.8450704,15.2975342 Z"/>
    <path fill="#7F7A76" fill-rule="nonzero" d="M55.2428169,32.7287671 L55.2428169,18.1409589 L57.2394366,18.1409589 L57.2394366,32.7287671 L55.2428169,32.7287671 Z M60.7819718,32.7287671 L60.7819718,18.1409589 L62.8461972,18.1409589 L70.8371831,29.5960274 L70.8371831,18.1409589 L72.7661972,18.1409589 L72.7661972,32.7287671 L70.7019718,32.7287671 L62.715493,21.2465753 L62.715493,32.7287671 L60.7819718,32.7287671 Z M80.0360563,32.7287671 L74.6050704,18.1409589 L76.7864789,18.1409589 L81.0771831,30.3464384 L85.548169,18.1409589 L87.6033803,18.1409589 L82.1047887,32.7287671 L80.0360563,32.7287671 Z M89.4467606,32.7287671 L89.4467606,18.1409589 L99.524507,18.1409589 L99.524507,19.8632877 L91.4569014,19.8632877 L91.4569014,24.329589 L98.9521127,24.329589 L98.9521127,26.0428767 L91.4659155,26.0428767 L91.4659155,31.0154795 L99.8850704,31.0154795 L99.8850704,32.7287671 L89.4467606,32.7287671 Z M101.980845,28.0273973 L103.87831,27.8691781 C103.93342,28.5149097 104.14879,29.1365375 104.504789,29.6773973 C104.897836,30.1938565 105.429349,30.5874142 106.037183,30.8120548 C106.777706,31.1168865 107.571393,31.2705672 108.371831,31.2641096 C109.07042,31.2740044 109.765076,31.1576263 110.422535,30.9205479 C110.938796,30.7524249 111.395747,30.4385067 111.738592,30.0164384 C112.024911,29.6617336 112.183691,29.2205959 112.189296,28.7642466 C112.195713,28.3276983 112.047144,27.903087 111.770141,27.5663014 C111.402273,27.1660965 110.935991,26.8699001 110.418028,26.7073973 C110.007887,26.5582192 109.106479,26.3186301 107.713803,25.9931507 C106.705133,25.7969322 105.720083,25.4938641 104.775211,25.0890411 C104.12373,24.7878311 103.562635,24.3201495 103.148169,23.7328767 C102.794926,23.1968885 102.609702,22.5671283 102.616338,21.9246575 C102.59938,21.1883895 102.806942,20.4644774 103.211268,19.849726 C103.684794,19.178836 104.351635,18.6693192 105.122254,18.389589 C106.012579,18.0487041 106.959203,17.8799792 107.912113,17.8923288 C108.93251,17.8729135 109.947073,18.0509557 110.900282,18.4167123 C112.511897,19.0080003 113.597645,20.5293725 113.636056,22.250137 L111.707042,22.390274 C111.657515,21.5780687 111.275913,20.8223917 110.652394,20.3017808 C109.871511,19.7782616 108.93918,19.5301672 108.002254,19.5965753 C106.782347,19.5965753 105.89446,19.8105479 105.338592,20.2384932 C104.825236,20.5859963 104.513831,21.163399 104.504789,21.7845205 C104.499957,22.2747199 104.715089,22.7411299 105.090704,23.0547945 C105.482817,23.3938356 106.492394,23.7373973 108.128451,24.0945205 C109.275093,24.3082151 110.401441,24.6197585 111.495211,25.0257534 C112.271551,25.3332189 112.949451,25.847466 113.455775,26.5130137 C113.879111,27.1205568 114.099976,27.8468501 114.086761,28.5879452 C114.084338,29.372756 113.842093,30.1379575 113.392676,30.780411 C112.893978,31.4959752 112.201007,32.0529547 111.396056,32.3852055 C110.469807,32.7778631 109.471918,32.9718795 108.466479,32.9547945 C107.290657,32.9951577 106.118196,32.8063263 105.014085,32.3987671 C104.127358,32.050632 103.363503,31.4465266 102.819155,30.6628767 C102.289413,29.890549 101.999306,28.9782981 101.985352,28.0409589 L101.980845,28.0273973 Z M120.712113,32.7287671 L120.712113,19.8632877 L115.700282,19.8632877 L115.700282,18.1409589 L127.75662,18.1409589 L127.75662,19.8632877 L122.726761,19.8632877 L122.726761,32.7287671 L120.712113,32.7287671 Z"/>
  </g>
</svg>
