<svg xmlns="http://www.w3.org/2000/svg" width="20" height="14" viewBox="0 0 20 14">
  <g fill="none" fill-rule="evenodd">
    <rect width="19.82" height="13.21" fill="#FFF" fill-rule="nonzero"/>
    <rect width="19.82" height="4.41" y="8.81" fill="#000" fill-rule="nonzero"/>
    <rect width="19.82" height="4.4" fill="#D11F26" fill-rule="nonzero"/>
    <path fill="#FFF" d="M9.92,6.67 L11.4,8 L11.29,5.51 C11.29,5.13 10.95,5.21 10.71,5.35 C10.4653341,5.50102162 10.1613823,5.51978407 9.9,5.4 C9.63861766,5.51978407 9.33466594,5.50102162 9.09,5.35 C8.86,5.21 8.53,5.13 8.51,5.51 L8.41,8 L9.92,6.67 Z"/>
    <path fill="#BF9200" fill-rule="nonzero" d="M11.4,8.05 L9.92,6.68 L8.42,8.05 L8.5,5.55 C8.5,5.31 8.64,5.26 8.74,5.26 C8.86750962,5.27236031 8.99057612,5.31338248 9.1,5.38 C9.35125437,5.50821771 9.64874563,5.50821771 9.9,5.38 C10.1477532,5.50810559 10.4422468,5.50810559 10.69,5.38 C10.8001076,5.31486887 10.9228352,5.27395966 11.05,5.26 C11.16,5.26 11.29,5.26 11.3,5.55 L11.41,8 C11.41,8 11.41,8 11.41,8 L11.4,8.05 Z M8.74,5.29 C8.61,5.29 8.53,5.38 8.53,5.55 L8.42,8 L9.91,6.66 L11.38,8 L11.28,5.54 C11.28,5.37 11.2,5.28 11.06,5.28 C10.9396813,5.28986137 10.8232938,5.32751616 10.72,5.39 C10.4728374,5.54262133 10.166746,5.56501826 9.9,5.45 C9.63636461,5.56324917 9.33407196,5.54085712 9.09,5.39 C8.98285285,5.32952955 8.86292064,5.29526321 8.74,5.29 Z"/>
    <path fill="#BF9200" d="M10.33,5.87 L10.38,7.08 L10.52,7.21 L10.52,5.89 C10.52,5.89 10.35,5.89 10.33,5.87 Z"/>
    <polygon fill="#BF9200" points="9.97 6.94 10.18 7.88 10.11 7.95 10.04 7.9 9.92 7.06 9.97 7.9 9.9 7.99 9.84 7.9 9.88 7.06 9.77 7.9 9.7 7.95 9.63 7.88 9.84 6.94"/>
    <path fill="#BF9200" fill-rule="nonzero" d="M9.9,8 L9.82,7.9 L9.82,7.34 L9.74,7.91 L9.69,8 L9.61,7.92 L9.82,6.92 L10,6.92 L10.21,7.87 L10.11,8 L10,7.91 L10,7.34 L10,7.9 L9.9,8 Z M9.85,7.9 L9.9,8 L10,7.9 L9.95,7.06 L10.07,7.89 L10.13,7.94 L10.19,7.88 L10,7 L9.84,7 L9.64,7.93 L9.7,7.99 L9.76,7.94 L9.87,7.11 L9.85,7.9 Z"/>
    <path fill="#BF9200" d="M8.68,5.46 L8.58,7.88 L8.41,8 L8.51,5.51 C8.56298381,5.48270517 8.62067564,5.46573698 8.68,5.46 Z"/>
    <polygon fill="#BF9200" points="8.89 5.63 8.8 7.63 8.63 7.81 8.74 5.5"/>
    <polygon fill="#BF9200" points="9.08 5.79 9 7.48 8.86 7.62 9 5.69"/>
    <path fill="#BF9200" d="M9.28 5.87L9.22 7.32 9.08 7.43 9.15 5.82C9.18954594 5.84520776 9.23375451 5.86221106 9.28 5.87zM9.47 5.87L9.42 7.08 9.28 7.21 9.34 5.89C9.34 5.89 9.46 5.89 9.47 5.87zM11.12 5.46L11.23 7.88 11.4 8 11.29 5.51C11.2377841 5.48083338 11.1796921 5.46374752 11.12 5.46zM10.92 5.63L11 7.63 11.18 7.81 11.07 5.5C11.07 5.5 10.93 5.61 10.92 5.63z"/>
    <polygon fill="#BF9200" points="10.73 5.79 10.79 7.48 10.93 7.62 10.85 5.69"/>
    <path fill="#BF9200" d="M10.52,5.87 L10.59,7.32 L10.73,7.43 L10.66,5.82 C10.6169709,5.845489 10.5694409,5.862464 10.52,5.87 Z"/>
    <polygon fill="#FFF" points="9.44 6.52 9.03 7.99 9.59 8.07 9.84 6.97"/>
    <path fill="#BF9200" fill-rule="nonzero" d="M9.59,8.09 L9,8 L9.42,6.54 L9.84,7 L9.6,8.1 L9.59,8.09 Z M9,8 L9.54,8.09 L9.82,7 L9.44,6.57 L9,8 Z"/>
    <polygon fill="#FFF" points="10.37 6.52 10.78 7.99 10.21 8.07 9.97 6.97"/>
    <path fill="#BF9200" fill-rule="nonzero" d="M10.21,8.09 L10,7 L10.4,6.55 L10.79,8 L10.22,8.09 L10.21,8.09 Z M10,7 L10.24,8.08 L10.76,8 L10.36,6.58 L10,7 Z"/>
    <path fill="#FFF" d="M10.88 8C10.8473357 7.99055489 10.8126643 7.99055489 10.78 8L10.88 8zM10.71 8L10.59 8 10.71 8zM10.09 8.07C10.09 8.07 10.19 8.07 10.21 8.07L10.09 8.07zM10.28 8.07C10.3176074 8.05043417 10.3623926 8.05043417 10.4 8.07L10.28 8.07zM10.17 5.6C10.17 5.6 10.17 5.53 10.17 5.53 10.2295774 5.54007043 10.2904226 5.54007043 10.35 5.53 10.26 5.53 10.18 5.21 10.19 4.98 10.2 4.75 10.19 4.66 10.12 4.62 10.0392917 4.56852211 9.94572445 4.54079848 9.85 4.54 9.8 4.54 9.85 4.54 9.85 4.54 9.77283542 4.50987803 9.68716458 4.50987803 9.61 4.54 9.61 4.54 9.56 4.7 9.61 4.68 9.66 4.66 9.75 4.68 9.79 4.74 9.83420829 4.86624159 9.83420829 5.00375841 9.79 5.13 9.73989253 5.26668235 9.66906485 5.39484672 9.58 5.51 9.65069894 5.50036722 9.71872493 5.47655812 9.78 5.44L9.78 5.55C9.8373818 5.52363034 9.8911521 5.4900239 9.94 5.45L10.03 5.54C10.0198299 5.53359202 10.0098266 5.52692314 10 5.52 10.0473853 5.56307616 10.1066051 5.59094427 10.17 5.6z"/>
    <path fill="#BF9200" fill-rule="nonzero" d="M9.63,5.65 L9.63,5.53 C9.57666894,5.56619186 9.51437997,5.58695485 9.45,5.59 C9.5459683,5.48161336 9.62060901,5.35608126 9.67,5.22 C9.70928602,5.09296806 9.70928602,4.95703194 9.67,4.83 C9.67,4.83 9.61,4.76 9.56,4.76 L9.51,4.76 C9.48942787,4.71211606 9.48942787,4.65788394 9.51,4.61 C9.58338946,4.57829812 9.66661054,4.57829812 9.74,4.61 C9.83927682,4.61671409 9.93540403,4.64761212 10.02,4.7 C10.02,4.7 10.1,4.84 10.09,5.07 C10.08,5.3 10.17,5.58 10.25,5.61 C10.2001729,5.61587963 10.1498271,5.61587963 10.1,5.61 C10.1061554,5.62609834 10.1061554,5.64390166 10.1,5.66 C10.0562577,5.62577259 10.0218621,5.58105828 10,5.53 L9.92,5.61 L9.83,5.51 C9.78433409,5.5522374 9.73401039,5.58914144 9.68,5.62 L9.63,5.65 Z M9.7,5.48 L9.7,5.6 C9.74744187,5.57641782 9.79122754,5.54610466 9.83,5.51 L9.92,5.6 C9.94322792,5.56711129 9.97006138,5.53692365 10,5.51 C10.0452364,5.55047036 10.1004819,5.57809313 10.16,5.59 C10.16,5.59 10.16,5.59 10.16,5.53 C10.2029047,5.53861979 10.2470953,5.53861979 10.29,5.53 C10.194062,5.37054679 10.1487341,5.18574851 10.16,5 C10.16,4.76 10.16,4.68 10.09,4.65 C10.01106,4.60274046 9.92185305,4.57529217 9.83,4.57 C9.7588254,4.54483598 9.6811746,4.54483598 9.61,4.57 C9.60621645,4.58982106 9.60621645,4.61017894 9.61,4.63 L9.61,4.69 L9.67,4.69 C9.72,4.69 9.76,4.69 9.8,4.78 C9.84924284,4.90878673 9.84924284,5.05121327 9.8,5.18 C9.76031715,5.31611708 9.69214278,5.44223964 9.6,5.55 C9.65905712,5.53295684 9.71606514,5.50948295 9.77,5.48 L9.7,5.48 Z"/>
    <path fill="#BF9200" fill-rule="nonzero" d="M9.69 5.52C9.76411621 5.37995786 9.81158733 5.22737213 9.83 5.07 9.81113907 5.22727669 9.76369293 5.37978215 9.69 5.52zM9.83 5.52C9.87172413 5.34999641 9.88856617 5.1748392 9.88 5 9.88944407 5.17485869 9.87258966 5.35014455 9.83 5.52zM10 5.52C9.99117603 5.36679362 9.99117603 5.21320638 10 5.06 9.98873414 5.20978847 9.98873414 5.36021153 10 5.51L10 5.52zM10.14 5.53C10.0720418 5.38747153 10.0248943 5.23592612 10 5.08 10.0053771 5.23487318 10.0392777 5.38742575 10.1 5.53L10.14 5.53z"/>
    <path fill="#BF9200" d="M9.73,4.88 C9.7369568,4.85718521 9.7369568,4.83281479 9.73,4.81 C9.73,4.75 9.62,4.69 9.55,4.75 C9.48,4.81 9.55,4.67 9.63,4.67 C9.71,4.67 9.76,4.67 9.84,4.84 L9.75,4.84 C9.75,4.84 9.73,4.88 9.73,4.88 Z"/>
    <path fill="#BF9200" fill-rule="nonzero" d="M9.73,4.88 C9.73,4.88 9.73,4.88 9.73,4.88 C9.73,4.88 9.73,4.88 9.73,4.82 C9.73,4.76 9.61,4.72 9.55,4.76 C9.55,4.76 9.55,4.68 9.63,4.68 C9.68,4.68 9.77,4.68 9.85,4.85 L9.75,4.85 L9.73,4.88 Z M9.59,4.72 C9.63988999,4.72753726 9.68385407,4.75684665 9.71,4.8 C9.71,4.8 9.71,4.8 9.71,4.8 L9.79,4.8 C9.7,4.64 9.6,4.63 9.59,4.63 C9.55768086,4.6421733 9.5321733,4.66768086 9.52,4.7 L9.59,4.72 Z"/>
    <path fill="#BF9200" d="M9.52,4.66 C9.59716458,4.62987803 9.68283542,4.62987803 9.76,4.66 C9.76,4.66 9.76,4.66 9.76,4.66 C9.85572445,4.66079848 9.94929167,4.68852211 10.03,4.74 C10.03,4.74 9.95,4.74 9.94,4.74 L9.92,4.74 C9.92,4.74 9.92,4.74 9.92,4.74 C9.92,4.74 9.92,4.74 9.92,4.74 C9.87866728,4.7300932 9.84070687,4.70938752 9.81,4.68 C9.76891777,4.66024674 9.72108223,4.66024674 9.68,4.68 C9.65479893,4.66749677 9.62520107,4.66749677 9.6,4.68 L9.52,4.66 Z"/>
    <path fill="#BF9200" fill-rule="nonzero" d="M9.89,4.75 L9.84,4.75 C9.80378807,4.75816671 9.76621193,4.75816671 9.73,4.75 C9.73,4.75 9.67,4.75 9.63,4.75 C9.60728916,4.74237769 9.58271084,4.74237769 9.56,4.75 L9.64,4.75 L9.79,4.75 C9.79,4.75 9.79,4.75 9.79,4.75 C9.88583742,4.7582912 9.97835535,4.78913051 10.06,4.84 C10.0347989,4.82749677 10.0052011,4.82749677 9.98,4.84 L10,4.84 L9.95,4.84 L9.89,4.75 Z M9.84,4.75 C9.84,4.75 9.84,4.75 9.84,4.75 C9.84,4.75 9.84,4.75 9.84,4.75 L9.97,4.75 L10.04,4.75 C9.96036376,4.69498682 9.8667169,4.6637712 9.77,4.66 L9.62,4.66 C9.59427847,4.64995934 9.56572153,4.64995934 9.54,4.66 L9.61,4.66 C9.64565342,4.64780944 9.68434658,4.64780944 9.72,4.66 C9.75273534,4.6689293 9.78726466,4.6689293 9.82,4.66 L9.84,4.75 Z"/>
    <path fill="#FFF" d="M9.88,4.71 C9.88,4.71 9.88,4.71 9.88,4.71 C9.88,4.71 9.86,4.71 9.88,4.71 Z"/>
    <polygon points="9.29 8.01 9.42 8.03 9.39 7.91"/>
    <polygon points="10.34 6.67 10.43 6.78 10.37 6.55 10.17 6.77 10.28 6.9"/>
    <polygon points="9.62 7.92 9.63 7.86 9.62 7.88 9.56 7.65 9.41 7.82 9.35 7.6 9.2 7.77 9.15 7.59 9.05 7.95 9.19 7.8 9.24 8.01 9.26 8.01 9.4 7.85 9.45 8.04 9.48 8.04 9.61 7.9"/>
    <polygon points="10.6 8 10.75 7.98 10.63 7.85"/>
    <polygon points="10.39 8.03 10.52 8.01 10.42 7.91"/>
    <polygon points="9.6 7.96 9.52 8.05 9.59 8.06 9.6 7.99"/>
    <polygon points="9.53 6.9 9.64 6.77 9.44 6.55 9.38 6.78 9.47 6.67"/>
    <polygon points="9.77 6.92 9.72 6.86 9.74 6.95"/>
    <polygon points="9.39 7.46 9.54 7.29 9.6 7.51 9.74 7.35 9.75 7.29 9.7 7.09 9.55 7.26 9.49 7.04 9.34 7.21 9.3 7.06 9.22 7.36 9.33 7.23"/>
    <polygon points="9.37 7.54 9.42 7.77 9.58 7.59 9.63 7.82 9.64 7.81 9.73 7.41 9.58 7.57 9.53 7.34 9.37 7.51 9.32 7.29 9.2 7.42 9.17 7.54 9.21 7.71"/>
    <polygon points="9.06 7.98 9.21 8 9.18 7.85"/>
    <polygon points="9.51 6.98 9.56 7.2 9.72 7.03 9.77 7.23 9.82 6.98 9.79 6.94 9.72 7.01 9.68 6.81 9.66 6.79 9.52 6.95 9.46 6.73 9.36 6.84 9.32 7 9.36 7.15"/>
    <polygon points="10.23 7.59 10.39 7.77 10.44 7.54 10.6 7.71 10.64 7.54 10.61 7.42 10.49 7.29 10.44 7.51 10.28 7.34 10.23 7.57 10.08 7.41 10.17 7.81 10.18 7.82"/>
    <polygon points="10.33 8.04 10.36 8.04 10.41 7.85 10.55 8.01 10.57 8.01 10.62 7.8 10.76 7.95 10.65 7.59 10.61 7.77 10.46 7.6 10.4 7.82 10.25 7.65 10.19 7.88 10.18 7.86 10.19 7.92 10.2 7.9"/>
    <polygon points="10.25 7.2 10.3 6.98 10.46 7.15 10.49 7 10.45 6.84 10.35 6.73 10.29 6.95 10.15 6.79 10.13 6.81 10.09 7.01 10.02 6.94 9.99 6.98 10.04 7.23 10.09 7.03"/>
    <polygon points="10.27 7.29 10.42 7.46 10.48 7.23 10.59 7.36 10.51 7.06 10.47 7.21 10.32 7.04 10.26 7.26 10.11 7.09 10.06 7.29 10.07 7.35 10.21 7.51"/>
    <polygon points="10.09 6.86 10.04 6.92 10.07 6.95"/>
    <polygon points="10.21 7.96 10.21 7.99 10.22 8.06 10.29 8.05"/>
    <polygon fill="#BF9200" fill-rule="nonzero" points="10.26 7.26 10.32 7.04 10.47 7.21 10.51 7.06 10.49 7 10.46 7.15 10.3 6.98 10.25 7.2 10.09 7.03 10.04 7.23 10.06 7.29 10.11 7.09"/>
    <polygon fill="#BF9200" fill-rule="nonzero" points="10.28 7.34 10.44 7.51 10.49 7.29 10.61 7.42 10.59 7.36 10.48 7.23 10.42 7.46 10.27 7.29 10.21 7.51 10.07 7.35 10.08 7.41 10.23 7.57"/>
    <polygon fill="#BF9200" fill-rule="nonzero" points="10.35 6.73 10.45 6.84 10.43 6.78 10.34 6.67 10.28 6.9 10.17 6.77 10.15 6.79 10.29 6.95"/>
    <polygon fill="#BF9200" fill-rule="nonzero" points="10.13 6.81 10.09 6.86 10.07 6.95 10.04 6.92 10.02 6.94 10.09 7.01"/>
    <polygon fill="#BF9200" fill-rule="nonzero" points="10.25 7.65 10.4 7.82 10.46 7.6 10.61 7.77 10.65 7.59 10.64 7.54 10.6 7.71 10.44 7.54 10.39 7.77 10.23 7.59 10.18 7.82 10.17 7.81 10.18 7.86 10.19 7.88"/>
    <polygon fill="#BF9200" fill-rule="nonzero" points="10.36 8.04 10.39 8.03 10.42 7.91 10.52 8.01 10.55 8.01 10.41 7.85"/>
    <polygon fill="#BF9200" fill-rule="nonzero" points="10.29 8.05 10.33 8.04 10.2 7.9 10.19 7.92 10.21 7.99 10.21 7.96"/>
    <polygon fill="#BF9200" fill-rule="nonzero" points="10.57 8.01 10.6 8 10.63 7.85 10.75 7.98 10.76 7.98 10.76 7.95 10.62 7.8"/>
    <polygon fill="#BF9200" fill-rule="nonzero" points="9.49 7.04 9.55 7.26 9.7 7.09 9.75 7.29 9.77 7.23 9.72 7.03 9.56 7.2 9.51 6.98 9.36 7.15 9.32 7 9.3 7.06 9.34 7.21"/>
    <polygon fill="#BF9200" fill-rule="nonzero" points="9.37 7.51 9.53 7.34 9.58 7.57 9.73 7.41 9.74 7.35 9.6 7.51 9.54 7.29 9.39 7.46 9.33 7.23 9.22 7.36 9.2 7.42 9.32 7.29"/>
    <polygon fill="#BF9200" fill-rule="nonzero" points="9.52 6.95 9.66 6.79 9.64 6.77 9.53 6.9 9.47 6.67 9.38 6.78 9.36 6.84 9.46 6.73"/>
    <polygon fill="#BF9200" fill-rule="nonzero" points="9.79 6.94 9.77 6.92 9.74 6.95 9.72 6.86 9.68 6.81 9.72 7.01"/>
    <polygon fill="#BF9200" fill-rule="nonzero" points="9.35 7.6 9.41 7.82 9.56 7.65 9.62 7.88 9.63 7.86 9.64 7.81 9.63 7.82 9.58 7.59 9.42 7.77 9.37 7.54 9.21 7.71 9.17 7.54 9.15 7.59 9.2 7.77"/>
    <polygon fill="#BF9200" fill-rule="nonzero" points="9.6 7.99 9.62 7.92 9.61 7.9 9.48 8.04 9.52 8.05 9.6 7.96"/>
    <polygon fill="#BF9200" fill-rule="nonzero" points="9.26 8.01 9.29 8.01 9.39 7.91 9.42 8.03 9.45 8.04 9.4 7.85"/>
    <polygon fill="#BF9200" fill-rule="nonzero" points="9.05 7.95 9.05 7.98 9.06 7.98 9.18 7.85 9.21 8 9.24 8.01 9.19 7.8"/>
    <path fill="#FFF" d="M9.9,8.64 C10.269373,8.65166041 10.638785,8.6180775 11,8.54 C11.1,8.54 11.1,8.47 11.1,8.4 C11.1,8.33 11.15,8.24 11.22,8.24 C11.29,8.24 11.13,8.12 11.05,8.14 C10.97,8.16 10.92,8 10.81,8 C10.511782,8.0683439 10.2055681,8.09526381 9.9,8.08 C9.59790819,8.08847454 9.29586066,8.06162587 9,8 C8.9,8 8.78,8 8.78,8.1 C8.78,8.2 8.68,8.22 8.61,8.2 C8.54,8.18 8.61,8.32 8.73,8.36 C8.85,8.4 8.73,8.48 8.83,8.5 C9.17964792,8.58999734 9.53896779,8.63701115 9.9,8.64 Z"/>
    <path fill="#BF9200" fill-rule="nonzero" d="M9.9,8.67 C9.53343452,8.6807375 9.16702896,8.64376079 8.81,8.56 C8.7,8.56 8.69,8.48 8.69,8.42 C8.65297417,8.39409422 8.62778606,8.3545129 8.62,8.31 C8.62,8.31 8.62,8.31 8.62,8.31 C8.62,8.31 8.62,8.31 8.62,8.31 C8.64416273,8.27573153 8.67953097,8.25097376 8.72,8.24 C8.76,8 8.81,8 8.9,8 L9,8 C9.23554289,8.0576211 9.47755352,8.08451117 9.72,8.08 L9.9,8.08 C10.2056196,8.0984181 10.5122817,8.0714588 10.81,8 L10.91,8 C10.9806526,7.9933504 11.0451055,8.04061582 11.06,8.11 C11.097578,8.12148986 11.1296137,8.14640652 11.15,8.18 C11.15,8.18 11.15,8.18 11.2,8.18 C11.1910214,8.22674034 11.1617001,8.26705711 11.12,8.29 C11.12,8.35 11.12,8.41 11,8.43 C10.6456655,8.5586575 10.2757228,8.63937228 9.9,8.67 Z M8.66,8.25 C8.66,8.25 8.66,8.25 8.66,8.25 C8.66,8.25 8.66,8.32 8.72,8.33 C8.72,8.4 8.72,8.43 8.81,8.44 C9.16080711,8.5196802 9.52050346,8.55329669 9.88,8.54 C10.253012,8.57970542 10.6296484,8.56961695 11,8.51 C11.08,8.51 11.08,8.51 11.08,8.4 C11.08,8.4 11.13,8.4 11.14,8.32 C11.14,8.32 11.14,8.27 11.07,8.32 C11.07,8.32 11.07,8.32 11.07,8.32 C11.07,8.32 11.01,8.23 10.97,8.23 L10.88,8.23 C10.579478,8.30536861 10.2694309,8.3356993 9.96,8.32 L9.72,8.32 C9.46988202,8.26443481 9.22791262,8.17705697 9,8.06 L8.9,8.06 C8.85,8.06 8.8,8.06 8.8,8.15 C8.8,8.15 8.8,8.15 8.73,8.15 L8.66,8.25 Z"/>
    <path fill="#FFF" d="M9.32,8 C9.45626659,8.01478878 9.59373341,8.01478878 9.73,8 C9.8,8 9.85,8.12 9.73,8.14 C9.59409574,8.16041519 9.45590426,8.16041519 9.32,8.14 L8.91,8 C8.79,8 8.91,7.84 8.91,7.86 C9.04311398,7.9164869 9.18013786,7.96327554 9.32,8 Z"/>
    <path fill="#BF9200" fill-rule="nonzero" d="M9.6,8.16 L9.3,8.16 C9.23,8.16 9.03,8.11 8.9,8.07 C8.85581722,8.07 8.82,8.03418278 8.82,7.99 C8.82,7.94581722 8.85581722,7.91 8.9,7.91 C9.03732301,7.95135828 9.17778781,7.98145788 9.32,8 L9.62,8 L9.73,8 C9.77218951,8.00447715 9.80552285,8.03781049 9.81,8.08 C9.81,8.08 9.81,8.15 9.72,8.16 L9.6,8.16 Z M8.93,7.91 C8.90790484,7.89924996 8.88209516,7.89924996 8.86,7.91 C8.86,7.91 8.86,7.91 8.91,7.98 L9.31,8.06 L9.6,8.06 L9.71,8.06 C9.71,8.06 9.79,8.06 9.79,8 C9.77143594,7.98928203 9.74856406,7.98928203 9.73,8 L9.62,8 L9.32,8 C9.18997168,7.98657462 9.06223709,7.95632169 8.94,7.91 L8.93,7.91 Z"/>
    <path fill="#FFF" d="M10.49,8 C10.3537251,8.01463384 10.2162749,8.01463384 10.08,8 C10.01,8 9.96,8.12 10.08,8.14 C10.2159043,8.16041519 10.3540957,8.16041519 10.49,8.14 L10.9,8 C10.9386599,8 10.97,7.96865993 10.97,7.93 C10.97,7.89134007 10.9386599,7.86 10.9,7.86 C10.7663198,7.91499373 10.6293968,7.96174793 10.49,8 Z"/>
    <path fill="#BF9200" fill-rule="nonzero" d="M10.21,8.16 L10.09,8.16 C9.99,8.16 9.99,8.1 9.99,8.08 C9.99878276,8.03623529 10.0355074,8.00359116 10.08,8 L10.19,8 L10.49,8 C10.6152189,7.98295518 10.7389245,7.95620804 10.86,7.92 C10.8891973,7.91085689 10.9208834,7.91428706 10.9474476,7.92946662 C10.9740119,7.94464618 10.9930539,7.97020353 11,8 C11,8 11,8.06 10.94,8.09 C10.88,8.12 10.61,8.16 10.54,8.18 L10.21,8.16 Z M10.07,8 C10.07,8 10.07,8 10.14,8.06 L10.26,8.06 L10.55,8.06 L10.9,8 C10.9,8 11,8 11,8 C10.9747989,7.98749677 10.9452011,7.98749677 10.92,8 C10.7977629,8.04632169 10.6700283,8.07657462 10.54,8.09 L10.24,8.09 L10.07,8 Z"/>
    <path fill="#FFF" d="M8.89,7.92 C8.79,7.92 8.74,8.02 8.77,8.09 C8.8,8.16 8.86,8.09 8.87,8.02 C8.88,7.95 8.86,8 8.89,7.92 Z"/>
    <path fill="#BF9200" fill-rule="nonzero" d="M8.77,8.1 C8.74449494,8.0604196 8.74449494,8.0095804 8.77,7.97 C8.79176185,7.92509802 8.84102131,7.90046829 8.89,7.91 C8.88200331,7.93352758 8.86352758,7.95200331 8.84,7.96 L8.79,7.96 L8.77,8.1 Z M8.87,7.93 C8.84411833,7.92084945 8.81588167,7.92084945 8.79,7.93 C8.78078784,7.9592928 8.78078784,7.9907072 8.79,8.02 L8.84,8.02 C8.84,8.02 8.84,8.02 8.84,8.02 C8.84,8.02 8.84,8.02 8.84,8.02 C8.82921455,7.98666738 8.84137207,7.95019482 8.87,7.93 Z"/>
    <path fill="#FFF" d="M9.3,8.23 C9.3,8.17 9.37,8.17 9.37,8.11 C9.37,8.05 9.37,8.02 9.37,8.02 C9.33134007,8.02 9.3,8.05134007 9.3,8.09 C9.23,8.16 9.3,8.17 9.3,8.23 Z"/>
    <path fill="#BF9200" fill-rule="nonzero" d="M9.3,8.25 C9.3,8.25 9.3,8.25 9.3,8.25 C9.30686292,8.23058875 9.30686292,8.20941125 9.3,8.19 C9.28886869,8.16449495 9.28886869,8.13550505 9.3,8.11 C9.28032183,8.07313655 9.2886053,8.02757748 9.32,8 C9.32,8 9.38,8.05 9.38,8.1 C9.38944584,8.12237736 9.38944584,8.14762264 9.38,8.17 C9.38,8.17 9.38,8.17 9.38,8.22 L9.3,8.25 Z M9.3,8.03 C9.26686292,8.03 9.24,8.05686292 9.24,8.09 C9.23407256,8.11295689 9.23407256,8.13704311 9.24,8.16 C9.24472256,8.14366787 9.24472256,8.12633213 9.24,8.11 C9.24,8.11 9.34,8 9.32,8 L9.3,8.03 Z"/>
    <path fill="#FFF" d="M9.79,8 C9.89,8 9.88,8.13 9.84,8.2 C9.8,8.27 9.75,8.13 9.75,8.1 C9.75,8.07 9.83,8.09 9.79,8 Z"/>
    <path fill="#BF9200" fill-rule="nonzero" d="M9.84,8.26 C9.84,8.26 9.84,8.26 9.84,8.21 C9.84,8.16 9.84,8.21 9.84,8.21 C9.84,8.21 9.84,8.16 9.84,8.15 C9.84,8.14 9.84,8.15 9.84,8.15 L9.84,8 C9.87470214,7.99749734 9.90704303,8.0177104 9.92,8.05 C9.95022399,8.10619379 9.95022399,8.17380621 9.92,8.23 L9.84,8.26 Z M9.84,8.05 C9.84,8.05 9.84,8.05 9.84,8.05 C9.84,8.05 9.84,8.05 9.84,8.05 C9.85639778,8.04576611 9.87360222,8.04576611 9.89,8.05 C9.90975326,8.00891777 9.90975326,7.96108223 9.89,7.92 L9.84,8.05 Z"/>
    <path fill="#FFF" d="M10.92,7.92 C11.02,7.92 11.07,8.02 11.04,8.09 C11.01,8.16 10.95,8.09 10.93,8.02 C10.91,7.95 11,8 10.92,7.92 Z"/>
    <path fill="#BF9200" fill-rule="nonzero" d="M11,8.1 C11,8.1 10.95,8.1 10.94,8.1 C10.93,8.1 10.94,8.1 10.94,8.04 C10.94,7.98 10.94,8.04 10.94,8.04 C10.9558278,8.02127545 10.9766282,8.00740857 11,8 C11.0197533,8.04108223 11.0197533,8.08891777 11,8.13 L11,8.1 Z M10.9,7.93 C10.9,7.93 10.9,7.93 10.9,7.93 C10.9208708,7.96740156 10.9577139,7.99319177 11,8 C11,8 11,7.93 10.94,7.93 L10.9,7.93 Z"/>
    <path fill="#FFF" d="M10.5,8.23 C10.5,8.17 10.44,8.17 10.44,8.11 C10.44,8.05 10.44,8.02 10.49,8.02 C10.5267019,8.02436175 10.5556382,8.05329806 10.56,8.09 C10.57,8.16 10.5,8.17 10.5,8.23 Z"/>
    <path fill="#BF9200" fill-rule="nonzero" d="M10.5,8.25 C10.5,8.25 10.5,8.25 10.5,8.2 C10.4874957,8.17834192 10.4874957,8.15165808 10.5,8.13 C10.5,8.13 10.5,8.03 10.57,8.03 C10.6121895,8.03447715 10.6455228,8.06781049 10.65,8.11 C10.6642906,8.13475209 10.6642906,8.16524791 10.65,8.19 C10.6456639,8.20976498 10.6456639,8.23023502 10.65,8.25 L10.5,8.25 Z M10.5,8.03 C10.5,8.03 10.5,8.08 10.5,8.11 C10.4910684,8.12547005 10.4910684,8.14452995 10.5,8.16 C10.5150214,8.13908426 10.5150214,8.11091574 10.5,8.09 C10.5117666,8.07722701 10.5174216,8.05998228 10.5155038,8.0427218 C10.513586,8.02546132 10.5042834,8.00987854 10.49,8 L10.5,8.03 Z"/>
    <path fill="#FFF" d="M10,8 C9.9,8 9.91,8.13 10,8.2 C10.09,8.27 10.09,8.13 10.09,8.1 C10.09,8.07 10,8.09 10,8 Z"/>
    <path fill="#BF9200" fill-rule="nonzero" d="M10 8.26C9.97554681 8.20249149 9.97554681 8.13750851 10 8.08 9.98886869 8.05449495 9.98886869 8.02550505 10 8 10 8 10 8 10 8 10.0068629 8.01941125 10.0068629 8.04058875 10 8.06 10 8.06 10 8.06 10 8.11L10 8.26zM10 8.05C9.98024674 8.09108223 9.98024674 8.13891777 10 8.18 10 8.18 10 8.18 10 8.18 10 8.18 10 8.18 10 8.18 9.96410149 8.18 9.935 8.15089851 9.935 8.115 9.935 8.07910149 9.96410149 8.05 10 8.05zM9 8L8.9 8C8.93266426 7.99055489 8.96733574 7.99055489 9 8zM9.22 8.05L9.09 8C9.09 8 9.09 8 9.09 8 9.13295311 7.99188177 9.17704689 7.99188177 9.22 8L9.22 8.05zM9.59 8.1C9.59 8.1 9.66 8.1 9.71 8.1L9.58 8.1 9.59 8.1zM9.53 8.08L9.4 8.08C9.4 8.08 9.4 8.08 9.4 8.08L9.47 8.08C9.47 8.08 9.47 8.08 9.53 8.08zM10.78 8C10.8160154 7.99022624 10.8539846 7.99022624 10.89 8L10.79 8 10.78 8zM10.59 8.05C10.6295918 8.04191836 10.6704082 8.04191836 10.71 8.05L10.59 8.05zM10.21 8.1L10.09 8.1C10.14 8.1 10.2 8.1 10.22 8.1L10.21 8.1zM10.4 8.08L10.27 8.08C10.2925713 8.07156663 10.3174287 8.07156663 10.34 8.08L10.4 8.08z"/>
    <path fill="#BF9200" d="M9.87,8.54 L9.58,8.54 C9.58,8.54 9.58,8.54 9.58,8.54 C9.58,8.54 9.58,8.54 9.58,8.54 C9.58,8.54 9.58,8.54 9.58,8.54 C9.58,8.54 9.58,8.54 9.58,8.54 L9.58,8.35 C9.58,8.35 9.58,8.35 9.58,8.35 L9.77,8.35 C9.77,8.35 9.77,8.35 9.77,8.35 C9.77,8.35 9.77,8.35 9.77,8.35 C9.77,8.35 9.77,8.35 9.77,8.35 L9.77,8.41 L9.87,8.41 L9.87,8.54 Z M9.87,8.54 L9.87,8.43 L9.73,8.43 C9.73,8.43 9.73,8.43 9.73,8.43 L9.86,8.43 L9.87,8.54 Z M10.13,8.62 L10.22,8.62 L10.13,8.62 Z M10.28,8.62 L10.28,8.42 C10.28,8.42 10.28,8.42 10.28,8.42 L10.28,8.47 L10.19,8.47 L10.28,8.62 Z M10.41,8.62 L10.35,8.62 C10.35,8.62 10.35,8.62 10.35,8.62 C10.35,8.62 10.35,8.62 10.35,8.62 L10.41,8.62 C10.41,8.62 10.41,8.62 10.41,8.62 C10.41,8.62 10.41,8.62 10.41,8.62 L10.47,8.62 C10.47,8.62 10.47,8.62 10.47,8.62 L10.47,8.23 C10.47,8.23 10.47,8.23 10.47,8.23 L11,8.23 L10.91,8.23 L10.86,8.23 L10.7,8.23 L10.62,8.23 C10.62,8.23 10.62,8.23 10.62,8.23 L10.54,8.23 L10.48,8.23 L10.41,8.62 Z M9.42,8.5 C9.42,8.5 9.42,8.5 9.42,8.5 L9.21,8.5 C9.21,8.5 9.21,8.5 9.21,8.5 L9.29,8.5 C9.29,8.5 9.29,8.5 9.29,8.5 C9.29,8.5 9.29,8.5 9.29,8.5 C9.29,8.5 9.29,8.5 9.29,8.5 L9.29,8.55 C9.29,8.55 9.29,8.55 9.29,8.55 L9.29,8.33 C9.29,8.33 9.29,8.33 9.29,8.33 L9.29,8.4 L9.29,8.49 L9.42,8.5 Z M10.1,8.48 L10.15,8.48 C10.15,8.48 10.15,8.48 10.15,8.48 C10.15,8.48 10.15,8.48 10.15,8.48 L10.15,8.61 C10.15,8.61 10.15,8.61 10.15,8.61 L10.15,8.71 C10.15,8.71 10.15,8.71 10.15,8.71 L10.1,8.71 L10.1,8.48 Z M9.48,8.48 L9.48,8.33 C9.48,8.33 9.48,8.33 9.48,8.33 C9.48,8.33 9.48,8.33 9.48,8.33 C9.48,8.33 9.48,8.33 9.48,8.33 L9.48,8.48 Z M9.14,8.41 L8.85,8.41 L9,8.41 C9,8.41 9,8.41 9,8.41 C9,8.41 9,8.41 9,8.41 L9.1,8.41 C9.1,8.41 9.1,8.41 9.1,8.41 L9.1,8.48 C9.1,8.48 9.12,8.4 9.1,8.39 L9.14,8.41 Z"/>
    <path fill="#FFF" d="M9.9,7.2 C10.3170952,6.88629224 10.5587507,6.39182789 10.55,5.87 L10.49,5.87 C10.2815911,5.86865392 10.0788104,5.80222577 9.91,5.68 C9.73088947,5.79648497 9.52351293,5.8621542 9.31,5.87 L9.26,5.87 C9.25050949,6.38970518 9.48795201,6.88314041 9.9,7.2 Z"/>
    <path fill="#BF9200" fill-rule="nonzero" d="M9.9,7.14 C9.64023652,6.93264255 9.45149784,6.64953453 9.36,6.33 C9.35033804,6.22355213 9.35033804,6.11644787 9.36,6.01 L9.36,5.92 C9.56058475,5.90814591 9.75569133,5.84995623 9.93,5.75 C10.0999443,5.85163515 10.2922351,5.91000913 10.49,5.92 L10.49,6 C10.4797076,6.10826013 10.4596255,6.21536481 10.43,6.32 C10.3424291,6.63880058 10.1570604,6.92209998 9.9,7.13 L9.9,7.14 Z M9.33,5.93 L9.33,6 C9.35209894,6.43739987 9.55938632,6.84470138 9.9,7.12 C10.1568968,6.91805134 10.3397361,6.63676006 10.42,6.32 C10.4501916,6.21549855 10.4702837,6.10834058 10.48,6 L10.48,5.94 C10.2822351,5.93000913 10.0899443,5.87163515 9.92,5.77 C9.74160341,5.86882786 9.54351986,5.92688684 9.34,5.94 L9.33,5.93 Z"/>
    <path fill="#BF9200" fill-rule="nonzero" d="M9.9,7.22 C9.48131691,6.90314047 9.23966483,6.40496541 9.25,5.88 L9.31,5.88 C9.51982764,5.86896791 9.72316601,5.80348606 9.9,5.69 C10.0682036,5.80597335 10.2658531,5.87185653 10.47,5.88 L10.54,5.88 C10.5439727,6.40354932 10.3036323,6.89902024 9.89,7.22 L9.9,7.22 Z M9.27,5.88 C9.26897386,6.38995201 9.50100309,6.87242548 9.9,7.19 C10.3039412,6.8753984 10.540106,6.39199869 10.54,5.88 C10.3341936,5.87209528 10.1341205,5.81000362 9.96,5.7 C9.77816666,5.80915682 9.57189214,5.87103918 9.36,5.88 L9.27,5.88 Z"/>
    <path fill="#FFF" d="M10.49,5.92 C10.2911624,5.91647485 10.0972416,5.85760604 9.93,5.75 C9.75348335,5.85325753 9.55432864,5.91163046 9.35,5.92 C9.34496479,5.94978872 9.34496479,5.98021128 9.35,6.01 C9.34033804,6.11644787 9.34033804,6.22355213 9.35,6.33 C9.43759075,6.6460183 9.62315378,6.92611345 9.88,7.13 C10.1368462,6.92611345 10.3224093,6.6460183 10.41,6.33 C10.4470057,6.22276662 10.4737915,6.11227512 10.49,6 L10.49,5.92 Z"/>
  </g>
</svg>
