<svg xmlns="http://www.w3.org/2000/svg" width="20" height="14" viewBox="0 0 20 14">
  <g fill="none">
    <rect width="19.82" height="13.21" fill="#FFF"/>
    <rect width="19.82" height="2.06" y="1.24" fill="#0078EB"/>
    <rect width="19.82" height="2.06" y="9.91" fill="#0078EB"/>
    <path fill="#0078EB" d="M11.56,6.61 L12.39,5.18 L10.74,5.18 L9.91,3.75 L9.08,5.18 L7.43,5.18 L8.26,6.61 L7.43,8 L9.08,8 L9.91,9.43 L10.74,8 L12.39,8 L11.56,6.61 Z M11.56,5.61 L11.26,6.13 L11,5.63 L11.56,5.61 Z M11,6.61 L10.43,7.61 L9.35,7.61 L8.78,6.61 L9.35,5.61 L10.47,5.61 L11,6.61 Z M9.87,4.61 L10.17,5.14 L9.57,5.14 L9.87,4.61 Z M8.18,5.61 L8.78,5.61 L8.48,6.13 L8.18,5.61 Z M8.18,7.61 L8.48,7.09 L8.78,7.61 L8.18,7.61 Z M9.87,8.61 L9.61,8 L10.21,8 L9.87,8.61 Z M11.26,7.11 L11.56,7.63 L11,7.63 L11.26,7.11 Z"/>
  </g>
</svg>
