<svg xmlns="http://www.w3.org/2000/svg" width="20" height="14" viewBox="0 0 20 14">
  <g fill="none">
    <rect width="19.82" height="13.21" fill="#FFF"/>
    <rect width="19.82" height="3.28" fill="#F72624"/>
    <rect width="19.82" height="3.28" y="9.94" fill="#F72624"/>
    <path fill="#00A551" d="M12.41,7.67 C12.6140595,7.70674329 12.8147401,7.76025811 13.01,7.83 C13.2647599,7.87424479 13.5252401,7.87424479 13.78,7.83 C13.94,7.83 13.89,7.78 13.78,7.73 C13.687541,7.71193277 13.592459,7.71193277 13.5,7.73 C13.41,7.73 13.35,7.73 13.24,7.67 C13.13,7.61 13.11,7.67 12.97,7.59 C12.97,7.59 12.97,7.59 13.05,7.51 C13.1571971,7.47488212 13.2728029,7.47488212 13.38,7.51 C13.44,7.51 13.45,7.51 13.38,7.44 C13.31,7.37 13.22,7.44 13.17,7.38 C13.1434234,7.34986494 13.1051801,7.3326013 13.065,7.3326013 C13.0248199,7.3326013 12.9865766,7.34986494 12.96,7.38 C12.88,7.46 12.81,7.45 12.72,7.38 C12.63,7.31 12.57,7.48 12.46,7.38 C12.35,7.28 12.29,7.46 12.27,7.38 C12.25,7.3 12.21,7.32 12.15,7.25 C12.09,7.18 12.01,7.25 11.83,7.15 C11.49,6.91 11.6,7.35 11.38,7.15 C11.16,6.95 11.14,7.15 11.06,7.27 C11.0415736,7.28287854 11.0213587,7.29298602 11,7.3 C11,7.19 11.05,7.07 11.08,6.96 L11.08,6.77 C11.14,6.77 11.17,6.77 11.23,6.77 C11.29,6.77 11.43,6.77 11.62,6.85 C11.81,6.93 11.77,6.93 11.72,6.79 C11.67,6.65 11.9,6.79 12.03,6.87 C12.16,6.95 12.14,6.87 12.08,6.79 C12.02,6.71 12.18,6.79 12.27,6.79 C12.36,6.79 12.42,6.89 12.54,6.86 C12.681256,6.84020451 12.8246779,6.87605997 12.94,6.96 C13.06,7.03 13.05,6.96 12.94,6.81 C12.83,6.66 12.66,6.81 12.51,6.64 C12.36,6.47 12.33,6.71 12.14,6.51 C11.95,6.31 11.95,6.57 11.79,6.4 C11.63,6.23 11.66,6.53 11.49,6.35 C11.4597338,6.32977753 11.4202662,6.32977753 11.39,6.35 C11.4198702,6.31194227 11.4404182,6.26742158 11.45,6.22 C11.4956296,6.23391359 11.5443704,6.23391359 11.59,6.22 C11.79,6.22 11.79,6.1 11.95,6.16 C12.11,6.22 12.08,6.27 12.14,6.16 C12.2,6.05 12.25,6.16 12.28,6.16 C12.31,6.16 12.37,6.16 12.46,6.16 C12.55,6.16 12.6,6.16 12.56,6.16 C12.52,6.16 12.41,6.1 12.32,6.01 C12.23,5.92 12.17,6.01 12.13,5.94 C12.0697928,5.88763595 11.9802072,5.88763595 11.92,5.94 C11.82,5.94 11.81,5.94 11.73,5.8 C11.65,5.66 11.56,5.8 11.49,5.8 C11.42,5.8 11.31,5.74 11.28,5.68 C11.25,5.62 11.13,5.68 11.03,5.61 C10.93,5.54 10.93,5.75 10.78,5.61 L10.84,5.53 C10.8917003,5.45895312 10.9259569,5.37673739 10.94,5.29 C10.94,5.29 10.94,5.23 10.94,5.2 C10.94,5.17 11.21,5.2 11.28,5.28 C11.35,5.36 11.49,5.33 11.59,5.33 C11.69,5.33 11.71,5.33 11.65,5.24 C11.59,5.15 11.53,5.04 11.43,5.08 C11.33,5.12 11.34,4.97 11.27,4.9 C11.2,4.83 10.97,4.97 10.99,4.9 C11.01,4.83 11.13,4.73 11.06,4.77 C10.99,4.81 10.95,4.77 10.9,4.77 C10.85,4.77 10.75,4.77 10.68,4.72 C10.584824,4.64998084 10.455176,4.64998084 10.36,4.72 C10.26,4.82 10.2,4.72 10.12,4.72 C10.1098012,4.67726676 10.1098012,4.63273324 10.12,4.59 L10.12,4.47 C10.1950964,4.49194452 10.2749036,4.49194452 10.35,4.47 C10.43,4.47 10.57,4.47 10.68,4.52 C10.79,4.57 10.85,4.52 10.82,4.52 C10.79,4.52 10.67,4.42 10.62,4.37 C10.57,4.32 10.62,4.2 10.36,4.18 C10.1,4.16 10.27,3.94 10.1,3.92 C9.93,3.9 10.1,3.67 9.87,3.67 C9.64,3.67 9.79,3.85 9.57,3.86 C9.35,3.87 9.52,4.11 9.34,4.13 C9.16,4.15 9.16,4.34 9.04,4.34 C8.92,4.34 8.78,4.34 8.78,4.52 C8.78,4.7 8.83,4.59 8.89,4.52 C8.95,4.45 9.17,4.52 9.24,4.52 L9.33,4.8 L9.27,4.8 C9.13,4.89 9.18,4.71 8.98,4.69 C8.78,4.67 8.82,4.78 8.74,4.78 C8.66,4.78 8.47,4.9 8.62,4.88 C8.77,4.86 8.76,4.97 8.62,4.97 C8.48,4.97 8.26,5.06 8.38,5.06 C8.5,5.06 8.61,5.12 8.46,5.16 C8.31,5.2 8.04,5.22 8.17,5.26 C8.25427764,5.28921943 8.3414408,5.309334 8.43,5.32 C8.62,5.32 8.83,5.2 9.02,5.22 C9.02570845,5.28654447 9.02570845,5.35345553 9.02,5.42 C9.02494628,5.46987767 9.02494628,5.52012233 9.02,5.57 L8.96,5.57 C8.93345476,5.53628302 8.89291252,5.51660254 8.85,5.51660254 C8.80708748,5.51660254 8.76654524,5.53628302 8.74,5.57 C8.65,5.66 8.6,5.57 8.55,5.51 C8.5,5.45 8.44,5.57 8.39,5.51 C8.34,5.45 8.3,5.64 8.24,5.63 C8.18,5.62 8.14,5.51 8.03,5.51 C7.92,5.51 7.85,5.69 7.61,5.69 C7.37,5.69 7.44,5.82 7.54,5.78 C7.62096063,5.73552426 7.71903937,5.73552426 7.8,5.78 C7.89,5.78 7.73,5.92 7.52,5.89 C7.31,5.86 7.34,6.07 7.07,6.09 C7,6.09 6.95,6.24 7.07,6.17 C7.19,6.1 7.21,6.17 7.32,6.17 C7.43,6.17 7.53,6.17 7.67,6.17 C7.81,6.17 7.82,6.17 7.94,6.17 C8.06,6.17 8.02,6.23 8.19,6.17 C8.36,6.11 8.35,6.17 8.48,6.17 C8.47566466,6.19313196 8.47566466,6.21686804 8.48,6.24 L8.54,6.4 C8.38,6.34 8.35,6.61 8.19,6.4 C8.03,6.19 7.99,6.4 7.89,6.51 C7.85224121,6.54974616 7.79982229,6.57225023 7.745,6.57225023 C7.69017771,6.57225023 7.63775879,6.54974616 7.6,6.51 C7.51,6.42 7.44,6.51 7.34,6.62 C7.24,6.73 7.22,6.49 7.06,6.62 C6.9,6.75 7,6.44 7,6.52 C7,6.6 6.78,6.52 6.73,6.64 C6.68,6.76 6.73,6.73 6.82,6.64 C6.91,6.55 7.02,6.64 7.21,6.53 C7.4,6.42 7.21,6.59 7.21,6.64 C7.21,6.69 7.1,6.72 6.98,6.79 C6.86,6.86 6.86,6.92 6.98,6.89 C7.1,6.86 7,6.9 6.91,7 C6.82,7.1 6.69,7 6.61,7 C6.53,7 6.42,7.09 6.32,7.19 C6.22,7.29 6.32,7.27 6.48,7.19 C6.60103341,7.15631572 6.72896659,7.15631572 6.85,7.19 C6.96,7.19 7.07,7.05 7.02,7.19 C6.97,7.33 7.13,7.19 7.22,7.13 C7.31,7.07 7.52,7.06 7.39,7.19 C7.26,7.32 7.62,7.19 7.72,7.09 C7.82,6.99 7.94,7.19 8.04,7.09 C8.06300679,7.08447936 8.08699321,7.08447936 8.11,7.09 L8.36,7.45 C8.28,7.37 8.15,7.45 8.19,7.58 C8.23,7.71 8.01,7.58 7.94,7.65 C7.90769909,7.68833253 7.86012715,7.71045549 7.81,7.71045549 C7.75987285,7.71045549 7.71230091,7.68833253 7.68,7.65 C7.64072026,7.61642417 7.58613921,7.60721561 7.53801788,7.62604569 C7.48989655,7.64487578 7.45606054,7.68868232 7.45,7.74 C7.45,7.85 7.32,7.65 7.25,7.85 C7.1229338,7.96563274 6.94842651,8.01390071 6.78,7.98 C6.65,7.98 6.54,8.11 6.25,7.98 C5.96,7.85 6.11,7.89 6,8 C5.89,8.11 6,8.1 6.13,8.07 C6.26,8.04 6.41,8.07 6.33,8.12 C6.25,8.17 6.43,8.19 6.5,8.12 C6.57,8.05 6.62,8.12 6.73,8.2 C6.84,8.28 6.93,8.28 7,8.2 C7.07,8.12 7.1,8.08 7.23,8.14 C7.36,8.2 7.57,8 7.69,8.05 C7.81,8.1 7.85,8.05 7.95,7.98 C8.05,7.91 8,8 8,7.94 L8,8 L8.12,8.17 C8.16112083,8.23101485 8.20800241,8.28794248 8.26,8.34 C8.30985223,8.39437496 8.36707477,8.4414994 8.43,8.48 C8.46677456,8.51030618 8.51239515,8.52785256 8.56,8.53 L8.65,8.53 C8.71631287,8.52028689 8.78368713,8.52028689 8.85,8.53 C8.91221136,8.53732566 8.97292317,8.55419005 9.03,8.58 C9.07629932,8.59573089 9.11767175,8.62331251 9.15,8.66 C9.20091491,8.74418901 9.22530657,8.84175563 9.22,8.94 C9.22,9.02 9.22,9.14 9.14,9.16 C9.07598268,9.17262119 9.02746766,9.22517913 9.02,9.29 C9.02,9.41 8.83,9.36 8.79,9.44 C8.75,9.52 8.58,9.54 8.52,9.6 C8.46,9.66 8.42,9.65 8.33,9.65 C8.26259534,9.65363423 8.20372653,9.69680469 8.18,9.76 L8.51,9.76 C8.60004872,9.77230571 8.6902465,9.73848154 8.75,9.67 C8.84,9.58 9.05,9.6 9.02,9.62 C8.84,9.74 8.82,9.76 8.93,9.76 L9.1,9.76 C9.27,9.76 9.1,9.67 9.27,9.66 C9.44,9.65 9.37,9.54 9.63,9.52 C9.69,9.52 9.63,9.59 9.48,9.64 C9.33,9.69 9.4,9.76 9.48,9.76 L9.69,9.76 C9.81,9.76 9.79,9.76 9.89,9.61 C9.99,9.46 10.16,9.52 10.07,9.61 C9.98,9.7 10,9.76 10.07,9.76 L10.31,9.76 C10.37,9.76 10.31,9.76 10.31,9.76 C10.31,9.76 10.24,9.7 10.31,9.66 C10.38,9.62 10.37,9.55 10.48,9.66 C10.59,9.77 10.55,9.81 10.66,9.81 L10.87,9.81 C10.92,9.81 10.87,9.81 10.87,9.81 C10.87,9.81 10.75,9.76 10.72,9.72 C10.69,9.68 10.97,9.72 11.03,9.78 C11.1125743,9.84338614 11.2166062,9.87208462 11.32,9.86 L11.63,9.86 C11.57,9.72 11.38,9.73 11.31,9.66 C11.24,9.59 11.16,9.66 11.08,9.56 C11.0477467,9.51025836 10.9876604,9.48622385 10.93,9.5 C10.86,9.5 10.79,9.5 10.8,9.38 C10.81,9.26 10.55,9 10.57,9 C10.59,9 10.51,8.76 10.57,8.71 L10.66,8.64 C10.7806059,8.57467568 10.8944884,8.49763754 11,8.41 C11.10498,8.3413671 11.1882303,8.24424179 11.24,8.13 C11.24,8.13 11.24,8.13 11.24,8.08 L11.37,8.08 C11.46,8.08 11.48,8.16 11.58,8.27 C11.68,8.38 11.78,8.27 11.9,8.27 C12.02,8.27 11.98,8.12 12.26,8.27 C12.54,8.42 12.4,8.14 12.57,8.27 C12.74,8.4 12.57,8.27 12.77,8.32 C12.97,8.37 13.06,8.32 13.17,8.32 C13.28,8.32 13.43,8.37 13.48,8.32 C13.53,8.27 13.6,8.32 13.71,8.26 C13.82,8.2 13.87,8.26 13.81,8.2 C13.75,8.14 13.68,8.2 13.6,8.15 C13.52,8.1 13.38,8.15 13.3,8.15 C13.22,8.15 13.12,8.04 13.08,8.15 C13.04,8.26 12.99,8.25 12.92,8.08 C12.85,7.91 12.73,8.14 12.62,8.02 C12.51,7.9 12.43,8.02 12.34,7.96 C12.25,7.9 12.14,7.96 12.07,7.82 C12,7.68 11.84,7.82 11.68,7.65 L12,7.65 C12.1369849,7.64527918 12.274125,7.65196894 12.41,7.67 Z M10.41,8.26 C10.3119386,8.18108475 10.2504986,8.06543302 10.24,7.94 C10.3456569,7.91924309 10.4543431,7.91924309 10.56,7.94 C10.5346044,8.05021409 10.4977367,8.15746568 10.45,8.26 L10.41,8.26 Z M9.25,5.87 L9.3,5.87 C9.37928424,5.85486579 9.46071576,5.85486579 9.54,5.87 C9.54,5.98 9.54,6.11 9.54,6.24 C9.54,6.37 9.54,6.24 9.45,6.18 C9.36,6.12 9.32,6.18 9.2,6.18 C9.21470247,6.07049128 9.21470247,5.95950872 9.2,5.85 L9.25,5.87 Z M10,5 C10.0149544,5.1195341 10.0149544,5.2404659 10,5.36 C9.97158533,5.34682975 9.94736108,5.32606611 9.93,5.3 C9.84,5.2 9.78,5.3 9.7,5.3 C9.62,5.3 9.7,5.07 9.65,4.96 C9.7681584,4.95040854 9.88705246,4.96399644 10,5 Z M10.43,6.78 C10.4560037,6.78840911 10.4839963,6.78840911 10.51,6.78 C10.5053215,6.79972639 10.5053215,6.82027361 10.51,6.84 C10.4939738,6.97524239 10.4672229,7.10899694 10.43,7.24 C10.3687275,7.27792674 10.2912725,7.27792674 10.23,7.24 L10.23,6.94 C10.2246271,6.89348799 10.2246271,6.84651201 10.23,6.8 C10.2771979,6.76848213 10.3364961,6.76106985 10.39,6.78 L10.43,6.78 Z M10,6.2 C9.92,6.11 9.82,6.1 9.77,6.2 C9.77,6.11 9.77,5.98 9.77,5.88 L9.86,5.88 C9.92086534,5.8549955 9.98913466,5.8549955 10.05,5.88 L10.05,5.96 C10.029355,6.0391193 10.0126676,6.11921874 10,6.2 Z M9.82,7.2 C9.82,7.11 9.82,6.99 9.76,6.88 C9.84468796,6.85380932 9.93531204,6.85380932 10.02,6.88 L10.08,6.88 C10.08,6.88 10.08,6.88 10.08,6.95 C10.0849242,7.02325067 10.0849242,7.09674933 10.08,7.17 C9.9,7.23 9.86,7.17 9.78,7.21 L9.82,7.2 Z M10.49,5.93 C10.49,5.93 10.49,6 10.49,6.03 C10.49,6.06 10.49,6.16 10.49,6.22 C10.406756,6.18555408 10.313244,6.18555408 10.23,6.22 L10.14,6.22 C10.14,6.22 10.14,6.16 10.14,6.13 C10.1303652,6.05029009 10.1303652,5.96970991 10.14,5.89 L10.23,5.89 C10.306842,5.88192652 10.3841959,5.89950694 10.45,5.94 L10.49,5.93 Z M9.49,6.93 L9.57,6.93 C9.57,7.06 9.57,7.21 9.64,7.33 C9.71,7.45 9.44,7.33 9.33,7.24 L9.27,7.24 L9.21,6.95 C9.24,6.88 9.29,6.89 9.47,6.92 L9.49,6.93 Z M10.91,6.93 C10.91,7.04 10.84,7.15 10.81,7.27 C10.78,7.39 10.81,7.27 10.81,7.33 C10.7370997,7.34126985 10.6629003,7.34126985 10.59,7.33 C10.6197307,7.20506247 10.6397901,7.07801976 10.65,6.95 C10.6545556,6.9067864 10.6545556,6.8632136 10.65,6.82 C10.6996776,6.81196983 10.7503224,6.81196983 10.8,6.82 L10.95,6.82 L10.91,6.93 Z M11.27,6.08 L11.34,6.08 C11.3220733,6.13631867 11.2912568,6.1876794 11.25,6.23 L11.18,6.23 C11.1619465,6.20455634 11.1379054,6.1839497 11.11,6.17 C11.11,6.17 11.11,6.09 11.11,6.04 L11.27,6.08 Z M10.89,6 L10.89,6.12 C10.8544857,6.10699972 10.8155143,6.10699972 10.78,6.12 C10.7301138,6.17966186 10.6576612,6.21588814 10.58,6.22 L10.58,5.96 C10.5753215,5.94027361 10.5753215,5.91972639 10.58,5.9 C10.6875546,5.91845613 10.7919347,5.95212714 10.89,6 Z M10.89,5.06 C10.8955947,5.09309858 10.8955947,5.12690142 10.89,5.16 C10.8690036,5.22909623 10.8350684,5.29357323 10.79,5.35 L10.68,5.47 C10.6451398,5.45372292 10.6048602,5.45372292 10.57,5.47 C10.5642511,5.41347914 10.5642511,5.35652086 10.57,5.3 C10.5744922,5.19901891 10.5878774,5.09863037 10.61,5 C10.6936129,5.00078791 10.7758531,5.02134794 10.85,5.06 L10.89,5.06 Z M10.41,5 L10.51,5 C10.51,5.05 10.51,5.11 10.44,5.17 L10.38,5.38 C10.28,5.38 10.33,5.3 10.17,5.3 C10.1799711,5.18020713 10.1799711,5.05979287 10.17,4.94 C10.2536129,4.94078791 10.3358531,4.96134794 10.41,5 Z M10,4.28 L10.05,4.28 L10.05,4.38 L10.05,4.51 C10.0168863,4.50458823 9.98311368,4.50458823 9.95,4.51 C9.90715372,4.51918814 9.86284628,4.51918814 9.82,4.51 C9.84517706,4.38123325 9.86187959,4.25095351 9.87,4.12 C9.92156892,4.16607815 9.96545409,4.22009066 10,4.28 Z M9.4,4.28 C9.46616372,4.29158097 9.53383628,4.29158097 9.6,4.28 L9.71,4.28 C9.70237864,4.39926619 9.67883651,4.51697684 9.64,4.63 C9.60132988,4.61541298 9.55867012,4.61541298 9.52,4.63 C9.49754582,4.52788968 9.46746136,4.42760816 9.43,4.33 L9.4,4.28 Z M9.48,5 L9.56,5 C9.56844198,5.09982183 9.56844198,5.20017817 9.56,5.3 C9.5,5.3 9.44,5.3 9.34,5.36 L9.26,5.42 C9.2698848,5.36040712 9.2698848,5.29959288 9.26,5.24 C9.264469,5.18008322 9.264469,5.11991678 9.26,5.06 C9.32,5 9.35,5 9.48,5 Z M8.86,5.83 C8.94588361,5.81352397 9.03411639,5.81352397 9.12,5.83 C9.13455891,5.91941122 9.13455891,6.01058878 9.12,6.1 C9.06257708,6.06130496 8.98742292,6.06130496 8.93,6.1 C8.87833119,6.03000988 8.83784851,5.9524181 8.81,5.87 L8.86,5.83 Z M8.3,7 C8.38,6.92 8.42,6.92 8.58,7 C8.74,7.08 8.79,7 8.73,7 C8.67,7 8.67,6.94 8.94,7 L9,7 C9,7.09 9,7.18 9.05,7.27 L9,7.32 C8.93,7.4 8.85,7.32 8.7,7.24 C8.55,7.16 8.54,7.24 8.49,7.34 C8.41,7.24 8.33,7.13 8.24,7.03 C8.26244525,7.02590717 8.28325859,7.0155005 8.3,7 Z M8.52,8.32 C8.45880696,8.29633379 8.40400945,8.25866051 8.36,8.21 L8.22,8.07 L8.11,7.94 C8.16988978,7.94931395 8.22753182,7.9696582 8.28,8 C8.39,8 8.4,8 8.5,8 L8.55,8 C8.55,8 8.55,8.06 8.55,8.09 C8.55779327,8.19410234 8.58492329,8.29583991 8.63,8.39 L8.58,8.39 L8.52,8.32 Z M8.94,8.32 C8.87424312,8.31198899 8.81740563,8.27030817 8.79,8.21 C8.75293812,8.14441498 8.72596879,8.07362048 8.71,8 L8.71,7.92 C8.80914812,7.93667916 8.90632351,7.96348617 9,8 C8.97822215,8.11901193 8.97822215,8.24098807 9,8.36 L8.94,8.32 Z M11.08,8.03 C11.0254403,8.11119814 10.9537615,8.1794637 10.87,8.23 L10.63,8.34 C10.6952818,8.23118287 10.7521154,8.11751572 10.8,8 C10.7983323,7.96668753 10.7983323,7.93331247 10.8,7.9 C10.8738769,7.91637592 10.9425731,7.95072402 11,8 L11.09,8 C11.09,8 11.08,8 11.08,8.05 L11.08,8.03 Z"/>
  </g>
</svg>
