<svg xmlns="http://www.w3.org/2000/svg" width="20" height="14" viewBox="0 0 20 14">
  <g fill="none">
    <rect width="19.82" height="13.21" fill="#00AE29"/>
    <rect width="19.82" height="9.91" fill="#000"/>
    <rect width="19.82" height="3.3" fill="#ED2413"/>
    <path fill="#FFF" d="M9.41,7.78 C8.81767589,7.30108719 8.70077411,6.4437248 9.1432596,5.82371518 C9.58574509,5.20370557 10.4345419,5.03553836 11.08,5.44 C10.4346826,4.79829905 9.39164704,4.80025296 8.74873835,5.44436713 C8.10582966,6.0884813 8.10582966,7.1315187 8.74873835,7.77563287 C9.39164704,8.41974704 10.4346826,8.42170095 11.08,7.78 C10.5782838,8.12979472 9.91171621,8.12979472 9.41,7.78 Z"/>
    <polygon fill="#FFF" points="12.41 6.61 12.94 5.88 12.09 6.16 11.56 5.44 11.56 6.33 10.71 6.61 11.56 6.88 11.56 7.78 12.09 7.05 12.94 7.33"/>
  </g>
</svg>
