<svg xmlns="http://www.w3.org/2000/svg" width="20" height="14" viewBox="0 0 20 14">
  <g fill="none">
    <rect width="19.82" height="13.21" fill="#D82437"/>
    <path fill="#006A11" d="M9.91,4.4 L9.41,5.93 L7.8,5.93 L9.1,6.87 L8.61,8.4 L9.91,7.46 L11.21,8.4 L10.72,6.88 L12.02,5.88 L10.41,5.88 L9.91,4.4 Z M9.91,5.4 L10.07,5.88 L9.75,5.88 L9.91,5.4 Z M9.31,6.2 L9.21,6.5 L8.8,6.2 L9.31,6.2 Z M9.65,6.2 L10.17,6.2 L10.34,6.7 L9.91,7.01 L9.48,6.7 L9.65,6.2 Z M10.51,6.2 L11,6.2 L10.59,6.5 L10.51,6.2 Z M9.38,7.03 L9.63,7.21 L9.22,7.51 L9.38,7.03 Z M10.44,7.03 L10.6,7.51 L10.19,7.21 L10.44,7.03 Z"/>
  </g>
</svg>
