<svg xmlns="http://www.w3.org/2000/svg" width="20" height="14" viewBox="0 0 20 14">
  <g fill="none" fill-rule="evenodd">
    <rect width="19.82" height="13.21" fill="#FFF" fill-rule="nonzero"/>
    <polygon fill="#DA201B" fill-rule="nonzero" points="4.96 0 0 0 0 13.21 19.82 13.21 19.82 4.4 4.96 4.4"/>
    <rect width="14.87" height="4.41" x="4.95" y="8.81" fill="#00A500" fill-rule="nonzero"/>
    <path fill="#FFF" d="M0.65,2.26 L1.36,2.26 C1.46,2.26 1.43,2.42 1.43,2.48 C1.43,2.54 1.43,2.73 1.36,2.73 C1.30010453,2.73500871 1.23989547,2.73500871 1.18,2.73 L0.65,2.73 C0.55,2.73 0.58,2.58 0.58,2.51 C0.58,2.44 0.58,2.26 0.65,2.26 Z"/>
    <path stroke="#DA201B" stroke-width=".01" d="M0.65,2.26 L1.36,2.26 C1.46,2.26 1.43,2.42 1.43,2.48 C1.43,2.54 1.43,2.73 1.36,2.73 C1.30010453,2.73500871 1.23989547,2.73500871 1.18,2.73 L0.65,2.73 C0.55,2.73 0.58,2.58 0.58,2.51 C0.58,2.44 0.58,2.26 0.65,2.26 Z"/>
    <path fill="#FFF" d="M0.66,2.28 L1.18,2.28 C1.24294458,2.27007607 1.30705542,2.27007607 1.37,2.28 C1.44,2.28 1.37,2.49 1.37,2.55 C1.37,2.61 1.37,2.7 1.28,2.7 L0.75,2.7 C0.69,2.7 0.6,2.7 0.6,2.63 L0.6,2.43 C0.6,2.37 0.6,2.27 0.66,2.27 L0.66,2.28 Z"/>
    <path stroke="#DA201B" stroke-width=".01" d="M0.66,2.28 L1.18,2.28 C1.24294458,2.27007607 1.30705542,2.27007607 1.37,2.28 C1.44,2.28 1.37,2.49 1.37,2.55 C1.37,2.61 1.37,2.7 1.28,2.7 L0.75,2.7 C0.69,2.7 0.6,2.7 0.6,2.63 L0.6,2.43 C0.6,2.37 0.6,2.27 0.66,2.27 L0.66,2.28 Z"/>
    <path fill="#FFF" d="M1,2.4 C1,2.4 1,2.4 1,2.4 C1,2.4 1,2.4 1,2.4 C1,2.4 1,2.4 1,2.4 C1,2.4 1,2.4 1,2.4 C1,2.4 1,2.4 1,2.4 C1,2.4 1,2.4 0.94,2.4 C0.88,2.4 0.94,2.4 0.94,2.4 C0.94,2.4 0.94,2.4 0.94,2.4 C0.94,2.4 0.94,2.4 0.88,2.4 L0.85,2.4 C0.85,2.4 0.85,2.4 0.85,2.4 C0.85,2.4 0.85,2.4 0.9,2.4 C0.9,2.4 0.9,2.4 0.95,2.4 C1,2.4 0.95,2.4 0.95,2.4 L1,2.4 Z"/>
    <path stroke="#DA201B" d="M1,2.4 C1,2.4 1,2.4 1,2.4 C1,2.4 1,2.4 1,2.4 C1,2.4 1,2.4 1,2.4 C1,2.4 1,2.4 1,2.4 C1,2.4 1,2.4 1,2.4 C1,2.4 1,2.4 0.94,2.4 C0.88,2.4 0.94,2.4 0.94,2.4 C0.94,2.4 0.94,2.4 0.94,2.4 C0.94,2.4 0.94,2.4 0.88,2.4 L0.85,2.4 C0.85,2.4 0.85,2.4 0.85,2.4 C0.85,2.4 0.85,2.4 0.9,2.4 C0.9,2.4 0.9,2.4 0.95,2.4 C1,2.4 0.95,2.4 0.95,2.4 L1,2.4 Z"/>
    <path fill="#FFF" d="M1,2.49 C1,2.49 0.91,2.49 0.91,2.49 C0.91,2.49 1,2.44 1,2.49 Z"/>
    <path stroke="#DA201B" stroke-width=".01" d="M1,2.49 C1,2.49 0.91,2.49 0.91,2.49 C0.91,2.49 1,2.44 1,2.49 Z"/>
    <path fill="#DA201B" fill-rule="nonzero" d="M0.64,2.37 C0.64,2.37 0.64,2.31 0.7,2.3 C0.76,2.29 0.7,2.35 0.64,2.37 Z"/>
    <path fill="#DA201B" fill-rule="nonzero" d="M.69 2.37C.69 2.37.69 2.31.75 2.3.81 2.29.7 2.35.69 2.37zM.73 2.37C.73 2.37.78 2.31.79 2.3.8 2.29.79 2.35.73 2.37z"/>
    <path fill="#DA201B" fill-rule="nonzero" d="M0.77,2.37 C0.77,2.37 0.77,2.31 0.84,2.3 C0.91,2.29 0.84,2.35 0.77,2.37 Z"/>
    <path fill="#DA201B" fill-rule="nonzero" d="M.82 2.37C.82 2.37.82 2.31.88 2.3.94 2.29.83 2.35.82 2.37zM.86 2.37C.86 2.37.91 2.31.92 2.3.93 2.29.92 2.35.86 2.37zM.91 2.37C.91 2.37 1 2.31 1 2.3 1 2.29 1 2.35.94 2.37L.91 2.37z"/>
    <path fill="#DA201B" fill-rule="nonzero" d="M1 2.37C1 2.37 1 2.31 1 2.3 1 2.29 1 2.35.94 2.37L1 2.37zM1 2.37C1 2.37 1.05 2.31 1.06 2.3 1.07 2.29 1.06 2.35 1 2.37z"/>
    <path fill="#DA201B" fill-rule="nonzero" d="M1 2.37C1 2.37 1 2.31 1.06 2.3 1.12 2.29 1.01 2.35 1 2.37zM1.08 2.37C1.08 2.37 1.08 2.31 1.14 2.3 1.2 2.29 1.14 2.35 1.08 2.37z"/>
    <path fill="#DA201B" fill-rule="nonzero" d="M1.12 2.37C1.12 2.37 1.12 2.31 1.19 2.3 1.26 2.29 1.14 2.35 1.12 2.37zM1 2.37C1 2.37 1 2.31 1 2.3 1 2.29 1 2.35.94 2.37L1 2.37z"/>
    <path fill="#DA201B" fill-rule="nonzero" d="M1.17,2.37 C1.17,2.37 1.17,2.31 1.23,2.3 C1.29,2.29 1.23,2.35 1.17,2.37 Z"/>
    <path fill="#DA201B" fill-rule="nonzero" d="M1.21 2.37C1.21 2.37 1.26 2.31 1.27 2.3 1.28 2.29 1.27 2.35 1.21 2.37zM1.26 2.37C1.26 2.37 1.26 2.31 1.32 2.3 1.38 2.29 1.27 2.35 1.26 2.37zM1.3 2.37C1.3 2.37 1.35 2.31 1.36 2.3 1.37 2.29 1.36 2.35 1.3 2.37z"/>
    <path fill="#DA201B" fill-rule="nonzero" d="M1.36 2.37C1.36 2.37 1.29 2.32 1.3 2.3 1.31 2.28 1.37 2.35 1.36 2.37zM1.32 2.37C1.32 2.37 1.25 2.32 1.26 2.3 1.27 2.28 1.32 2.35 1.32 2.37zM1.27 2.37C1.27 2.37 1.2 2.32 1.21 2.3 1.22 2.28 1.28 2.35 1.27 2.37zM1.23 2.37C1.23 2.37 1.16 2.32 1.17 2.3 1.18 2.28 1.23 2.35 1.23 2.37zM1.19 2.37C1.19 2.37 1.12 2.32 1.12 2.3 1.12 2.28 1.19 2.35 1.19 2.37zM1.14 2.37C1.14 2.37 1.07 2.32 1.08 2.3 1.09 2.28 1.15 2.35 1.14 2.37zM1.1 2.37C1.1 2.37 1 2.32 1 2.3 1 2.28 1.06 2.35 1.06 2.37L1.1 2.37z"/>
    <path fill="#DA201B" fill-rule="nonzero" d="M1.05,2.37 C1.05,2.37 1,2.32 1,2.3 C1,2.28 1.07,2.35 1.06,2.37 L1.05,2.37 Z"/>
    <path fill="#DA201B" fill-rule="nonzero" d="M1,2.37 C1,2.37 0.94,2.32 1,2.3 C1.06,2.28 1.07,2.35 1.06,2.37 L1,2.37 Z"/>
    <path fill="#DA201B" fill-rule="nonzero" d="M1 2.37C1 2.37.9 2.32.91 2.3.92 2.28.97 2.35.97 2.37L1 2.37zM.92 2.37C.92 2.37.85 2.32.86 2.3.87 2.28.93 2.35.92 2.37z"/>
    <path fill="#DA201B" fill-rule="nonzero" d="M.88 2.37C.88 2.37.81 2.32.82 2.3.83 2.28.89 2.35.88 2.37zM1.05 2.37C1.05 2.37 1 2.32 1 2.3 1 2.28 1.07 2.35 1.06 2.37L1.05 2.37zM.84 2.37C.84 2.37.77 2.32.77 2.3.77 2.28.84 2.35.84 2.37zM.79 2.37C.79 2.37.72 2.32.73 2.3.74 2.28.8 2.35.79 2.37z"/>
    <path fill="#DA201B" fill-rule="nonzero" d="M.75 2.37C.75 2.37.68 2.32.69 2.3.7 2.28.76 2.35.75 2.37zM.7 2.37C.7 2.37.64 2.32.64 2.3.64 2.28.71 2.35.7 2.37zM.64 2.7C.64 2.7.64 2.64.7 2.63L.64 2.7zM.69 2.7C.69 2.7.69 2.64.75 2.63L.69 2.7zM.73 2.7C.73 2.7.78 2.64.79 2.63L.73 2.7zM.77 2.7C.77 2.7.77 2.64.84 2.63L.77 2.7zM.82 2.7C.82 2.7.82 2.64.88 2.63L.82 2.7zM.86 2.7C.86 2.7.91 2.64.92 2.63L.86 2.7zM.91 2.7C.91 2.7.91 2.64.97 2.63L1 2.63.91 2.7zM1 2.7C1 2.7 1 2.64 1.06 2.63L1 2.63 1 2.7zM1 2.7C1 2.7 1.05 2.65 1.06 2.63L1 2.7z"/>
    <path fill="#DA201B" fill-rule="nonzero" d="M1 2.7C1 2.7 1 2.64 1.06 2.63L1 2.7zM1.08 2.7C1.08 2.7 1.08 2.64 1.14 2.63L1.07 2.69 1.08 2.7zM1.12 2.7C1.12 2.7 1.12 2.64 1.19 2.63L1.12 2.69 1.12 2.7z"/>
    <path fill="#DA201B" fill-rule="nonzero" d="M1 2.7C1 2.7 1 2.64 1.06 2.63L1 2.63 1 2.7zM1.17 2.7C1.17 2.7 1.17 2.64 1.23 2.63 1.29 2.62 1.23 2.68 1.17 2.7z"/>
    <path fill="#DA201B" fill-rule="nonzero" d="M1.21 2.7C1.21 2.7 1.26 2.64 1.27 2.63L1.2 2.69 1.21 2.7zM1.26 2.7C1.26 2.7 1.26 2.64 1.32 2.63L1.26 2.69 1.26 2.7zM1.3 2.7C1.3 2.7 1.35 2.64 1.36 2.63L1.3 2.7z"/>
    <path fill="#DA201B" fill-rule="nonzero" d="M1.36 2.7L1.29 2.64C1.29 2.64 1.36 2.69 1.35 2.71L1.36 2.7zM1.32 2.7L1.25 2.64C1.25 2.64 1.31 2.69 1.31 2.71L1.32 2.7zM1.27 2.7L1.21 2.64C1.21 2.64 1.28 2.69 1.27 2.71L1.27 2.7zM1.23 2.7L1.16 2.64C1.16 2.64 1.22 2.69 1.22 2.71L1.23 2.7zM1.19 2.7L1.12 2.64C1.12 2.64 1.19 2.69 1.19 2.71L1.19 2.7zM1.14 2.7L1.08 2.64C1.08 2.64 1.15 2.69 1.14 2.71L1.14 2.7zM1.1 2.7L1 2.64C1 2.64 1.06 2.69 1.06 2.71L1.1 2.7z"/>
    <path fill="#DA201B" fill-rule="nonzero" d="M1.05 2.7C1.05 2.7 1 2.65 1 2.63 1 2.61 1.07 2.68 1.06 2.7L1.05 2.7zM1 2.7L.94 2.64 1 2.64C1 2.64 1 2.68 1 2.7z"/>
    <path fill="#DA201B" fill-rule="nonzero" d="M1 2.7L.9 2.64C.9 2.64 1 2.68 1 2.7zM.92 2.7L.86 2.64C.86 2.64.93 2.69.92 2.71L.92 2.7zM.88 2.7L.81 2.64C.81 2.64.88 2.69.87 2.71L.88 2.7zM1.05 2.7C1.05 2.7 1 2.65 1 2.63 1 2.61 1.07 2.68 1.06 2.7L1.05 2.7zM.84 2.7L.77 2.64C.77 2.64.84 2.69.84 2.71L.84 2.7zM.79 2.7L.73 2.64C.73 2.64.8 2.69.79 2.71L.79 2.7zM.75 2.7L.68 2.64C.68 2.64.75 2.69.74 2.71L.75 2.7zM.7 2.7L.64 2.64C.64 2.64.71 2.69.7 2.71L.7 2.7z"/>
    <path fill="#FFF" d="M4.22,2.26 L3.51,2.26 C3.41,2.26 3.44,2.42 3.44,2.48 C3.44,2.54 3.44,2.73 3.51,2.73 C3.56656394,2.7348254 3.62343606,2.7348254 3.68,2.73 L4.22,2.73 C4.32,2.73 4.29,2.58 4.29,2.51 C4.29,2.44 4.29,2.26 4.22,2.26 Z"/>
    <path stroke="#DA201B" stroke-width=".01" d="M4.22,2.26 L3.51,2.26 C3.41,2.26 3.44,2.42 3.44,2.48 C3.44,2.54 3.44,2.73 3.51,2.73 C3.56656394,2.7348254 3.62343606,2.7348254 3.68,2.73 L4.22,2.73 C4.32,2.73 4.29,2.58 4.29,2.51 C4.29,2.44 4.29,2.26 4.22,2.26 Z"/>
    <path fill="#FFF" d="M4.2,2.28 L3.68,2.28 C3.61705542,2.27007607 3.55294458,2.27007607 3.49,2.28 C3.43,2.28 3.49,2.49 3.49,2.55 C3.49,2.61 3.49,2.7 3.57,2.7 L4.15,2.7 C4.15,2.7 4.3,2.7 4.3,2.63 L4.3,2.43 C4.3,2.37 4.3,2.27 4.23,2.27 L4.2,2.28 Z"/>
    <path stroke="#DA201B" stroke-width=".01" d="M4.2,2.28 L3.68,2.28 C3.61705542,2.27007607 3.55294458,2.27007607 3.49,2.28 C3.43,2.28 3.49,2.49 3.49,2.55 C3.49,2.61 3.49,2.7 3.57,2.7 L4.15,2.7 C4.15,2.7 4.3,2.7 4.3,2.63 L4.3,2.43 C4.3,2.37 4.3,2.27 4.23,2.27 L4.2,2.28 Z"/>
    <path fill="#FFF" d="M3.89,2.4 C3.89,2.4 3.89,2.4 3.89,2.4 C3.89,2.4 3.89,2.4 3.89,2.4 C3.89,2.4 3.89,2.4 3.89,2.4 C3.89,2.4 3.89,2.4 3.89,2.4 C3.89,2.4 3.89,2.4 3.89,2.4 C3.89,2.4 3.89,2.4 3.95,2.4 C4.01,2.4 3.95,2.4 3.95,2.4 C3.95,2.4 3.95,2.4 3.95,2.4 C3.95,2.4 3.95,2.4 4.01,2.4 C4.07,2.4 4.01,2.4 4.01,2.4 C4.01,2.4 4.01,2.4 4.01,2.4 L4,2.4 C4,2.4 4,2.4 4,2.4 C4,2.4 4,2.4 3.95,2.4 C3.9,2.4 3.95,2.4 3.95,2.4 L3.89,2.4 Z"/>
    <path stroke="#DA201B" d="M3.89,2.4 C3.89,2.4 3.89,2.4 3.89,2.4 C3.89,2.4 3.89,2.4 3.89,2.4 C3.89,2.4 3.89,2.4 3.89,2.4 C3.89,2.4 3.89,2.4 3.89,2.4 C3.89,2.4 3.89,2.4 3.89,2.4 C3.89,2.4 3.89,2.4 3.95,2.4 C4.01,2.4 3.95,2.4 3.95,2.4 C3.95,2.4 3.95,2.4 3.95,2.4 C3.95,2.4 3.95,2.4 4.01,2.4 C4.07,2.4 4.01,2.4 4.01,2.4 C4.01,2.4 4.01,2.4 4.01,2.4 L4,2.4 C4,2.4 4,2.4 4,2.4 C4,2.4 4,2.4 3.95,2.4 C3.9,2.4 3.95,2.4 3.95,2.4 L3.89,2.4 Z"/>
    <path fill="#FFF" d="M3.92,2.49 C3.92,2.44 3.83,2.44 3.83,2.49 C3.83,2.54 3.92,2.49 3.92,2.49 Z"/>
    <path stroke="#DA201B" stroke-width=".01" d="M3.92,2.49 C3.92,2.44 3.83,2.44 3.83,2.49 C3.83,2.54 3.92,2.49 3.92,2.49 Z"/>
    <path fill="#DA201B" fill-rule="nonzero" d="M4.22 2.37C4.22 2.37 4.15 2.32 4.16 2.3 4.17 2.28 4.23 2.35 4.22 2.37zM4.18 2.37C4.18 2.37 4.11 2.32 4.12 2.3 4.13 2.28 4.18 2.35 4.18 2.37zM4.13 2.37C4.13 2.37 4.06 2.32 4.07 2.3 4.08 2.28 4.14 2.35 4.13 2.37zM4.09 2.37C4.09 2.37 4 2.32 4 2.3 4 2.28 4.07 2.35 4.06 2.37L4.09 2.37z"/>
    <path fill="#DA201B" fill-rule="nonzero" d="M4.05 2.37C4.05 2.37 4 2.32 4 2.3 4 2.28 4.07 2.35 4.07 2.37L4.05 2.37zM4 2.37C4 2.37 3.93 2.32 3.94 2.3 3.95 2.28 4.01 2.35 4 2.37z"/>
    <path fill="#DA201B" fill-rule="nonzero" d="M4 2.37C4 2.37 3.93 2.32 3.94 2.3 3.95 2.28 4.01 2.35 4 2.37zM3.91 2.37C3.91 2.37 3.84 2.32 3.85 2.3 3.86 2.28 3.92 2.35 3.91 2.37z"/>
    <path fill="#DA201B" fill-rule="nonzero" d="M3.87,2.37 C3.87,2.37 3.8,2.32 3.81,2.3 C3.82,2.28 3.88,2.35 3.87,2.37 Z"/>
    <path fill="#DA201B" fill-rule="nonzero" d="M3.83 2.37C3.83 2.37 3.76 2.32 3.77 2.3 3.78 2.28 3.84 2.35 3.83 2.37zM3.78 2.37C3.78 2.37 3.71 2.32 3.72 2.3 3.73 2.28 3.79 2.35 3.78 2.37z"/>
    <path fill="#DA201B" fill-rule="nonzero" d="M3.74 2.37C3.74 2.37 3.67 2.32 3.68 2.3 3.69 2.28 3.75 2.35 3.74 2.37zM3.91 2.37C3.91 2.37 3.84 2.32 3.85 2.3 3.86 2.28 3.92 2.35 3.91 2.37z"/>
    <path fill="#DA201B" fill-rule="nonzero" d="M3.7 2.37C3.7 2.37 3.62 2.32 3.64 2.3 3.66 2.28 3.7 2.35 3.7 2.37zM3.65 2.37C3.65 2.37 3.58 2.32 3.59 2.3 3.6 2.28 3.66 2.35 3.65 2.37z"/>
    <path fill="#DA201B" fill-rule="nonzero" d="M3.61 2.37C3.61 2.37 3.54 2.32 3.55 2.3 3.56 2.28 3.62 2.35 3.61 2.37zM3.56 2.37C3.56 2.37 3.49 2.32 3.5 2.3 3.51 2.28 3.57 2.35 3.56 2.37z"/>
    <path fill="#DA201B" fill-rule="nonzero" d="M3.5,2.37 C3.5,2.37 3.5,2.31 3.56,2.3 C3.62,2.29 3.56,2.35 3.5,2.37 Z"/>
    <path fill="#DA201B" fill-rule="nonzero" d="M3.55,2.37 C3.55,2.37 3.55,2.31 3.61,2.3 C3.67,2.29 3.61,2.35 3.55,2.37 Z"/>
    <path fill="#DA201B" fill-rule="nonzero" d="M3.59 2.37C3.59 2.37 3.64 2.31 3.65 2.3 3.66 2.29 3.65 2.35 3.59 2.37zM3.64 2.37C3.64 2.37 3.64 2.31 3.7 2.3 3.76 2.29 3.65 2.35 3.64 2.37z"/>
    <path fill="#DA201B" fill-rule="nonzero" d="M3.68,2.37 C3.68,2.37 3.68,2.31 3.74,2.3 C3.8,2.29 3.69,2.35 3.68,2.37 Z"/>
    <path fill="#DA201B" fill-rule="nonzero" d="M3.72,2.37 C3.72,2.37 3.72,2.31 3.78,2.3 C3.84,2.29 3.78,2.35 3.72,2.37 Z"/>
    <path fill="#DA201B" fill-rule="nonzero" d="M3.77,2.37 C3.77,2.37 3.77,2.31 3.83,2.3 C3.89,2.29 3.78,2.35 3.77,2.37 Z"/>
    <path fill="#DA201B" fill-rule="nonzero" d="M3.81,2.37 C3.81,2.37 3.81,2.31 3.87,2.3 C3.93,2.29 3.87,2.35 3.81,2.37 Z"/>
    <path fill="#DA201B" fill-rule="nonzero" d="M3.85,2.37 C3.85,2.37 3.85,2.31 3.91,2.3 C3.97,2.29 3.91,2.35 3.85,2.37 Z"/>
    <path fill="#DA201B" fill-rule="nonzero" d="M3.9,2.37 C3.9,2.37 3.9,2.31 3.96,2.3 C4.02,2.29 3.96,2.35 3.9,2.37 Z"/>
    <path fill="#DA201B" fill-rule="nonzero" d="M3.94 2.37C3.94 2.37 4 2.31 4 2.3 4 2.29 4 2.35 3.94 2.37zM4 2.37C4 2.37 4.05 2.31 4.07 2.3 4.09 2.29 4.07 2.35 4 2.37zM3.81 2.37C3.81 2.37 3.81 2.31 3.87 2.3 3.93 2.29 3.87 2.35 3.81 2.37z"/>
    <path fill="#DA201B" fill-rule="nonzero" d="M4,2.37 C4,2.37 4,2.31 4.06,2.3 C4.12,2.29 4.06,2.35 4,2.37 Z"/>
    <path fill="#DA201B" fill-rule="nonzero" d="M4.07,2.37 C4.07,2.37 4.07,2.31 4.13,2.3 C4.19,2.29 4.13,2.35 4.07,2.37 Z"/>
    <path fill="#DA201B" fill-rule="nonzero" d="M4.12,2.37 C4.12,2.37 4.12,2.31 4.18,2.3 C4.24,2.29 4.18,2.35 4.12,2.37 Z"/>
    <path fill="#DA201B" fill-rule="nonzero" d="M4.16 2.37C4.16 2.37 4.16 2.31 4.22 2.3 4.28 2.29 4.22 2.35 4.16 2.37zM4.22 2.7L4.16 2.64C4.16 2.64 4.23 2.69 4.22 2.71L4.22 2.7zM4.18 2.7L4.11 2.64C4.11 2.64 4.17 2.69 4.17 2.71L4.18 2.7zM4.13 2.7L4.07 2.64C4.07 2.64 4.14 2.69 4.13 2.71L4.13 2.7zM4.09 2.7C4.09 2.7 4 2.65 4 2.63 4 2.61 4.07 2.68 4.06 2.7L4.09 2.7z"/>
    <path fill="#DA201B" fill-rule="nonzero" d="M4.05 2.7L4 2.64C4 2.64 4.07 2.69 4.07 2.71L4.05 2.7zM4 2.7L3.94 2.64C3.94 2.64 4 2.68 4 2.7z"/>
    <path fill="#DA201B" fill-rule="nonzero" d="M4 2.7C4 2.7 3.93 2.65 3.94 2.63 3.95 2.61 4 2.68 4 2.7zM3.91 2.7L3.85 2.64C3.85 2.64 3.92 2.69 3.91 2.71L3.91 2.7zM3.87 2.7L3.81 2.64C3.81 2.64 3.88 2.69 3.87 2.71L3.87 2.7zM3.83 2.7L3.76 2.64C3.76 2.64 3.83 2.69 3.82 2.71L3.83 2.7zM3.78 2.7L3.72 2.64C3.72 2.64 3.79 2.69 3.78 2.71L3.78 2.7zM3.74 2.7C3.74 2.7 3.67 2.65 3.68 2.63 3.69 2.61 3.75 2.68 3.74 2.7z"/>
    <path fill="#DA201B" fill-rule="nonzero" d="M3.91 2.7L3.85 2.64C3.85 2.64 3.92 2.69 3.91 2.71L3.91 2.7zM3.7 2.7L3.63 2.64C3.63 2.64 3.69 2.69 3.69 2.71L3.7 2.7zM3.65 2.7L3.59 2.64C3.59 2.64 3.66 2.69 3.65 2.71L3.65 2.7zM3.61 2.7C3.61 2.7 3.54 2.65 3.55 2.63 3.56 2.61 3.62 2.68 3.61 2.7zM3.56 2.7L3.5 2.64C3.5 2.64 3.57 2.69 3.56 2.71L3.56 2.7z"/>
    <path fill="#DA201B" fill-rule="nonzero" d="M3.5 2.7C3.5 2.7 3.5 2.64 3.56 2.63L3.5 2.7zM3.55 2.7C3.55 2.7 3.55 2.65 3.61 2.63L3.55 2.69 3.55 2.7zM3.59 2.7C3.59 2.7 3.64 2.64 3.65 2.63 3.66 2.62 3.65 2.68 3.59 2.7zM3.64 2.7C3.64 2.7 3.64 2.64 3.7 2.63L3.64 2.69 3.64 2.7zM3.68 2.7C3.68 2.7 3.68 2.65 3.74 2.63L3.68 2.69 3.68 2.7zM3.72 2.7C3.72 2.7 3.72 2.64 3.78 2.63 3.84 2.62 3.78 2.68 3.72 2.7z"/>
    <path fill="#DA201B" fill-rule="nonzero" d="M3.77 2.7C3.77 2.7 3.77 2.64 3.83 2.63L3.77 2.69 3.77 2.7zM3.81 2.7C3.81 2.7 3.81 2.64 3.87 2.63L3.8 2.69 3.81 2.7zM3.85 2.7C3.85 2.7 3.85 2.64 3.91 2.63L3.84 2.69 3.85 2.7zM3.9 2.7C3.9 2.7 3.9 2.65 3.96 2.63L4 2.63 3.9 2.7zM3.94 2.7C3.94 2.7 4 2.64 4 2.63L3.93 2.69 3.94 2.7zM4 2.7C4 2.7 4.05 2.64 4.07 2.63L4 2.7z"/>
    <path fill="#DA201B" fill-rule="nonzero" d="M3.81 2.7C3.81 2.7 3.81 2.64 3.87 2.63L3.8 2.69 3.81 2.7zM4 2.7C4 2.7 4 2.65 4.06 2.63L4 2.7zM4.07 2.7C4.07 2.7 4.07 2.64 4.13 2.63 4.19 2.62 4.13 2.68 4.07 2.7z"/>
    <path fill="#DA201B" fill-rule="nonzero" d="M4.12 2.7C4.12 2.7 4.12 2.64 4.18 2.63L4.12 2.69 4.12 2.7zM4.16 2.7C4.16 2.7 4.16 2.64 4.22 2.63L4.15 2.69 4.16 2.7z"/>
    <path fill="#FFF" d="M1.91,3.24 C1.65,3.5 1.38,3.75 1.1,3.98 L0.65,4.34 C0.65,4.34 0.52,4.44 0.58,4.48 C0.64,4.52 0.93,4.42 1.03,4.35 C1.33383527,4.14225709 1.62134006,3.91158464 1.89,3.66 C2.20446266,3.3640086 2.50162112,3.05015583 2.78,2.72 C2.89,2.59 2.98,2.46 3.07,2.33 C3.12756528,2.24395828 3.17142106,2.14949967 3.2,2.05 C3.2,1.96 3.2,1.87 3.07,1.9 C2.94,1.93 3,2 3,2 L2.84,2.24 C2.57177795,2.60061847 2.27047019,2.93540486 1.94,3.24 L1.91,3.24 Z"/>
    <path stroke="#DA201B" stroke-width=".01" d="M1.91,3.24 C1.65,3.5 1.38,3.75 1.1,3.98 L0.65,4.34 C0.65,4.34 0.52,4.44 0.58,4.48 C0.64,4.52 0.93,4.42 1.03,4.35 C1.33383527,4.14225709 1.62134006,3.91158464 1.89,3.66 C2.20446266,3.3640086 2.50162112,3.05015583 2.78,2.72 C2.89,2.59 2.98,2.46 3.07,2.33 C3.12756528,2.24395828 3.17142106,2.14949967 3.2,2.05 C3.2,1.96 3.2,1.87 3.07,1.9 C2.94,1.93 3,2 3,2 L2.84,2.24 C2.57177795,2.60061847 2.27047019,2.93540486 1.94,3.24 L1.91,3.24 Z"/>
    <path fill="#FFF" d="M1,4 L1.37,4.1 C1.23188258,4.22979488 1.07720868,4.34075658 0.91,4.43 C0.799131256,4.48889907 0.67554257,4.51979624 0.55,4.52 C0.44,4.52 0.55,4.41 0.55,4.37 C0.70949162,4.25868578 0.859957913,4.13496905 1,4 Z"/>
    <path stroke="#DA201B" stroke-width=".01" d="M1,4 L1.37,4.1 C1.23188258,4.22979488 1.07720868,4.34075658 0.91,4.43 C0.799131256,4.48889907 0.67554257,4.51979624 0.55,4.52 C0.44,4.52 0.55,4.41 0.55,4.37 C0.70949162,4.25868578 0.859957913,4.13496905 1,4 Z"/>
    <path fill="#FFF" d="M1,4 L1.31,4.08 C1.17718622,4.20364651 1.02521747,4.30495901 0.86,4.38 C0.769606274,4.43369935 0.664824853,4.45814834 0.56,4.45 C0.47,4.45 0.56,4.36 0.61,4.34 C0.749047233,4.23748281 0.879481576,4.12377082 1,4 Z"/>
    <path stroke="#DA201B" stroke-width=".01" d="M1,4 L1.31,4.08 C1.17718622,4.20364651 1.02521747,4.30495901 0.86,4.38 C0.769606274,4.43369935 0.664824853,4.45814834 0.56,4.45 C0.47,4.45 0.56,4.36 0.61,4.34 C0.749047233,4.23748281 0.879481576,4.12377082 1,4 Z"/>
    <path fill="#DA201B" fill-rule="nonzero" d="M2 3.34C2 3.34 2 3.34 2 3.28 2 3.28 2 3.28 2.05 3.28 2.06924261 3.28778402 2.09075739 3.28778402 2.11 3.28 2.12004066 3.25427847 2.12004066 3.22572153 2.11 3.2 2.11 3.2 2.11 3.28 2.11 3.29 2.09683377 3.30343772 2.07881281 3.31101021 2.06 3.31101021 2.04118719 3.31101021 2.02316623 3.30343772 2.01 3.29L2 3.34zM1.9 3.44C1.9 3.44 1.9 3.44 1.84 3.44L1.91 3.44 1.91 3.38C1.91 3.38 2.06 3.38 2.06 3.38L2 3.38C1.94 3.38 1.93 3.38 1.89 3.45L1.9 3.44zM1.77 3.64C1.77 3.64 1.71 3.57 1.77 3.55 1.83 3.53 1.77 3.55 1.83 3.55 1.83 3.55 1.83 3.55 1.76 3.55 1.69 3.55 1.68 3.55 1.66 3.65 1.64 3.75 1.73 3.72 1.66 3.72L1.77 3.64z"/>
    <path fill="#DA201B" fill-rule="nonzero" d="M1.61 3.79C1.55 3.79 1.61 3.68 1.61 3.65 1.64647775 3.62626059 1.69352225 3.62626059 1.73 3.65 1.68891777 3.63024674 1.64108223 3.63024674 1.6 3.65 1.55 3.65 1.6 3.74 1.6 3.77L1.61 3.79zM1.48 3.91C1.48 3.91 1.48 3.91 1.43 3.91 1.43 3.91 1.43 3.91 1.48 3.91 1.53 3.91 1.48 3.96 1.55 3.91 1.62 3.86 1.62 3.82 1.55 3.8 1.48 3.78 1.55 3.8 1.55 3.8 1.55 3.8 1.55 3.8 1.55 3.8 1.55 3.8 1.55 3.8 1.5 3.8 1.5 3.8 1.5 3.87 1.42 3.88 1.34 3.89 1.49 3.9 1.48 3.91zM1.28 4.07C1.28 4.07 1.28 3.97 1.28 3.95 1.29986731 3.98054402 1.33357046 3.99926799 1.37 4 1.44 4 1.44 3.93 1.37 3.89 1.48 4 1.29 4.07 1.24 3.98 1.19 3.89 1.24 4.04 1.24 4.07L1.28 4.07zM.72 4.42C.744752086 4.43429062.775247914 4.43429062.8 4.42.8 4.42.8 4.42.8 4.33.8 4.24.91 4.33.96 4.33 1.01 4.33.96 4.22.96 4.18.978986166 4.18900593 1.00101383 4.18900593 1.02 4.18 1.02 4.18 1.02 4.18 1.02 4.18 1.01397816 4.18728173 1.00728173 4.19397816 1 4.2 1 4.2 1 4.27 1 4.26 1 4.25 1 4.26 1 4.2 1 4.14 1.06 4.2 1.09 4.2 1.12 4.2 1.03 4.13 1 4.2.97 4.27.93 4.2.95 4.2.97 4.2.95 4.2 1 4.2 1.05 4.2 1 4.2 1.07 4.2 1.14 4.2 1.07 4.27 1.07 4.27 1.07 4.27 1.07 4.27 1.01 4.35.95 4.43 1.01 4.35.96 4.35.91 4.35.96 4.35.96 4.29.96 4.23.91 4.29.89 4.29.87 4.29.89 4.35.89 4.36.89 4.37.89 4.42.89 4.42.89 4.42.76 4.34.73 4.42.7 4.5.73 4.42.73 4.5.73 4.58.73 4.5.68 4.5L.72 4.42z"/>
    <path fill="#FFF" d="M3.13,2.31 C3.32,1.96 3.52,1.62 3.68,1.25 C3.73357818,1.14085387 3.77709168,1.02704931 3.81,0.91 C3.81,0.91 3.81,0.79 3.81,0.77 C3.81,0.75 3.7,0.77 3.68,0.84 C3.66,0.91 3.53,1.03 3.46,1.12 C3.23,1.44 3.02,1.78 2.82,2.12 L3.14,2.27 L3.13,2.31 Z"/>
    <path stroke="#DA201B" stroke-width=".01" d="M3.13,2.31 C3.32,1.96 3.52,1.62 3.68,1.25 C3.73357818,1.14085387 3.77709168,1.02704931 3.81,0.91 C3.81,0.91 3.81,0.79 3.81,0.77 C3.81,0.75 3.7,0.77 3.68,0.84 C3.66,0.91 3.53,1.03 3.46,1.12 C3.23,1.44 3.02,1.78 2.82,2.12 L3.14,2.27 L3.13,2.31 Z"/>
    <path fill="#FFF" d="M2.85,2.18 L3.08,2.29 C3.08,2.29 3.08,2.29 3.08,2.29 C3.08,2.29 3.13,2.19 3.16,2.15 C3.19,2.11 3.27,1.95 3.32,1.85 C3.48817543,1.57666861 3.63848942,1.2927422 3.77,1 C3.77,1 3.77,0.87 3.77,0.84 C3.77,0.81 3.67,0.9 3.66,0.91 C3.466443,1.14535505 3.29252603,1.39619682 3.14,1.66 C3.03,1.83 2.92,2.02 2.82,2.2 L2.85,2.18 Z"/>
    <path fill="#DA201B" fill-rule="nonzero" d="M3.1,2.3 C3.30190678,1.97722433 3.48552917,1.64336545 3.65,1.3 C3.70073094,1.18280169 3.74414754,1.0625711 3.78,0.94 C3.78,0.94 3.78,0.8 3.78,0.82 C3.73829801,0.855074516 3.70132274,0.895411168 3.67,0.94 C3.59366983,1.02841359 3.5235046,1.12196723 3.46,1.22 C3.24,1.54 3.05,1.86 2.86,2.22 C2.90229575,2.14397498 2.94904377,2.0705138 3,2 L3.17,1.73 C3.27,1.57 3.36,1.42 3.47,1.27 C3.52702141,1.1500158 3.5904461,1.03318085 3.66,0.92 C3.66,0.92 3.79,0.77 3.81,0.82 C3.83,0.87 3.81,0.94 3.81,0.98 C3.81,1.02 3.72,1.2 3.67,1.31 C3.51,1.64 3.33,1.97 3.14,2.31 L3.1,2.3 Z"/>
    <path fill="#FFF" d="M3,1.88 C2.94,1.98 2.88,2.08 2.83,2.18 L3,2.27 C3,2.27 3,2.27 3.08,2.27 L3.27,2 L3,1.88 Z"/>
    <path stroke="#DA201B" stroke-width=".01" d="M3,1.88 C2.94,1.98 2.88,2.08 2.83,2.18 L3,2.27 C3,2.27 3,2.27 3.08,2.27 L3.27,2 L3,1.88 Z"/>
    <path fill="#FFF" d="M3,1.92 C2.94413904,2.00315063 2.89402242,2.09001944 2.85,2.18 L3.01,2.25 C3.01,2.25 3.06,2.25 3.08,2.18 C3.13083685,2.12336302 3.17761938,2.06321405 3.22,2 L3,1.92 Z"/>
    <path stroke="#DA201B" stroke-width=".01" d="M3,1.92 C2.94413904,2.00315063 2.89402242,2.09001944 2.85,2.18 L3.01,2.25 C3.01,2.25 3.06,2.25 3.08,2.18 C3.13083685,2.12336302 3.17761938,2.06321405 3.22,2 L3,1.92 Z"/>
    <path fill="#FFF" fill-rule="nonzero" d="M3.17,2 C3.17,2 3.06,2 3,2 L2.9,2.18 C2.9,2.18 3.01,2.25 3.03,2.18 L3.17,2 Z"/>
    <path stroke="#DA201B" stroke-width=".01" d="M3.17,2 C3.17,2 3.06,2 3,2 L2.9,2.18 C2.9,2.18 3.01,2.25 3.03,2.18 L3.17,2 Z"/>
    <path fill="#DA201B" fill-rule="nonzero" d="M2.94,2.16 C2.94,2.16 3.03,2.1 3.05,2.09 C3.07,2.08 3.16,2 3.18,2 L2.94,2.13 L2.94,2.16 Z"/>
    <path fill="#DA201B" fill-rule="nonzero" d="M3.06 2.21L3 2C3.0195557 2.08218606 3.0195557 2.16781394 3 2.25L3.06 2.21zM3.73 1.06L3.61 1C3.61 1 3.74 1 3.73 1.06zM3.69.94C3.69.94 3.77.94 3.76.94 3.75.94 3.68.94 3.69.94 3.7.94 3.69.92 3.69.94z"/>
    <path stroke="#DA201B" stroke-width=".01" d="M3.69,0.94 C3.69,0.94 3.77,0.94 3.76,0.94 C3.75,0.94 3.68,0.94 3.69,0.94 C3.7,0.94 3.69,0.92 3.69,0.94 Z"/>
    <path fill="#FFF" d="M3,3.24 C3.26,3.5 3.54,3.75 3.82,3.98 L4.27,4.34 C4.27,4.34 4.39,4.44 4.33,4.48 C4.27,4.52 3.99,4.42 3.88,4.35 C3.56709635,4.14611637 3.2726393,3.91523527 3,3.66 C2.67978865,3.36666274 2.37914448,3.05265661 2.1,2.72 C2.00012496,2.59482363 1.90667128,2.46465599 1.82,2.33 C1.75578521,2.24652328 1.70825251,2.15145786 1.68,2.05 C1.68,1.96 1.68,1.87 1.81,1.9 C1.94,1.93 1.88,1.96 1.91,1.99 L2.08,2.23 C2.34474018,2.59043335 2.64271253,2.92523374 2.97,3.23 L3,3.24 Z"/>
    <path stroke="#DA201B" stroke-width=".01" d="M3,3.24 C3.26,3.5 3.54,3.75 3.82,3.98 L4.27,4.34 C4.27,4.34 4.39,4.44 4.33,4.48 C4.27,4.52 3.99,4.42 3.88,4.35 C3.56709635,4.14611637 3.2726393,3.91523527 3,3.66 C2.67978865,3.36666274 2.37914448,3.05265661 2.1,2.72 C2.00012496,2.59482363 1.90667128,2.46465599 1.82,2.33 C1.75578521,2.24652328 1.70825251,2.15145786 1.68,2.05 C1.68,1.96 1.68,1.87 1.81,1.9 C1.94,1.93 1.88,1.96 1.91,1.99 L2.08,2.23 C2.34474018,2.59043335 2.64271253,2.92523374 2.97,3.23 L3,3.24 Z"/>
    <path fill="#FFF" d="M3.84,4 L3.47,4.1 C3.61164692,4.22997384 3.76964724,4.34091024 3.94,4.43 C4.04677816,4.49011751 4.16746689,4.52115175 4.29,4.52 C4.41,4.52 4.29,4.41 4.29,4.37 C4.13269181,4.25583354 3.98241853,4.13227551 3.84,4 Z"/>
    <path stroke="#DA201B" stroke-width=".01" d="M3.84,4 L3.47,4.1 C3.61164692,4.22997384 3.76964724,4.34091024 3.94,4.43 C4.04677816,4.49011751 4.16746689,4.52115175 4.29,4.52 C4.41,4.52 4.29,4.41 4.29,4.37 C4.13269181,4.25583354 3.98241853,4.13227551 3.84,4 Z"/>
    <path fill="#FFF" d="M3.84,4 L3.54,4.08 C3.66922886,4.20344473 3.81787899,4.30479709 3.98,4.38 C4.07460732,4.43225091 4.18212003,4.45652797 4.29,4.45 C4.37,4.45 4.29,4.36 4.23,4.34 C4.09302172,4.23492912 3.96276618,4.12137301 3.84,4 Z"/>
    <path stroke="#DA201B" stroke-width=".01" d="M3.84,4 L3.54,4.08 C3.66922886,4.20344473 3.81787899,4.30479709 3.98,4.38 C4.07460732,4.43225091 4.18212003,4.45652797 4.29,4.45 C4.37,4.45 4.29,4.36 4.23,4.34 C4.09302172,4.23492912 3.96276618,4.12137301 3.84,4 Z"/>
    <path fill="#DA201B" fill-rule="nonzero" d="M2.84,3.34 C2.80914958,3.369207 2.76085042,3.369207 2.73,3.34 C2.73,3.34 2.73,3.27 2.73,3.25 C2.71995934,3.27572153 2.71995934,3.30427847 2.73,3.33 C2.73,3.33 2.73,3.33 2.73,3.33 C2.73,3.33 2.73,3.33 2.79,3.33 C2.79,3.33 2.79,3.33 2.79,3.39 L2.84,3.34 Z"/>
    <path fill="#DA201B" fill-rule="nonzero" d="M3 3.44C3 3.44 3 3.44 3 3.44 2.98385825 3.39861573 2.94440958 3.37100166 2.9 3.37L2.8 3.37C2.8 3.37 2.85 3.37 2.85 3.37 2.87904309 3.35928415 2.91095691 3.35928415 2.94 3.37 2.94 3.37 2.94 3.37 3 3.43L3 3.44zM3.1 3.64C3.05 3.64 3.1 3.59 3.1 3.57 3.1 3.55 3 3.57 3 3.47 3 3.47 3 3.47 3 3.47 3 3.47 3 3.47 3.06 3.47 3.12 3.47 3.06 3.47 3.06 3.47 3.06 3.47 3.06 3.47 3.06 3.53L3.1 3.64zM3.25 3.79C3.25 3.79 3.25 3.72 3.25 3.67 3.20524527 3.65110832 3.15475473 3.65110832 3.11 3.67 3.14647775 3.64626059 3.19352225 3.64626059 3.23 3.67 3.23 3.67 3.23 3.67 3.23 3.73 3.24673916 3.7540398 3.24673916 3.7859602 3.23 3.81L3.25 3.79zM3.38 3.91C3.34172847 3.90143334 3.31341056 3.86907001 3.31 3.83 3.31 3.83 3.24 3.83 3.25 3.83 3.26 3.83 3.25 3.83 3.25 3.83 3.25 3.83 3.25 3.78 3.25 3.83 3.25 3.83 3.25 3.89 3.25 3.91 3.25 3.93 3.37 3.84 3.37 3.91 3.37 3.91 3.37 3.91 3.31 3.91 3.25 3.91 3.39 3.91 3.38 3.91zM3.59 4.07C3.59 4.07 3.59 3.99 3.59 3.98 3.59 3.97 3.49 4.04 3.45 3.98 3.41 3.92 3.45 3.9 3.45 3.87L3.45 4C3.45 4 3.45 4 3.45 4 3.49807959 4.03347833 3.56192041 4.03347833 3.61 4 3.60552426 4.02647886 3.60552426 4.05352114 3.61 4.08L3.59 4.07zM4.15 4.42C4.06 4.42 4.15 4.35 4.09 4.3 4.03 4.25 3.97 4.3 3.92 4.3 3.92 4.3 3.92 4.3 3.92 4.25 3.92 4.2 3.92 4.25 3.92 4.17 3.92 4.09 3.84 4.17 3.85 4.17 3.86 4.17 3.85 4.28 3.78 4.27 3.71 4.26 3.78 4.19 3.72 4.19 3.66 4.19 3.63 4.19 3.72 4.12 3.81 4.05 3.72 4.12 3.79 4.12 3.86 4.12 3.79 4.12 3.79 4.12 3.79 4.12 3.79 4.12 3.79 4.12 3.79 4.12 3.79 4.12 3.79 4.12 3.79 4.12 3.79 4.12 3.72 4.12 3.65 4.12 3.67 4.12 3.72 4.12 3.77 4.12 3.79 4.12 3.81 4.12 3.83 4.12 3.81 4.12 3.81 4.19 3.81 4.26 3.81 4.19 3.81 4.19 3.81562288 4.15741652 3.83865983 4.13054009 3.87 4.12 3.87 4.12 3.87 4.12 3.93 4.12 3.99 4.12 3.99 4.23 3.93 4.27 3.87 4.31 4.06 4.18 4.1 4.27 4.11004066 4.29572153 4.11004066 4.32427847 4.1 4.35 4.1 4.35 4.17 4.35 4.19 4.35L4.15 4.42z"/>
    <path fill="#FFF" d="M1.74,2.31 C1.53696719,1.96724173 1.35334472,1.61335115 1.19,1.25 C1.13732277,1.13923584 1.09058975,1.02574136 1.05,0.91 C1.05,0.91 1,0.79 1,0.77 C1,0.75 1.32,1.08 1.35,1.12 C1.58,1.44 1.78,1.78 1.98,2.12 L1.67,2.27 L1.74,2.31 Z"/>
    <path stroke="#DA201B" stroke-width=".01" d="M1.74,2.31 C1.53696719,1.96724173 1.35334472,1.61335115 1.19,1.25 C1.13732277,1.13923584 1.09058975,1.02574136 1.05,0.91 C1.05,0.91 1,0.79 1,0.77 C1,0.75 1.32,1.08 1.35,1.12 C1.58,1.44 1.78,1.78 1.98,2.12 L1.67,2.27 L1.74,2.31 Z"/>
    <path fill="#FFF" d="M1.07,0.81 C0.99,0.81 1.33,1.49 1.35,1.54 L1.74,2.25 C1.74,2.25 1.74,2.25 1.8,2.25 L1.88,2.25 L2,2.18 C1.81,1.85 1.61,1.52 1.39,1.18 C1.32818431,1.08650594 1.26142269,0.996377756 1.19,0.91 C1.19,0.91 1.11,0.8 1.07,0.81 Z"/>
    <path fill="#DA201B" fill-rule="nonzero" d="M1.77,2.3 C1.58,1.98 1.4,1.65 1.24,1.3 C1.18800607,1.20257355 1.14127235,1.10242986 1.1,1 C1.08602896,0.944194465 1.08602896,0.885805535 1.1,0.83 C1.1,0.77 1.22,0.9 1.23,0.91 C1.31549575,1.00895922 1.39561128,1.11244179 1.47,1.22 C1.57,1.37 1.67,1.52 1.76,1.68 L1.89,2 C1.89,2 2.03,2.23 2.02,2.23 C1.83333333,1.91 1.63333333,1.57666667 1.42,1.23 L1.21,0.94 C1.18078618,0.890499862 1.13950014,0.849213815 1.09,0.82 C1.04,0.82 1.09,0.93 1.09,0.94 C1.13058975,1.05574136 1.17732277,1.16923584 1.23,1.28 C1.31,1.44 1.39,1.6 1.48,1.76 C1.57,1.92 1.76,2.3 1.77,2.3 Z"/>
    <path fill="#FFF" d="M1.85,1.88 L2.02,2.18 L1.82,2.27 C1.77,2.27 1.82,2.27 1.74,2.27 L1.6,2 L1.85,1.88 Z"/>
    <path stroke="#DA201B" stroke-width=".01" d="M1.85,1.88 L2.02,2.18 L1.82,2.27 C1.77,2.27 1.82,2.27 1.74,2.27 L1.6,2 L1.85,1.88 Z"/>
    <path fill="#FFF" d="M1.83,1.92 L2,2.18 L1.84,2.25 C1.79,2.25 1.78,2.25 1.76,2.18 L1.64,2 L1.83,1.92 Z"/>
    <path stroke="#DA201B" stroke-width=".01" d="M1.83,1.92 L2,2.18 L1.84,2.25 C1.79,2.25 1.78,2.25 1.76,2.18 L1.64,2 L1.83,1.92 Z"/>
    <path fill="#FFF" fill-rule="nonzero" d="M1.69,2 C1.69,2 1.81,1.93 1.82,2 L1.93,2.18 C1.93,2.18 1.81,2.25 1.79,2.18 L1.69,2 Z"/>
    <path stroke="#DA201B" stroke-width=".01" d="M1.69,2 C1.69,2 1.81,1.93 1.82,2 L1.93,2.18 C1.93,2.18 1.81,2.25 1.79,2.18 L1.69,2 Z"/>
    <path fill="#DA201B" fill-rule="nonzero" d="M1.92,2.16 L1.69,2 C1.77641118,2.02322366 1.85553614,2.06794647 1.92,2.13 L1.92,2.16 Z"/>
    <path fill="#DA201B" fill-rule="nonzero" d="M1.81 2.21C1.79006472 2.12785891 1.79006472 2.04214109 1.81 1.96 1.81 2.05 1.81 2.13 1.81 2.21zM1.13 1.06C1.13 1.06 1.25 1 1.26 1L1.13 1.06zM1.17.94C1.17.94 1.09.94 1.1.94 1.11.94 1.18.94 1.17.94 1.16.94 1.18.92 1.17.94z"/>
    <path stroke="#DA201B" stroke-width=".01" d="M1.17,0.94 C1.17,0.94 1.09,0.94 1.1,0.94 C1.11,0.94 1.18,0.94 1.17,0.94 C1.16,0.94 1.18,0.92 1.17,0.94 Z"/>
    <path fill="#FFF" d="M2.11,1.87 C2.1249922,2.15980624 2.1249922,2.45019376 2.11,2.74 C2.11,2.74 2.11,2.83 2.11,2.85 C2.06387043,2.86001292 2.01612957,2.86001292 1.97,2.85 L1.35,2.85 C1.13835879,2.85638629 0.930467456,2.90750711 0.74,3 C0.58,3.08 0.81,3.19 0.89,3.22 C1.12969408,3.30571029 1.37771791,3.36604041 1.63,3.4 C1.86802385,3.44355571 2.11197615,3.44355571 2.35,3.4 C2.60946964,3.34519098 2.78612525,3.10390527 2.76,2.84 C2.76,2.54 2.76,2.23 2.76,1.93 C2.76,1.93 2.76,1.86 2.76,1.86 L2.11,1.86 L2.11,1.87 Z"/>
    <path stroke="#DA201B" stroke-width=".01" d="M2.11,1.87 C2.1249922,2.15980624 2.1249922,2.45019376 2.11,2.74 C2.11,2.74 2.11,2.83 2.11,2.85 C2.06387043,2.86001292 2.01612957,2.86001292 1.97,2.85 L1.35,2.85 C1.13835879,2.85638629 0.930467456,2.90750711 0.74,3 C0.58,3.08 0.81,3.19 0.89,3.22 C1.12969408,3.30571029 1.37771791,3.36604041 1.63,3.4 C1.86802385,3.44355571 2.11197615,3.44355571 2.35,3.4 C2.60946964,3.34519098 2.78612525,3.10390527 2.76,2.84 C2.76,2.54 2.76,2.23 2.76,1.93 C2.76,1.93 2.76,1.86 2.76,1.86 L2.11,1.86 L2.11,1.87 Z"/>
    <path fill="#FFF" d="M2.11,2.07 C2.10507125,2.10315114 2.10507125,2.13684886 2.11,2.17 L2.44,2.17 L2.74,2.17 C2.74,2.17 2.74,2.17 2.74,2.17 L2.74,2.07 C2.52437044,2.09998039 2.30562956,2.09998039 2.09,2.07 L2.11,2.07 Z"/>
    <path stroke="#DA201B" stroke-width=".01" d="M2.11,2.07 C2.10507125,2.10315114 2.10507125,2.13684886 2.11,2.17 L2.44,2.17 L2.74,2.17 C2.74,2.17 2.74,2.17 2.74,2.17 L2.74,2.07 C2.52437044,2.09998039 2.30562956,2.09998039 2.09,2.07 L2.11,2.07 Z"/>
    <path fill="#FFF" d="M2.11,1.87 C2.11,1.87 2.11,1.96 2.11,1.97 C2.21977797,1.97988404 2.33022203,1.97988404 2.44,1.97 C2.53975855,1.97982759 2.64024145,1.97982759 2.74,1.97 C2.74,1.97 2.74,1.97 2.74,1.97 L2.74,1.87 C2.52516983,1.90989524 2.30483017,1.90989524 2.09,1.87 L2.11,1.87 Z"/>
    <path stroke="#DA201B" stroke-width=".01" d="M2.11,1.87 C2.11,1.87 2.11,1.96 2.11,1.97 C2.21977797,1.97988404 2.33022203,1.97988404 2.44,1.97 C2.53975855,1.97982759 2.64024145,1.97982759 2.74,1.97 C2.74,1.97 2.74,1.97 2.74,1.97 L2.74,1.87 C2.52516983,1.90989524 2.30483017,1.90989524 2.09,1.87 L2.11,1.87 Z"/>
    <path fill="#FFF" d="M2.11,2 C2.10507125,2.03315114 2.10507125,2.06684886 2.11,2.1 L2.44,2.1 C2.53975208,2.1099584 2.64024792,2.1099584 2.74,2.1 C2.74,2.1 2.74,2.1 2.74,2.1 L2.74,2 C2.52437044,2.02998039 2.30562956,2.02998039 2.09,2 L2.11,2 Z"/>
    <path stroke="#DA201B" stroke-width=".01" d="M2.11,2 C2.10507125,2.03315114 2.10507125,2.06684886 2.11,2.1 L2.44,2.1 C2.53975208,2.1099584 2.64024792,2.1099584 2.74,2.1 C2.74,2.1 2.74,2.1 2.74,2.1 L2.74,2 C2.52437044,2.02998039 2.30562956,2.02998039 2.09,2 L2.11,2 Z"/>
    <path fill="#FFF" d="M2.11,2.17 C2.11,2.17 2.11,2.25 2.11,2.26 C2.21977797,2.26988404 2.33022203,2.26988404 2.44,2.26 L2.74,2.26 C2.74,2.26 2.74,2.26 2.74,2.26 L2.74,2.17 C2.52437044,2.19998039 2.30562956,2.19998039 2.09,2.17 L2.11,2.17 Z"/>
    <path stroke="#DA201B" stroke-width=".01" d="M2.11,2.17 C2.11,2.17 2.11,2.25 2.11,2.26 C2.21977797,2.26988404 2.33022203,2.26988404 2.44,2.26 L2.74,2.26 C2.74,2.26 2.74,2.26 2.74,2.26 L2.74,2.17 C2.52437044,2.19998039 2.30562956,2.19998039 2.09,2.17 L2.11,2.17 Z"/>
    <path fill="#FFF" fill-rule="nonzero" d="M2.17,2 C2.17,2 2.11,2 2.11,2 C2.11,2 2.17,2 2.17,2 Z"/>
    <path stroke="#DA201B" stroke-width=".01" d="M2.17,2 C2.17,2 2.11,2 2.11,2 C2.11,2 2.17,2 2.17,2 Z"/>
    <path fill="#FFF" fill-rule="nonzero" d="M2.29,2 C2.29,2 2.23,2 2.23,2 C2.23,2 2.29,2 2.29,2 Z"/>
    <path stroke="#DA201B" stroke-width=".01" d="M2.29,2 C2.29,2 2.23,2 2.23,2 C2.23,2 2.29,2 2.29,2 Z"/>
    <path fill="#FFF" fill-rule="nonzero" d="M2.41,2.05 C2.41,2.05 2.35,2.05 2.35,2.05 C2.35,2.05 2.41,2.05 2.41,2.05 Z"/>
    <path stroke="#DA201B" stroke-width=".01" d="M2.41,2.05 C2.41,2.05 2.35,2.05 2.35,2.05 C2.35,2.05 2.41,2.05 2.41,2.05 Z"/>
    <path fill="#FFF" fill-rule="nonzero" d="M2.52,2.05 C2.52,2.05 2.46,2.05 2.46,2.05 C2.46,2.05 2.52,2.05 2.52,2.05 Z"/>
    <path stroke="#DA201B" stroke-width=".01" d="M2.52,2.05 C2.52,2.05 2.46,2.05 2.46,2.05 C2.46,2.05 2.52,2.05 2.52,2.05 Z"/>
    <path fill="#FFF" fill-rule="nonzero" d="M2.64,2 C2.64,2 2.58,2 2.58,2 C2.58,2 2.64,2 2.64,2 Z"/>
    <path stroke="#DA201B" stroke-width=".01" d="M2.64,2 C2.64,2 2.58,2 2.58,2 C2.58,2 2.64,2 2.64,2 Z"/>
    <path fill="#FFF" fill-rule="nonzero" d="M2.76,2 C2.76,2 2.7,2 2.7,2 C2.7,2 2.76,2 2.76,2 Z"/>
    <path stroke="#DA201B" stroke-width=".01" d="M2.76,2 C2.76,2 2.7,2 2.7,2 C2.7,2 2.76,2 2.76,2 Z"/>
    <path fill="#DA201B" fill-rule="nonzero" d="M2.76 2.89L2.1 2.37 2.43 2.64C2.43 2.64 2.76 2.87 2.75 2.9L2.76 2.89zM2.76 2.83L2.17 2.37 2.47 2.61 2.67 2.77C2.67 2.77 2.76 2.82 2.75 2.84L2.76 2.83zM2.76 2.77L2.26 2.38C2.34859506 2.43609399 2.43223287 2.49965873 2.51 2.57 2.51 2.57 2.77 2.75 2.76 2.77zM2.76 2.71L2.32 2.38 2.54 2.55C2.54 2.55 2.76 2.69 2.75 2.71L2.76 2.71zM2.76 2.66L2.39 2.38 2.59 2.52C2.59 2.52 2.77 2.63 2.76 2.66z"/>
    <polygon fill="#DA201B" fill-rule="nonzero" points="2.76 2.6 2.45 2.38 2.45 2.38 2.76 2.59"/>
    <polygon fill="#DA201B" fill-rule="nonzero" points="2.76 2.54 2.52 2.38 2.52 2.38 2.77 2.53"/>
    <polygon fill="#DA201B" fill-rule="nonzero" points="2.76 2.5 2.59 2.38 2.59 2.38 2.77 2.49"/>
    <path fill="#DA201B" fill-rule="nonzero" d="M2.76 2.46L2.65 2.38C2.65 2.38 2.76 2.44 2.75 2.46L2.76 2.46zM2.76 3L2.42 2.73 2.19 2.5C2.19 2.5 2.1 2.44 2.11 2.42L2.44 2.68C2.44 2.68 2.77 2.92 2.76 2.95L2.76 3z"/>
    <path fill="#DA201B" fill-rule="nonzero" d="M2 3C2.11085362 2.89652482 2.22772391 2.79968944 2.35 2.71L2.72 2.41 2 3zM2.06 2.87C2.06 2.87 2.13 2.81 2.15 2.8L2.36 2.62 2.7 2.36 2.06 2.86 2.06 2.87zM2.11 2.77C2.11 2.77 2.16 2.77 2.17 2.71L2.35 2.58 2.53 2.44C2.53 2.44 2.6 2.37 2.61 2.38L2.11 2.77zM2.11 2.71C2.11 2.71 2.28 2.57 2.31 2.56L2.54 2.38 2.1 2.71 2.11 2.71zM2.11 2.66C2.11 2.66 2.25 2.54 2.28 2.52L2.48 2.38 2.11 2.66zM2.11 2.6C2.11 2.6 2.22 2.51 2.25 2.49L2.41 2.38 2.1 2.6 2.11 2.6zM2.11 2.54C2.11 2.54 2.31 2.4 2.35 2.38L2.11 2.54zM2.11 2.5C2.15996485 2.45126244 2.21734451 2.41075915 2.28 2.38L2.11 2.5zM2.11 2.46C2.11 2.46 2.19 2.39 2.21 2.38L2.1 2.46 2.11 2.46z"/>
    <path fill="#DA201B" fill-rule="nonzero" d="M2 3C2.1057226 2.89083799 2.22308986 2.79359084 2.35 2.71L2.72 2.41C2.61274711 2.51357643 2.49919748 2.61042758 2.38 2.7L2 3zM2 3.07C2.1057226 2.96083799 2.22308986 2.86359084 2.35 2.78L2.72 2.47C2.72 2.47 2.41 2.74 2.38 2.77L2 3.07zM2 3.12C2.11085362 3.01652482 2.22772391 2.91968944 2.35 2.83L2.72 2.53 2 3.12zM2 3.18C2.11085362 3.07652482 2.22772391 2.97968944 2.35 2.89L2.72 2.59C2.72 2.59 2.41 2.86 2.38 2.88L2 3.18zM2 3.24C2.12512292 3.15233273 2.25535322 3.072191 2.39 3L2.76 2.7C2.76 2.7 2.45 2.96 2.42 2.99L2 3.24z"/>
    <path fill="#DA201B" fill-rule="nonzero" d="M2 3.3C2 3.3 2.36 3 2.39 3L2.76 2.7 2 3.3zM2 3.36C2 3.36 2.32 3.1 2.35 3.07L2.72 2.77C2.72 2.77 2.41 3.03 2.38 3.06L2 3.36zM2 3.42C2.1057226 3.31083799 2.22308986 3.21359084 2.35 3.13L2.72 2.83C2.61274711 2.93357643 2.49919748 3.03042758 2.38 3.12L2 3.42zM2.09 3.44C2.09 3.44 2.16 3.37 2.18 3.36L2.41 3.17 2.76 2.88C2.76 2.88 2.47 3.13 2.44 3.16 2.41 3.19 2.2 3.34 2.09 3.44zM2.15 3.44C2.23825501 3.35034784 2.33542457 3.26993165 2.44 3.2L2.76 2.94 2.14 3.43 2.15 3.44zM2.26 3.42L2.74 3C2.74 3 2.55 3.17 2.52 3.19L2.26 3.4 2.26 3.42zM2.33 3.42C2.33 3.42 2.49 3.28 2.52 3.26 2.55 3.24 2.69 3.09 2.72 3.11L2.33 3.42zM2.48 3.36C2.48 3.36 2.64 3.22 2.67 3.2 2.7 3.18 2.51 3.33 2.48 3.36z"/>
    <path fill="#DA201B" fill-rule="nonzero" d="M2.74 3L2.42 2.74 2.2 2.56C2.2 2.56 2.1 2.5 2.11 2.47L2.43 2.73 2.65 2.91C2.65 2.91 2.75 2.97 2.74 2.99L2.74 3zM2.74 3.05L2.1 2.54 2.42 2.8C2.42 2.8 2.74 3.03 2.73 3.06L2.74 3.05zM2.72 3.09L2.4 2.83 2.19 2.67C2.19 2.67 2.1 2.61 2.11 2.59L2.43 2.85 2.63 3.01C2.63 3.01 2.72 3.07 2.72 3.09zM2.72 3.14L2.4 2.89 2.19 2.73C2.19 2.73 2.1 2.67 2.11 2.65L2.43 2.9 2.63 3.07C2.63 3.07 2.73 3.12 2.72 3.14zM2.7 3.18L2.1 2.71 2.4 2.95 2.61 3.11C2.61 3.11 2.69 3.16 2.69 3.18L2.7 3.18zM2.67 3.22L2.08 2.75 2.38 2.99 2.59 3.15C2.59 3.15 2.67 3.21 2.66 3.22L2.67 3.22zM2.63 3.24L2.35 3 2.16 2.86C2.16 2.86 2.08 2.86 2.09 2.79L2.37 3C2.37 3 2.64 3.19 2.63 3.21L2.63 3.24zM2.61 3.28L2.33 3.06 2.14 2.91 2.06 2.85 2.35 3.06C2.35 3.06 2.62 3.26 2.61 3.28zM2.56 3.3L2.29 3.09C2.29 3.09 2 2.91 2 2.88L2.28 3.1 2.45 3.24C2.45 3.24 2.53 3.24 2.52 3.3L2.56 3.3zM2.54 3.34L2.29 3.14C2.29 3.14 2 3 2 2.94L2.26 3.14 2.44 3.28C2.44 3.28 2.51 3.28 2.5 3.34L2.54 3.34zM2.48 3.36L2 3C2.08105353 3.05782734 2.15791226 3.12131933 2.23 3.19 2.23 3.19 2.45 3.34 2.44 3.36L2.48 3.36z"/>
    <path fill="#FFF" d="M2.11,2.26 C2.11,2.26 2.11,2.35 2.11,2.36 C2.21977552,2.36993827 2.33022448,2.36993827 2.44,2.36 L2.74,2.36 C2.74,2.36 2.74,2.36 2.74,2.31 L2.74,2.26 C2.52516983,2.29989524 2.30483017,2.29989524 2.09,2.26 L2.11,2.26 Z"/>
    <path stroke="#DA201B" stroke-width=".01" d="M2.11,2.26 C2.11,2.26 2.11,2.35 2.11,2.36 C2.21977552,2.36993827 2.33022448,2.36993827 2.44,2.36 L2.74,2.36 C2.74,2.36 2.74,2.36 2.74,2.31 L2.74,2.26 C2.52516983,2.29989524 2.30483017,2.29989524 2.09,2.26 L2.11,2.26 Z"/>
    <path fill="#DA201B" fill-rule="nonzero" d="M2.43 3.38L2.23 3.21C2.23 3.21 2 3.08 2 3.06L2.21 3.22C2.21 3.22 2.4 3.35 2.39 3.38L2.43 3.38zM2.39 3.4C2.25235605 3.31780203 2.12189326 3.22413644 2 3.12 2.12573462 3.20139688 2.24298813 3.29519969 2.35 3.4L2.39 3.4zM2.35 3.42L2 3.18C2 3.18 2.32 3.39 2.31 3.42L2.35 3.42z"/>
    <polygon fill="#DA201B" fill-rule="nonzero" points="2.26 3.42 2 3.24 2 3.24 2.22 3.41"/>
    <path fill="#DA201B" fill-rule="nonzero" d="M2.21 3.44C2.21 3.44 2 3.32 2 3.29 2 3.26 2.18 3.41 2.17 3.44L2.21 3.44zM2.15 3.44L2 3.36C2 3.36 2.11 3.43 2.11 3.45L2.15 3.44z"/>
    <path fill="#FFF" fill-rule="nonzero" d="M2.17,2.32 C2.17,2.32 2.11,2.32 2.11,2.32 C2.11,2.32 2.17,2.32 2.17,2.32 Z"/>
    <path stroke="#DA201B" stroke-width=".01" d="M2.17,2.32 C2.17,2.32 2.11,2.32 2.11,2.32 C2.11,2.32 2.17,2.32 2.17,2.32 Z"/>
    <path fill="#FFF" fill-rule="nonzero" d="M2.29,2.33 C2.29,2.33 2.23,2.33 2.23,2.33 C2.23,2.33 2.29,2.33 2.29,2.33 Z"/>
    <path stroke="#DA201B" stroke-width=".01" d="M2.29,2.33 C2.29,2.33 2.23,2.33 2.23,2.33 C2.23,2.33 2.29,2.33 2.29,2.33 Z"/>
    <path fill="#FFF" fill-rule="nonzero" d="M2.41,2.34 C2.41,2.34 2.35,2.34 2.35,2.34 C2.35,2.34 2.41,2.34 2.41,2.34 Z"/>
    <path stroke="#DA201B" stroke-width=".01" d="M2.41,2.34 C2.41,2.34 2.35,2.34 2.35,2.34 C2.35,2.34 2.41,2.34 2.41,2.34 Z"/>
    <path fill="#FFF" fill-rule="nonzero" d="M2.52,2.34 C2.52,2.34 2.46,2.34 2.46,2.34 C2.46,2.34 2.52,2.34 2.52,2.34 Z"/>
    <path stroke="#DA201B" stroke-width=".01" d="M2.52,2.34 C2.52,2.34 2.46,2.34 2.46,2.34 C2.46,2.34 2.52,2.34 2.52,2.34 Z"/>
    <path fill="#FFF" fill-rule="nonzero" d="M2.64,2.33 C2.64,2.33 2.58,2.33 2.58,2.33 C2.58,2.33 2.64,2.33 2.64,2.33 Z"/>
    <path stroke="#DA201B" stroke-width=".01" d="M2.64,2.33 C2.64,2.33 2.58,2.33 2.58,2.33 C2.58,2.33 2.64,2.33 2.64,2.33 Z"/>
    <path fill="#FFF" fill-rule="nonzero" d="M2.76,2.32 C2.76,2.32 2.7,2.32 2.7,2.32 C2.7,2.32 2.76,2.32 2.76,2.32 Z"/>
    <path stroke="#DA201B" stroke-width=".01" d="M2.76,2.32 C2.76,2.32 2.7,2.32 2.7,2.32 C2.7,2.32 2.76,2.32 2.76,2.32 Z"/>
    <path fill="#DA201B" fill-rule="nonzero" d="M1.17 3.28C1.28742264 3.20293481 1.41120462 3.13602563 1.54 3.08L2 2.87 1.21 3.28 1.17 3.28zM1.12 3.26C1.23322576 3.18458783 1.35385037 3.12092484 1.48 3.07L1.86 2.87 1.11 3.26 1.12 3.26zM1.1 3.22C1.20342389 3.15138766 1.31409132 3.09437716 1.43 3.05L1.78 2.87 1.1 3.22zM1.08 3.18C1.16459536 3.10738739 1.25882005 3.04681437 1.36 3L1.67 2.84 1.08 3.15 1.08 3.18z"/>
    <path fill="#DA201B" fill-rule="nonzero" d="M1 3.14C1 3.14 1.28 3 1.31 3L1.5 2.91C1.5 2.91 1.57 2.86 1.58 2.91L1 3.14zM1.06 3.09C1.06 3.09 1.2 3 1.22 3L1.43 2.89C1.43 2.89 1.1 3.07 1.06 3.1L1.06 3.09zM1 3.05C1 3.05 1.24 2.91 1.28 2.88 1.32 2.85 1.07 3 1 3.05zM1 3C1 3 1.18 2.89 1.19 2.9L1 3zM1.23 3.3C1.3409384 3.22081219 1.46202394 3.15690593 1.59 3.11L2 2.9 1.25 3.29 1.23 3.3zM1.3 3.32C1.3 3.32 1.37 3.32 1.39 3.32L1.63 3.19 2 2.94C2 2.94 1.93 3 1.91 3L1.67 3.12 1.3 3.32zM1.36 3.34C1.36 3.34 1.43 3.34 1.45 3.34L1.68 3.21 2 3 1.34 3.35 1.36 3.34zM1.43 3.36C1.43 3.36 1.65 3.23 1.68 3.22L2 3.06 1.45 3.35 1.43 3.36zM1.52 3.36C1.52 3.36 1.71 3.25 1.74 3.24L2 3.1C1.93129933 3.14796316 1.85752034 3.18820624 1.78 3.22L1.52 3.36zM1.58 3.38C1.58 3.38 1.74 3.29 1.77 3.28L2 3.16 1.58 3.38zM1.65 3.4C1.65 3.4 1.93 3.24 1.97 3.22L2 3.22 1.67 3.4 1.65 3.4zM1.74 3.4C1.74 3.4 2 3.27 2 3.25 2 3.23 1.77 3.38 1.74 3.4zM1.82 3.42C1.82 3.42 2 3.33 2 3.31L1.82 3.41 1.82 3.42zM1.91 3.42C1.91 3.42 2 3.37 2 3.35L1.89 3.41 1.91 3.42z"/>
    <path fill="#FFF" d="M2.06,2.85 L2,2.85 C2,2.85 2,3.11 2,3.14 C2,3.17 2,3.34 2,3.44 C2.03650021,3.44494103 2.07349979,3.44494103 2.11,3.44 C2.0799196,3.24448354 2.0799196,3.04551646 2.11,2.85 L2.06,2.85 Z"/>
    <path stroke="#DA201B" stroke-width=".01" d="M2.06,2.85 L2,2.85 C2,2.85 2,3.11 2,3.14 C2,3.17 2,3.34 2,3.44 C2.03650021,3.44494103 2.07349979,3.44494103 2.11,3.44 C2.0799196,3.24448354 2.0799196,3.04551646 2.11,2.85 L2.06,2.85 Z"/>
    <path fill="#DA201B" fill-rule="nonzero" d="M0.77,3.12 C0.807235388,3.07732776 0.847327761,3.03723539 0.89,3 C0.89,3 1,2.92 1,2.93 L0.73,3.12 L0.77,3.12 Z"/>
    <path fill="#DA201B" fill-rule="nonzero" d="M1,3.22 L0.77,3 C0.853966591,3.0653002 0.931034258,3.1390171 1,3.22 Z"/>
    <path fill="#FFF" d="M1.17,2.89 L1.06,2.89 C1,2.91 1,3 1,3.08 C1,3.16 1,3.25 1.05,3.27 L1.16,3.27 C1.13168263,3.13480017 1.13168263,2.99519983 1.16,2.86 L1.17,2.89 Z"/>
    <path stroke="#DA201B" stroke-width=".01" d="M1.17,2.89 L1.06,2.89 C1,2.91 1,3 1,3.08 C1,3.16 1,3.25 1.05,3.27 L1.16,3.27 C1.13168263,3.13480017 1.13168263,2.99519983 1.16,2.86 L1.17,2.89 Z"/>
    <path fill="#FFF" d="M2.76,1.91 L2.76,1.82 C2.76,1.82 2.76,1.82 2.7,1.82 C2.67166868,1.81175999 2.64698314,1.79412747 2.63,1.77 C2.63,1.77 2.63,1.71 2.63,1.71 L2.28,1.71 C2.26417998,1.73955974 2.24394774,1.76653606 2.22,1.79 C2.19061795,1.7986113 2.15938205,1.7986113 2.13,1.79 C2.13,1.79 2.13,1.79 2.13,1.79 C2.13,1.79 2.13,1.86 2.18,1.86 L2.78,1.86 L2.76,1.91 Z"/>
    <path stroke="#DA201B" stroke-width=".01" d="M2.76,1.91 L2.76,1.82 C2.76,1.82 2.76,1.82 2.7,1.82 C2.67166868,1.81175999 2.64698314,1.79412747 2.63,1.77 C2.63,1.77 2.63,1.71 2.63,1.71 L2.28,1.71 C2.26417998,1.73955974 2.24394774,1.76653606 2.22,1.79 C2.19061795,1.7986113 2.15938205,1.7986113 2.13,1.79 C2.13,1.79 2.13,1.79 2.13,1.79 C2.13,1.79 2.13,1.86 2.18,1.86 L2.78,1.86 L2.76,1.91 Z"/>
    <path fill="#FFF" fill-rule="nonzero" d="M2.29,1.7 L2.52,1.7 C2.52,1.7 2.52,1.7 2.52,1.7 C2.52,1.7 2.52,1.6 2.52,1.59 C2.52,1.58 2.46,1.59 2.44,1.59 L2.35,1.59 C2.35,1.59 2.29,1.59 2.29,1.59 L2.29,1.7 Z"/>
    <path stroke="#DA201B" stroke-width=".01" d="M2.29,1.58 L2.52,1.58 C2.52,1.58 2.52,1.58 2.52,1.58 C2.52,1.58 2.52,1.68 2.52,1.69 C2.52,1.7 2.46,1.69 2.44,1.69 L2.35,1.69 C2.35,1.69 2.29,1.69 2.29,1.69 L2.29,1.58 Z"/>
    <path fill="#FFF" fill-rule="nonzero" d="M2.32,1.58 L2.51,1.58 C2.51,1.58 2.51,1.58 2.51,1.58 C2.51507983,1.5468602 2.51507983,1.5131398 2.51,1.48 L2.36,1.48 C2.36,1.48 2.36,1.48 2.36,1.48 L2.36,1.58 L2.32,1.58 Z"/>
    <path stroke="#DA201B" stroke-width=".01" d="M2.32,1.46 L2.51,1.46 C2.51,1.46 2.51,1.46 2.51,1.46 C2.51,1.46 2.51,1.55 2.51,1.56 C2.51,1.57 2.51,1.56 2.45,1.56 L2.36,1.56 C2.36,1.56 2.36,1.56 2.36,1.56 L2.36,1.46 L2.32,1.46 Z"/>
    <path fill="#FFF" fill-rule="nonzero" d="M2.32,1.46 L2.51,1.46 C2.51,1.46 2.51,1.46 2.51,1.46 C2.51,1.46 2.51,1.37 2.51,1.36 C2.51,1.35 2.51,1.36 2.45,1.36 L2.36,1.36 C2.36,1.36 2.36,1.36 2.36,1.36 L2.36,1.46 L2.32,1.46 Z"/>
    <path stroke="#DA201B" stroke-width=".01" d="M2.32,1.35 L2.51,1.35 C2.51,1.35 2.51,1.35 2.51,1.35 C2.51,1.35 2.51,1.44 2.51,1.45 C2.51,1.46 2.51,1.45 2.45,1.45 L2.36,1.45 C2.36,1.45 2.36,1.45 2.36,1.45 L2.36,1.35 L2.32,1.35 Z"/>
    <path fill="#FFF" fill-rule="nonzero" d="M2.34,1.35 L2.52,1.35 C2.53025258,1.2971594 2.53025258,1.2428406 2.52,1.19 C2.52,1.19 2.45,1.19 2.44,1.19 L2.34,1.19 C2.33437033,1.24318477 2.33437033,1.29681523 2.34,1.35 Z"/>
    <path stroke="#DA201B" stroke-width=".01" d="M2.34,1.19 L2.52,1.19 C2.53025258,1.2428406 2.53025258,1.2971594 2.52,1.35 C2.52,1.35 2.45,1.35 2.44,1.35 L2.34,1.35 C2.33437033,1.29681523 2.33437033,1.24318477 2.34,1.19 Z"/>
    <path fill="#FFF" fill-rule="nonzero" d="M2.33,1.19 L2.52,1.19 C2.52,1.19 2.52,1.19 2.52,1.19 C2.52,1.19 2.52,1.1 2.52,1.09 L2.35,1.09 C2.35,1.09 2.35,1.2 2.35,1.23 L2.33,1.19 Z"/>
    <path stroke="#DA201B" stroke-width=".01" d="M2.33,1.05 L2.52,1.05 C2.52,1.05 2.52,1.05 2.52,1.05 C2.52,1.05 2.52,1.14 2.52,1.15 C2.52,1.16 2.45,1.15 2.44,1.15 L2.35,1.15 C2.35,1.15 2.35,1.05 2.35,1.01 L2.33,1.05 Z"/>
    <path fill="#FFF" fill-rule="nonzero" d="M2.72,0.93 C2.72,1.18 2.18,1.18 2.18,0.93 C2.18,0.68 2.72,0.68 2.72,0.93 Z"/>
    <path stroke="#DA201B" stroke-width=".01" d="M2.72,0.93 C2.72,1.18 2.18,1.18 2.18,0.93 C2.18,0.68 2.72,0.68 2.72,0.93 Z"/>
    <path fill="#FFF" d="M2.58,0.92 C2.58682838,0.970377885 2.61170014,1.0165683 2.65,1.05 C2.56,1.12 2.32,1.16 2.24,1.05 C2.24376476,1.02011811 2.24376476,0.989881888 2.24,0.96 C2.24,0.91 2.24,0.86 2.17,0.83 C2.2949441,0.749947913 2.4550559,0.749947913 2.58,0.83 C2.54235531,0.859729586 2.51734883,0.902597832 2.51,0.95 L2.58,0.92 Z"/>
    <path stroke="#DA201B" stroke-width=".01" d="M2.58,0.92 C2.58682838,0.970377885 2.61170014,1.0165683 2.65,1.05 C2.56,1.12 2.32,1.16 2.24,1.05 C2.24376476,1.02011811 2.24376476,0.989881888 2.24,0.96 C2.24,0.91 2.24,0.86 2.17,0.83 C2.2949441,0.749947913 2.4550559,0.749947913 2.58,0.83 C2.54235531,0.859729586 2.51734883,0.902597832 2.51,0.95 L2.58,0.92 Z"/>
    <path fill="#FFF" d="M2.54,0.92 C2.53559489,0.953187796 2.53559489,0.986812204 2.54,1.02 C2.54,1.02 2.54,1.02 2.54,1.07 C2.45698507,1.10557998 2.36301493,1.10557998 2.28,1.07 C2.19,1.07 2.28,0.97 2.28,0.92 C2.30013651,0.87607372 2.30368875,0.82634237 2.29,0.78 C2.3846631,0.720136026 2.5053369,0.720136026 2.6,0.78 C2.56996502,0.82169617 2.54948,0.869494552 2.54,0.92 Z"/>
    <path stroke="#DA201B" stroke-width=".01" d="M2.54,0.92 C2.53559489,0.953187796 2.53559489,0.986812204 2.54,1.02 C2.54,1.02 2.54,1.02 2.54,1.07 C2.45698507,1.10557998 2.36301493,1.10557998 2.28,1.07 C2.19,1.07 2.28,0.97 2.28,0.92 C2.30013651,0.87607372 2.30368875,0.82634237 2.29,0.78 C2.3846631,0.720136026 2.5053369,0.720136026 2.6,0.78 C2.56996502,0.82169617 2.54948,0.869494552 2.54,0.92 Z"/>
    <path fill="#FFF" fill-rule="nonzero" d="M2.24,0.94 C2.24,1.01 2.11,1.02 2.11,0.94 C2.12062607,0.913415153 2.14637016,0.895980762 2.175,0.895980762 C2.20362984,0.895980762 2.22937393,0.913415153 2.24,0.94 Z"/>
    <path stroke="#DA201B" stroke-width=".01" d="M2.24,0.94 C2.24,1.01 2.11,1.02 2.11,0.94 C2.12062607,0.913415153 2.14637016,0.895980762 2.175,0.895980762 C2.20362984,0.895980762 2.22937393,0.913415153 2.24,0.94 Z"/>
    <path fill="#FFF" fill-rule="nonzero" d="M2.79,0.94 C2.79,1.02 2.65,1.01 2.65,0.94 C2.65,0.87 2.79,0.86 2.79,0.94 Z"/>
    <path stroke="#DA201B" stroke-width=".01" d="M2.79,0.94 C2.79,1.02 2.65,1.01 2.65,0.94 C2.65,0.87 2.79,0.86 2.79,0.94 Z"/>
    <path fill="#FFF" fill-rule="nonzero" d="M2.51,0.94 C2.51,1.01 2.38,1.02 2.38,0.94 C2.39062607,0.913415153 2.41637016,0.895980762 2.445,0.895980762 C2.47362984,0.895980762 2.49937393,0.913415153 2.51,0.94 Z"/>
    <path stroke="#DA201B" stroke-width=".01" d="M2.51,0.94 C2.51,1.01 2.38,1.02 2.38,0.94 C2.39062607,0.913415153 2.41637016,0.895980762 2.445,0.895980762 C2.47362984,0.895980762 2.49937393,0.913415153 2.51,0.94 Z"/>
    <path fill="#FFF" fill-rule="nonzero" d="M2.51,0.74 C2.49937393,0.766584847 2.47362984,0.784019238 2.445,0.784019238 C2.41637016,0.784019238 2.39062607,0.766584847 2.38,0.74 C2.39062607,0.713415153 2.41637016,0.695980762 2.445,0.695980762 C2.47362984,0.695980762 2.49937393,0.713415153 2.51,0.74 Z"/>
    <path stroke="#DA201B" stroke-width=".01" d="M2.51,0.74 C2.49937393,0.766584847 2.47362984,0.784019238 2.445,0.784019238 C2.41637016,0.784019238 2.39062607,0.766584847 2.38,0.74 C2.39062607,0.713415153 2.41637016,0.695980762 2.445,0.695980762 C2.47362984,0.695980762 2.49937393,0.713415153 2.51,0.74 Z"/>
    <path fill="#FFF" fill-rule="nonzero" d="M2.32,1.85 C2.32,1.93 2.18,1.93 2.18,1.85 C2.18,1.77 2.32,1.78 2.32,1.85 Z"/>
    <path stroke="#DA201B" stroke-width=".01" d="M2.32,1.85 C2.32,1.93 2.18,1.93 2.18,1.85 C2.18,1.77 2.32,1.78 2.32,1.85 Z"/>
    <path fill="#FFF" fill-rule="nonzero" d="M2.69,1.85 C2.69,1.93 2.55,1.93 2.55,1.85 C2.55,1.77 2.69,1.78 2.69,1.85 Z"/>
    <path stroke="#DA201B" stroke-width=".01" d="M2.69,1.85 C2.69,1.93 2.55,1.93 2.55,1.85 C2.55,1.77 2.69,1.78 2.69,1.85 Z"/>
    <polygon fill="#FFF" points="2.27 1.7 2.6 1.7 2.44 1.87"/>
    <polygon stroke="#DA201B" stroke-width=".01" points="2.27 1.7 2.6 1.7 2.44 1.87"/>
    <path fill="#FFF" fill-rule="nonzero" d="M2.53,1.83 C2.53,1.94 2.34,1.94 2.34,1.83 C2.34,1.72 2.53,1.73 2.53,1.83 Z"/>
    <path stroke="#DA201B" stroke-width=".01" d="M2.53,1.83 C2.53,1.94 2.34,1.94 2.34,1.83 C2.34,1.72 2.53,1.73 2.53,1.83 Z"/>
    <path fill="#FFF" fill-rule="nonzero" d="M2.1,2.42 L2.55,2.42 C2.55,2.42 2.55,2.52 2.55,2.53 C2.55,2.54 2.48,2.53 2.45,2.53 L2.1,2.53 C2.1,2.53 2.1,2.41 2.1,2.41 L2.1,2.42 Z"/>
    <path stroke="#DA201B" stroke-width=".01" d="M2.1,2.42 L2.55,2.42 C2.55,2.42 2.55,2.52 2.55,2.53 C2.55,2.54 2.48,2.53 2.45,2.53 L2.1,2.53 C2.1,2.53 2.1,2.41 2.1,2.41 L2.1,2.42 Z"/>
    <path fill="#FFF" d="M2.73,2.36 C2.64,2.36 2.64,2.58 2.73,2.58 C2.82,2.58 2.82,2.36 2.73,2.36 Z M2.73,2.36 C2.58,2.36 2.58,2.66 2.73,2.66 C2.88,2.66 2.88,2.36 2.73,2.36 Z"/>
    <path stroke="#DA201B" stroke-width=".01" d="M2.73,2.36 C2.64,2.36 2.64,2.58 2.73,2.58 C2.82,2.58 2.82,2.36 2.73,2.36 Z M2.73,2.36 C2.58,2.36 2.58,2.66 2.73,2.66 C2.88,2.66 2.88,2.36 2.73,2.36 Z"/>
    <path fill="#FFF" d="M2.16,2.3 C2.06,2.3 2.05,2.39 2.05,2.47 C2.05,2.55 2.05,2.63 2.16,2.63 C2.27,2.63 2.27,2.55 2.27,2.47 C2.27,2.39 2.27,2.3 2.16,2.3 Z M2.16,2.3 C2.07,2.3 2.07,2.56 2.16,2.56 C2.25,2.56 2.26,2.3 2.16,2.3 Z"/>
    <path stroke="#DA201B" stroke-width=".01" d="M2.16,2.3 C2.06,2.3 2.05,2.39 2.05,2.47 C2.05,2.55 2.05,2.63 2.16,2.63 C2.27,2.63 2.27,2.55 2.27,2.47 C2.27,2.39 2.27,2.3 2.16,2.3 Z M2.16,2.3 C2.07,2.3 2.07,2.56 2.16,2.56 C2.25,2.56 2.26,2.3 2.16,2.3 Z"/>
    <path fill="#FFF" d="M2,2.34 C1.85,2.34 1.85,2.6 2,2.6 C2.15,2.6 2.15,2.34 2,2.34 Z M2,2.34 C1.91,2.34 1.91,2.53 2,2.53 C2.09,2.53 2.09,2.34 2,2.34 Z"/>
    <path stroke="#DA201B" stroke-width=".01" d="M2,2.34 C1.85,2.34 1.85,2.6 2,2.6 C2.15,2.6 2.15,2.34 2,2.34 Z M2,2.34 C1.91,2.34 1.91,2.53 2,2.53 C2.09,2.53 2.09,2.34 2,2.34 Z"/>
    <path fill="#FFF" d="M1.72,2.28 C1.65043911,2.27512793 1.58299658,2.30510239 1.54,2.36 C1.54,2.36 1.54,2.44 1.54,2.47 C1.54,2.5 1.54,2.55 1.54,2.58 C1.54,2.61 1.66,2.65 1.72,2.65 C1.79094575,2.65893064 1.86180605,2.63282422 1.91,2.58 C1.91,2.58 1.91,2.5 1.91,2.47 C1.91,2.44 1.91,2.39 1.91,2.36 C1.86385343,2.30347337 1.79268147,2.27350623 1.72,2.28 Z M1.72,2.33 C1.56,2.33 1.56,2.61 1.72,2.61 C1.79731986,2.61 1.86,2.54731986 1.86,2.47 C1.86,2.39268014 1.79731986,2.33 1.72,2.33 Z"/>
    <path stroke="#DA201B" stroke-width=".01" d="M1.72,2.28 C1.65043911,2.27512793 1.58299658,2.30510239 1.54,2.36 C1.54,2.36 1.54,2.44 1.54,2.47 C1.54,2.5 1.54,2.55 1.54,2.58 C1.54,2.61 1.66,2.65 1.72,2.65 C1.79094575,2.65893064 1.86180605,2.63282422 1.91,2.58 C1.91,2.58 1.91,2.5 1.91,2.47 C1.91,2.44 1.91,2.39 1.91,2.36 C1.86385343,2.30347337 1.79268147,2.27350623 1.72,2.28 Z M1.72,2.33 C1.56,2.33 1.56,2.61 1.72,2.61 C1.79731986,2.61 1.86,2.54731986 1.86,2.47 C1.86,2.39268014 1.79731986,2.33 1.72,2.33 Z"/>
    <path fill="#FFF" d="M3.15,2.3 C3.09130053,2.30549092 3.03726102,2.33431199 3,2.38 C3,2.38 3,2.45 3,2.49 C3,2.53 3,2.57 3,2.6 C3.04819395,2.65282422 3.11905425,2.67893064 3.19,2.67 C3.25,2.67 3.34,2.67 3.37,2.6 C3.4,2.53 3.37,2.52 3.37,2.49 C3.37,2.46 3.37,2.41 3.37,2.38 C3.32700342,2.32510239 3.25956089,2.29512793 3.19,2.3 L3.15,2.3 Z M3.15,2.35 C3.07268014,2.35 3.01,2.41268014 3.01,2.49 C3.01,2.56731986 3.07268014,2.63 3.15,2.63 C3.31,2.63 3.31,2.35 3.15,2.35 Z"/>
    <path stroke="#DA201B" stroke-width=".01" d="M3.15,2.3 C3.09130053,2.30549092 3.03726102,2.33431199 3,2.38 C3,2.38 3,2.45 3,2.49 C3,2.53 3,2.57 3,2.6 C3.04819395,2.65282422 3.11905425,2.67893064 3.19,2.67 C3.25,2.67 3.34,2.67 3.37,2.6 C3.4,2.53 3.37,2.52 3.37,2.49 C3.37,2.46 3.37,2.41 3.37,2.38 C3.32700342,2.32510239 3.25956089,2.29512793 3.19,2.3 L3.15,2.3 Z M3.15,2.35 C3.07268014,2.35 3.01,2.41268014 3.01,2.49 C3.01,2.56731986 3.07268014,2.63 3.15,2.63 C3.31,2.63 3.31,2.35 3.15,2.35 Z"/>
    <path fill="#FFF" fill-rule="nonzero" d="M2.79,2.42 L3,2.42 C3,2.42 3.06,2.42 3.06,2.42 C3.06,2.42 3.06,2.52 3.06,2.52 L2.83,2.52 C2.83,2.52 2.77,2.52 2.77,2.52 C2.77,2.52 2.77,2.43 2.77,2.43 L2.79,2.42 Z"/>
    <path stroke="#DA201B" stroke-width=".01" d="M2.79,2.42 L3,2.42 C3,2.42 3.06,2.42 3.06,2.42 C3.06,2.42 3.06,2.52 3.06,2.52 L2.83,2.52 C2.83,2.52 2.77,2.52 2.77,2.52 C2.77,2.52 2.77,2.43 2.77,2.43 L2.79,2.42 Z"/>
    <path fill="#FFF" fill-rule="nonzero" d="M2.54,2.4 C2.54,2.4 2.66,2.4 2.68,2.4 C2.69000986,2.45286366 2.69000986,2.50713634 2.68,2.56 L2.54,2.56 C2.52999014,2.50713634 2.52999014,2.45286366 2.54,2.4 Z"/>
    <path stroke="#DA201B" stroke-width=".01" d="M2.54,2.4 C2.54,2.4 2.66,2.4 2.68,2.4 C2.69000986,2.45286366 2.69000986,2.50713634 2.68,2.56 L2.54,2.56 C2.52999014,2.50713634 2.52999014,2.45286366 2.54,2.4 Z"/>
    <path fill="#FFF" fill-rule="nonzero" d="M1.82,2.4 C1.82,2.4 1.93,2.4 1.96,2.4 C1.97000986,2.45286366 1.97000986,2.50713634 1.96,2.56 L1.82,2.56 C1.80999014,2.50713634 1.80999014,2.45286366 1.82,2.4 Z"/>
    <path stroke="#DA201B" stroke-width=".01" d="M1.82,2.4 C1.82,2.4 1.93,2.4 1.96,2.4 C1.97000986,2.45286366 1.97000986,2.50713634 1.96,2.56 L1.82,2.56 C1.80999014,2.50713634 1.80999014,2.45286366 1.82,2.4 Z"/>
    <path fill="#FFF" fill-rule="nonzero" d="M1.35,2.38 L1.6,2.38 C1.6,2.38 1.6,2.38 1.6,2.44 C1.6,2.5 1.6,2.58 1.6,2.58 L1.37,2.58 C1.37,2.58 1.37,2.58 1.37,2.52 C1.37,2.46 1.37,2.38 1.37,2.38 L1.35,2.38 Z"/>
    <path stroke="#DA201B" stroke-width=".01" d="M1.35,2.38 L1.6,2.38 C1.6,2.38 1.6,2.38 1.6,2.44 C1.6,2.5 1.6,2.58 1.6,2.58 L1.37,2.58 C1.37,2.58 1.37,2.58 1.37,2.52 C1.37,2.46 1.37,2.38 1.37,2.38 L1.35,2.38 Z"/>
    <path fill="#FFF" fill-rule="nonzero" d="M3.25,2.4 L3.49,2.4 C3.49,2.4 3.49,2.6 3.49,2.6 L3.26,2.6 C3.26,2.6 3.26,2.4 3.26,2.4 L3.25,2.4 Z"/>
    <path stroke="#DA201B" stroke-width=".01" d="M3.25,2.4 L3.49,2.4 C3.49,2.4 3.49,2.6 3.49,2.6 L3.26,2.6 C3.26,2.6 3.26,2.4 3.26,2.4 L3.25,2.4 Z"/>
  </g>
</svg>
