<svg xmlns="http://www.w3.org/2000/svg" width="20" height="14" viewBox="0 0 20 14">
  <g fill="none" fill-rule="evenodd">
    <polygon fill="#F40" fill-rule="nonzero" points="19.82 0 7.93 0 7.93 9.73 7.93 13.21 19.82 13.21"/>
    <rect width="7.93" height="13.21" fill="#009920" fill-rule="nonzero"/>
    <path fill="#FFEA00" fill-rule="nonzero" d="M10.5,8.66 L10.74,8.23 C10.28,8.33 5.6,5.55 5.15,4.89 L4.9,5.32 C4.93,5.77 9.5,8.63 10.5,8.66 Z"/>
    <path fill="#FFEA00" fill-rule="nonzero" d="M7.83 6.81C8.74943961 7.44238316 9.761495 7.92816974 10.83 8.25 10.83 8.25 10.83 8.16 10.83 8.16 10.83 8.16 10.77 8.16 10.7 8.16 9.70945085 7.78728607 8.76089026 7.31132988 7.87 6.74 6.89151336 6.22526576 5.98113613 5.59035323 5.16 4.85 5.15432467 4.82026841 5.15432467 4.78973159 5.16 4.76L5.16 4.83C5 5.08 6.29 5.87 7.83 6.81zM7.57 7.3C8.45319713 7.88934063 9.41183564 8.35688713 10.42 8.69 10.47 8.69 10.51 8.69 10.52 8.69L10.57 8.62C10.45 8.76 9.15 8.2 7.57 7.25 7.41 7.15 4.74 5.63 4.87 5.25L4.87 5.31C4.72 5.52 6 6.37 7.57 7.3z"/>
    <path stroke="#915E36" stroke-linecap="round" stroke-linejoin="round" stroke-width=".02" d="M7.57 7.3C8.45319713 7.88934063 9.41183564 8.35688713 10.42 8.69 10.47 8.69 10.51 8.69 10.52 8.69L10.57 8.62C10.45 8.76 9.15 8.2 7.57 7.25 7.41 7.15 4.74 5.63 4.87 5.25L4.87 5.31C4.72 5.52 6 6.37 7.57 7.3zM7.83 6.81C8.74943961 7.44238316 9.761495 7.92816974 10.83 8.25 10.83 8.25 10.83 8.16 10.83 8.16 10.83 8.16 10.77 8.16 10.7 8.16 9.70945085 7.78728607 8.76089026 7.31132988 7.87 6.74 6.89151336 6.22526576 5.98113613 5.59035323 5.16 4.85 5.15432467 4.82026841 5.15432467 4.78973159 5.16 4.76L5.16 4.83C5 5.08 6.29 5.87 7.83 6.81z"/>
    <path fill="#FFEA00" fill-rule="nonzero" d="M10.86,5.17 L10.71,4.92 C9.80805248,5.22031581 8.86018497,5.3591107 7.91,5.33 C6.96277137,5.40962415 6.01065037,5.25151019 5.14,4.87 L5,5.14 C5.93161386,5.49080004 6.92599581,5.64404384 7.92,5.59 C8.91589515,5.60400441 9.90786189,5.46229488 10.86,5.17 Z"/>
    <path fill="#FFEA00" fill-rule="nonzero" d="M7.93,5.35 C8.50543108,5.35018451 9.08016923,5.3100865 9.65,5.23 C10.0387703,5.19394295 10.4180188,5.08897239 10.77,4.92 L10.77,4.84 C10.4358354,5.01820533 10.0678081,5.1238428 9.69,5.15 C9.12348775,5.22975141 8.55209823,5.26984892 7.98,5.27 C7.42502485,5.27490267 6.87037318,5.24148992 6.32,5.17 C5.92839474,5.12664275 5.54472068,5.02904145 5.18,4.88 L5.1,5 C5.47313136,5.14443821 5.86279552,5.24185425 6.26,5.29 C6.81456584,5.34920803 7.37261503,5.3692577 7.93,5.35 Z"/>
    <path fill="#FFEA00" fill-rule="nonzero" d="M7.92,5.62 C8.52905864,5.62208291 9.13742075,5.57862848 9.74,5.49 C10.1402919,5.44684979 10.5315472,5.34229017 10.9,5.18 L10.85,5.09 C10.4997486,5.27583454 10.115215,5.38813196 9.72,5.42 C9.12418966,5.50914122 8.52243618,5.55260119 7.92,5.55 C7.3415038,5.55268501 6.76349736,5.51593315 6.19,5.44 C5.78199436,5.38115678 5.38249062,5.2737272 5,5.12 L5,5.19 C5.39016616,5.35181713 5.80064049,5.45948253 6.22,5.51 C6.78362395,5.58408407 7.35152861,5.62083084 7.92,5.62 Z"/>
    <path stroke="#915E36" stroke-linecap="round" stroke-linejoin="round" stroke-width=".02" d="M7.93,5.35 C8.50543108,5.35018451 9.08016923,5.3100865 9.65,5.23 C10.0387703,5.19394295 10.4180188,5.08897239 10.77,4.92 L10.77,4.84 C10.4358354,5.01820533 10.0678081,5.1238428 9.69,5.15 C9.12348775,5.22975141 8.55209823,5.26984892 7.98,5.27 C7.42502485,5.27490267 6.87037318,5.24148992 6.32,5.17 C5.92839474,5.12664275 5.54472068,5.02904145 5.18,4.88 L5.1,5 C5.47313136,5.14443821 5.86279552,5.24185425 6.26,5.29 C6.81456584,5.34920803 7.37261503,5.3692577 7.93,5.35 Z"/>
    <path stroke="#915E36" stroke-linecap="round" stroke-linejoin="round" stroke-width=".02" d="M7.92,5.62 C8.52905864,5.62208291 9.13742075,5.57862848 9.74,5.49 C10.1402919,5.44684979 10.5315472,5.34229017 10.9,5.18 L10.85,5.09 C10.4997486,5.27583454 10.115215,5.38813196 9.72,5.42 C9.12418966,5.50914122 8.52243618,5.55260119 7.92,5.55 C7.3415038,5.55268501 6.76349736,5.51593315 6.19,5.44 C5.78199436,5.38115678 5.38249062,5.2737272 5,5.12 L5,5.19 C5.39016616,5.35181713 5.80064049,5.45948253 6.22,5.51 C6.78362395,5.58408407 7.35152861,5.62083084 7.92,5.62 Z"/>
    <path fill="#FFEA00" fill-rule="nonzero" d="M4.64,6.79 C5.68682755,7.16961372 6.7972906,7.3428052 7.91,7.3 C9.02309919,7.33493298 10.133587,7.17242257 11.19,6.82 L11.19,6.49 C11,6.77 9.36,7 7.9,7 C6.79040024,7.06157116 5.68014309,6.89128633 4.64,6.5 L4.64,6.79 Z"/>
    <path fill="#FFEA00" fill-rule="nonzero" d="M7.9,7.05 C8.56924564,7.05391027 9.23782575,7.00710966 9.9,6.91 C10.3538736,6.8757239 10.7961001,6.74985944 11.2,6.54 L11.2,6.47 C10.7868696,6.66511659 10.3441617,6.79015624 9.89,6.84 C9.23170224,6.94387481 8.56643752,6.99736343 7.9,7 C7.26390623,6.99522845 6.62896247,6.94510131 6,6.85 C5.51683001,6.7888767 5.04518237,6.65748914 4.6,6.46 L4.6,6.55 C5.04475112,6.74491434 5.51702179,6.86972873 6,6.92 C6.62945555,7.00827376 7.26438722,7.05171645 7.9,7.05 Z"/>
    <path fill="#FFEA00" fill-rule="nonzero" d="M7.9,7.33 C8.56924564,7.33391027 9.23782575,7.28710966 9.9,7.19 C10.3519779,7.15204252 10.7928806,7.02994639 11.2,6.83 L11.2,6.75 C10.7868696,6.94511659 10.3441617,7.07015624 9.89,7.12 C9.22788846,7.21768817 8.55926415,7.26449187 7.89,7.26 C7.25771973,7.26137777 6.62613702,7.21793557 6,7.13 C5.51683001,7.0688767 5.04518237,6.93748914 4.6,6.74 L4.6,6.83 C5.04475112,7.02491434 5.51702179,7.14972873 6,7.2 C6.62893426,7.29318421 7.26423483,7.33665215 7.9,7.33 Z"/>
    <path stroke="#915E36" stroke-linecap="round" stroke-linejoin="round" stroke-width=".02" d="M7.9,7.05 C8.56924564,7.05391027 9.23782575,7.00710966 9.9,6.91 C10.3538736,6.8757239 10.7961001,6.74985944 11.2,6.54 L11.2,6.47 C10.7868696,6.66511659 10.3441617,6.79015624 9.89,6.84 C9.23170224,6.94387481 8.56643752,6.99736343 7.9,7 C7.26390623,6.99522845 6.62896247,6.94510131 6,6.85 C5.51683001,6.7888767 5.04518237,6.65748914 4.6,6.46 L4.6,6.55 C5.04475112,6.74491434 5.51702179,6.86972873 6,6.92 C6.62945555,7.00827376 7.26438722,7.05171645 7.9,7.05 Z"/>
    <path stroke="#915E36" stroke-linecap="round" stroke-linejoin="round" stroke-width=".02" d="M7.9,7.33 C8.56924564,7.33391027 9.23782575,7.28710966 9.9,7.19 C10.3519779,7.15204252 10.7928806,7.02994639 11.2,6.83 L11.2,6.75 C10.7868696,6.94511659 10.3441617,7.07015624 9.89,7.12 C9.22788846,7.21768817 8.55926415,7.26449187 7.89,7.26 C7.25771973,7.26137777 6.62613702,7.21793557 6,7.13 C5.51683001,7.0688767 5.04518237,6.93748914 4.6,6.74 L4.6,6.83 C5.04475112,7.02491434 5.51702179,7.14972873 6,7.2 C6.62893426,7.29318421 7.26423483,7.33665215 7.9,7.33 Z"/>
    <path fill="#FFEA00" fill-rule="nonzero" d="M7.92,8.89 C8.83320669,8.91540775 9.74285558,8.76606241 10.6,8.45 L10.79,8.15 C9.85640167,8.43670376 8.88655857,8.58824175 7.91,8.6 C6.92470466,8.57553885 5.94666124,8.42429502 5,8.15 L5.19,8.44 C6.06536465,8.75360575 6.99029375,8.90606659 7.92,8.89 Z"/>
    <path fill="#FFEA00" fill-rule="nonzero" d="M7.92,8.63 C8.44608572,8.6315865 8.97134006,8.5880941 9.49,8.5 C9.92448257,8.44689173 10.3530261,8.35314783 10.77,8.22 L10.84,8.11 L10.76,8.11 C10.3401622,8.23219531 9.91251202,8.32574378 9.48,8.39 C8.96365695,8.46956743 8.44239086,8.51300628 7.92,8.52 C6.934847,8.50353029 5.95494362,8.37265278 5,8.13 L5,8.2 C5.94893369,8.47690502 6.93152592,8.62160182 7.92,8.63 Z"/>
    <path fill="#FFEA00" fill-rule="nonzero" d="M7.92,8.85 C6.99263922,8.83711324 6.07243585,8.68543136 5.19,8.4 L5.12,8.4 L5.12,8.47 C6.00522051,8.78768483 6.93952516,8.94678744 7.88,8.94 C8.43658438,8.93713426 8.99191753,8.88695355 9.54,8.79 C9.87834721,8.72391117 10.2123107,8.63708067 10.54,8.53 L10.63,8.4 C10.2762167,8.54454214 9.90719695,8.64853862 9.53,8.71 C8.99798923,8.80002595 8.45956481,8.84684547 7.92,8.85 Z"/>
    <path stroke="#915E36" stroke-linecap="round" stroke-linejoin="round" stroke-width=".02" d="M7.92,8.85 C6.99263922,8.83711324 6.07243585,8.68543136 5.19,8.4 L5.12,8.4 L5.12,8.47 C6.00522051,8.78768483 6.93952516,8.94678744 7.88,8.94 C8.43658438,8.93713426 8.99191753,8.88695355 9.54,8.79 C9.87834721,8.72391117 10.2123107,8.63708067 10.54,8.53 L10.63,8.4 C10.2762167,8.54454214 9.90719695,8.64853862 9.53,8.71 C8.99798923,8.80002595 8.45956481,8.84684547 7.92,8.85 Z"/>
    <path stroke="#915E36" stroke-linecap="round" stroke-linejoin="round" stroke-width=".02" d="M7.92,8.63 C8.44608572,8.6315865 8.97134006,8.5880941 9.49,8.5 C9.92448257,8.44689173 10.3530261,8.35314783 10.77,8.22 L10.84,8.11 L10.76,8.11 C10.3401622,8.23219531 9.91251202,8.32574378 9.48,8.39 C8.96697033,8.46920134 8.44905502,8.51263939 7.93,8.52 C6.916445,8.49663886 5.90930956,8.35228278 4.93,8.09 L5,8.2 C5.94893369,8.47690502 6.93152592,8.62160182 7.92,8.63 Z"/>
    <path fill="#FFEA00" fill-rule="nonzero" d="M7.9,9.87 C9.70044828,9.87 11.16,8.41044828 11.16,6.61 C11.16,4.80955172 9.70044828,3.35 7.9,3.35 C6.09955172,3.35 4.64,4.80955172 4.64,6.61 C4.65091767,8.4059066 6.1040934,9.85908233 7.9,9.87 Z M6,4.38 C6.56279491,3.91614877 7.27070619,3.66484026 8,3.67 C9.54537389,3.7457614 10.7796519,4.98437023 10.85,6.53 C10.842421,7.32119912 10.5392293,8.0809618 10,8.66 C9.43585114,9.20740435 8.6858626,9.52168526 7.9,9.54 C7.13004229,9.51169335 6.39715906,9.20217471 5.84,8.67 C5.30616022,8.1043799 5.00607389,7.35773653 5,6.58 C4.99868179,5.7363832 5.36353154,4.93371376 6,4.38 Z"/>
    <path fill="#FFEA00" fill-rule="nonzero" d="M7.9,9.54 C8.6858626,9.52168526 9.43585114,9.20740435 10,8.66 C10.5392293,8.0809618 10.842421,7.32119912 10.85,6.53 C10.7796519,4.98437023 9.54537389,3.7457614 8,3.67 C7.27070619,3.66484026 6.56279491,3.91614877 6,4.38 C5.36353154,4.93371376 4.99868179,5.7363832 5,6.58 C5.0087794,7.35910159 5.31251095,8.10592386 5.85,8.67 C6.40460843,9.19993361 7.13352987,9.50928075 7.9,9.54 Z"/>
    <circle cx="7.91" cy="6.61" r="3.2" stroke="#915E36" stroke-linecap="round" stroke-linejoin="round" stroke-width=".02"/>
    <path stroke="#915E36" stroke-linecap="round" stroke-linejoin="round" stroke-width=".02" d="M7.91,9.88 C9.71597113,9.88 11.18,8.41597113 11.18,6.61 C11.18,4.80402887 9.71597113,3.34 7.91,3.34 C6.10402887,3.34 4.64,4.80402887 4.64,6.61 C4.64549073,8.4136919 6.1063081,9.87450927 7.91,9.88 Z M7.91,3.41 C9.6773112,3.41 11.11,4.8426888 11.11,6.61 C11.11,8.3773112 9.6773112,9.81 7.91,9.81 C6.1426888,9.81 4.71,8.3773112 4.71,6.61 C4.71549003,4.84496785 6.14496785,3.41549003 7.91,3.41 Z"/>
    <path stroke="#915E36" stroke-linecap="round" stroke-linejoin="round" stroke-width=".02" d="M7.92,9.6 C9.57685425,9.6 10.92,8.25685425 10.92,6.6 C10.92,4.94314575 9.57685425,3.6 7.92,3.6 C6.26314575,3.6 4.92,4.94314575 4.92,6.6 C4.92,8.25685425 6.26314575,9.6 7.92,9.6 Z M7.92,3.68 C9.10597599,3.67595228 10.1774256,4.38725179 10.6340864,5.48179111 C11.0907472,6.57633044 10.8425432,7.83821235 10.0053614,8.6782612 C9.16817962,9.51831006 7.90715364,9.77082673 6.81105948,9.31791058 C5.71496533,8.86499443 5.00000691,7.7959829 5,6.61 C5.00544591,4.99796249 6.30799052,3.69095711 7.92,3.68 Z"/>
    <path stroke="#915E36" stroke-linecap="round" stroke-linejoin="round" stroke-width=".02" d="M7.92,9.53 C9.10688466,9.53404394 10.1789648,8.82165883 10.6350359,7.72588938 C11.0911071,6.63011994 10.8410649,5.3674532 10.0018059,4.52819414 C9.1625468,3.68893507 7.89988006,3.43889294 6.80411062,3.89496407 C5.70834117,4.3510352 4.99595606,5.42311534 5,6.61 C5.00548691,8.22039324 6.30960676,9.52451309 7.92,9.53 Z"/>
    <polygon fill="#FFEA00" fill-rule="nonzero" points="7.81 9.9 8.02 9.9 8.02 9.94 8.09 9.94 8.09 3.29 8.02 3.29 8.02 3.32 7.81 3.32 7.81 3.29 7.74 3.29 7.74 9.94 7.81 9.94"/>
    <path fill="#915E36" fill-rule="nonzero" d="M7.82,3.33 L8,3.33 L7.8,3.33 C7.8,3.33 7.8,3.33 7.8,3.33 L7.82,3.33 Z"/>
    <rect width="1" height="6.65" x="8.02" y="3.29" stroke="#915E36" stroke-linecap="round" stroke-linejoin="round" stroke-width=".02"/>
    <rect width="1" height="6.65" x="7.74" y="3.29" stroke="#915E36" stroke-linecap="round" stroke-linejoin="round" stroke-width=".02"/>
    <path fill="#FFEA00" fill-rule="nonzero" d="M7.9,6.14 C9.02673822,6.05460988 10.1564553,6.26126545 11.18,6.74 L11.18,6.46 C10.1480901,6.00724738 9.02568711,5.79850779 7.9,5.85 C6.77490617,5.77347831 5.64899827,5.9869532 4.63,6.47 L4.63,6.75 C5.64210383,6.24664953 6.77448824,6.03540963 7.9,6.14 Z"/>
    <polygon fill="#915E36" fill-rule="nonzero" points="4.63 6.74 4.63 6.74 4.63 6.48 4.63 6.73"/>
    <polygon fill="#915E36" fill-rule="nonzero" points="11.2 6.74 11.2 6.49 11.2 6.49"/>
    <path fill="#FFEA00" fill-rule="nonzero" d="M5.77,6.09 C6.47607175,5.96172527 7.1923732,5.89812841 7.91,5.9 C8.61058537,5.89887558 9.30992343,5.95910565 10,6.08 C10.4317844,6.13214661 10.8439975,6.29016165 11.2,6.54 L11.2,6.46 C10.8497493,6.19952898 10.4346137,6.04039366 10,6 C9.30042029,5.87352103 8.59092102,5.80993383 7.88,5.81 C7.16930596,5.81482574 6.46022621,5.87837534 5.76,6 C5.12,6.13 4.64,6.32 4.6,6.45 L4.6,6.54 C4.67,6.37 5.32,6.17 5.77,6.09 Z"/>
    <path fill="#FFEA00" fill-rule="nonzero" d="M5.77,6.37 C6.47607175,6.24172527 7.1923732,6.17812841 7.91,6.18 C8.61112985,6.17658047 9.31098071,6.24020327 10,6.37 C10.434033,6.41286486 10.8485294,6.57175515 11.2,6.83 L11.2,6.74 C10.8477095,6.48488366 10.4331721,6.32943213 10,6.29 C9.31028126,6.1652919 8.61090022,6.10171181 7.91,6.1 C7.18928402,6.10316189 6.47010068,6.16671763 5.76,6.29 C5.11,6.42 4.64,6.61 4.6,6.74 L4.6,6.83 C4.68,6.65 5.3,6.46 5.77,6.37 Z"/>
    <path stroke="#915E36" stroke-linecap="round" stroke-linejoin="round" stroke-width=".02" d="M5.77,6.09 C6.47607175,5.96172527 7.1923732,5.89812841 7.91,5.9 C8.61058537,5.89887558 9.30992343,5.95910565 10,6.08 C10.4317844,6.13214661 10.8439975,6.29016165 11.2,6.54 L11.2,6.46 C10.8497493,6.19952898 10.4346137,6.04039366 10,6 C9.30042029,5.87352103 8.59092102,5.80993383 7.88,5.81 C7.16930596,5.81482574 6.46022621,5.87837534 5.76,6 C5.12,6.13 4.64,6.32 4.6,6.45 L4.6,6.54 C4.67,6.37 5.32,6.17 5.77,6.09 Z"/>
    <path stroke="#915E36" stroke-linecap="round" stroke-linejoin="round" stroke-width=".02" d="M5.77,6.37 C6.47607175,6.24172527 7.1923732,6.17812841 7.91,6.18 C8.61112985,6.17658047 9.31098071,6.24020327 10,6.37 C10.434033,6.41286486 10.8485294,6.57175515 11.2,6.83 L11.2,6.74 C10.8477095,6.48488366 10.4331721,6.32943213 10,6.29 C9.31028126,6.1652919 8.61090022,6.10171181 7.91,6.1 C7.18928402,6.10316189 6.47010068,6.16671763 5.76,6.29 C5.11,6.42 4.64,6.61 4.6,6.74 L4.6,6.83 C4.68,6.65 5.3,6.46 5.77,6.37 Z"/>
    <path fill="#FFEA00" fill-rule="nonzero" d="M10.84,5.12 L10.66,4.81 C9.77706102,4.48794308 8.83877115,4.34515984 7.9,4.39 C6.98345364,4.34846292 6.06732766,4.48079222 5.2,4.78 L5,5.13 C5.92815472,4.79338006 6.91376813,4.64383871 7.9,4.69 C8.89947934,4.62129591 9.90206213,4.76793217 10.84,5.12 Z"/>
    <path fill="#915E36" fill-rule="nonzero" d="M10.82,5.06 L10.7,4.87 C10.7,4.87 10.7,4.87 10.7,4.87 L10.82,5.06 Z"/>
    <path fill="#FFEA00" fill-rule="nonzero" d="M7.91,4.44 C8.51260316,4.43213414 9.11478092,4.47562476 9.71,4.57 C10.0852682,4.6049413 10.4477085,4.72461496 10.77,4.92 L10.69,4.8 C10.3967464,4.64356324 10.0787828,4.53870289 9.75,4.49 C9.14128445,4.39614792 8.52586449,4.35266717 7.91,4.36 C7.290665,4.35940847 6.67219275,4.40621177 6.06,4.5 C5.77114871,4.55003463 5.48920299,4.63394705 5.22,4.75 L5.16,4.85 C5.44733755,4.71095391 5.75419763,4.61653543 6.07,4.57 C6.67861192,4.47522756 7.29410871,4.43174137 7.91,4.44 Z"/>
    <path fill="#FFEA00" fill-rule="nonzero" d="M7.91,4.72 C8.54259427,4.70778433 9.17503584,4.7512856 9.8,4.85 C10.1846531,4.90279989 10.5589757,5.014085 10.91,5.18 L10.85,5.08 C10.533015,4.93193972 10.1961399,4.83087721 9.85,4.78 C9.22560417,4.67634925 8.59270717,4.63281666 7.96,4.65 C7.30408335,4.63414671 6.64807713,4.67765733 6,4.78 C5.65466371,4.82904803 5.31799775,4.92668115 5,5.07 L5,5.17 C5.31392096,5.01016592 5.65160625,4.90210662 6,4.85 C6.63183249,4.75262045 7.27079978,4.70913053 7.91,4.72 Z"/>
    <path stroke="#915E36" stroke-linecap="round" stroke-linejoin="round" stroke-width=".02" d="M7.91,4.72 C8.54259427,4.70778433 9.17503584,4.7512856 9.8,4.85 C10.1846531,4.90279989 10.5589757,5.014085 10.91,5.18 L10.85,5.08 C10.533015,4.93193972 10.1961399,4.83087721 9.85,4.78 C9.22560417,4.67634925 8.59270717,4.63281666 7.96,4.65 C7.30408335,4.63414671 6.64807713,4.67765733 6,4.78 C5.65466371,4.82904803 5.31799775,4.92668115 5,5.07 L5,5.17 C5.31392096,5.01016592 5.65160625,4.90210662 6,4.85 C6.63183249,4.75262045 7.27079978,4.70913053 7.91,4.72 Z"/>
    <path stroke="#915E36" stroke-linecap="round" stroke-linejoin="round" stroke-width=".02" d="M7.91,4.44 C8.51217531,4.43428226 9.11391266,4.47439808 9.71,4.56 C10.0852122,4.60192098 10.4468632,4.72474583 10.77,4.92 L10.69,4.8 C10.3967464,4.64356324 10.0787828,4.53870289 9.75,4.49 C9.14128445,4.39614792 8.52586449,4.35266717 7.91,4.36 C7.290665,4.35940847 6.67219275,4.40621177 6.06,4.5 C5.77114871,4.55003463 5.48920299,4.63394705 5.22,4.75 L5.16,4.85 C5.44733755,4.71095391 5.75419763,4.61653543 6.07,4.57 C6.67861192,4.47522756 7.29410871,4.43174137 7.91,4.44 Z"/>
    <path fill="#FFEA00" fill-rule="nonzero" d="M7.91,7.85 C8.45695685,7.84597347 9.00296404,7.89621953 9.54,8 L9.68,7.75 C9.09841316,7.65202763 8.50977825,7.60185988 7.92,7.6 C6.91642363,7.50420869 5.90589576,7.68762642 5,8.13 L5.15,8.38 C5.23,8.26 5.89,7.87 7.91,7.85 Z"/>
    <polygon fill="#915E36" fill-rule="nonzero" points="5.12 8.34 5.12 8.34 5.12 8.34 5 8.16 5 8.16"/>
    <path fill="#FFEA00" fill-rule="nonzero" d="M5.66,7.87 C6.40047085,7.67509536 7.16447012,7.5842232 7.93,7.6 C8.5100117,7.59769004 9.08904162,7.64789495 9.66,7.75 L9.66,7.68 C9.07525396,7.58042444 8.48316369,7.53024729 7.89,7.53 C7.1183408,7.51091195 6.34773872,7.59840389 5.6,7.79 C5.33,7.89 5,8 5,8.13 L5,8.2 C5,8.08 5.43,7.94 5.66,7.87 Z"/>
    <path fill="#FFEA00" fill-rule="nonzero" d="M5.72,8.07 C5.33,8.18 5.12,8.31 5.11,8.38 L5.11,8.44 C5.11,8.33 5.49,8.2 5.7,8.14 C6.4172504,7.9499998 7.15840612,7.86577755 7.9,7.89 C8.44229972,7.87350251 8.98490807,7.91034629 9.52,8 L9.52,7.93 C8.98422504,7.84546453 8.44238292,7.80532807 7.9,7.81 C7.16478676,7.7950408 6.43107245,7.88254801 5.72,8.07 Z"/>
    <path stroke="#915E36" stroke-linecap="round" stroke-linejoin="round" stroke-width=".02" d="M5.66,7.87 C6.40047085,7.67509536 7.16447012,7.5842232 7.93,7.6 C8.5100117,7.59769004 9.08904162,7.64789495 9.66,7.75 L9.66,7.68 C9.07525396,7.58042444 8.48316369,7.53024729 7.89,7.53 C7.1183408,7.51091195 6.34773872,7.59840389 5.6,7.79 C5.33,7.89 5,8 5,8.13 L5,8.2 C5,8.08 5.43,7.94 5.66,7.87 Z"/>
    <path stroke="#915E36" stroke-linecap="round" stroke-linejoin="round" stroke-width=".02" d="M5.72,8.07 C5.33,8.18 5.12,8.31 5.11,8.38 L5.11,8.44 C5.11,8.33 5.49,8.2 5.7,8.14 C6.4172504,7.9499998 7.15840612,7.86577755 7.9,7.89 C8.44229972,7.87350251 8.98490807,7.91034629 9.52,8 L9.52,7.93 C8.98422504,7.84546453 8.44238292,7.80532807 7.9,7.81 C7.16478676,7.7950408 6.43107245,7.88254801 5.72,8.07 Z"/>
    <path fill="#FFEA00" fill-rule="nonzero" d="M10.54,8.58 L10.83,8.13 C10.83,7.61 6.18,4.76 5.17,4.77 L4.93,5.25 C5.7,5.19 10.41,8 10.54,8.58 Z"/>
    <polygon fill="#915E36" fill-rule="nonzero" points="10.57 8.55 10.82 8.18 10.82 8.18 10.82 8.18 10.58 8.55 10.58 8.55 10.58 8.55"/>
    <polygon fill="#915E36" fill-rule="nonzero" points="4.94 5.23 5 5.23 5.22 4.81 5.22 4.81 4.99 5.23 4.99 5.23"/>
    <path fill="#FFEA00" fill-rule="nonzero" d="M5.11 4.82C5.15234398 4.80690466 5.19765602 4.80690466 5.24 4.82 6.25729627 5.1046245 7.22513111 5.54301659 8.11 6.12 8.75 6.49 10.82 7.82 10.82 8.19 10.8255599 8.20961359 10.8255599 8.23038641 10.82 8.25L10.82 8.17C11 7.93 9.71 7 8.13 6 6.55 5 5.35 4.55 5.13 4.71L5.13 4.8C5.13 4.8 5.1 4.83 5.11 4.82zM7.86 6.65C8.83813936 7.15123521 9.72947795 7.80623402 10.5 8.59 10.5 8.66 10.5 8.68 10.5 8.69L10.5 8.63C10.63 8.44 9.26 7.47 7.83 6.63 6.93432185 5.9770292 5.91272519 5.51731071 4.83 5.28L4.83 5.36C5 5.15 6.29 5.71 7.86 6.65z"/>
    <path stroke="#915E36" stroke-linecap="round" stroke-linejoin="round" stroke-width=".02" d="M7.86 6.65C8.83813936 7.15123521 9.72947795 7.80623402 10.5 8.59 10.5 8.66 10.5 8.68 10.5 8.69L10.5 8.63C10.63 8.44 9.26 7.47 7.83 6.63 6.93432185 5.9770292 5.91272519 5.51731071 4.83 5.28L4.83 5.36C5 5.15 6.29 5.71 7.86 6.65zM5.11 4.82C5.15234398 4.80690466 5.19765602 4.80690466 5.24 4.82 6.25729627 5.1046245 7.22513111 5.54301659 8.11 6.12 8.75 6.49 10.82 7.82 10.82 8.19 10.8255599 8.20961359 10.8255599 8.23038641 10.82 8.25L10.82 8.17C11 7.93 9.71 7 8.13 6 6.55 5 5.35 4.55 5.13 4.71L5.13 4.8C5.13 4.8 5.1 4.83 5.11 4.82z"/>
    <path fill="#FFF" fill-rule="nonzero" stroke="#915E36" stroke-width=".02" d="M7.91,8.93 C8.43121018,8.92518133 8.92994723,8.71707522 9.3,8.35 C9.66193472,7.99368397 9.86704902,7.50788694 9.87,7 L9.87,4.36 L5.99999986,4.36 L6,7 C5.99980501,7.51929647 6.20888453,8.01676154 6.58,8.38 C6.93972258,8.72202342 7.41377646,8.91806074 7.91,8.93 Z"/>
    <path fill="#F00" fill-rule="nonzero" stroke="#A60000" stroke-width=".02" d="M6,7 C6.00000002,8.04657959 6.84842041,8.89499996 7.895,8.89499996 C8.94157959,8.89499996 9.78999998,8.04657959 9.79,7 L9.79,4.44 L6,4.44 L6,7 Z M9,5.2 L9,7.12 C8.9670769,7.36787682 8.8506821,7.59713929 8.67,7.77 C8.46337408,7.9841367 8.17755054,8.10353134 7.88,8.1 C7.28303996,8.07905657 6.80549098,7.59712641 6.79,7 L6.79,5.19 L9,5.2 Z"/>
    <polygon fill="#FFEA00" fill-rule="nonzero" stroke="#A60000" stroke-width=".02" points="9.68 5.09 9.66 4.88 9.16 4.88 9.14 5.09"/>
    <path fill="#FFEA00" fill-rule="nonzero" stroke="#A60000" stroke-width=".02" d="M9.69 5.14C9.69 5.14 9.69 5.14 9.69 5.14L9.13 5.14C9.13 5.14 9.13 5.14 9.13 5.14L9.69 5.14zM9.69 5.14C9.69 5.14 9.69 5.14 9.69 5.14L9.13 5.14C9.13 5.14 9.13 5.14 9.13 5.14L9.69 5.14zM9.68 4.84C9.68 4.84 9.68 4.84 9.68 4.84L9.14 4.84C9.14 4.84 9.14 4.84 9.14 4.84L9.68 4.84zM9.67 4.88C9.67 4.88 9.67 4.88 9.67 4.88L9.15 4.88C9.15 4.88 9.15 4.88 9.15 4.88L9.67 4.88z"/>
    <polygon fill="#FFEA00" fill-rule="nonzero" stroke="#A60000" stroke-width=".02" points="9.32 4.49 9.32 4.49 9.32 4.55 9.32 4.55 9.46 4.55 9.46 4.55 9.46 4.49 9.46 4.49 9.46 4.49 9.46 4.49 9.46 4.49 9.46 4.49 9.46 4.49 9.46 4.49 9.46 4.49"/>
    <polygon fill="#FFEA00" fill-rule="nonzero" stroke="#A60000" stroke-width=".02" points="9.47 4.57 9.35 4.57 9.34 4.79 9.48 4.79 9.47 4.58"/>
    <polygon fill="#FFEA00" fill-rule="nonzero" stroke="#A60000" stroke-width=".02" points="9.52 4.68 9.52 4.79 9.65 4.79 9.65 4.68"/>
    <path fill="#FFEA00" fill-rule="nonzero" stroke="#A60000" stroke-width=".02" d="M9.5 4.59L9.5 4.66C9.5 4.66 9.5 4.66 9.5 4.66L9.65 4.66C9.65 4.66 9.65 4.66 9.65 4.66L9.65 4.59 9.5 4.59zM9.15 4.59L9.15 4.66C9.15 4.66 9.15 4.66 9.15 4.66L9.3 4.66C9.3 4.66 9.3 4.66 9.3 4.66L9.3 4.59 9.28 4.59 9.15 4.59z"/>
    <polygon fill="#FFEA00" fill-rule="nonzero" stroke="#A60000" stroke-width=".02" points="9.17 4.79 9.3 4.79 9.3 4.68 9.17 4.68"/>
    <path fill="#A60000" fill-rule="nonzero" d="M9.4,4.64 L9.4,4.7 L9.4,4.64 C9.4,4.64 9.4,4.62 9.4,4.64 Z"/>
    <path fill="#FFEA00" fill-rule="nonzero" stroke="#A60000" stroke-width=".02" d="M9.41,4.89 C9.41,4.89 9.28,4.89 9.27,5.09 L9.54,5.09 C9.54551524,5.00195924 9.49269809,4.92070209 9.41,4.89 Z"/>
    <path fill="#FFEA00" fill-rule="nonzero" stroke="#A60000" stroke-width=".02" d="M9.41,5 C9.35643831,5.02508346 9.32441751,5.08111986 9.33,5.14 L9.49,5.14 C9.49558249,5.08111986 9.46356169,5.02508346 9.41,5 Z"/>
    <polygon fill="#FFEA00" fill-rule="nonzero" stroke="#A60000" stroke-width=".02" points="8.19 5.09 8.17 4.88 7.67 4.88 7.65 5.09"/>
    <path fill="#FFEA00" fill-rule="nonzero" stroke="#A60000" stroke-width=".02" d="M8.2 5.14C8.2 5.14 8.2 5.14 8.2 5.14L7.64 5.14C7.64 5.14 7.64 5.14 7.64 5.14L8.2 5.14zM8.2 5.14C8.2 5.14 8.2 5.14 8.2 5.14L7.64 5.14C7.64 5.14 7.64 5.14 7.64 5.14L8.2 5.14zM8.19 4.84C8.19 4.84 8.19 4.84 8.19 4.84L7.65 4.84C7.65 4.84 7.65 4.84 7.65 4.84L8.19 4.84zM8.17 4.88C8.17 4.88 8.17 4.88 8.17 4.88 8.17 4.88 8.17 4.88 8.17 4.88L7.66 4.88C7.66 4.88 7.66 4.88 7.66 4.88L8.17 4.88z"/>
    <polygon fill="#FFEA00" fill-rule="nonzero" stroke="#A60000" stroke-width=".02" points="7.83 4.49 7.83 4.49 7.83 4.55 7.83 4.55 8 4.55 8 4.55 8 4.49 8 4.49 8 4.49 8 4.49 8 4.49 8 4.49 8 4.49 8 4.49 8 4.49"/>
    <polygon fill="#FFEA00" fill-rule="nonzero" stroke="#A60000" stroke-width=".02" points="7.98 4.57 7.86 4.57 7.85 4.79 7.99 4.79 7.98 4.58"/>
    <polygon fill="#FFEA00" fill-rule="nonzero" stroke="#A60000" stroke-width=".02" points="8.03 4.68 8.03 4.79 8.16 4.79 8.16 4.68"/>
    <polygon fill="#FFEA00" fill-rule="nonzero" stroke="#A60000" stroke-width=".02" points="8 4.59 8 4.59 8 4.66 8 4.66 8.15 4.66 8.15 4.59 8.15 4.59 8.15 4.59 8.15 4.59 8.15 4.59 8.15 4.59 8.15 4.59"/>
    <polygon fill="#FFEA00" fill-rule="nonzero" stroke="#A60000" stroke-width=".02" points="7.65 4.59 7.65 4.66 7.65 4.66 7.79 4.66 7.79 4.66 7.79 4.59 7.79 4.59 7.79 4.59 7.79 4.59 7.79 4.59 7.79 4.59 7.79 4.59 7.79 4.59 7.79 4.59"/>
    <polygon fill="#FFEA00" fill-rule="nonzero" stroke="#A60000" stroke-width=".02" points="7.67 4.79 7.81 4.79 7.81 4.68 7.68 4.68"/>
    <polygon fill="#A60000" fill-rule="nonzero" points="7.9 4.64 7.9 4.7 7.9 4.7"/>
    <path fill="#A60000" fill-rule="nonzero" d="M7.73,4.72 C7.73,4.72 7.73,4.7 7.73,4.72 Z"/>
    <path fill="#FFEA00" fill-rule="nonzero" stroke="#A60000" stroke-width=".02" d="M7.92,4.89 C7.92,4.89 7.78,4.89 7.78,5.09 L8.05,5.09 C8.05551524,5.00195924 8.00269809,4.92070209 7.92,4.89 Z"/>
    <path fill="#FFEA00" fill-rule="nonzero" stroke="#A60000" stroke-width=".02" d="M7.92,5 C7.86643831,5.02508346 7.83441751,5.08111986 7.84,5.14 L8,5.14 C8.00558249,5.08111986 7.97356169,5.02508346 7.92,5 Z"/>
    <polygon fill="#FFEA00" fill-rule="nonzero" stroke="#A60000" stroke-width=".02" points="6.68 5.09 6.66 4.88 6.16 4.88 6.14 5.09"/>
    <path fill="#FFEA00" fill-rule="nonzero" stroke="#A60000" stroke-width=".02" d="M6.69 5.14C6.69 5.14 6.69 5.14 6.69 5.14L6.13 5.14C6.13 5.14 6.13 5.14 6.13 5.14L6.69 5.14zM6.69 5.14C6.69 5.14 6.69 5.14 6.69 5.14L6.13 5.14C6.13 5.14 6.13 5.14 6.13 5.14L6.69 5.14zM6.68 4.84C6.68 4.84 6.68 4.84 6.68 4.84L6.14 4.84C6.14 4.84 6.14 4.84 6.14 4.84L6.68 4.84zM6.66 4.88C6.66 4.88 6.66 4.88 6.66 4.88L6.15 4.88C6.15 4.88 6.15 4.88 6.15 4.88L6.66 4.88z"/>
    <polygon fill="#FFEA00" fill-rule="nonzero" stroke="#A60000" stroke-width=".02" points="6.32 4.49 6.32 4.49 6.32 4.57 6.47 4.57 6.47 4.57 6.47 4.49 6.47 4.49 6.47 4.49 6.47 4.49 6.47 4.49 6.47 4.49 6.47 4.49 6.47 4.49 6.47 4.49"/>
    <polygon fill="#FFEA00" fill-rule="nonzero" stroke="#A60000" stroke-width=".02" points="6.47 4.57 6.34 4.57 6.34 4.79 6.48 4.79 6.47 4.58"/>
    <polygon fill="#FFEA00" fill-rule="nonzero" stroke="#A60000" stroke-width=".02" points="6.52 4.68 6.51 4.79 6.65 4.79 6.64 4.68"/>
    <polygon fill="#FFEA00" fill-rule="nonzero" stroke="#A60000" stroke-width=".02" points="6.49 4.59 6.49 4.59 6.49 4.66 6.49 4.66 6.63 4.66 6.63 4.66 6.63 4.59 6.63 4.59 6.63 4.59 6.63 4.59 6.63 4.59 6.63 4.59 6.63 4.59 6.63 4.59 6.63 4.59"/>
    <polygon fill="#FFEA00" fill-rule="nonzero" stroke="#A60000" stroke-width=".02" points="6.14 4.59 6.14 4.66 6.14 4.66 6.3 4.66 6.3 4.66 6.3 4.59 6.3 4.59 6.3 4.59 6.3 4.59 6.3 4.59 6.3 4.59 6.3 4.59 6.3 4.59 6.3 4.59"/>
    <polygon fill="#FFEA00" fill-rule="nonzero" stroke="#A60000" stroke-width=".02" points="6.16 4.79 6.3 4.79 6.29 4.68 6.17 4.68"/>
    <polygon fill="#A60000" fill-rule="nonzero" points="6.39 4.64 6.39 4.7 6.39 4.7"/>
    <path fill="#A60000" fill-rule="nonzero" d="M6.22,4.72 C6.22,4.72 6.22,4.7 6.22,4.72 Z"/>
    <path fill="#FFEA00" fill-rule="nonzero" stroke="#A60000" stroke-width=".02" d="M6.41,4.89 C6.41,4.89 6.27,4.89 6.27,5.09 L6.54,5.09 C6.54551524,5.00195924 6.49269809,4.92070209 6.41,4.89 Z"/>
    <path fill="#FFEA00" fill-rule="nonzero" stroke="#A60000" stroke-width=".02" d="M6.41,5 C6.35643831,5.02508346 6.32441751,5.08111986 6.33,5.14 L6.48,5.14 C6.48737005,5.08343 6.45967803,5.02804597 6.41,5 Z"/>
    <polygon fill="#FFEA00" fill-rule="nonzero" stroke="#A60000" stroke-width=".02" points="6.68 6.62 6.66 6.42 6.16 6.42 6.14 6.62"/>
    <path fill="#FFEA00" fill-rule="nonzero" stroke="#A60000" stroke-width=".02" d="M6.69 6.67C6.69 6.67 6.69 6.67 6.69 6.67L6.13 6.67C6.13 6.67 6.13 6.67 6.13 6.67L6.69 6.67zM6.69 6.67C6.69 6.67 6.69 6.67 6.69 6.67L6.13 6.67C6.13 6.67 6.13 6.67 6.13 6.67L6.69 6.67zM6.67 6.37C6.67 6.37 6.67 6.37 6.67 6.37L6.14 6.37C6.14 6.37 6.14 6.37 6.14 6.37L6.67 6.37zM6.66 6.41C6.66 6.41 6.66 6.41 6.66 6.41L6.15 6.41C6.15 6.41 6.15 6.41 6.15 6.41L6.66 6.41zM6.32 6L6.32 6.1 6.47 6.1C6.47 6.1 6.47 6.1 6.47 6.1L6.47 6 6.32 6z"/>
    <polygon fill="#FFEA00" fill-rule="nonzero" stroke="#A60000" stroke-width=".02" points="6.47 6.1 6.34 6.1 6.34 6.32 6.48 6.32 6.47 6.11"/>
    <polygon fill="#FFEA00" fill-rule="nonzero" stroke="#A60000" stroke-width=".02" points="6.52 6.21 6.51 6.32 6.65 6.32 6.64 6.21"/>
    <polygon fill="#FFEA00" fill-rule="nonzero" stroke="#A60000" stroke-width=".02" points="6.49 6.12 6.49 6.12 6.49 6.19 6.49 6.19 6.63 6.19 6.63 6.19 6.63 6.12 6.63 6.12 6.63 6.12 6.63 6.12 6.63 6.12 6.63 6.12 6.63 6.12 6.63 6.12 6.63 6.12"/>
    <polygon fill="#FFEA00" fill-rule="nonzero" stroke="#A60000" stroke-width=".02" points="6.14 6.12 6.14 6.19 6.14 6.19 6.3 6.19 6.3 6.19 6.3 6.12 6.3 6.12 6.3 6.12 6.3 6.12 6.3 6.12 6.3 6.12 6.3 6.12 6.3 6.12 6.3 6.12"/>
    <polygon fill="#FFEA00" fill-rule="nonzero" stroke="#A60000" stroke-width=".02" points="6.16 6.32 6.3 6.32 6.29 6.21 6.17 6.21"/>
    <polygon fill="#A60000" fill-rule="nonzero" points="6.39 6.17 6.39 6.23 6.39 6.23"/>
    <path fill="#A60000" fill-rule="nonzero" d="M6.22,6.25 C6.22,6.25 6.22,6.23 6.22,6.25 Z"/>
    <path fill="#FFEA00" fill-rule="nonzero" stroke="#A60000" stroke-width=".02" d="M6.41,6.42 C6.3183465,6.43999938 6.25742003,6.5270372 6.27,6.62 L6.54,6.62 C6.54551524,6.53195924 6.49269809,6.45070209 6.41,6.42 Z"/>
    <path fill="#FFEA00" fill-rule="nonzero" stroke="#A60000" stroke-width=".02" d="M6.41,6.48 C6.41,6.48 6.33,6.48 6.33,6.62 L6.48,6.62 C6.48737005,6.56343 6.45967803,6.50804597 6.41,6.48 Z"/>
    <polygon fill="#FFEA00" fill-rule="nonzero" stroke="#A60000" stroke-width=".02" points="7.15 7.93 6.99 7.8 6.63 8.15 6.76 8.31"/>
    <polygon fill="#FFEA00" fill-rule="nonzero" stroke="#A60000" stroke-width=".02" points="7.19 8 7.19 8 6.8 8.4 6.8 8.4"/>
    <polygon fill="#FFEA00" fill-rule="nonzero" stroke="#A60000" stroke-width=".02" points="7.19 8 7.19 8 6.8 8.4 6.8 8.4"/>
    <polygon fill="#FFEA00" fill-rule="nonzero" stroke="#A60000" stroke-width=".02" points="7 7.75 7 7.75 6.62 8.13 6.62 8.13"/>
    <path fill="#FFEA00" fill-rule="nonzero" stroke="#A60000" stroke-width=".02" d="M7 7.79C7 7.79 7 7.79 7 7.79L6.64 8.15 7 7.79zM6.46 7.76L6.56 7.66C6.56 7.66 6.56 7.66 6.56 7.66L6.46 7.76z"/>
    <polygon fill="#FFEA00" fill-rule="nonzero" stroke="#A60000" stroke-width=".02" points="6.63 7.71 6.54 7.8 6.69 7.96 6.79 7.86 6.64 7.71"/>
    <polygon fill="#FFEA00" fill-rule="nonzero" stroke="#A60000" stroke-width=".02" points="6.74 7.75 6.82 7.83 6.92 7.74 6.83 7.66"/>
    <polygon fill="#FFEA00" fill-rule="nonzero" stroke="#A60000" stroke-width=".02" points="6.66 7.71 6.66 7.71 6.66 7.71 6.66 7.71 6.76 7.61 6.76 7.61 6.76 7.61 6.76 7.61 6.76 7.61 6.76 7.61 6.76 7.61 6.76 7.61 6.76 7.61 6.76 7.61 6.76 7.61"/>
    <path fill="#FFEA00" fill-rule="nonzero" stroke="#A60000" stroke-width=".02" d="M6.42,8 L6.52,7.9 C6.52,7.9 6.52,7.9 6.52,7.9 L6.42,8 Z"/>
    <polygon fill="#FFEA00" fill-rule="nonzero" stroke="#A60000" stroke-width=".02" points="6.57 8.08 6.67 7.98 6.58 7.91 6.49 8"/>
    <path fill="#A60000" fill-rule="nonzero" d="M6.63 7.81C6.63 7.81 6.62 7.8 6.63 7.81zM6.81 7.74C6.81 7.74 6.79 7.73 6.81 7.74zM6.56 8C6.56 8 6.54 8 6.56 8z"/>
    <path fill="#FFEA00" fill-rule="nonzero" stroke="#A60000" stroke-width=".02" d="M6.81,8 C6.7672887,8.07845271 6.78857289,8.17635999 6.86,8.23 L7.05,8 C6.98012503,7.94307893 6.87987497,7.94307893 6.81,8 Z"/>
    <path fill="#FFEA00" fill-rule="nonzero" stroke="#A60000" stroke-width=".02" d="M6.85,8 C6.83413457,8.05552684 6.85399155,8.11509779 6.9,8.15 L7,8.06 C6.96330473,8.01600183 6.90691601,7.99344634 6.85,8 Z"/>
    <polygon fill="#FFEA00" fill-rule="nonzero" stroke="#A60000" stroke-width=".02" points="8.68 7.93 8.84 7.8 9.19 8.15 9.06 8.31"/>
    <path fill="#FFEA00" fill-rule="nonzero" stroke="#A60000" stroke-width=".02" d="M8.64 8L9.04 8.4C9.04 8.4 9.04 8.4 9.04 8.4L8.64 8zM8.64 8L9.04 8.4C9.04 8.4 9.04 8.4 9.04 8.4L8.64 8zM8.86 7.75C8.86 7.75 8.86 7.75 8.86 7.75L9.24 8.13 8.86 7.75zM8.83 7.8L9.19 8.17C9.19 8.17 9.19 8.17 9.19 8.17L8.83 7.8zM9.36 7.76C9.36 7.76 9.36 7.76 9.36 7.76L9.26 7.65C9.26 7.65 9.26 7.65 9.26 7.65L9.36 7.76z"/>
    <polygon fill="#FFEA00" fill-rule="nonzero" stroke="#A60000" stroke-width=".02" points="9.19 7.71 9.28 7.8 9.13 7.96 9.03 7.86 9.19 7.72"/>
    <polygon fill="#FFEA00" fill-rule="nonzero" stroke="#A60000" stroke-width=".02" points="9.09 7.75 9.01 7.84 8.91 7.74 8.99 7.66"/>
    <polygon fill="#FFEA00" fill-rule="nonzero" stroke="#A60000" stroke-width=".02" points="9.16 7.71 9.16 7.71 9.16 7.71 9.16 7.71 9 7.66 9 7.66 9 7.66 9 7.66 9 7.66 9 7.66 9 7.66 9 7.66 9 7.66 9 7.66"/>
    <path fill="#FFEA00" fill-rule="nonzero" stroke="#A60000" stroke-width=".02" d="M9.41,8 L9.36,8 L9.26,7.9 C9.26,7.9 9.26,7.9 9.26,7.9 L9.41,8 Z"/>
    <polygon fill="#FFEA00" fill-rule="nonzero" stroke="#A60000" stroke-width=".02" points="9.26 8.08 9.16 7.99 9.24 7.91 9.33 8"/>
    <path fill="#A60000" fill-rule="nonzero" d="M9.2 7.82C9.2 7.82 9.21 7.8 9.2 7.82zM9 7.75C9 7.75 9 7.73 9 7.75zM9.27 8C9.27 8 9.28 8 9.27 8z"/>
    <path fill="#FFEA00" fill-rule="nonzero" stroke="#A60000" stroke-width=".02" d="M9,8 C8.92888889,7.94666667 8.83111111,7.94666667 8.76,8 L9,8.22 C9.04395609,8.1532535 9.04395609,8.0667465 9,8 Z"/>
    <path fill="#FFEA00" fill-rule="nonzero" stroke="#A60000" stroke-width=".02" d="M9,8 C9.02666667,8.05 9.02666667,8.11 9,8.16 L8.89,8.05 C8.91721686,8.01755372 8.95765815,7.99917132 9,8 Z"/>
    <polygon fill="#FFEA00" fill-rule="nonzero" stroke="#A60000" stroke-width=".02" points="9.68 6.62 9.66 6.42 9.16 6.42 9.14 6.62"/>
    <path fill="#FFEA00" fill-rule="nonzero" stroke="#A60000" stroke-width=".02" d="M9.69 6.67C9.69 6.67 9.69 6.67 9.69 6.67L9.13 6.67C9.13 6.67 9.13 6.67 9.13 6.67L9.69 6.67zM9.69 6.67C9.69 6.67 9.69 6.67 9.69 6.67L9.13 6.67C9.13 6.67 9.13 6.67 9.13 6.67L9.69 6.67zM9.68 6.37C9.68 6.37 9.68 6.37 9.68 6.37L9.14 6.37C9.14 6.37 9.14 6.37 9.14 6.37L9.68 6.37zM9.67 6.41C9.67 6.41 9.67 6.41 9.67 6.41L9.15 6.41C9.15 6.41 9.15 6.41 9.15 6.41L9.67 6.41zM9.32 6L9.32 6.06 9.46 6.06C9.46 6.06 9.46 6.06 9.46 6.06L9.46 6 9.32 6z"/>
    <polygon fill="#FFEA00" fill-rule="nonzero" stroke="#A60000" stroke-width=".02" points="9.47 6.1 9.35 6.1 9.34 6.32 9.48 6.32 9.47 6.11"/>
    <polygon fill="#FFEA00" fill-rule="nonzero" stroke="#A60000" stroke-width=".02" points="9.52 6.21 9.52 6.32 9.65 6.32 9.65 6.21"/>
    <path fill="#FFEA00" fill-rule="nonzero" stroke="#A60000" stroke-width=".02" d="M9.5,6.12 L9.5,6.19 C9.5,6.19 9.5,6.19 9.5,6.19 L9.65,6.19 C9.65,6.19 9.65,6.19 9.65,6.19 L9.65,6.12 L9.5,6.12 Z"/>
    <polygon fill="#FFEA00" fill-rule="nonzero" stroke="#A60000" stroke-width=".02" points="9.14 6.12 9.14 6.19 9.14 6.19 9.29 6.19 9.29 6.12 9.29 6.12 9.29 6.12 9.29 6.12 9.29 6.12 9.29 6.12 9.29 6.12 9.29 6.12 9.29 6.12"/>
    <polygon fill="#FFEA00" fill-rule="nonzero" stroke="#A60000" stroke-width=".02" points="9.17 6.32 9.3 6.32 9.3 6.21 9.17 6.21"/>
    <path fill="#A60000" fill-rule="nonzero" d="M9.4,6.17 L9.4,6.23 L9.4,6.17 C9.4,6.17 9.4,6.15 9.4,6.17 Z"/>
    <path fill="#FFEA00" fill-rule="nonzero" stroke="#A60000" stroke-width=".02" d="M9.41,6.42 C9.32333815,6.44714949 9.26584681,6.52927998 9.27,6.62 L9.54,6.62 C9.54551524,6.53195924 9.49269809,6.45070209 9.41,6.42 Z"/>
    <path fill="#FFEA00" fill-rule="nonzero" stroke="#A60000" stroke-width=".02" d="M9.41,6.48 C9.35643831,6.50508346 9.32441751,6.56111986 9.33,6.62 L9.49,6.62 C9.49558249,6.56111986 9.46356169,6.50508346 9.41,6.48 Z"/>
    <path fill="#04C" fill-rule="nonzero" d="M7.92 7C7.9884198 6.99909034 8.05347647 6.97017627 8.1 6.92 8.14472835 6.87068287 8.16965786 6.80657843 8.17 6.74L8.17 6.33 7.67 6.33 7.67 6.69C7.66832474 6.75896089 7.69768994 6.82503258 7.75 6.87 7.77867932 6.941123 7.84384741 6.99095742 7.92 7zM7.92 7.8C7.98371168 7.80015624 8.04487095 7.77497301 8.09 7.73 8.14074744 7.67974081 8.1695134 7.61142165 8.17 7.54L8.17 7.18 7.67 7.18 7.67 7.54C7.67215249 7.60924065 7.69671601 7.67591306 7.74 7.73 7.79023977 7.77321399 7.85376444 7.79791803 7.92 7.8zM7 6.69C6.99669985 6.76019039 7.02195051 6.8287279 7.07 6.88 7.1052 6.93973333 7.1628 6.98293333 7.23 7 7.29657843 6.99965786 7.36068287 6.97472835 7.41 6.93 7.45328399 6.87591306 7.47784751 6.80924065 7.48 6.74L7.48 6.33 7 6.33 7 6.69zM8.36 6.69C8.36215249 6.75924065 8.38671601 6.82591306 8.43 6.88 8.47227605 6.9417197 8.53676796 6.9847143 8.61 7 8.67330055 6.99814857 8.7337492 6.97325795 8.78 6.93 8.82804949 6.8787279 8.85330015 6.81019039 8.85 6.74L8.85 6.33 8.36 6.33 8.36 6.69zM7.92 6.09C7.98881946 6.08244775 8.05266652 6.05052422 8.1 6 8.14328399 5.94591306 8.16784751 5.87924065 8.17 5.81L8.17 5.47 7.67 5.47 7.67 5.83C7.67125045 5.89547128 7.70034891 5.95730549 7.75 6 7.78878836 6.05571457 7.85211719 6.0892416 7.92 6.09z"/>
    <path fill="#FFF" fill-rule="nonzero" d="M8.61 6.65C8.62131514 6.6695984 8.64438305 6.67915344 8.66624222 6.67329629 8.6881014 6.66743914 8.70330127 6.64763028 8.70330127 6.625 8.70330127 6.60236972 8.6881014 6.58256086 8.66624222 6.57670371 8.64438305 6.57084656 8.62131514 6.5804016 8.61 6.6L8.61 6.65zM8.75 6.52C8.76587273 6.52727525 8.78412727 6.52727525 8.8 6.52 8.78452995 6.51106836 8.76547005 6.51106836 8.75 6.52 8.75 6.52 8.75 6.52 8.75 6.52zM8.06 6.78C8.06 6.75238576 8.03761424 6.73 8.01 6.73 7.98238576 6.73 7.96 6.75238576 7.96 6.78L8.06 6.78zM7.92 6.65C7.93657941 6.66324697 7.95971497 6.66458491 7.97771091 6.65333745 7.99570684 6.64208999 8.00464226 6.62070769 8 6.6 7.98268426 6.59375804 7.96346158 6.59580933 7.94785295 6.60556472 7.93224433 6.61532011 7.92197704 6.63170005 7.92 6.65zM8.06 6.51C8.06 6.48238576 8.03761424 6.46 8.01 6.46 7.98238576 6.46 7.96 6.48238576 7.96 6.51L8.06 6.51zM7.24 6.65C7.26761424 6.65 7.29 6.62761424 7.29 6.6 7.29 6.57238576 7.26761424 6.55 7.24 6.55L7.24 6.65zM7.79 7.37C7.79893164 7.35452995 7.79893164 7.33547005 7.79 7.32 7.78106836 7.33547005 7.78106836 7.35452995 7.79 7.37zM7.79 5.66C7.79893164 5.64452995 7.79893164 5.62547005 7.79 5.61 7.78106836 5.62547005 7.78106836 5.64452995 7.79 5.66z"/>
  </g>
</svg>
