<svg xmlns="http://www.w3.org/2000/svg" width="20" height="14" viewBox="0 0 20 14">
  <g fill="none">
    <rect width="19.82" height="13.21" fill="#FA2700"/>
    <path fill="#FFF" d="M9.91,3.3 C11.7367506,3.30551891 13.2136698,4.78989129 13.2099933,6.61664653 C13.2063168,8.44340177 11.7234348,9.92181731 9.89667673,9.91998323 C8.06991871,9.91814914 6.59000834,8.43675894 6.59,6.61 C6.58999599,5.73039806 6.94009951,4.88696759 7.56300941,4.26593391 C8.18591932,3.64490024 9.03040207,3.29734259 9.91,3.3 Z"/>
    <path fill="#FA2700" d="M8.58,6.61 C8.58,5.5054305 9.4754305,4.61 10.58,4.61 C11.0804618,4.61153754 11.5621612,4.80064915 11.93,5.14 C11.2992942,4.26944111 10.1795284,3.90435444 9.15690222,4.23586356 C8.13427602,4.56737267 7.44167358,5.51998249 7.44167358,6.595 C7.44167358,7.67001751 8.13427602,8.62262733 9.15690222,8.95413644 C10.1795284,9.28564556 11.2992942,8.92055889 11.93,8.05 C11.3498588,8.58097373 10.5123861,8.72266519 9.78986353,8.41208831 C9.06734093,8.10151143 8.59390026,7.39632289 8.58,6.61 Z"/>
    <polygon fill="#FA2700" points="11.14 6.61 11.78 5.73 10.75 6.07 10.11 5.19 10.11 6.27 9.08 6.61 10.11 6.94 10.11 8.02 10.75 7.15 11.78 7.48"/>
  </g>
</svg>
