<svg height="62" viewBox="0 0 340 62" width="340" xmlns="http://www.w3.org/2000/svg"><g fill="none" fill-rule="evenodd"><path d="m0 0h340v62h-340z"/><g fill-rule="nonzero"><path d="m225.67 14.72v20.27h-2.56v-20.27h-11.02v-2.28h24.56v2.28z" fill="#000"/><path d="m245.46 34.99v-22.55h23.16v2.28h-20.63v7.66h19.78v2.25h-19.78v8.12h20.63v2.24z" fill="#000"/><path d="m295.78 35.18h-11.78c-4.12 0-6.56-2.6-6.56-7.11v-8.71c0-6.37 3.93-7.08 9.42-7.08h10.33c4.71 0 6.14 2 6.14 6.5v.46h-2.53v-.39c0-3.15-.68-4.32-4-4.32h-9.65c-5.3 0-7.15.65-7.15 4.74v6.21c0 5.13.2 7.44 4.45 7.44h11.27c4.09 0 5.36-.55 5.36-3.77v-1.2h2.53v1.49c0 5.17-3.28 5.75-7.8 5.75" fill="#000"/><path d="m336.68 34.99v-10.36h-21.12v10.36h-2.53v-22.55h2.53v9.94h21.12v-9.94h2.53v22.55z" fill="#000"/><path d="m71.83 25.47h-10.53v4.42h10.4c1.95 0 2.76-.46 2.76-2.27s-.68-2.14-2.63-2.14m.39-8.25h-10.92v4.09h10.2c2.08 0 2.6-.36 2.6-2.18 0-1.33-.19-1.92-1.88-1.92m.91 17.61h-17.84v-22.55h17.71c4.48 0 7.11.85 7.11 5.78 0 2.86-.55 4.71-3.54 5.2v.23c3.35.23 3.9 2.24 3.9 5.07 0 5.52-2.57 6.27-7.34 6.27" fill="#000"/><path d="m90.37 12.28h6.01v22.54h-6.01z" fill="#000"/><path d="m115.52 29.43v.17h15.17v5.23h-25.25v-5.07l15.73-12.05v-.2h-15.01v-5.23h24.56v5.07z" fill="#000"/><path d="m160.41 21c0-3.35-1.59-3.67-3.61-3.67h-7.47c-2.18 0-3.57.32-3.57 3.67v5.07c0 3.35 1.4 3.7 3.57 3.7h7.47c2.18 0 3.61-.36 3.61-3.7zm-3.61 14h-7.47c-5.2 0-9.75-1.33-9.75-8.28v-6.35c0-7 4.58-8.25 9.75-8.25h7.47c5 0 9.78 1.3 9.78 8.25v6.37c0 7-4.58 8.28-9.78 8.28z" fill="#000"/><path d="m196.72 34.83-14.03-16.86v16.86h-6.01v-22.55h8.67l12.41 15.43v-15.43h6.01v22.55z" fill="#000"/><path d="m47.17 0c-.3130618 5.73809524-5.0533758 10.2326151-10.8 10.24h-25.57c-5.74662424-.0073849-10.48693816-4.50190476-10.8-10.24h2.06c.30992573 4.60187134 4.12771622 8.17941186 8.74 8.19h25.56c4.6142281-.0056825 8.4348434-3.58587008 8.74-8.19zm-16.42 4.1h-14.33v2h14.33zm-6.14 47.1h-2v10.24h2zm-4.1 0h-2v6.14h2zm8.19 0h-2v6.14h2zm8.2-36.86v-2h-26.63v2h12.29v32.76h-4.1v2h10.24v-2h-4.1v-32.76zm-6.15 10.31 4.17-4.17-1.44-1.48-4.78 4.8v17.2h2zm-14.34 16.35h2v-17.2l-4.72-4.8-1.45 1.45 4.17 4.17z" fill="#ffcc0c"/></g></g></svg>