<svg height="38" viewBox="0 0 200 38" width="200" xmlns="http://www.w3.org/2000/svg"><g fill="none" fill-rule="evenodd"><g fill-rule="nonzero"><path d="m13.2512821 5.58307692c-.8184616-.95487179-3.29333338-.71128205-4.48205133-.38-6.71333333 1.97794872-8.99333333 13.00769228-7.22 19.65282048.84769231 3.1764103 1.76358974 4.1215385 3.38102564 6.4697436l.65282051.8379487-1.17897436-2.4066666c-2.05589743-4.5502564-3.28358974-9.8994872-1.94871794-14.868718.23291026-.9082665.55944539-1.7899113.97435897-2.6307692.35485742-.8008633.82420553-1.5459124 1.39333333-2.2117949-.1722201.5630668-.38385403 1.113315-.63333333 1.6466667-.11692308.2923077-.5748718 1.3835897-.39948718 1.7246154.57705237-1.2754206 1.30665222-2.4761522 2.17282051-3.57589746.4248103-.52348224.89073485-1.01221429 1.39333334-1.46153846.54515775-.48976504 1.19007303-.85543866 1.89025641-1.07179487-.68657214.6114883-1.33722965 1.26214581-1.94871795 1.94871795-.59253471.72091437-1.12378515 1.49008674-1.58820513 2.29948714-.98632374 1.7920354-1.6461652 3.7451661-1.94871795 5.7682052-.64307692 4.0241025.13641026 8.7205128 2.57230769 12.0333333l.2923077.2825641c-.13641026-.38-.45794872-.8769231-.65282052-1.3348718-.65902412-1.6125614-1.0093688-3.3345385-1.03282051-5.0764103-.21435897-4.296923 1.65641026-12.5107692 5.7-14.53743585 2.065641-.97435897 2.1241026 1.13025641 2.2215385 1.37384615l.3410256-.75999999c.7315415-1.74681312 1.8086713-3.32770834 3.1666667-4.64769231 1.6392894-1.76366513 3.990263-2.68828585 6.3917948-2.51384616-.8500366.18951598-1.6278309.6189937-2.2410256 1.2374359.5748718-.13641026.974359-.35076923 1.6564103-.45794872.6699496-.10903187 1.3479233-.16118369 2.0266666-.15589743-.1753846.10717948-1.2861538.37025641-1.9487179.63333333-1.3641026.56512821-3.9558975 2.19230769-4.4138462 3.16666667.8009895-.62018059 1.6827827-1.12827704 2.6210257-1.51025641 1.0321034-.42508203 2.1021928-.75132881 3.1958974-.97435898 1.9026793-.43327712 3.8709897-.49613073 5.7974359-.1851282.6235897.11692307 1.1497436.33128205 1.7246154.42871795-.1412606-.13849684-.3107654-.24485284-.4969231-.31179488l-1.5979487-.81846153c-4.0825641-1.88051282-8.2820513-3.50769231-12.6082051-.89641026-.9842508.60078576-1.8442125 1.38467393-2.5333334 2.30923077-.2241025.26307692-.4871795.75025641-.6917948.97435897zm20.091282 13.90410258c.974359-.1364103 1.6466667-.2435898 2.0364103.545641.3027699.7541814.2191482 1.608577-.2241026 2.2897436-1.2082051 2.1728205-5.32 2.9912821-7.7364103 3.7025641-1.471282.4384615-2.9230769.8769231-4.3748718 1.354359-3.1082051.974359-12.7543589 4.4430769-9.8410256 9.1394872.3879264.5666868.8650389 1.0668323 1.4128205 1.4810256-.2258889-.7033336-.2258889-1.4597434 0-2.1630769.1715893-.6172268.4413609-1.2028287.7989744-1.734359 1.4629503-1.9948352 3.4686066-3.5269807 5.7779487-4.4138462 1.3051163-.5090264 2.6605707-.878102 4.0435897-1.1010256-.3605128.3020513-5.2030769 2.5333333-6.3235897 3.8974359 1.0043886-.5715182 2.0786434-1.0103906 3.1958974-1.305641 2.7964103-.7405128 6.9861539-.974359 9.2953846-2.0948718l1.4712821-.8282051c-1.6271795 1.9487179-5.3784615 2.6405128-7.6682051 3.3030769-2.708718.7794872-5.6512821 2.2897436-6.6061539 4.2969231.7386072-.9096516 1.6932995-1.6198087 2.7769231-2.0656411 3.205641-1.4420513 6.3625641-1.6661538 10.805641-4.0143589 2.1088729-1.0835327 3.8385088-2.7825857 4.9594872-4.8717949.6868731-1.204293.9542061-2.60265.76-3.9753846-.4189744-1.6466667-1.5102564-2.0753846-2.2020513-2.7671795 1.6661539-.214359 1.7830769-1.354359 1.4225641-2.9717949-.2833559-1.1873602-.6413317-2.3556631-1.0717948-3.4979487-.048718.7794872.0779487 1.6271795 0 2.5138461-.0830681 1.3962023-.5445112 2.7434814-1.3348718 3.8974359-.3923009.5252982-.8582916.9912889-1.3835898 1.3835898z" fill="#004929"/><path d="m29.8738462 19.6723077c.1659226-.6058652.2768001-1.2254748.331282-1.8512821-.3994872.974359-2.4553846 3.6733334-3.1958974 3.7317949.5434597-.6469485 1.0323154-1.3378646 1.4615384-2.065641 1.2666667-2.1241026 2.8451282-5.8461539 2.6210257-8.3794872-.1204815.8471511-.3161252 1.6818975-.5846154 2.494359-1.0830899 2.8429519-2.6451658 5.4793669-4.6184616 7.7948718-1.1479202 1.461882-2.601044 2.6556382-4.2579487 3.4979487-.2728205.1169231-.9743589.3020513-1.1692307.4384615 2.4685708-.140907 4.8868548-.7562297 7.1225641-1.8123077 1.9098792-1.0298051 3.5107993-2.5500065 4.6379487-4.4041025 2.1533333-3.3030769 5.1738461-10.34769233-.0097436-12.29641028-.6723077 4.33589748.5651282 9.12974358-2.3092308 12.85179488z" fill="#004929"/><path d="m5.84615385 20.8610256v.0682052c.01666567 1.1077488.19389476 2.2072255.52615384 3.2641025.08769231-1.4323077-.42871795-1.7148718.12666667-4.3846154.27207899-1.2847206.73170181-2.5224192 1.36410256-3.6733333 0 .974359-.54564102 4.2579487-.64307692 5.8461539-.18256937 2.094148-.18256937 4.2002109 0 6.2943589 0-2.8646153.89641026-5.436923 1.40307692-8.0676923.25047513-1.4054424.42287618-2.823685.51641026-4.2482051.06820513-.7502564.04871795-1.4907692.11692308-2.2410256.06589819-.6951679.22992013-1.3774992.48717948-2.0266667l-.21435897.1948718c-2.21349823 2.4847644-3.51279029 5.6504998-3.68307692 8.9738461z" fill="#0f4f34"/><path d="m29.5717949 6.03128205c-.9333337-.17944259-1.8923074-.17944259-2.8256411 0-.7773537.1359446-1.5059884.47172096-2.1143589.97435898l-1.4810257 1.69538461c.3205265-.11450295.6176387-.28616777.8769231-.50666667.3117949-.19487179.5164103-.34102564.8379487-.51641025.659221-.42153907 1.4645082-.54868969 2.2215385-.35076923 0 .13641025-.0876923.10717948-.1948718.21435897-.2716391.26791373-.6069244.46237921-.974359.56512821-.1787651.02903089-.3449108.11040838-.4774359.23384615.3702564 0 1.1789744-.25333333 1.3348718-.15589744-1.1233155.61742781-2.3530209 1.01741263-3.6246154 1.17897436-.4638848.11202357-.9365841.18374345-1.4128205.21435898-.1169231.12666666 0 .08769231-.2630769.15589743l-.3410256.07794872c-.5066667.12666667-1.4517949.71128203-1.5784616.71128203 0-.165641.4384616-1.87076921 1.2276923-2.05589741-.0649728.20794995-.0946146.42532309-.0876923.64307692.0974359-.12666667.2338462-.33128205.38-.52615385.0735625-.08679604.1418887-.1778976.2046154-.27282051.3055378-.43748291.732256-.77614814 1.2276923-.97435897l-.0974359.11692307v.11692308l-.0682051.13641026c-.1784561.50350473-.4385079.9742313-.7697436 1.39333333-.1545544.14896343-.2948245.31206817-.4189744.48717949h.2241026c.331282-.38 1.0328205-.34102564 1.8025641-1.79282052.7697436-1.45179487.7502564-1.21794871 1.734359-1.94871794-1.2984269.07994356-2.5690444.41083354-3.7415385.97435897-.859287.44072183-1.5756532 1.11653902-2.065641 1.94871795-.2837255.56574071-.4839276 1.16962903-.594359 1.79282053-.0930289.408279-.2068524.8115394-.3410256 1.2082051 0-.5066667-.0779487-2.38717948 0-2.87435896.0639921-.25852895.1453739-.51244021.2435897-.76-.1788238.0039853-.3508368.06935025-.4871795.1851282-1.6876224 1.02108538-2.7575426 2.81402346-2.8548718 4.78410256.0071405.8393675.121748 1.6743648.3410257 2.4846154.0343766-1.7172422.514519-3.3960619 1.3933333-4.8717949 0 .9061539.048718 1.948718 0 2.8353846-.0333531.4204718-.1150898.8356939-.2435897 1.2374359-.0584616.2241026-.1266667.9061539-.3605129 1.0328205l-.2533333-1.2861538c-.2243819.6262637-.3493139 1.2838007-.3702564 1.9487179-.1053184.6331924-.2954016 1.2493242-.5651282 1.8317949-.1169231-.1851282 0-.5261538 0-.7405128.0500095-.8788423-.0387715-1.7600759-.2630769-2.6112821-.3223775-.9083491-.4485692-1.8747116-.3702564-2.8353846v-.3117948c-.4944296.5063215-.9322261 1.0650021-1.3056411 1.6661538-2.2605128 3.2933333-.5651282 6.9374359-.6041025 7.1810256h.1364102c0-.2338461-.116923-.5651282-.1364102-.9743589-.1359256-.9731071-.0996465-1.9625374.1071795-2.923077.0876923.3702565 0 .6041026.1266666 1.2471795l.1266667.3702564c0-.7015384.2435897-2.2702564.7307692-2.5235897.6138462.7307692.5164103 4.9984615-.1169231 6.3333333l-.1558974-.2923077c-.0974359-.3410256-.0779487-.5164102-.38-.711282 0 .4969231.0876923.8574359.0876923 1.3251282 0 .3117949.0876923 1.0523077-.1169231 1.2861538.0354196.741717-.0235135 1.4849292-.1753846 2.2117949-.0952486.6416274-.3100788 1.2596773-.6333333 1.8220513-.2923077-.0584615-.2923077-.1461538-.4482051-.3897436-.0560229-.0761731-.1179213-.1478449-.1851282-.214359-.5698367-.8657398-.9393262-1.8477164-1.0815385-2.8743589 0-.2241026-.0682051-.4579488-.0974359-.7015385v-.5651282-.0974359l.0974359-.1169231c.165641.4676923.3605128 1.3933334.7989744 1.734359.0584615-.1851282-.3410257-1.2958974-.3702565-1.7051282-.075356-.7413216-.0425341-1.489661.0974359-2.2215385.3847914.4514757.7120779.9489512.974359 1.4810257.0646661.1424061.1199967.2888694.165641.4384615l.1851282.4384615c.1461539.3702565.1656411.7015385.2728206.974359.1637609-.9107786.1001706-1.8478984-.1851282-2.7282051-.2726616-.7530855-.6185941-1.4775855-1.0328206-2.1630769-.2841587-.4803376-.4292154-1.0302038-.4189743-1.5882052-.2982232.338924-.520775.7375243-.6528205 1.1692308-.1155914.2185086-.21966538.4429182-.3117949.6723077l-.45794872 1.3641026c-.35986873 1.3958496-.45243632 2.8471772-.27282051 4.2774359.0737407.5088878.21123122 1.0064725.40923077 1.4810256l.64307696 1.2569231c.3073674.347347.5723073.7300379.7892307 1.14-.6902035.001526-1.36641713-.194576-1.94871792-.5651282-.76-.4676923-1.03282051-1.2082052-1.21794872-1.2958975-.15072626 1.7630481-.07212174 3.5382003.23384616 5.2810257.06820513.2533333.15589743.4482051.24358974.6917949.03921263.1192611.08474716.2363499.13641026.3507692.03791485.1092467.09390721.2113504.16564102.3020513.37574905.8327852 1.01635901 1.5179296 1.82205126 1.9487179.3994872.2338462.8574359.4384616 1.2179487.6820513.2046154.1364103.3117949.2435897.5358975.4189744l.2533333.2143589c.1753846.1656411 0 .1169231.2923077.2046154-.3568338-.9077252-.8178703-1.7709425-1.3738461-2.5723077l-1.60769236-2.5235897c-.1629123-.2791927-.2998954-.5727279-.40923077-.8769231-.16523395-.3582885-.25795406-.7457261-.27282051-1.14.13641026 0 .82820513.6430769 1.22769234.9158974.3994871.2728205 1.0230769.9158975 1.2179487.974359-.0584616-.5651282-.38-1.0425641-.4092308-1.5687179.2338462.0974359.0584616 0 .2435898.2046153.4149463.7044861.7421624 1.4570832.9743589 2.2410257.0779488-.3215385 0-.974359.0779488-1.3251282.0553086-.3940222.1466311-.7821428.2728205-1.1594872.1484732-.7422134.3907598-1.4625248.7210256-2.1435897.149733-.3094869.3397581-.5978009.5651282-.8574359.506153-.689252 1.1758398-1.2417436 1.948718-1.6076923.1806842-.0808517.370416-.139734.5651282-.1753847-.0584616.1071795 0 0-.1266667.1169231l-.4676923.3507692c-.2267674.1574732-.4028125.3775297-.5066667.6333334l1.5297436-.5651282c.2665076-.0491363.5275768-.1241937.7794872-.2241026.2403158-.1358161.4998521-.2343741.7697436-.2923077-.165641.5651282-.8184616.8769231-1.2374359 1.1692308-.2332611.1540863-.4775056.2908632-.7307692.4092308-1.1302565.6041025-2.3774359 1.2861538-2.7184616 2.6405128-.1461538.5651282 0 .4287179 0 .4871795.257859-.6335397.6861745-1.1832674 1.2374359-1.5882052 1.5492308-.9158974 2.8646154-.8282051 4.5210257-2.7476923.2564788-.3078765.4909075-.6334719.7015384-.9743589.2331852-.3767798.4227787-.7788488.5651282-1.1984616-.4764662.0824445-.9585772.1280495-1.4420513.1364103-1.1302564 0-2.5041025-.3605128-3.5661538.165641-.1690185.1265352-.3609203.2191775-.5651282.2728205.214359-1.14 3.2348718-1.5005128 4.2189743-1.9 1.0792818-.3656471 2.0735408-.9456315 2.923077-1.7051282l1.0328205-1.4420513c.4284262-.610064.7573042-1.2842638.974359-1.9974359-.7043304.4068193-1.5203751.5775399-2.328718.4871795-1.9487179-.1558974-4.3358974-.4384615-5.7584615 1.3153846-.2623703.2711529-.4474023.6075748-.5358975.974359.6820513-.2630769.4676923-.6723077 2.328718-.974359 1.102433-.078726 2.2082962-.0982412 3.3128205-.0584615-.0974359.3702564 0 .0876923-.1169231.214359l-.0682051.0779487-.1169231.0876923c-.9158974.6041026-2.4748718.3897436-3.3907692.974359h2.7769231c-.4707566.2776303-.9958606.4504493-1.5394872.5066666-1.4030769.3117949-3.0205128.4482052-3.9558975 1.6369231-.2143589.2630769 0 .1753846-.3117948.2435898.1058473-1.3192421.537755-2.5915283 1.2569231-3.7025642.8038989-.9711061 1.9529419-1.5927767 3.205641-1.7343589 1.5234333-.1555794 3.0147145-.5398963 4.4235897-1.14.7820531-.3945424 1.4674076-.9567992 2.0071795-1.6466667.2241026-.2923077.2046154-.0487179.2533333-.5261538-1.4420512 0-2.1241025-.4871795-3.5564102-.6723077-1.0413467-.1495767-2.1034537.0274412-3.04.5066666l-.2630769.38c.7155352.0263066 1.4284578.1011798 2.1338461.2241026h.3605128l.3410257.1169231c-.6818824.1867195-1.3801377.3074459-2.0851282.3605128.116923.2241026.0876923.1948718.5164102.2435897.2083366-.0038059.4148423.0394936.6041026.1266667-.9370084.0924852-1.8633885.2718898-2.7671795.5358974-.2642667.1616723-.5494996.2862569-.8476923.3702565.157851-.6744717.3932647-1.3283985.7015385-1.948718l.4676923-.7697436c.5152069-.7871133 1.2184474-1.4334248 2.0461538-1.8805128.6067763-.3473841 1.2643683-.597269 1.948718-.7405128-.0779488.1948718 0 .1071795-.1753847.2338461-.1753846.1266667-.4676923.3215385-.5651282.5261539.2711852-.0821041.5351531-.1863877.7892308-.3117949.2585778-.1162025.5300565-.201244.808718-.2533333.3440063-.0610517.6933038-.0871674 1.0425641-.0779487.3511332-.0426907.707319.007713 1.0328205.1461538l-.4969231.3994872c-1.0885484.4744829-2.235347.8021397-3.4102564.974359-.2338462.0779487-1.0912821.2923076-1.2276923.5164102l.974359-.214359c.4091602-.0643787.8234312-.0904745 1.2374359-.0779487 1.9487179 0 3.4784615-.1948718 4.9497435-1.4517949.2241026-.1948718.5358975-.3994871.594359-.6917948-.7731206-.030057-1.5279649-.2438183-2.2020513-.62358977.0974359-.25333334.5651282-.33128205.8282052-.42871795.2870516-.12180179.5612308-.27194755.8184615-.44820513.5027708-.32567487.9814439-.6871219 1.4323077-1.08153846.2133035-.2008616.4377623-.38953708.6723077-.56512821.5154697-.36891846 1.0979805-.63369613 1.7148718-.77948717.3292526-.05799928.6546471-.13609397.974359-.23384616z" fill="#fde30b"/></g><path d="m63.9471795 26.4733333c.0467676.1152153.0763153.2366891.0876923.3605129.0037276.0760971-.024535.1502863-.0779487.2046153-.0815029.0530159-.1756916.0832908-.2728205.0876923h-.5066667-.5066667c-.099163-.0032265-.1974583-.019609-.2923077-.0487179-.0570489-.0178008-.1077804-.0516218-.1461538-.0974359-.0347093-.0486882-.0641075-.1009517-.0876923-.1558974l-1.14-3.2251282h-5.4661539l-1.1302564 3.1958974c-.017135.055938-.0434793.1086266-.0779487.1558974-.0384974.0502675-.0886618.090399-.1461538.1169231-.0902479.0367357-.1854956.0597265-.2825641.0682051h-.4676923-.4871795c-.0952305-.0065371-.1865631-.040364-.263077-.0974359-.0509341-.0553224-.0757589-.1297969-.0682051-.2046153.0100201-.1240461.0396173-.2457234.0876923-.3605129l4.4430769-12.325641c.0226728-.0683975.0591532-.131409.1071795-.1851282.0538177-.0530308.1212659-.0901274.1948718-.1071795.1078486-.0320059.2189928-.0516196.3312821-.0584615h1.0523077c.1154561.0070865.2298014.0266886.3410256.0584615.0774138.0200245.1480612.0603944.2046154.1169231.0492691.0528084.0859153.1161064.1071795.1851282zm-5.7097436-10.8835897-2.28 6.6158974h4.6087179zm22.3420513 11.234359c.0163326.047349.0163326.0988047 0 .1461538-.0371293.0471811-.0883216.0813093-.1461539.0974359l-.2630769.0682051c-.1427449.009596-.285973.009596-.4287179 0h-.4189744l-.2728205-.0682051c-.0572946-.017283-.108164-.0511959-.1461539-.0974359-.0149599-.0475695-.0149599-.0985843 0-.1461538v-11.5461539l-4.7841025 11.6046154c-.0201618.0450167-.0501216.0849631-.0876923.1169231-.0494027.0390893-.1055408.0688095-.1656411.0876923-.0855596.0261691-.1738201.0425137-.2630769.0487179h-.3507692-.3702564l-.2533334-.0584615c-.0606687-.0174989-.1170632-.0473548-.165641-.0876923-.0331435-.0299262-.0596902-.0664279-.0779487-.1071795l-4.4528205-11.6046154v11.5461539c.0149599.0475695.0149599.0985843 0 .1461538-.0371293.0471811-.0883216.0813093-.1461539.0974359l-.2825641.0682051h-.4287179-.428718l-.2630769-.0682051c-.0555657-.0153171-.1038998-.0498414-.1364102-.0974359-.0138044-.0477401-.0138044-.0984138 0-.1461538v-12.208718c-.0215703-.2279253.0607567-.4534299.2241025-.6138461.1457144-.1192789.3281023-.1846632.5164103-.1851282h1.0815384c.1965623-.0053777.3930104.0142671.5846154.0584615.1577957.0347369.3069381.1010224.4384616.1948718.1266882.0905618.232918.2067506.3117948.3410256.0925446.1535757.1677081.3169748.2241026.4871795l3.7902564 9.6071795h.048718l3.8974359-9.5779487c.0661104-.1836363.151005-.3599558.2533333-.5261539.0777758-.1291522.17657-.2444121.2923077-.3410256.1058674-.0862951.2286948-.1493686.3605128-.1851282.1491722-.0407687.3033186-.060447.4579487-.0584615h1.14c.0999899-.0167166.2020614-.0167166.3020513 0 .0877375.0309505.1675786.0808512.2338462.1461538.0713883.0689326.1277787.1518595.165641.2435897.0468189.1143404.0700194.2369716.0682051.3605129zm24.8753848-.3507693c.04587.1155029.075386.2368457.087692.3605129.006356.0764917-.02231.1517406-.077949.2046153-.081293.0534545-.175606.0837692-.27282.0876923h-.506667-.506666c-.099164-.0032265-.197459-.019609-.292308-.0487179-.057555-.0167264-.108578-.0507413-.146154-.0974359-.035423-.0482317-.064868-.1005792-.087692-.1558974l-1.14-3.2251282h-5.5051285l-1.0912821 3.1958974c-.0180468.0555689-.0443216.1081186-.0779487.1558974-.0423016.0504247-.0956453.0904325-.1558974.1169231-.0871636.0358079-.1790607.0587822-.2728205.0682051h-.4676923-.4871795c-.0952305-.0065371-.1865631-.040364-.2630769-.0974359-.0498749-.0559415-.0745401-.1299372-.0682052-.2046153.011377-.1238238.0409247-.2452976.0876923-.3605129l4.443077-12.325641c.0229219-.0682853.0593745-.1312489.1071794-.1851282.0541158-.0526294.1214453-.0896606.1948718-.1071795.1079603-.0315299.2190508-.0511341.3312821-.0584615h1.0717945c.115448.0071625.229785.0267631.341026.0584615.154734.0335828.27836.1497165.321538.3020513zm-5.7097438-10.8835897-2.3092308 6.6158974h4.6087176zm-6.8887179 7.6974359c.0035747.3887494-.0489315.7759827-.1558975 1.1497436-.0987168.3457878-.2498753.6743931-.4482051.974359-.1912569.2808552-.4245844.5306142-.6917949.7405128-.2804961.2179967-.5884335.3981729-.9158974.5358974-.350452.1480437-.7165468.2559109-1.0912821.3215385-.437452.0765698-.8810568.1124496-1.3251282.1071795h-3.4589743c-.1627125.0000956-.3206737-.0548475-.4482052-.1558975-.154637-.1448267-.2306879-.3548721-.2046153-.5651282v-11.8482051c-.0260726-.2102561.0499783-.4203015.2046153-.5651282.1282552-.0997256.2857471-.1545054.4482052-.1558975h3.0107692c.6568967-.0177098 1.3129895.0577409 1.9487179.2241026.46306.1270665.8944878.3494177 1.2666667.6528205.3334622.285294.5940143.6460585.76 1.0523077.1762817.449769.2623605.9298237.2533333 1.4128205.0018728.3021082-.0341344.6032596-.1071794.8964103-.0716549.2807955-.1832185.5498605-.3312821.7989743-.1471657.2472433-.3349196.4679364-.5553846.6528206-.228695.1927837-.4848412.3504121-.76.4676923.7184497.1297066 1.3694572.5051553 1.8415385 1.0620512.2404472.2899723.4283996.6197133.5553846.974359.1394019.3975038.2086379.8162163.2046154 1.2374359zm-2.6502565-5.9338462c.0049833-.297203-.0377831-.5932785-.1266666-.876923-.0828489-.2520422-.2267858-.4796633-.4189744-.6625641-.2157942-.1937447-.4721107-.3368825-.7502564-.4189744-.3971019-.1049234-.8074742-.1508851-1.2179487-.1364103h-1.8220513v4.3066667h2.0071795c.3782374.0160209.7558687-.0436051 1.1107692-.1753846.2645033-.1086276.5034384-.2712362.7015385-.4774359.183347-.2051904.319684-.4479369.3994872-.7112821.0867315-.2707522.1294963-.5536581.1266666-.8379487zm.7989744 6.0312821c.0072232-.3562965-.0556792-.7105366-.1851282-1.0425641-.1229157-.2934105-.3131753-.5537657-.5553846-.76-.2690239-.2185541-.5811133-.3779189-.9158975-.4676923-.4488688-.1134314-.9109741-.1658689-1.3738461-.1558975h-2.1046154v4.6769231h2.5625641c.3560807.0038063.710742-.0454522 1.0523077-.1461538.2914569-.0900996.5627557-.2356745.7989744-.428718.2264055-.1908351.4063456-.4307552.5261538-.7015384.135193-.3067024.2017029-.6392518.1948718-.974359zm25.4989748 3.4297436c.01088.0481104.01088.0980434 0 .1461538-.030047.051895-.07888.0902644-.136411.1071795-.091718.0299452-.186493.0495539-.282564.0584615h-.487179-.438462c-.093561-.0105414-.185305-.0334775-.27282-.0682051-.062141-.0278757-.115892-.0715484-.155898-.1266666-.042785-.0628018-.075648-.1318149-.097436-.2046154l-1.217948-3.1276923c-.146154-.3605129-.292308-.6820513-.448206-.974359-.144889-.2833418-.332174-.5429114-.555384-.7697436-.212836-.2183821-.468176-.3908198-.750257-.5066667-.32958-.1251133-.680414-.1846888-1.03282-.1753846h-1.178974v5.6512821c.015615.0474666.015615.0986871 0 .1461538-.039375.0446835-.089764.0782765-.146154.0974359l-.263077.0682051h-.428718-.428718l-.272821-.0682051c-.057832-.0161266-.109024-.0502548-.146153-.0974359-.01496-.0475695-.01496-.0985843 0-.1461538v-12.2769231c-.026073-.2102561.049978-.4203015.204615-.5651282.128255-.0997256.285747-.1545054.448205-.1558975h2.815898.837948l.594359.0584616c.471453.077765.930281.2186905 1.364103.4189743.368376.179291.699094.4273297.974359.7307693.263708.2817269.469024.6128811.604102.9743589.134753.4051376.200624.8300019.194872 1.2569231.006133.4031117-.053096.8045537-.175385 1.188718-.110054.354071-.285185.6845081-.51641.9743589-.232522.2734201-.5052.5099605-.808718.7015385-.334397.2046939-.690625.3713697-1.062051.4969231.213141.0934531.412992.2146742.594359.3605128.184857.1561853.351547.3326809.496923.5261539.166254.2240998.312947.4620689.438462.711282.13641.2663248.27282.5683761.40923.9061539l1.188718 2.9230769c.097436.2435897.155898.4189743.185129.5164102.010558.0775912.010558.156255 0 .2338462zm-2.650257-9.2758975c.015714-.4665679-.106281-.9274372-.350769-1.3251282-.280953-.3925426-.697601-.6668364-1.169231-.7697436-.188409-.0492131-.380769-.0818165-.574872-.0974359-.214359 0-.496923 0-.847692 0h-1.490769v4.4723077h1.724615c.409007.0098514.816941-.046075 1.208205-.165641.307881-.0980649.592861-.2571238.837949-.4676923.220214-.1938767.390635-.4378135.496923-.711282.106386-.2833622.159247-.5840106.155898-.8866667z" fill="#004929"/><path d="m132.113333 14.6153846c.008356.1102693.008356.2210128 0 .3312821-.008724.0813693-.031817.1605451-.068205.2338461-.047058.0980392-.144651.1618502-.253333.165641h-3.722051v11.4779488c.014358.04766.014358.0984938 0 .1461538-.03713.0471811-.088322.0813093-.146154.0974359l-.272821.0682051h-.428718-.418974l-.282564-.0682051c-.057295-.017283-.108164-.0511959-.146154-.0974359-.014358-.04766-.014358-.0984938 0-.1461538v-11.5071795h-3.722051c-.047875.0128175-.098279.0128175-.146154 0-.048455-.0295551-.086052-.0739883-.10718-.1266667-.030682-.0754075-.053537-.1537675-.068205-.2338461-.009695-.1102146-.009695-.2210676 0-.3312821-.009674-.1134694-.009674-.2275563 0-.3410256.014531-.0801108.037391-.1584848.068205-.2338462.019934-.0559203.057563-.1038126.10718-.1364102.047875-.0128175.098279-.0128175.146154 0h9.217436c.047811-.0132924.098342-.0132924.146153 0 .049147.0331068.086641.0808266.10718.1364102.036387.073301.05948.1524769.068205.2338462.0083.1135237.0083.2275019 0 .3410256zm10.717949 12.2379487c.010881.0481105.010881.0980434 0 .1461539-.030046.0518949-.07888.0902644-.13641.1071795-.091718.0299452-.186494.0495539-.282564.0584615h-.48718-.438461c-.09376-.0094229-.185657-.0323972-.272821-.0682051-.061906-.0282552-.115568-.0718557-.155897-.1266667-.041701-.0634182-.074487-.1322677-.097436-.2046154l-1.217949-3.1276923c-.133048-.3320625-.282637-.6572559-.448205-.974359-.142671-.2822387-.326567-.5416637-.545641-.7697435-.213013-.2181702-.468307-.3905765-.750256-.5066667-.329581-.1251133-.680415-.1846889-1.032821-.1753846h-1.178974v5.651282c.016332.0473491.016332.0988048 0 .1461539-.039063.045038-.089556.0787-.146154.0974359l-.263077.0682051h-.428718-.428718l-.272821-.0682051c-.057294-.017283-.108163-.0511959-.146153-.0974359-.01496-.0475695-.01496-.0985844 0-.1461539v-12.3158974c-.024481-.2100741.051317-.4194224.204615-.5651282.128255-.0997256.285747-.1545054.448205-.1558975h2.815898.837948l.594359.0584616c.471563.0772992.930452.2182437 1.364103.4189743.367758.1803013.698297.4282058.974359.7307693.263709.2817269.469024.6128811.604102.9743589.134753.4051376.200624.8300019.194872 1.2569231.006133.4031117-.053096.8045537-.175384 1.188718-.108759.3546086-.284014.6852781-.516411.9743589-.232522.2734201-.5052.5099605-.808718.7015385-.334396.2046939-.690625.3713697-1.062051.4969231.213464.0928304.413395.2141001.594359.3605128.184744.1563047.351422.3327869.496923.5261539.166254.2240998.312947.4620689.438462.711282.13641.2663248.27282.5683761.40923.9061539l1.188718 2.9230769c.097436.2435897.155898.4189743.185129.5164102.01021.0776144.01021.1562319 0 .2338462zm-2.611282-9.3148718c.014567-.4664375-.107342-.926983-.350769-1.3251282-.280953-.3925426-.697602-.6668364-1.169231-.7697436-.188366-.0494112-.380744-.0820176-.574872-.0974359-.214359 0-.496923 0-.847692 0h-1.490769v4.4723077h1.724615c.408932.0085266.816657-.0473712 1.208205-.165641.30767-.0985516.592558-.2575589.837949-.4676923.21937-.1946292.389638-.4383467.496923-.711282.105313-.2836539.158139-.584102.155897-.8866667zm15.131795 8.9641026c.04587.1155029.075386.2368457.087692.3605128.006356.0764918-.02231.1517407-.077949.2046154-.081075.0539099-.175518.0842667-.27282.0876923h-.506667-.506666c-.099163-.0032265-.197459-.0196091-.292308-.0487179-.057555-.0167265-.108578-.0507413-.146154-.0974359-.035422-.0482317-.064868-.1005793-.087692-.1558975l-1.14-3.2251282h-5.514872l-1.091282 3.1861539c-.018047.0555689-.044322.1081186-.077949.1558974-.042054.0506857-.095464.0907435-.155897.1169231-.087164.0358079-.179061.0587822-.272821.0682051h-.467692-.48718c-.09523-.0065371-.186563-.040364-.263076-.0974359-.049875-.0559416-.074541-.1299372-.068206-.2046154.011236-.1238472.040789-.2453415.087693-.3605128l4.443077-12.325641c.022922-.0682853.059374-.1312489.107179-.1851282.054116-.0526294.121445-.0896606.194872-.1071795.10796-.0315299.219051-.0511341.331282-.0584615h1.052308c.115447.0071624.229784.0267631.341025.0584615.077598.019571.148359.060006.204616.1169231.049548.0526006.086234.1159673.107179.1851282zm-5.7-10.9128205-2.28 6.6158974h4.628205zm18.123077 4.6769231c.020376 1.0208709-.127766 2.0381127-.438462 3.0107692-.258738.8008063-.698889 1.5310558-1.286154 2.1338462-.584523.5770465-1.294938 1.0106329-2.075384 1.2666666-.945091.2976914-1.932417.4392081-2.923077.4189744h-2.806154c-.162712.0000956-.320674-.0548474-.448205-.1558975-.154637-.1448267-.230688-.3548721-.204615-.5651282v-11.8287179c-.026073-.2102561.049978-.4203015.204615-.5651282.128255-.0997256.285747-.1545054.448205-.1558975h3.001026c.993291-.0261156 1.983244.1256771 2.923077.4482052.735625.2814149 1.400755.7204011 1.948718 1.2861538.548346.5638926.970197 1.2381906 1.237435 1.9779487.288768.8633871.430398 1.7691612.418975 2.6794872zm-1.851282.0779487c.005834-.6748193-.082716-1.34714-.263077-1.9974359-.162907-.5889576-.448465-1.1368297-.837949-1.6076923-.391726-.4611561-.885443-.8247724-1.442051-1.0620513-.714062-.2753224-1.476117-.4045404-2.241026-.38h-1.802564v10.3282051h1.812308c.727784.0181777 1.453168-.0906298 2.14359-.3215384.55861-.1966529 1.058146-.5319125 1.451794-.974359.412629-.4758154.712402-1.0387229.876923-1.6466667.208673-.764839.307102-1.5555488.292308-2.3482051zm6.323589 6.4892308c.01496.0475695.01496.0985843 0 .1461538-.036644.0477029-.088026.0819578-.146153.0974359l-.272821.0682051h-.428718-.418974l-.272821-.0682051c-.058127-.0154781-.109509-.049733-.146154-.0974359-.014959-.0475695-.014959-.0985843 0-.1461538v-12.7348718c-.015615-.0474667-.015615-.0986872 0-.1461539.040993-.0474088.09532-.0813637.155898-.0974359l.282564-.0682051c.132977-.0099405.26651-.0099405.399487 0 .142714-.0104939.286005-.0104939.428718 0 .09297.0136685.184356.0365151.272821.0682051.058442.0147747.110037.0491718.146153.0974359.01496.0475695.01496.0985844 0 .1461539zm13.553334-.5261539c.003704.1205461-.0196.2403945-.068205.3507692-.040035.0902034-.099999.1701561-.175385.2338462-.073433.0634779-.159916.1100459-.253333.1364102-.09049.0127947-.182331.0127947-.272821 0h-.584615c-.164311.0030568-.328257-.0166166-.48718-.0584615-.142165-.041765-.274635-.1113118-.389743-.2046154-.139904-.1168766-.264327-.2511224-.370257-.3994872-.145016-.2082279-.27525-.4263699-.389743-.6528205l-4.053334-7.5415384c-.214359-.3897436-.428718-.7989744-.643076-1.2276923-.214359-.428718-.418975-.8476923-.604103-1.2471795v1.5102564 1.5297436 8.0092307c.012991.0445422.012991.0918682 0 .1364103-.036598.049845-.087613.0872561-.146154.1071795l-.27282.0682051h-.428718-.428718l-.263077-.0682051c-.058843-.0193393-.110022-.0568704-.146154-.1071795-.012992-.0445421-.012992-.0918681 0-.1364103v-12.1307692c-.023763-.2215849.063821-.4405454.233846-.5846154.144407-.1136908.322876-.1754687.506667-.1753846h.769743c.170255-.004811.340448.0115537.506667.048718.133672.0286286.259824.085065.370256.165641.123732.0930609.232212.2048281.321539.331282.119558.1675133.22701.3433445.321538.5261539l3.108205 5.8461538.555385 1.0425641c.175385.3410257.350769.6723077.51641.974359l.48718.974359c.165641.3117949.321538.6333333.477436.974359 0-.5391453 0-1.1010257 0-1.6856411s0-1.1464957 0-1.685641v-7.2297436c-.014175-.0443653-.014175-.0920449 0-.1364102.039086-.0472827.089309-.0841126.146154-.1071795.087163-.035808.17906-.0587822.27282-.0682052.146012-.0091181.29245-.0091181.438462 0h.40923c.094074.0075655.186254.0306104.272821.0682052.056649.0234155.106793.0601878.146154.1071795.014175.0443653.014175.0920449 0 .1364102zm13.465641-10.7179487c.008776.1135058.008776.2275198 0 .3410256-.009763.0863976-.029377.1713946-.058462.2533334-.021619.0549721-.058883.1023986-.107179.1364102-.041258.0127596-.085409.0127596-.126667 0-.149832-.0318847-.290036-.0986483-.409231-.1948718-.246262-.1635689-.503446-.310066-.769743-.4384615-.370054-.1786494-.754702-.3253373-1.149744-.4384616-.521115-.1383321-1.058861-.2039109-1.597949-.1948717-.670674-.0078147-1.335214.1284159-1.948717.3994871-.565334.2589165-1.06742.6379752-1.471283 1.1107693-.434897.4905959-.766301 1.0639236-.974358 1.685641-.449902 1.4235905-.449902 2.9512812 0 4.3748718.211586.6113534.542815 1.1744433.974358 1.6564102.412886.4496916.922675.7995472 1.49077 1.023077.619756.2454445 1.282274.3646978 1.948718.3507692.420028.000506.838648-.0485511 1.247179-.1461539.41095-.0970419.807344-.247737 1.178975-.4482051v-3.8974359h-3.069231c-.116083.0034914-.221653-.066888-.263077-.1753846-.07032-.1728521-.10031-.3594598-.087692-.545641-.008787-.1102526-.008787-.2210295 0-.3312821.009244-.0781588.03234-.1540455.068205-.2241025.024403-.0506306.061286-.09422.107179-.1266667.050674-.016387.105224-.016387.155898 0h4.20923c.074125-.0131164.149978-.0131164.224103 0 .075219.0251637.144747.0648939.204615.1169231.067214.0608594.11756.1380561.146154.2241025.034323.1070025.050783.2189286.048718.3312821v5.0666667c.004103.1571845-.025811.3133993-.087692.4579487-.089022.1533233-.22596.2731447-.389744.3410256-.194872.0974359-.457949.2046154-.769743.3215385-.318519.1198882-.643879.2207497-.974359.3020513-.663941.1588615-1.343992.2405984-2.026667.2435897-.937833.0158442-1.870175-.1461585-2.747692-.4774359-.774509-.2978432-1.473334-.7637268-2.046154-1.3641026-.56929-.6072849-1.00421-1.3277252-1.27641-2.1143589-.304185-.8835917-.452544-1.8133135-.438462-2.7476923-.013944-.9757777.147777-1.9461048.477436-2.8646154.295238-.8113329.752756-1.5539714 1.344615-2.1825641.584448-.6095998 1.291904-1.0878797 2.075385-1.4030769.863813-.2970844 1.777274-.4228508 2.689231-.3702565.47752-.0014314.954017.0442601 1.422564.1364103.402493.0784301.799546.1825752 1.188718.3117949.301442.1044479.591897.2382527.867179.3994871.174985.0945329.338463.2089669.48718.3410257.088334.0856223.152239.1932514.185128.3117949.043145.1653127.062825.3358721.058461.5066666z" fill="#1b1918"/></g></svg>