<svg height="38" viewBox="0 0 230 38" width="230" xmlns="http://www.w3.org/2000/svg"><g fill="none" fill-rule="evenodd"><path d="m0 0h230v38h-230z"/><g fill-rule="nonzero"><path d="m12.6018974 4.73176862c-.8395021-.97882988-3.38165634-.77611363-4.64682149-.39384871-6.84608058 2.03295438-9.18131532 13.35031299-7.36042342 20.16737079.87497402 3.2550438 1.80906792 4.2338736 3.47033618 6.6375092l.66805449.8572001-1.21195727-2.4615544c-2.11057924-4.6740575-3.36983241-10.1647719-2.02781143-15.2558457.24027874-.9308694.57704111-1.8352424 1.00503774-2.6990221.36860098-.8212394.85645944-1.5859567 1.44843673-2.27042196-.17469406.57764185-.39001134 1.14273796-.64440654 1.69123266-.11823974.2953866-.59119867 1.4190138-.41383907 1.7665274.23647947-.8514083 1.73812408-3.06391135 2.22881898-3.6662682.43515655-.53853026.91358223-1.0420999 1.43070078-1.50589213.55825457-.50195308 1.22225236-.87762731 1.94504361-1.10045964-.70139096.63568419-1.36464232 1.31060275-1.98642752 2.02137059-.60744097.74043991-1.15123235 1.52890248-1.62579634 2.35730038-1.0256819 1.8415553-1.71400123 3.8449637-2.03372342 5.9193145-.64440655 4.1180358.11232775 8.9368906 2.65448202 12.3309398l.29559934.2895946c-.1359757-.3880568-.47295894-.9035353-.67396649-1.3668867-.67873294-1.658722-1.03948214-3.4258273-1.0641576-5.2127035-.20691953-4.4076305 1.70856415-12.88696155 5.86469079-14.91412404 2.12240323-1.03095692 2.17561113 1.15837857 2.28202683 1.41322185l.3488072-.77611364c.7446088-1.78950447 1.8483035-3.41437087 3.2456807-4.77831157 1.347933-1.2858002 3.6358718-2.94807344 6.5563933-2.5773923-.875609.19616948-1.6744192.6367499-2.2997629 1.26842452.5911987-.14479732 1.0286857-.35909735 1.6967402-.47493521.6876101-.11268085 1.3838731-.16694034 2.0810193-.162173-.1773596.11004597-1.318373.38226493-1.9982515.65448389-1.3952288.57918928-4.0556228 2.24725442-4.5344937 3.24925187.832399-.63923566 1.7516913-1.16167217 2.7313378-1.55222727 1.0582705-.43662565 2.1570809-.77218008 3.2811526-1.00199746 1.9418746-.42668842 3.9501032-.4778417 5.9119867-.15058921.6444065.11583785 1.1823973.33592978 1.773596.44018385-.1439639-.14096179-.3174305-.24964621-.5084309-.3185541l-1.6435323-.83982446c-4.1856865-1.92870031-8.4955248-3.60255733-12.9413388-.92091096-1.0139266.61915615-1.8970173 1.42335419-2.6012741 2.36888416-.2246555.27801086-.4906949.73557039-.7035265.9672461zm20.6175032 14.27650668c.9851103-.141115 1.6853693-.252831 2.0948429.5585801.3125937.7740505.2286025 1.6500325-.2255072 2.3519164-1.2402894 2.2343205-5.459647 3.0692508-7.9402258 3.7983449-1.5073374.4468641-2.9671995.899608-4.4923401 1.3876307-3.1867722 1.0348432-13.0912841 4.5627178-10.100347 9.3782665.3952568.5791801.8821938 1.0914175 1.4420589 1.5169861-.1542943-.9584059-.3560639-1.1759582-.0474752-2.222561.1936229-.6304508.4881571-1.2260097.8723567-1.7639373 1.4975723-2.0431522 3.5580172-3.6150955 5.934399-4.527439 1.339839-.5241021 2.7324719-.9045376 4.1540793-1.1347996-.3738672.3057491-5.3409591 2.6047474-6.4922325 4.0041376 1.0254395-.6064425 2.1267728-1.0769232 3.2757882-1.3993902 2.8722491-.7643729 7.1746884-.9995645 9.5365792-2.1461237l1.5132717-.8290506c-1.6735005 1.9638502-5.5249254 2.7105837-7.8749474 3.3867596-2.7772988.7996516-5.8038422 2.3519164-6.7830181 4.4098432.4510144-.8114111 1.9702205-1.7227787 2.8544459-2.1167247 3.2935915-1.4758275 6.5278389-1.7110192 11.0854573-4.1158537 2.1678878-1.1214178 3.9412814-2.8682414 5.08578-5.0095819.5103583-1.040723 1.1394046-2.6753048.7833406-4.0805749-.4272767-1.6933798-1.5488781-2.1343641-2.2550716-2.839939 1.7091069-.2175523 1.8277949-1.3876307 1.4598622-3.0516115-.3046505-1.2100374-.685191-2.4000662-1.1394046-3.5631533-.0534096.7996516.0830815 1.6698606 0 2.5812282-.0766053 1.4469613-.5506073 2.8457167-1.3708462 4.0452962-.3923092.5196636-.8556773.9827256-1.3767806 1.3758711z" fill="#004929"/><path d="m29.6614902 19.1852158c.1716363-.618749.2872672-1.2519957.3454645-1.8919184-.4087997.9896189-2.5218908 3.7663729-3.2819127 3.8304071.5575837-.6723991 1.0583467-1.390941 1.4970128-2.148055 1.2954919-2.1771615 2.9249327-6.036675 2.6888653-8.5980414-.1251666.8703861-.3275026 1.7276277-.6045629 2.5613664-1.1113725 2.9295975-2.7144334 5.6433253-4.7386212 8.0217339-1.2263989 1.397109-2.6140146 2.8175031-4.3701258 3.585913-.2821293.1222471-.9673005.3143495-1.1976102.4482392 1.6409563.0873193 5.7001641-.9546912 7.3065739-1.8569907 1.9544714-1.053937 3.5960329-2.6151601 4.7558945-4.5231403 2.2167305-3.3879892 5.3201531-10.57727903 0-12.6147296-.6851712 4.4532848.5757741 9.3664513-2.3721895 13.1910371z" fill="#004929"/><path d="m5 20.4072539v.0704663c.01705422 1.1337717.19958694 2.2608142.54304636 3.3530225.08609271-1.4680484-.4370861-1.7616581.13245033-4.5039724.17880795-.8690846.94039735-3.2825561 1.39735099-3.7699482 0 .9865285-.56291391 4.3747841-.66225165 5.9837651-.18735516 2.1499332-.18735516 4.3094797 0 6.4594128 0-2.9360967.9205298-5.584456 1.44370861-8.2797927.27814569-1.4328152.41059602-2.8891192.52980132-4.3571676.06622517-.7692573.05298013-1.5326425.1192053-2.3018998.06734968-.7028075.23422489-1.3952999.49668874-2.0611399l-.21854305.1996546c-2.31459368 2.6434264-3.63701373 5.8634324-3.78145695 9.2075993z" fill="#0f4f34"/><path d="m29.3521836 5.19238477c-.9570074-.18385934-1.9399472-.18385934-2.8969546 0-.801036.14818264-1.5498746.50382649-2.1727158 1.03188195l-1.5237981 1.70814356c.3303622-.11840586.6366126-.29618451.9038498-.52468574.318665-.19821461.5330396-.34979049.8632924-.53051558.6766327-.43222784 1.5009912-.56308586 2.2770063-.36145017-.0463513.1399162-.0927026.11076699-.2027868.21570414-.2797184.27652317-.6245948.47711001-1.0023463.58298415-.1847548.03037457-.356262.11564491-.4924823.24485334.3766041 0 1.2051331-.25651303 1.3731565-.15740572-1.1536004.63475386-2.4153269 1.04607271-3.7196896 1.21260703-.4775291.11575958-.9640877.18987868-1.4542712.22153398-.1216721.13408635-.0463513.09327746-.2723137.16323556-.0984965.02914921-.2607259.05246857-.3534285.08161778-.5156579.13408636-1.4890346.72873019-1.6165006.73456003 0-.1690654.446131-1.9238477 1.2630722-2.11040262-.0667198.21296126-.0980417.43554451-.0927026.65877209.1042904-.13408636.2433442-.34396065.3939859-.53634542.0769614-.088875.1485485-.1823207.2143746-.27983239.3088859-.46110244.7462898-.82009157 1.2572783-1.03188195l-.0521452.13408635-.0521452.11659683c-.0579391.12242668 0 0-.0695269.1399162-.1836661.51607461-.449823.99852195-.7879716 1.42831117-.158184.15326346-.3017294.32112103-.4287493.50136637h.2317563c.3360468-.38476954 1.083461-.34979049 1.848257-1.87720897.764796-1.52741847.7705899-1.25341592 1.784524-1.95882674-1.3333945.08627544-2.6377048.43070605-3.8413617 1.01439242-.8755192.43979993-1.6103808 1.11861086-2.1205707 1.95882675-.2834366.59177075-.4786638 1.2223365-.5793909 1.87137912-.096762.41777661-.214726.83029241-.3534284 1.23592641 0-.5188559-.0753209-2.45436329 0-2.94989981.0521451-.3789397.1738172-.42557843.254932-.77536892-.1842884.00231792-.3622112.06816666-.5040701.18655492-1.726825 1.04390702-2.8238332 2.88432171-2.9259241 4.90872651.0007865.8457853.1078574 1.6880763.318665 2.5068319.2375503-1.8538896.3302528-3.2297322 1.4310955-4.9203862 0 .9269448.0521452 1.9763162 0 2.9149207-.0335977.4157207-.1132758.8263594-.2375502 1.2242667-.0579391.2331937-.127466.9327747-.3650163 1.0610312l-.2607259-1.323374c-.2345963.6533152-.363697 1.3402178-.382398 2.0346146-.1081952.6491439-.3030895 1.2805958-.5793909 1.877209-.1158782-.1865549 0-.5363454.0347634-.7578794.0506905-.9027731-.0412222-1.8079233-.2723137-2.6817271-.3326296-.9330755-.4630136-1.9269586-.382398-2.9149207v-.3206413c.0021413-.0154716.0021413-.0311672 0-.0466387-.5065756.5186805-.9553649 1.0914544-1.338393 1.7081435-2.3175636 3.3754782-.5793909 7.1182365-.6199482 7.3689197l.1390538-.0349791c0-.2448533-.1158782-.5829841-.1390538-.9735835-.0521452-.7811988-.1969929-2.390235.1100842-3.0490071.0869087.3789397 0 .623793.1332599 1.2825651l.1332599.3847696c0-.7170706.2491381-2.3319366.7474143-2.5942795.6257422.7520495.5272457 5.1302605-.1158782 6.5002733l-.1622294-.3031518c-.1042904-.3497905-.0811147-.5305156-.3881919-.7287302 0 .5130261.0927025.8803061.0869086 1.3583531 0 .3206413.0927026 1.0785207-.1158782 1.3175442.0366268.7624836-.0237325 1.5265512-.1796112 2.2736381-.0927025.4372382-.376604 1.6440154-.6547117 1.8655493-.2954893-.0582984-.2954893-.145746-.4635127-.3964292-.0578539-.0787809-.1217846-.1528546-.191199-.221534-.5834427-.8435977-.97873254-1.8041431-1.1587818-2.8158134-.04635127-.2331937-.06952691-.4663873-.09849645-.7229004l-.04055737-.5829841c0-.0991073 0-.1049372 0-.0991073.03814787-.0377621.0730369-.0787184.10429036-.1224267.16802337.478047.37081018 1.4283112.82273506 1.7781017.063733-.186555-.3534284-1.3292039-.382398-1.7489525-.07580525-.7608769-.0406704-1.5288173.1042904-2.279468.4053547.459917.7518265.969138 1.0313158 1.5157588.0676098.1456568.125673.2956099.1738173.4488978l.1854051.4488978c.1506416.3789397.1738172.7229003.2839015 1.0435416.167378-.9343235.1016813-1.8958394-.191199-2.7983239-.280032-.7736482-.6351778-1.5176356-1.0602853-2.2211696-.3150694-.5262839-.4664091-1.1353969-.4345432-1.7489525-.30391493.3462507-.53105349.7536609-.66629956 1.1951175-.11827563.2254493-.22464519.4570217-.318665.6937512l-.46930663 1.3991619c-.37060742 1.4319084-.46695583 2.9217104-.28390155 4.3898707.07512207.5209003.21528348 1.0301777.41716146 1.5157588l.66050563 1.2883949c.31571108.3546492.58803595.7460974.81114725 1.1659683-.69992555-.0037214-1.38465205-.2057663-1.97572297-.5829841-.78217772-.478047-1.06028536-1.2359264-1.24569044-1.3292039 0 1.7489525-.23175637 3.7019494.23755027 5.4217526.0695269.256513.16222945.4605575.24913808.7112407.04009675.1209207.08651267.2396261.13905382.3556203.04028038.1120861.09904198.2165421.17381727.3089816.39422673.8378402 1.04920933 1.5234922 1.86563871 1.9529969.41136756.2390235.88067416.4488978 1.24569046.699581.2085807.1399162.3244589.2506832.5504213.4255784.0753209.0582984.1854051.1515759.260726.221534.1796111.1690654 0 .1165968.3012832.2098743-.0347634-.4314083-1.1066366-2.1920204-1.4137138-2.6409182l-1.62229451-2.4835125c-.16837623-.2874408-.30996462-.5899381-.42295536-.9036254-.16834374-.3663534-.26286686-.7626423-.27810764-1.1659683.14484773.034979.84591072.6646019 1.26307217.9386045.52145184.3381308 1.05449144.9444343 1.24569044 1.0377118-.0579391-.5829842-.3881919-1.0726909-.4229554-1.6148661.2433442.0991073.063733 0 .2491381.2098743.5793909.7054108.9270255 2.2269994 1.0139341 2.2969575.0811147-.3264711.0289696-.9619238.0811147-1.3641829.0400397-.4085987.1176235-.8125849.2317564-1.2067772.1527312-.7633951.4019639-1.503975.7416204-2.2036801.1532568-.318117.348115-.6141776.5793909-.8803061.8111472-.8394971.7532081-1.0260521 1.9583412-1.6498451.1853133-.0831769.3798138-.143846.5793909-.1807251-.063733.110767 0 .0349791-.127466.1165968l-.4808944.3556204c-.2311931.1627097-.4103571.3895727-.5156579.6529422l1.5701493-.5829841c.2732068-.0495633.5409836-.1257087.7995595-.2273638.2460001-.1403717.5116502-.2425737.7879716-.3031518-.1680234.5829842-.8401168.8977956-1.27466 1.2009474-.2405389.1582466-.4922829.2985388-.7532082.4197485-1.1587818.6237931-2.4392357 1.3175442-2.7868702 2.7050465-.1506416.5829841-.0347635.4430679 0 .5013664.2663916-.6524292.7076875-1.2175618 1.27466-1.6323557 1.5875311-.9444343 2.9433058-.845327 4.6351272-2.8158134.2631412-.3205172.5032317-.6595078.7184447-1.0143924.2392902-.3863644.4336939-.7991002.5793909-1.2300966-.4882174.0844673-.9821398.1312425-1.4774468.1399162-1.1587818-.0408089-2.5724956-.3731098-3.6617505.1690654-.173437.1299195-.3701653.2249347-.5793909.2798324.2201686-1.1659683 3.3199099-1.544908 4.333844-1.947167 1.0967654-.3776937 2.1073541-.9723464 2.9722753-1.7489525l1.1587818-1.4574604c.4506448-.6241267.7988425-1.3169679 1.0313158-2.0521042-.2723137 0-.6836812.6412826-2.3928844.5013664-2.0452499-.1632356-4.4497222-.4488978-5.9097872 1.3466934-.2679083.2751466-.4579287.6172921-.5504214.991073.6952691-.2681727.4808945-.6937511 2.3870905-1.0318819 1.1318378-.080277 2.2671261-.0997374 3.4010246-.0582984-.0984964.3847695 0 .0874476-.1158781.2215339l-.0695269.075788-.1158782.0874476c-.9444072.6179632-2.5377322.4022591-3.4763455.9619239h2.7636947c-.4824925.28414-1.0198474.4610561-1.5759433.5188558-1.4426833.3206413-3.0997413.4605575-4.0557363 1.6848242-.2201686.2740026.0289695.1807251-.3244589.2506832.1074798-1.3550255.5496085-2.6615827 1.2862478-3.8010566.8288231-.9975408 2.0070927-1.6362495 3.2909403-1.7839315 1.5615966-.1584962 3.0907806-.5515147 4.5366308-1.1659683.8027727-.4040194 1.5070587-.9812936 2.0626316-1.6906541.2317564-.2973219.2085807-.0524685.2607259-.5363454-1.4832407.0349791-2.1843037-.5013664-3.6501627-.6879213-.8864681-.1165968-2.3755027 0-3.122917.5246858l-.2665198.3905993c.7344166.028045 1.4661132.1059534 2.1900976.2331937h.3650163l.3534285.1224267c-.5388336.291492-1.5585616.2157041-2.1379525.3731098.1158782.2273638.0869087.1982146.5272458.2506832.2135907-.0045383.4254633.0392945.6199482.1282565-.4808944.1632356-2.039456.1457461-2.8448093.553835-.2708427.1676478-.563265.2971116-.8690864.3847695.1643691-.6885575.4073994-1.3556559.7242387-1.987976l.4751005-.7928584c.5290747-.8084571 1.2498904-1.471633 2.0973951-1.9296775.6301935-.3581103 1.3126159-.6138842 2.0220742-.7578794-.0811147.1982146-.0463512.110767-.1796112.2448533-.1332599.1340864-.4808944.332301-.5793909.5421753.2677326-.0745447.5292569-.170057.7821778-.2856623.264932-.1200073.5430398-.2080665.828529-.2623428.3519531-.0610179.7090959-.0864073 1.0660792-.075788.3605157-.0431862.7259908.0090613 1.0602854.1515759l-.509864.4139188c-1.3731565.7462197-2.3465332.6471124-3.4995211.9969029-.2375503.0757879-1.1240183.3031517-1.2572782.5305155l1.0023462-.2215339c.4216315-.0649817.8483569-.0903537 1.27466-.075788 2.039456 0 3.5748419-.2040444 5.0754643-1.4866096.2317564-.1982146.5504214-.4139187.6083605-.71124063-.5793909 0-2.0046926-.34396065-2.2596246-.63545272.1042904-.26234287.579391-.34396065.8517047-.44306796.2945405-.12507383.5759685-.27935444.8401168-.46055748.5142933-.33350974 1.0041681-.70368146 1.465859-1.10766988.2187408-.20722615.4489319-.40186377.6894752-.58298415.5219213-.38056804 1.1121939-.65575716 1.7381727-.81034797.3543811-.05911483.7046571-.14089842 1.0486975-.24485334z" fill="#fde30b"/><path d="m64.9637619 26.1875935c.0489987.1187808.0805817.2436833.0938199.3710332.0076788.0806607-.0224919.1603804-.0820924.2169117-.0859303.0543627-.184996.0858526-.2873235.0913312-.1777456.0090409-.355855.0090409-.5336007 0-.2228223 0-.3987346 0-.5336007 0-.1035231-.0039384-.2060537-.0212134-.3049147-.0513738-.0602129-.0186721-.1133092-.054456-.1524574-.1027477-.0374933-.0495806-.0689754-.1032129-.0938199-.1598296l-1.1727489-3.3107573h-5.828562l-1.1727489 3.2707999c-.0179978.0591342-.0457213.1150381-.0820924.1655378-.0426303.0498379-.0969243.0889889-.1583211.1141641-.0932964.0380707-.1923037.0612021-.2931872.0684984-.1640556.0089695-.328499.0089695-.4925545 0-.1698658.0108564-.3402801.0108564-.5101458 0-.1024464-.0052355-.2007377-.0411171-.2814597-.1027477-.0574622-.0575629-.0854304-.1371476-.0762287-.2169116.0116484-.1276124.0432879-.2527383.0938199-.3710332l4.6909956-12.6379596c.0244002-.0691573.0622228-.1331067.1114111-.1883707.056047-.0560522.1271694-.0956155.2052311-.1141641.1123117-.0343781.2284688-.05546.3459609-.0627902h.5336007.5863745c.1232539.0073105.2452374.0283786.3635521.0627902.0819997.0204248.156903.0618098.2169586.1198723.0530462.0556779.0930574.1218926.1172748.1940789l4.6909956 12.6436678zm-6.0162017-11.1880763-2.3924078 6.7813442h4.8551804zm22.4464136 11.5248603c.0012737.0531093-.015187.1051874-.0469099.1484132-.0437128.0451553-.1013509.0752138-.1641849.085623-.091851.0285556-.1860011.0495594-.2814597.0627903-.1502869.0110977-.3012214.0110977-.4515083 0-.1464018.0103245-.2933791.0103245-.4397809 0-.0976314-.0118558-.1938546-.032884-.2873234-.0627903-.0607186-.0176593-.1141049-.0536387-.1524574-.1027476-.0317229-.0432258-.0481836-.0953039-.0469099-.1484132v-11.8331032l-4.9196816 11.9016016c-.0194614.0476546-.0494956.0905362-.0879562.1255804-.0517205.041666-.1115548.0727311-.1759123.0913313-.0877188.0266427-.1781669.0438696-.2697323.0513738-.1250103.0062691-.2502693.0062691-.3752796 0-.1288616.0082973-.2581455.0082973-.3870071 0-.0916864-.0099568-.1820746-.0290852-.2697323-.057082-.0624744-.018867-.1203374-.0499446-.1700486-.0913313-.0362828-.0311738-.0644224-.0703068-.0820924-.114164l-4.6909955-11.9016016v11.8445196c.0012736.0531093-.015187.1051874-.04691.1484132-.0380622.0494034-.0915578.0854565-.1524573.1027477-.0957127.0290243-.1937988.0500308-.2931873.0627902-.1502991.0107792-.3012092.0107792-.4515083 0-.1483422.0107685-.2973023.0107685-.4456446 0-.0956185-.0123804-.1898452-.0334012-.2814597-.0627902-.0597603-.0163935-.1116684-.052776-.1465936-.1027477-.0279474-.0446456-.0421899-.0961431-.0410462-.1484132v-12.506671c-.0242804-.2359636.0643953-.4696686.2404135-.6336105.1520085-.121674.3426678-.1882486.5394645-.1883707h1.1434302c.1973141-.0015827.3941316.0194929.5863744.0627903.1663154.0365587.3236809.1044282.4632358.199787.1332109.092496.2450645.2111046.3283697.3482004.097063.1564535.1757408.3230385.2345498.4966136l3.9990737 9.8523569h.0527737l4.151531-9.8238159c.0690921-.1870826.1575008-.3668598.2638685-.536571.0818043-.1345669.1869541-.2543093.3107785-.3539086.1106943-.0868882.2383704-.1509749.3752796-.1883706.156805-.0405204.3186143-.0597298.4808271-.0570821h1.1727489c.1054286-.0009689.2103407.0144468.3107784.0456657.0940182.0312745.1800148.0818932.252141.1484132.073982.0735178.1318367.160911.1700486.2568691.0466124.1182769.0685399.2444119.0645012.3710332v12.506671zm24.0413522-.365325c.048925.118804.080505.2436962.09382.3710332.007679.0806607-.022492.1603804-.082093.2169116-.08593.0543628-.184996.0858527-.287323.0913313-.177746.0090408-.355855.0090408-.533601 0-.222822 0-.398734 0-.5336 0-.103524-.0039384-.206054-.0212134-.304915-.0513738-.060213-.0186721-.113309-.054456-.152458-.1027477-.037493-.0495806-.068975-.1032129-.093819-.1598296l-1.172749-3.3107573h-5.8109711l-1.1727489 3.2707998c-.0179978.0591342-.0457213.1150382-.0820924.1655379-.0426303.0498379-.0969243.0889889-.1583211.114164-.0932964.0380707-.1923037.0612022-.2931872.0684985-.1640556.0089694-.328499.0089694-.4925545 0-.1698658.0108564-.3402801.0108564-.5101458 0-.1024464-.0052356-.2007377-.0411171-.2814597-.1027477-.058204-.0571172-.0862972-.1370575-.0762287-.2169116.0116484-.1276124.0432879-.2527383.0938199-.3710332l4.6909956-12.6379596c.0244002-.0691573.0622228-.1331067.1114111-.1883707.056047-.0560522.1271694-.0956155.2052311-.1141641.1123117-.0343781.2284688-.05546.3459609-.0627902h.5336007.5863741c.123254.0073104.245238.0283786.363553.0627902.081999.0204248.156902.0618098.216958.1198723.053046.0556779.093058.1218926.117275.1940789l4.690995 12.6436678zm-6.0279293-11.1595353-2.3924077 6.7813442h4.85518zm-6.1686591 7.9001519c.0045654.3995412-.0507448.7975952-.1641849 1.1815978-.1050319.3464883-.2631793.6755615-.4690995.9761026-.2018346.2871685-.4469524.5431032-.7271043.7591909-.2930449.2310628-.6164497.42303-.9616541.5708202-.3769185.152841-.7703109.2638986-1.1727489.3310757-.4626905.0782935-.9318487.1146013-1.4014349.1084559h-3.6413853c-.1701635-.0016287-.3350331-.0578024-.4690996-.1598297-.1621075-.1457367-.2445989-.357061-.2228222-.5708202v-12.1698871c-.0217767-.2137592.0607147-.4250835.2228222-.5708202.1340665-.1020273.2989361-.158201.4690996-.1598297h3.1781495c.6936584-.0181307 1.3864923.0587303 2.0581743.2283281.4886602.1321998.943876.3615446 1.3369337.6735679.3563958.2920119.6341699.6643097.8091967 1.0845584.1867698.4613828.2784226.9540413.2697323 1.4498834.0009174.3118118-.0384839.6224963-.1172749.9247287-.0767822.2870004-.1952518.5618631-.3518247.8162729-.1559023.2528452-.3540863.4785698-.5863744.6678597-.2423623.2014582-.5153343.3651332-.8091968.4851972.3771681.0680765.7399058.1973593 1.0730653.3824495.3283241.1864536.6217673.4257898.8678342.7078171.2545338.3008881.452988.6428343.5863744 1.0103518.1479027.4087761.2213254.8395587.2169585 1.2729291zm-2.7852786-6.0906518c.0031534-.30417-.0443732-.6068259-.1407299-.8961877-.0864426-.2584322-.2375752-.4918685-.4397808-.6792761-.2253113-.1986788-.4939571-.3450517-.7857418-.4281151-.4184741-.109433-.8509974-.1594207-1.28416-.1484133h-1.9291719v4.4124403h2.1168117c.3994365.0145304.7979103-.0475343 1.1727489-.1826625.2769719-.1144143.5265523-.2835145.7329681-.4966136.1934203-.210915.337471-.460212.4221896-.7306498.0909245-.2767313.1364392-.5656924.1348661-.8562304zm.8385154 6.1991076c.0074489-.3670559-.0603271-.731876-.1993673-1.073142-.1292942-.3004642-.3303091-.5665927-.5863744-.7763155-.2826766-.2233916-.6102492-.3867221-.9616541-.479489-.4749221-.1178964-.9642389-.1716764-1.4542086-.1598297h-2.2164954v4.8005981h2.6973224c.3769416.0056304.7525813-.0444094 1.1141115-.1484133.3061034-.0922754.5908817-.24155.8385154-.4395315.2492677-.1930536.4498457-.439078.5863745-.7192335.1421988-.3144941.2122362-.6553921.205231-.9989354zm24.6863636 3.5219608c.000729.051508-.011342.1024244-.035182.1484132-.031225.0520983-.081475.0908246-.14073.1084559-.098885.0320404-.201172.0531041-.304915.0627902-.17188.0089583-.344129.0089583-.516009 0-.154277.0088962-.308959.0088962-.463236 0-.098643-.0093609-.1954-.032428-.287323-.0684984-.065617-.0289761-.122243-.0742561-.164185-.1312887-.045167-.0631919-.080716-.1324055-.105548-.2054953l-1.28416-3.2137178c-.152457-.3653249-.310778-.7021089-.469099-1.0046436-.153497-.2898822-.351196-.5554695-.586375-.7877319-.223951-.220716-.491145-.3954143-.785741-.5137382-.347798-.1296809-.718336-.1917383-1.090657-.1826625h-1.243114v5.7824089c.00217.0532263-.014378.1055806-.04691.1484132-.039847.0475613-.0927.0831815-.152457.1027477-.091539.029652-.185791.0506786-.28146.0627902-.298081.0331494-.599071.0331494-.897153 0-.095618-.0123804-.189845-.0334012-.281459-.0627902-.061283-.0165023-.115019-.0527179-.152458-.1027477-.031723-.0432258-.048183-.0953039-.04691-.1484132v-12.5980023c-.021776-.2137592.060715-.4250835.222823-.5708202.134066-.1020273.298936-.158201.469099-.1598297h2.972919.879561l.633285.0570821c.494547.0793285.975818.223336 1.430753.4281151.391839.1824525.744149.4362846 1.037883.7477745.282288.3001821.497882.6538599.633284 1.0388928.145057.4152409.216442.8514902.211095 1.2900537.00596.4143993-.057415.8269797-.18764 1.2215553-.121399.3470991-.306134.6700283-.545328.9532697-.245892.2809671-.534621.523535-.856106.7192335-.350633.2109691-.724305.3832767-1.114112.5137382.225567.0952012.43667.2200399.627421.3710332.195058.1603577.370203.3423511.521873.5422792.174927.2306442.329871.4750343.463236.7306498.144639.2739938.289278.5822367.433917.9247288l1.254841 2.9968062c.099684.2511608.164185.4281151.193504.5308628.025946.0757144.041714.1543803.04691.2340362zm-2.797006-9.5669469c.015739-.4764486-.112724-.9468925-.369416-1.3528439-.296293-.4028635-.734675-.6853337-1.231386-.7934401-.192059-.0506-.388245-.0849767-.586374-.1027477-.228686 0-.521874-.0342492-.891289-.0342492h-1.56562v4.5665618h1.811897c.430748.0082792.860149-.0495103 1.272432-.1712461.325199-.1031392.62615-.2680546.885426-.4851972.232694-.1995812.413539-.4499606.527737-.7306499.112215-.29195.167883-.6016154.164185-.9133123zm17.174908 9.0874579c.008485.110204.008485.2208717 0 .3310757-.012965.081348-.038674.1602782-.076229.2340363-.028073.0553365-.070524.1025645-.123138.1369968-.04719.0296733-.102144.0455239-.158322.0456657h-6.731578c-.170164-.0016287-.335033-.0578024-.4691-.1598297-.162107-.1457367-.244599-.357061-.222822-.5708202v-12.1413461c-.021777-.2137592.060715-.4250835.222822-.5708202.134067-.1020273.298936-.158201.4691-.1598297h6.631895c.120982-.0034091.231186.0673505.275596.1769543.030741.077716.054289.1579496.070365.2397445.011072.1177233.011072.2361852 0 .3539085.01023.1101339.01023.2209419 0 .3310758-.015564.0800579-.039131.1584429-.070365.2340362-.026369.0531582-.066859.0984863-.117275.1312887-.04719.0296733-.102143.0455239-.158321.0456656h-5.470874v4.2640271h4.690996c.05638-.0012641.111749.0147063.158321.0456656.048146.0352424.088108.0799803.117275.1312886.037331.0713856.061166.1487268.070365.2283281.008487.1159197.008487.2322806 0 .3482003.008712.1082901.008712.2170775 0 .3253676-.009384.0777484-.033227.1531847-.070365.2226199-.027372.0494511-.067871.0908476-.117275.1198722-.049002.0241233-.103436.0358988-.158321.0342492h-4.690996v4.8633883h5.547102c.056179.0001417.111132.0159923.158322.0456656.050927.0338998.093078.0788414.123138.1312887.038583.0733505.064345.1524449.076229.2340362.009065.1178045.009065.2361041 0 .3539086zm10.818608.1027476c.073356.11301.128712.236181.164185.365325.025245.0795134-.002789.1659323-.070365.2169116-.092435.0654169-.202493.1031137-.316642.1084559-.195292.0110847-.391082.0110847-.586374 0-.228686 0-.410463 0-.539465 0-.106037-.0071236-.210587-.0282471-.310778-.0627902-.064701-.0205972-.124513-.0535916-.175913-.0970395-.042812-.0448713-.076622-.0971445-.099683-.1541214l-3.107785-5.4113757-3.142967 5.4113757c-.029311.0594727-.06899.1135496-.117275.1598296-.049889.0467742-.110039.0819071-.175912.1027477-.101222.0286901-.205502.0459285-.310779.0513738-.129002 0-.304914 0-.516009 0-.195252.0123684-.391123.0123684-.586375 0-.103459-.0053015-.202301-.0433885-.281459-.1084559-.05733-.0573011-.077612-.140666-.052774-.2169116.035388-.1291732.090749-.2523564.164185-.365325l3.817297-6.2790224-3.641385-6.0506943c-.06874-.1173454-.123809-.2417936-.164185-.3710332-.030779-.0748927-.012275-.1604565.04691-.2169116.087743-.0650988.194607-.1011092.304915-.1027477h.586374.527737c.109113.0055571.217266.0227854.322506.0513738.067303.0176797.128216.0532584.175913.1027477l.117275.1541214 3.002237 5.0860082 3.025692-5.0688836c.035182-.057082.070365-.1084558.105547-.1541214.042468-.0473245.097113-.0827884.158321-.1027477.091093-.0290923.185729-.0463658.28146-.0513738h.498418c.1816-.0110259.363729-.0110259.545329 0 .109508.0058171.215147.0414141.304914.1027477.063642.0535728.090859.1374742.070365.2169116-.030052.1308359-.081529.2561139-.152457.3710332l-3.623794 6.0050287 3.776251 6.2790224zm10.068049-8.9675856c.01024.6307412-.107321 1.2572629-.34596 1.8437493-.217787.531509-.55428 1.009212-.985109 1.3985095-.455195.3990759-.990217.7022455-1.571484.8904796-.71957.2248351-1.472697.3309488-2.228223.3139511h-1.600802v4.8919293c.002654.0532868-.013943.1057963-.04691.1484132-.039847.0475613-.092701.0831815-.152457.1027477-.091539.029652-.185792.0506786-.28146.0627902-.298082.0331494-.599071.0331494-.897153 0-.095619-.0123804-.189845-.0334012-.28146-.0627902-.061282-.0165023-.115019-.0527179-.152457-.1027477-.031723-.0432258-.048184-.0953039-.04691-.1484132v-12.5580449c-.013363-.2136999.070229-.4223525.228686-.5708202.14159-.1147039.320077-.1773356.504282-.1769543h2.99051c.304914 0 .586374 0 .867834.0342493.329316.0347894.656281.0881557.979245.1598296.412087.0917361.8075.2437809 1.172749.450948.370485.2082137.701672.4765601.979245.7934401.279703.3396056.492425.7266706.627421 1.1416404.15263.4530675.227903.9274347.222822 1.4042178zm-1.946763.142705c.017259-.4828739-.091691-.9621094-.316642-1.3928013-.183434-.3411151-.456607-.6287096-.791605-.8333975-.296542-.1743603-.625192-.2906994-.967518-.3424922-.324003-.0489283-.651367-.0737358-.979246-.0742066h-1.729804v5.4684577h1.677031c.474543.0132658.947561-.05832 1.395571-.2112035.351131-.1226429.671088-.3173112.938199-.5708202.260209-.2513474.460403-.5553652.586375-.8904795.132841-.3665392.198342-.7529866.193503-1.1416405zm15.398193 2.5173172c.012871 1.0047291-.12139 2.0061179-.398734 2.9739733-.229894.821188-.628891 1.5883041-1.172749 2.2547399-.538981.62278-1.222324 1.1119097-1.993673 1.4270505-.88791.3490858-1.839671.5180726-2.797006.4966136-.92875.0207714-1.852797-.1343211-2.720778-.4566561-.736605-.283428-1.389412-.7404319-1.899853-1.3300111-.527964-.6340622-.908103-1.3722252-1.114112-2.1634087-.260415-.9686148-.384686-1.9671358-.369415-2.9682651-.011616-.9877653.122669-1.9720283.398734-2.9225995.227703-.8150848.627078-1.5751518 1.172749-2.2319071.543172-.6180762 1.228151-1.1030284 1.999537-1.4156341.883429-.3514639 1.831068-.5243117 2.785279-.50803.916677-.0194553 1.828583.1336662 2.685594.4509479.74256.2791999 1.403097.7320554 1.923309 1.3185947.536158.6256433.924509 1.3583564 1.137566 2.1462841.261971.9528765.388245 1.9362676.37528 2.9225995zm-1.970218.1255804c.00443-.7205388-.066297-1.4396539-.211095-2.146284-.120041-.6084184-.356765-1.1893722-.697785-1.7124606-.325454-.485618-.776418-.8793414-1.307615-1.1416405-.633288-.2915297-1.328674-.4323957-2.028856-.4109905-.703822-.0253623-1.402507.126001-2.028855.4395315-.533778.282874-.990199.6860834-1.33107 1.1758897-.354804.5198165-.603643 1.1011871-.732968 1.7124606-.15083.6769868-.225543 1.3679399-.222823 2.060661-.005474.7392095.063263 1.4771712.205231 2.2033661.114485.6224363.351422 1.2174792.697786 1.7524181.318537.4871523.766246.8815714 1.295887 1.1416404.637976.2894714 1.33711.4283271 2.040583.4052823.709255.0232488 1.413087-.1279187 2.046447-.4395315.540702-.2831486 1.000239-.6932171 1.336934-1.1930143.346216-.5229542.590695-1.103427.721241-1.7124606.145375-.6872757.216129-1.3875245.211094-2.089202zm13.140651 6.5644326c.000728.051508-.011342.1024244-.035182.1484132-.031225.0520983-.081475.0908246-.14073.1084559-.098885.0320404-.201172.0531041-.304915.0627902-.17188.0089583-.344129.0089583-.516009 0-.154277.0088962-.308959.0088962-.463236 0-.098643-.0093609-.1954-.032428-.287323-.0684984-.065617-.0289761-.122243-.0742561-.164185-.1312887-.045167-.0631919-.080716-.1324055-.105548-.2054953l-1.28416-3.2137178c-.152457-.3653249-.310778-.7021089-.469099-1.0046436-.153497-.2898822-.351196-.5554695-.586375-.7877319-.223951-.220716-.491145-.3954143-.785742-.5137382-.347798-.1296809-.718335-.1917383-1.090656-.1826625h-1.243114v5.7767007c.002169.0532263-.014379.1055806-.04691.1484132-.039847.0475613-.0927.0831815-.152457.1027477-.091539.029652-.185792.0506786-.28146.0627902-.298081.0331494-.599071.0331494-.897153 0-.095618-.0123804-.189845-.0334012-.281459-.0627902-.061283-.0165023-.115019-.0527179-.152458-.1027477-.031723-.0432258-.048183-.0953039-.04691-.1484132v-12.5980023c-.021776-.2137592.060715-.4250835.222823-.5708202.134066-.1020273.298936-.158201.469099-.1598297h2.972919.879561l.633285.0570821c.494547.0793285.975817.223336 1.430753.4281151.391839.1824525.744149.4362846 1.037883.7477745.282288.3001821.497882.6538599.633284 1.0388928.145169.415214.216556.8514821.211095 1.2900537.00596.4143993-.057416.8269797-.18764 1.2215553-.121399.3470991-.306134.6700283-.545328.9532697-.245892.2809671-.534622.523535-.856107.7192335-.350655.2109275-.724323.3832329-1.114111.5137382.225567.0952012.43667.2200399.627421.3710332.195058.1603577.370203.3423511.521873.5422792.174927.2306442.329871.4750343.463236.7306498.144639.2739938.289278.5822367.433917.9247288l1.254841 2.9968062c.099684.2511608.164185.4281151.193504.5308628.025946.0757144.041714.1543803.04691.2340362zm-2.797006-9.5669469c.015738-.4764486-.112724-.9468924-.369416-1.3528439-.296293-.4028635-.734675-.6853337-1.231386-.7934401-.192059-.0506-.388245-.0849767-.586374-.1027477-.228686 0-.521874-.0342492-.89129-.0342492h-1.565619v4.5665618h1.811897c.430748.0082792.860149-.0495103 1.272432-.1712461.325199-.1031392.62615-.2680546.885426-.4851972.232694-.1995812.413539-.4499606.527737-.7306499.112084-.2919847.167748-.6016261.164185-.9133123zm12.929557-2.991098c.008347.1140195.008347.2284727 0 .3424922-.010037.0812556-.033813.1603352-.070365.2340363-.025871.0534764-.066466.0989228-.117275.1312886-.045373.0289243-.098229.0447563-.152457.0456656h-3.922845v11.7931458c.000465.0529974-.01592.1048378-.04691.1484132-.037439.0500298-.091176.0862454-.152458.1027477-.091614.029389-.185841.0504098-.28146.0627902-.150299.0107586-.301208.0107586-.451508 0-.146401.0103445-.29338.0103445-.439781 0-.099551-.0118429-.197721-.0328674-.293187-.0627902-.061282-.0165023-.115019-.0527179-.152457-.1027477-.030991-.0435754-.047376-.0954158-.04691-.1484132v-11.8045622h-3.928709c-.054228-.0009093-.107084-.0167413-.152457-.0456656-.052175-.0308148-.093172-.0767107-.117275-.1312886-.031528-.0754939-.055104-.1539078-.070365-.2340363-.010555-.1139329-.010555-.2285593 0-.3424922-.010663-.1177412-.010663-.2361673 0-.3539085.014558-.0839911.038142-.1662604.070365-.2454527.022305-.0571185.063584-.1053394.117275-.1369969.045373-.0289242.098229-.0447563.152457-.0456656h9.710361c.054228.0009093.107084.0167414.152457.0456656.052592.0328846.093532.0807091.117275.1369969.037389.0774118.061174.1603805.070365.2454527.008396.117828.008396.2360806 0 .3539085zm15.157779 8.9219201c.004566.3995412-.050745.7975952-.164185 1.1815978-.105116.3464573-.263257.6755186-.469099.9761026-.201835.2871685-.446953.5431032-.727105.7591909-.293044.2310628-.616449.42303-.961654.5708202-.376918.152841-.770311.2638986-1.172749.3310757-.46269.0782935-.931848.1146013-1.401435.1084559h-3.653112c-.170164-.0016287-.335033-.0578024-.4691-.1598297-.162107-.1457367-.244599-.357061-.222822-.5708202v-12.1698871c-.021777-.2137592.060715-.4250835.222822-.5708202.134067-.1020273.298936-.158201.4691-.1598297h3.178149c.693659-.0181307 1.386493.0587303 2.058174.2283281.488661.1321998.943877.3615446 1.336934.6735679.356396.2920119.63417.6643097.809197 1.0845584.18677.4613828.278423.9540413.269732 1.4498834.000856.3118082-.038545.6224852-.117275.9247287-.076782.2870004-.195251.5618631-.351824.8162729-.155903.2528452-.354087.4785698-.586375.6678597-.242362.2014582-.515334.3651332-.809197.4851972.377168.0680765.739906.1973593 1.073066.3824495.328324.1864536.621767.4257898.867834.7078171.254534.3008881.452988.6428343.586374 1.0103518.147903.4087761.221326.8395587.216959 1.2729291zm-2.785279-6.0906518c.003154-.30417-.044373-.6068259-.140729-.8961877-.086443-.2584322-.237576-.4918685-.439781-.6792761-.225312-.1986788-.493957-.3450517-.785742-.4281151-.418474-.109433-.850997-.1594207-1.28416-.1484133h-1.952627v4.4124403h2.116812c.399436.0145304.79791-.0475343 1.172749-.1826625.276972-.1144143.526552-.2835145.732968-.4966136.193268-.211021.337299-.4602837.422189-.7306498.090925-.2767313.13644-.5656924.134867-.8562304zm.838516 6.1991076c.007449-.3670559-.060327-.731876-.199367-1.073142-.129295-.3004642-.33031-.5665927-.586375-.7763155-.282581-.2235339-.610186-.3868805-.961654-.479489-.474922-.1178964-.964239-.1716764-1.454209-.1598297h-2.23995v4.8005981h2.697323c.376941.0056304.752581-.0444094 1.114111-.1484133.306103-.0922754.590882-.24155.838515-.4395315.249268-.1930536.449846-.439078.586375-.7192335.142199-.3144941.212236-.6553921.205231-.9989354zm12.777099 3.499128c-.00011.0539216-.01423.10694-.041046.1541214-.033499.0524728-.08569.0910856-.146594.1084559-.095317.0316966-.193475.0546296-.293187.0684984-.15812.0109839-.316843.0109839-.474963 0-.196001.00052-.391844-.0109189-.586375-.0342492-.223386-.0074171-.429056-.1203041-.551192-.3025348l-5.160095-6.7813442v6.8041771c-.001397.0509398-.017668.1004388-.04691.142705-.037758.0497101-.09137.0858417-.152457.1027477-.091615.029389-.185841.0504098-.28146.0627902-.150301.0107381-.301208.0107381-.451508 0-.146402.0103245-.293379.0103245-.439781 0-.099557-.0118088-.197731-.032834-.293187-.0627902-.061087-.016906-.1147-.0530376-.152458-.1027477-.029241-.0422662-.045512-.0917652-.04691-.142705v-13.0603667c-.001273-.0531093.015187-.1051874.04691-.1484132.037439-.0500298.091176-.0862454.152458-.1027477.095465-.0299228.193636-.0509473.293187-.0627902.146402-.0103245.293379-.0103245.439781 0 .1503-.0107381.301207-.0107381.451508 0 .095613.0124129.189836.033433.28146.0627902.061282.0165023.115019.0527179.152457.1027477.031723.0432258.048184.0953039.04691.1484132v6.0449862l4.943137-6.0449862c.040755-.0615996.092367-.1157073.152457-.1598296.0629-.0471802.134582-.0820703.211095-.1027477.099711-.0277393.201747-.046841.304915-.057082.154276-.008923.30896-.008923.463235 0 .1503-.0107792.30121-.0107792.451509 0 .092058.0138983.182431.0368485.269732.0684984.108919.0347078.182369.1338888.181776.2454527-.002179.0952957-.026221.1889109-.070365.2739937-.076699.1345111-.164971.2624521-.263868.3824496l-4.632358 5.3942511 4.984182 6.4559766c.087996.1153686.162718.2397914.222823.3710332.022727.0506803.0366.1047.041046.1598296zm14.295809-.1027477c-.024409.0881613-.068452.1700122-.129002.2397445-.066603.0651573-.149444.1123632-.240414.1369969-.120271.0356169-.244117.0585809-.369416.0684984-.146593 0-.32837 0-.545328 0-.216959 0-.410462 0-.586374 0-.129153-.009841-.256895-.0327986-.381144-.0684984-.086062-.0242902-.16331-.0717843-.222822-.1369969-.056517-.0706731-.096537-.1524855-.117275-.2397445l-2.931872-10.2747639-2.703186 10.2747639c-.01341.0874233-.049764.1699997-.105548.2397445-.056303.0634537-.129271.1108088-.211095.1369969-.118191.0359185-.240129.0588933-.363552.0684984-.148548 0-.344006 0-.586374 0s-.437826 0-.586375 0c-.131179-.0090483-.260951-.0320173-.387007-.0684984-.089305-.0245531-.170269-.0718431-.23455-.1369969-.057435-.0694159-.095775-.1519207-.111411-.2397445l-3.694159-12.5580448c-.034969-.123282-.058518-.2493668-.070365-.3767414-.009126-.0803331.023941-.1597356.087956-.2112034.08763-.0553184.188847-.0868487.293188-.0913313.183613-.009035.367578-.009035.551192 0h.527737c.102371.0060932.203201.027264.299051.0627902.059954.0195334.110181.0602797.14073.1141641.028915.0596564.048672.1231241.058637.1883707l3.142967 11.4164044 2.978782-11.3821552c.018608-.067883.046204-.1331228.082093-.1940789.036518-.0546465.089895-.0966147.152457-.1198722.100953-.031818.205156-.0528714.310778-.0627903.173838-.0088926.348036-.0088926.521874 0 .160138-.0091464.320689-.0091464.480827 0 .097881.0104271.194256.0314883.287323.0627903.064933.0218257.120607.0639794.158321.1198722.034289.0617072.061805.1267591.082093.1940789l3.207468 11.3821552 3.072602-11.4164044c0-.0684985.04691-.1312887.064501-.1826625.026473-.0560535.075121-.0992928.134866-.1198723.094812-.0322227.193238-.0533022.293188-.0627902.166012-.0089336.332405-.0089336.498418 0 .169851-.0112821.340294-.0112821.510146 0 .099961.0083465.19548.0439579.275596.1027477.059389.0542892.089688.1322404.082092.2112034-.01056.1267509-.030153.2526344-.058637.3767414l-3.705887 12.5580448z" fill="#004929"/></g></g></svg>