<svg height="48" viewBox="0 0 48 48" width="48" xmlns="http://www.w3.org/2000/svg"><g fill="#fff" fill-rule="evenodd"><path d="m0 0h48v48h-48z" fill-opacity=".1"/><path d="m31.3846154 27.3846154h-1.2307692c-2.2075385.0023846-4.275 1.0820769-5.5384616 2.8923077v-4.1230769h.6153846c3.7366923-.0043847 6.7648462-3.0325385 6.7692308-6.7692308 0-.3398462-.2755385-.6153846-.6153846-.6153846h-1.2307692c-2.2075385.0023846-4.275 1.0820769-5.5384616 2.8923077v-4.123077h.6153846c2.7176923-.0030769 4.92-2.2053846 4.923077-4.9230769 0-.3398461-.2755385-.6153846-.6153847-.6153846h-1.2307692c-1.7921538.0010769-3.4420769.976-4.3076923 2.5452308-.8656154-1.5692308-2.5155385-2.5441539-4.3076923-2.5452308h-1.2307692c-.3398462 0-.6153847.2755385-.6153847.6153846.003077 2.7176923 2.2053847 4.92 4.923077 4.9230769h.6153846v4.123077c-1.2634616-1.8102308-3.3309231-2.8899231-5.5384616-2.8923077h-1.2307692c-.3398461 0-.6153846.2755384-.6153846.6153846.0043846 3.7366923 3.0325385 6.7648461 6.7692308 6.7692308h.6153846v4.1230769c-1.2634616-1.8102308-3.3309231-2.8899231-5.5384616-2.8923077h-1.2307692c-.3398461 0-.6153846.2755384-.6153846.6153846.0043846 3.7366923 3.0325385 6.7648462 6.7692308 6.7692308h.6153846v4.9230769h1.2307692v-4.9230769h.6153846c3.7366923-.0043846 6.7648462-3.0325385 6.7692308-6.7692308 0-.3398462-.2755385-.6153846-.6153846-.6153846z"/></g></svg>