<svg height="48" viewBox="0 0 48 48" width="48" xmlns="http://www.w3.org/2000/svg"><g fill="#fff" fill-rule="evenodd"><path d="m0 0h48v48h-48z" fill-opacity=".1"/><path d="m29 18.5227273 1-.5227273v2.1830387c0 1.1168709-.6204379 2.1412811-1.6102374 2.6586763l-4.128893 2.158285v-2.1830387c0-1.1168709.6204379-2.1412811 1.6102373-2.6586763l2.1288931-1.1128305v-10.0454545h1zm-9 .5227272 2.1288931 1.1128305c.9897994.5173952 1.6102373 1.5418054 1.6102373 2.6586763v2.1830387l-4.128893-2.158285c-.9897995-.5173952-1.6102374-1.5418054-1.6102374-2.6586763v-2.1830387l1 .5227273v-9.5227273h1zm-2 13.9545455 4.1288931 2.158285c.9897994.5173952 1.6102373 1.5418054 1.6102373 2.6586763v2.1830387l-4.128893-2.158285c-.9897995-.5173952-1.6102374-1.5418054-1.6102374-2.6586763zm12 0v2.1830387c0 1.1168709-.6204379 2.1412811-1.6102374 2.6586763l-4.128893 2.158285v-2.1830387c0-1.1168709.6204379-2.1412811 1.6102373-2.6586763zm-8-22h1v8h-1zm3 0h1v8h-1zm-7 17 4.1288931 2.158285c.9897994.5173952 1.6102373 1.5418054 1.6102373 2.6586763v2.1830387l-4.128893-2.158285c-.9897995-.5173952-1.6102374-1.5418054-1.6102374-2.6586763zm12 0v2.1830387c0 1.1168709-.6204379 2.1412811-1.6102374 2.6586763l-4.128893 2.158285v-2.1830387c0-1.1168709.6204379-2.1412811 1.6102373-2.6586763zm-12-5 4.1288931 2.158285c.9897994.5173952 1.6102373 1.5418054 1.6102373 2.6586763v2.1830387l-4.128893-2.158285c-.9897995-.5173952-1.6102374-1.5418054-1.6102374-2.6586763zm12 0v2.1830387c0 1.1168709-.6204379 2.1412811-1.6102374 2.6586763l-4.128893 2.158285v-2.1830387c0-1.1168709.6204379-2.1412811 1.6102373-2.6586763z"/></g></svg>