<svg height="48" viewBox="0 0 48 48" width="48" xmlns="http://www.w3.org/2000/svg"><g fill="#fff" fill-rule="evenodd"><path d="m0 0h48v48h-48z" fill-opacity=".1"/><g transform="translate(12 9)"><path d="m20.376 11.268v-5.268h-16.773v5.268l8.387-2.854z"/><path d="m21.9407442 26.3525581c-.3269023.2324652-.507014.3605024-.9588837.3605024-.4518698 0-.6319814-.1280372-.9588838-.3605024-.4186046-.2976558-.9919255-.7053209-2.0388837-.7053209-1.0469023 0-1.6201674.4076651-2.0387721.7053768-.3268465.2324093-.5067907.3604465-.9586046.3604465-.451814 0-.6318698-.1280372-.9587163-.3604465-.4185488-.2977117-.9918698-.7053768-2.0387721-.7053768s-1.6201116.4076651-2.03866046.7053768c-.32684651.2324093-.50684651.3604465-.95866046.3604465-.45175814 0-.63175814-.1280372-.95854884-.3604465-.41860465-.2977117-.99181395-.7053768-2.03871628-.7053768s-1.62016744.4076651-2.03866046.7053768c-.32684652.2324093-.50684652.3604465-.95866047.3604465-.45175814 0-.63175814-.1280372-.95854884-.3604465-.41860465-.2976559-.99186976-.7053768-2.03877209-.7053768v1.8637395c.45175814 0 .63181395.1280373.95860465.3603907.41854884.2977117.99181395.7053768 2.03871628.7053768s1.62016744-.4076651 2.03877209-.7053768c.32684651-.2323534.50684651-.3603907.95866047-.3603907.45181395 0 .63181395.1280373.95860465.3603907.41854884.2977117.99175814.7053768 2.03866046.7053768 1.0469581 0 1.6202233-.4077209 2.0387163-.7053768.3267907-.2323534.5067907-.3603907.9585488-.3603907.4518698 0 .6318698.1280373.9587163.3603907.4186047.2977117.9918698.7053768 2.0387721.7053768s1.6201674-.4076651 2.0387163-.7053768c.3267907-.2323534.5068465-.3603907.9586604-.3603907.4518698 0 .6319814.1280373.9588838.3605024.4186046.2976.9919255.7052651 2.0388837.7052651 1.0469581 0 1.620279-.4076651 2.0388837-.7052651.3269023-.2324651.507014-.3605024.9588837-.3605024v-1.8637395c-1.0470139 0-1.6203907.4076651-2.0389395.7053209"/><path d="m17 1.429h-4v-1.429h-2v1.429h-4v2.571h10z"/><path d="m8.99196279 24.7478512c.41955349-.2938047 1.02186051-.711907 2.00803721-.8844279v-13.2337675l-10.62314419 3.6352744 3.94375814 9.7880372c.45694884-.1575069 1.00967442-.2694139 1.67408372-.2694139 1.52087442 0 2.45726512.5861581 2.99726512.9642977zm3.92969301-.8842047c.9857302.1726326 1.6457302.5905675 2.0650605.8842605.5399442-.3781396 1.4763907-.9643535 2.9973767-.9643535.6463256 0 1.1861582.1063814 1.635907.2571349l3.9869023-9.7744186-10.6069023-3.6366698v13.2340465"/></g></g></svg>