<svg height="110" viewBox="0 0 486 110" width="486" xmlns="http://www.w3.org/2000/svg"><g fill="none" fill-rule="evenodd"><path d="m0 0h486v110h-486z"/><path d="m181.85 75.07h-36.25v-8.57c.622533-.1997703 1.131255-.6539868 1.4-1.25.267505-.6600718.396835-1.3679814.38-2.08v-25.48c.013325-.404985-.013472-.8102945-.08-1.21-.165082-.7596803-.670256-1.4012887-1.37-1.74v-8.95h18.66v8.95c-.685779.2555417-1.211647.8184424-1.42 1.52-.281397.8545566-.416627 1.7504586-.4 2.65v25.77c1.253339.1247633 2.516235-.1111623 3.64-.68.86-.6066667 1.29-1.8966667 1.29-3.87v-9h14.18v24zm43.23 0h-19.56v-8.57c.704974-.4282191 1.260328-1.0639073 1.59-1.82.233134-.8631371.334279-1.7565897.3-2.65h-7.74c-.030362.8833734.070743 1.766354.3 2.62.304143.7610826.834741 1.4103667 1.52 1.86v8.57h-16.76v-9.08c.571642-.5956502 1.056416-1.268948 1.44-2 .404147-.9602778.683102-1.96855.83-3l5.16-29.26 1.14-6h22.22l5.48 29.47 1.29 6.37c.219993 1.9594618 1.23613 3.7422208 2.81 4.93v8.57zm-19.56-22.59-2.2-14.56-2.32 14.56zm63.78-18.12c-.701352.4627882-1.234478 1.1397189-1.52 1.93-.236576 1.0053564-.337473 2.0378636-.3 3.07v35.71h-14.87l-9.56-22.14v7.66c-.029773 1.0814895.070953 2.1626242.3 3.22.211096.7928331.770008 1.4473481 1.52 1.78v9.48h-15.4v-9.07c.672034-.2872723 1.216087-.8099893 1.53-1.47.243441-.7072346.358583-1.4522708.34-2.2v-24.33c.019927-.7347477-.09532-1.4669033-.34-2.16-.299661-.6550105-.824989-1.1803387-1.48-1.48v-8.57h16.69l8.6 22.21v-10.46c.006239-.6039875-.08493-1.2050313-.27-1.78-.189501-.5542895-.537132-1.0409731-1-1.4v-8.57h15.76zm45.05 25.32c0 4.5-.936667 7.9633333-2.81 10.39-2.58 3.3333333-6.913333 5-13 5h-23.7v-9.07c.845469-.2139419 1.567496-.7626827 2-1.52.308858-.9683922.437652-1.9851833.38-3v-22.57c.003046-.9002591-.177285-1.7917077-.53-2.62-.305872-.7909443-.990446-1.3739601-1.82-1.55v-8.95h23.13c4.666667 0 8.23.7566667 10.69 2.27 3.793333 2.3266667 5.69 6.3966667 5.69 12.21v19.41zm-15.85.91v-20.32c0-1.4666667-.416667-2.4266667-1.25-2.88-1.332803-.5458618-2.77312-.7785021-4.21-.68v28l1.44.23c1.14651.0984678 2.274287-.337766 3.056103-1.1821271.781816-.844361 1.130137-2.0023131.943897-3.1378729zm56-17.66h-13.5v-3.12c0-1.7666667-.696667-2.7666667-2.09-3l-2.91-.56v9.4h9.56v9.55h-9.56v6.37c-.019837.8641104.043791 1.7281178.19 2.58.20154.7340215.61139 1.3939483 1.18 1.9v9h-18.62v-9.05c1.307032-.8942454 2.032667-2.4218975 1.9-4v-23.55c.035679-.8635639-.190928-1.7176967-.65-2.45-.426467-.5969645-1.038139-1.0363837-1.74-1.25v-8.96h36.25v17.13zm40 18.65c0 4.9-1.313333 8.4633333-3.94 10.69-2.88 2.4266667-7.633333 3.64-14.26 3.64s-11.436667-1.3033333-14.43-3.91c-3.006667-2.6-4.51-6.5566667-4.51-11.87v-20.32c0-5.0533333 1.53-8.8066667 4.59-11.26s7.876667-3.68 14.45-3.68c6.473333 0 11.14 1.15 14 3.45s4.276667 5.9666667 4.25 11v22.25zm-15.47-1v-20.77c.021985-.83418-.004727-1.6689322-.08-2.5-.253333-1.1133333-1.136667-1.67-2.65-1.67-2.073333 0-3.11 1.39-3.11 4.17v20.78c-.125896 1.3040601.194969 2.612205.91 3.71.566334.6007747 1.377967.9069813 2.2.83.900124.1204224 1.780611-.3297813 2.21-1.13.459826-1.061464.668572-2.2147013.61-3.37zm60.14 14.48h-16.74c-.367471-1.3619321-.582127-2.7605518-.64-4.17-.126667-1.82-.19-3.5633333-.19-5.23v-5.53c.130663-1.3437806-.482993-2.6516365-1.6-3.41-1.082496-.5085091-2.229985-.8652068-3.41-1.06v5.91c-.0175 1.0942922.083082 2.18728.3 3.26.113886.8168154.717475 1.4799692 1.52 1.67v8.57h-19v-8.57c.771624-.4882281 1.337356-1.2425374 1.59-2.12.24073-1.2482326.341353-2.519439.3-3.79v-22.14c.020001-.6863458-.109668-1.3688174-.38-2-.316881-.613498-.863139-1.0770987-1.52-1.29v-9.4h22.6c4.2 0 7.513333.58 9.94 1.74 4.3 2.0733333 6.45 5.8633333 6.45 11.37 0 3.74-.666667 6.52-2 8.34-1.34982 1.66597-3.173555 2.8829551-5.23 3.49 2.48.4066667 4.223333 1.3166667 5.23 2.73.886155 1.4564206 1.308179 3.1480033 1.21 4.85v3.72c-.066209 1.0512303.062625 2.1056385.38 3.11.294358.5918909.775969 1.0699865 1.37 1.36v8.57zm-16.84-32.9v-1c-.2-2.12-.68-3.4733333-1.44-4.06s-2.226667-.8766667-4.4-.87v9.86l1.06.08c1.071443.0610502 2.141005-.1487353 3.11-.61 1.172636-.7150033 1.824103-2.0452445 1.67-3.41zm63.43 5.84h-11.3v-8.64c.038927-.4914601-.039921-.9851173-.23-1.44-.463883-.6697988-1.191416-1.1099564-2-1.21v24.29c-.018996 1.1144505.122453 2.2258367.42 3.3.130572.7598417.639488 1.4006988 1.35 1.7v9h-19v-8.5c.652864-.2452142 1.157597-.7757365 1.37-1.44.272437-.8321389.400946-1.7046496.38-2.58v-25.77c-.96 0-1.566667.2766667-1.82.83-.282472.7221943-.411871 1.4951844-.38 2.27v8.19h-11.34v-22.21h42.55z" fill="#f60" fill-rule="nonzero"/><path d="m158.47 101.22-4.56-12.47c-.064593-.1872394-.174529-.3555787-.32-.49-.148512-.114015-.333081-.1708055-.52-.16h-2c-.190079-.0114439-.378006.0452888-.53.16-.150129.1304223-.260941.300103-.32.49l-4.58 12.47c-.038045.081488-.05849.17008-.06.26-.004414.086033.028369.169811.09.23.089804.073307.204435.109129.32.1h2.17c.125272.004344.250374-.012562.37-.05.097896-.036685.181831-.103134.24-.19.077696-.121078.13827-.252322.18-.39l.58-1.64h5.06l.58 1.64c.041609.137724.102191.268984.18.39.058658.086414.142432.152735.24.19.119626.037438.244728.054344.37.05h2.17c.115565.009129.230196-.026693.32-.1.061631-.060189.094414-.143967.09-.23-.001804-.089883-.022235-.178415-.06-.26zm-7.94-4.6 1.55-4.6 1.55 4.6zm36.67-5.62c.175763.0200351.35141-.0385139.48-.16.091014-.1277476.133555-.2837336.12-.44v-1.7c.012685-.1561868-.029777-.3118791-.12-.44-.12859-.1214861-.304237-.1800351-.48-.16h-7.68c-.156426-.0153882-.313045.0273261-.44.12-.120303.1292945-.178666.3043824-.16.48v12.5c-.018666.175618.039697.350705.16.48.126955.092674.283574.135388.44.12h2c.156426.015388.313045-.027326.44-.12.120303-.129295.178666-.304382.16-.48v-10.2zm26.73-2.85h-4.64c-.175763-.0200351-.35141.0385139-.48.16-.090223.1281209-.132685.2838132-.12.44v12.45c-.018666.175618.039697.350705.16.48.126955.092674.283574.135388.44.12h2c.156426.015388.313045-.027326.44-.12.120303-.129295.178666-.304382.16-.48v-3.46h2c1.032623.0308258 2.058666-.1743827 3-.6.765095-.3584232 1.403266-.9407983 1.83-1.67.426572-.7737414.640498-1.6466999.62-2.53.013076-.6820883-.102262-1.3605501-.34-2-.215182-.5781331-.556841-1.1008718-1-1.53-.485353-.4503349-1.061646-.7913367-1.69-1-.755696-.2434858-1.546133-.3617135-2.34-.35zm0 6.83h-2v-3.98h2c.451643-.0122053.899991.0802023 1.31.27.319824.1488303.585429.3934663.76.7.165797.3067155.248532.6514454.24 1 .011915.3489046-.07103.6945077-.24 1-.176612.3049032-.441633.5490014-.76.7-.409427.1915567-.858195.2840509-1.31.27zm37-2.44c.006145-.6003207-.10952-1.1956522-.34-1.75-.211884-.4969739-.517441-.9485205-.9-1.33-.380782-.3704004-.815773-.6806263-1.29-.92-.476294-.2376995-.980101-.4157115-1.5-.53-.987262-.2257216-2.012738-.2257216-3 0-.513353.1147823-1.010483.2928085-1.48.53-.471102.2395713-.902766.5498295-1.28.92-.379555.3818765-.681759.8334848-.89 1.33-.230214.554428-.345868 1.1497045-.34 1.75v4.91c-.005593.6002703.11005 1.1954922.34 1.75.208241.4965152.510445.948124.89 1.33.377234.37017.808898.680429 1.28.92.470152.235712.967096.413671 1.48.53.987224.226066 2.012776.226066 3 0 .51946-.115821 1.023085-.293768 1.5-.53.474147-.239507.909118-.549719 1.29-.92.382559-.381479.688116-.8330261.9-1.33.230214-.554428.345868-1.1497045.34-1.75v-4.96zm-3.24 4.62c.007107.4004022-.096724.7949617-.3 1.14-.194972.3106034-.47653.5574012-.81.71-.375879.1732166-.786221.2587045-1.2.25-.407961.0039372-.811472-.0849722-1.18-.26-.330432-.1532321-.608603-.4001087-.8-.71-.203276-.3450383-.307107-.7395978-.3-1.14v-4.37c-.007107-.4004022.096724-.7949617.3-1.14.189884-.3135949.468205-.5640838.8-.72.372497-.172733.779484-.2582344 1.19-.25.413747-.0083559.824012.077116 1.2.25.334821.1552878.616528.4056939.81.72.203276.3450383.307107.7395978.3 1.14v4.33zm30.94-2.33 3.71-6.1c.045641-.0750126.066625-.1624436.06-.25-.003777-.0863873-.0394-.1683184-.1-.23-.072172-.0694395-.170008-.1056752-.27-.1h-2.41c-.11635-.0049854-.232385.0154914-.34.06-.096129.0444486-.181436.1092816-.25.19-.0916.1105349-.175148.2275021-.25.35l-2 3.35-2.06-3.35c-.071481-.1246938-.155229-.2419416-.25-.35-.068108-.0811981-.153531-.146119-.25-.19-.104524-.0430938-.216996-.0635432-.33-.06h-2.43c-.09677-.0040776-.190903.0321275-.26.1-.059824.0622019-.095313.1438253-.1.23-.007221.0863798.010112.1730421.05.25l3.73 6.1-3.67 6.37c-.053312.083575-.081112.180875-.08.28.000715.094185.032334.185529.09.26.058699.071789.147299.112397.24.11h2.35c.126181.015688.253819.015688.38 0 .107003-.024724.204375-.080365.28-.16.103026-.11627.187365-.247839.25-.39l2.06-3.71 2 3.71c.069198.140834.156614.271958.26.39.073586.077133.167006.132493.27.16.122841.015583.247159.015583.37 0h2.32c.092701.002397.181301-.038211.24-.11.057666-.074471.089285-.165815.09-.26.001112-.099125-.026688-.196425-.08-.28l-3.65-6.37zm34.94-2.29c.006145-.6003207-.10952-1.1956522-.34-1.75-.211663-.497094-.517248-.9486805-.9-1.33-.390189-.3878343-.83902-.7118026-1.33-.96-.476254-.2377936-.980073-.4158098-1.5-.53-.987262-.2257216-2.012738-.2257216-3 0-.513324.1148812-1.010442.2929032-1.48.53-.471184.2394365-.902868.5497088-1.28.92-.379751.3817162-.681982.8333649-.89 1.33-.230214.554428-.345868 1.1497045-.34 1.75v4.91c-.005593.6002703.11005 1.1954922.34 1.75.208018.4966351.510249.948284.89 1.33.377234.37017.808898.680429 1.28.92.47019.235621.967124.413577 1.48.53.987224.226066 2.012776.226066 3 0 .519487-.115727 1.023123-.293679 1.5-.53.474147-.239507.909118-.549719 1.29-.92.382752-.381319.688337-.832906.9-1.33.230214-.554428.345868-1.1497045.34-1.75v-4.92zm-3.24 4.62c.007107.4004022-.096724.7949617-.3 1.14-.194972.3106034-.47653.5574012-.81.71-.375879.1732166-.786221.2587045-1.2.25-.410549.008588-.817615-.07693-1.19-.25-.330432-.1532321-.608603-.4001087-.8-.71-.203276-.3450383-.307107-.7395978-.3-1.14v-4.38c-.007107-.4004022.096724-.7949617.3-1.14.189884-.3135949.468205-.5640838.8-.72.372385-.17307.779451-.258588 1.19-.25.413747-.0083559.824012.077116 1.2.25.334821.1552878.616528.4056939.81.72.203276.3450383.307107.7395978.3 1.14v4.33zm25.06.67c-.011527.2431724-.048393.4844787-.11.72-.045468.1749544-.143133.3319158-.28.45-.21522.1339384-.46707.1969009-.72.18-.137898-.0158493-.274154.0409242-.36.15-.070057.124694-.101389.2674277-.09.41v1.56c-.020575.115759-.020575.234241 0 .35.029053.084534.095466.150947.18.18.132362.022764.267638.022764.4 0 .669866.033442 1.341326-.013561 2-.14.460653-.07922.888148-.29123 1.23-.61.331892-.352599.563248-.787684.67-1.26.166862-.6786444.267334-1.3719069.3-2.07l.39-6.75h3.3v10.2c-.018666.175618.039697.350705.16.48.126955.092674.283574.135388.44.12h2c.156346.014456.312641-.02817.44-.12.120303-.129295.178666-.304382.16-.48v-12.5c.018666-.1756176-.039697-.3507055-.16-.48-.127359-.09183-.283654-.1344558-.44-.12h-8.23c-.156426-.0153882-.313045.0273261-.44.12-.120303.1292945-.178666.3043824-.16.48l-.74 9.08zm41.48 5.1c-.018666.175618.039697.350705.16.48.127359.09183.283654.134456.44.12h1.69c.156266.013555.312252-.028986.44-.12.120303-.129295.178666-.304382.16-.48v-3.63c.013555-.1562664-.028986-.3122524-.12-.44-.12859-.1214861-.304237-.1800351-.48-.16h-1v-10c.018666-.1756176-.039697-.3507055-.16-.48-.127359-.09183-.283654-.1344558-.44-.12h-7.92c-.156346-.0144558-.312641.02817-.44.12-.120303.1292945-.178666.3043824-.16.48l-.66 8.62c-.00944.2383714-.053225.4741337-.13.7-.072726.2046368-.214066.3777784-.4.49-.262489.1339449-.555748.1960467-.85.18-.175909-.0214601-.352149.0372863-.48.16-.091014.1277476-.133555.2837336-.12.44v3.58c-.018666.175618.039697.350705.16.48.127359.09183.283654.134456.44.12h1.71c.156426.015388.313045-.027326.44-.12.120303-.129295.178666-.304382.16-.48v-1.31h7.55v1.31zm-5.3-5.39.52-6.58h3v7.93h-4.29c.24035-.0769113.445781-.2362978.58-.45.15383-.2752803.236335-.5846759.24-.9zm29.62-9.39c-.156426-.0153882-.313045.0273261-.44.12-.120303.1292945-.178666.3043824-.16.48v12.45c-.013555.156266.028986.312252.12.44.12859.121486.304237.180035.48.16h1.88c.142161.006081.283457-.024935.41-.09.110797-.061426.206463-.146842.28-.25.08-.1.16-.23.24-.37l4.38-7.09v7.25c-.018666.175618.039697.350705.16.48.126955.092674.283574.135388.44.12h2c.156346.014456.312641-.02817.44-.12.120303-.129295.178666-.304382.16-.48v-12.55c.012685-.1561868-.029777-.3118791-.12-.44-.127851-.1227137-.304091-.1814601-.48-.16h-1.94c-.142121-.0056251-.283302.025366-.41.09-.107174.0626194-.199334.147952-.27.25-.08.1-.16.23-.24.37l-4.37 7.12v-7.23c.018666-.1756176-.039697-.3507055-.16-.48-.126955-.0926739-.283574-.1353882-.44-.12zm42.56 0h-2c-.156426-.0153882-.313045.0273261-.44.12-.120303.1292945-.178666.3043824-.16.48v4.71h-4.6v-4.76c.020047-.1740052-.034442-.3483713-.15-.48-.130435-.0933527-.290402-.1360105-.45-.12h-2c-.156426-.0153882-.313045.0273261-.44.12-.120303.1292945-.178666.3043824-.16.48v12.5c-.018666.175618.039697.350705.16.48.126955.092674.283574.135388.44.12h2c.159598.016011.319565-.026647.45-.12.115558-.131629.170047-.305995.15-.48v-4.71h4.6v4.71c-.018666.175618.039697.350705.16.48.126955.092674.283574.135388.44.12h2c.156346.014456.312641-.02817.44-.12.120303-.129295.178666-.304382.16-.48v-12.5c.018666-.1756176-.039697-.3507055-.16-.48-.127359-.09183-.283654-.1344558-.44-.12zm30.56 2.85c.175763.0200351.35141-.0385139.48-.16.091014-.1277476.133555-.2837336.12-.44v-1.7c.012685-.1561868-.029777-.3118791-.12-.44-.12859-.1214861-.304237-.1800351-.48-.16h-7.68c-.156426-.0153882-.313045.0273261-.44.12-.120303.1292945-.178666.3043824-.16.48v12.5c-.018666.175618.039697.350705.16.48.126955.092674.283574.135388.44.12h2c.156426.015388.313045-.027326.44-.12.120303-.129295.178666-.304382.16-.48v-10.2z" fill="#240005" fill-rule="nonzero"/><path d="m65.2 83.29c-.76-2-8.78-23.86 9.14-29 16.76-4.77 35.9-7.83 38.72-29.51 14.8 32.61 6.93 53.95-21.78 60.29-6.5900008 1.2869287-13.2856569 1.9564943-20 2 3.51-5 8-8.85 12.08-13.59 3.47-4 6.5-8.24 9.6-11.57-10.46 6-19.96 11.87-27.76 21.38zm-9.67 18.58c-14.43 7.85-16.53-11.38-17.47-20.1 2.91 2.47 5.56 5.67 13 6 5.14.25 8.78 2.66 7.55 8.15-3.8989834-2.0921117-8.1963391-3.3359934-12.61-3.65 2.84 5.5 5 5.81 9.49 9.6z" fill="#66b721"/><path d="m62.64 109.34c-1.64-8.45-7.73-10.7-12.76-14.34 3.7323007 1.1496562 7.2964429 2.7871441 10.6 4.87.93-14.49 16.4-23.87 25.68-32.56-14.59 15-23.38 21.28-23.52 42zm1.18-86.41c10.91.38 20.69 3.48 27.77 8.26l-5 3.36c-5.95-3.49-13.94-5.75-22.81-6.08-8.87.33-16.86 2.59-22.81 6.08l-5-3.36c7.07-4.78 16.86-7.88 27.77-8.26zm24.18 24.91-1.1-7.71c-1.3333333-.6666667-2.73-1.2666667-4.19-1.8l1.41 10.67c1.3-.38 2.59-.77 3.86-1.19zm10.27 37.92h-.06l-.32.11h-.11l-.21.07h-.11l-.32.1h-.11l-.22.07h-.11l-.33.1h-.11l-1.11.32h-.11l-.23.06h-.11l-.34.09h-.11l-.25.32h-.11-.11-.12-.12-.12l-.23.06h-.12-.12-.12-.12-.12l-.23.05h-.12l-.24.05h-.12-.12-.21-.12-.12-.1-.12-.12c14.39 2.82 27 7.94 36.6 14.62-3.668851-3.4525548-7.722073-6.4723393-12.08-9v-17.95c-1.071285 1.2364497-2.238221 2.3866677-3.49 3.44v13.2c-3.041348-1.5715698-6.173555-2.9606936-9.38-4.16v-3.24c-1.386667.6133333-2.8433333 1.1766667-4.37 1.69zm-86.13-32.6 4.71 4.84 5.15-5.66v-3l5.1-5.22 4.91 5v2.94l6 6.55 2.63-18.48c1.3333333-.6666667 2.73-1.2666667 4.19-1.8l-5.48 41.31c-1.3873274-1.2253776-2.6349079-2.6003991-3.72-4.1l1.77-12.46-7.6-8.27-.49.5v30.49c1.66-.5333333 3.3533333-1.0266667 5.08-1.48l.8-5.6.45 3.54c.18 1.59.39 3.49.7 5.51-14.29 2.83-26.8 7.93-36.34 14.57 3.67208778-3.4530395 7.72867711-6.472833 12.09-9v-40.13l.06-.06zm30.61 29.34c6.146312-1.0716036 12.3710977-1.6301953 18.61-1.67.4318829 1.192682.9568324 2.3495772 1.57 3.46.1374519.3834841.3676196.727018.67 1h-1.28c-2.7733333 0-5.5133333.08-8.22.24-.85-.1-1.76-.14-2.74-.19h-.2c-3.0319552-.0213471-5.9780676-1.0092231-8.41-2.82zm25.25-28.94c-.1858073-2.2302454-1.9856258-3.9831493-4.22-4.11h-.07c-2.3907773.1541842-4.241586 2.1544643-4.21 4.55v4.29c.0007585.2988993.0309035.597.09.89h1.76c1.5895965-2.5094723 3.9106386-4.4710147 6.65-5.62zm-4.3-10.42h4.3c.0589059-.2930288.089049-.5911106.09-.89v-4.25c.0199947-2.3987526-1.8451666-4.3914839-4.24-4.53h-.07c-2.4106207.1179189-4.2989724 2.1165715-4.28 4.53v4.29c.0007585.2988993.0309035.597.09.89zm-48.16 48.34c3.0413477-1.5715698 6.1735547-2.9606936 9.38-4.16v-32l-.47-.48-8.93 9.72v26.92zm6.08-25.56.39-.19v6.56l-3.28 3.57v-6.8zm42.16-65.92-7.35 6.16v6.73c-1.6.2-3.1766667.4533333-4.73.76v-6.21c-2.8234887.61441826-5.5977105 1.43665748-8.3 2.46v6.31c-1.6147052.6033946-3.1939054 1.297842-4.73 2.08v-6.29c-2.2991202 1.1394981-4.4941535 2.477933-6.56 4v8.83c7.89-5.83 19.09-9.65 31.67-10.04 12.58.39 23.81 4.19 31.67 10v-8.79c-2.0658465-1.522067-4.2608798-2.8605019-6.56-4v6.31c-1.5361588-.7820225-3.1153513-1.4764665-4.73-2.08v-6.33c-2.7019034-1.02708441-5.4761561-1.85267526-8.3-2.47v6.21c-1.5533333-.3-3.13-.5533333-4.73-.76v-6.72z" fill="#240005"/></g></svg>