<svg height="72" viewBox="0 0 284 72" width="284" xmlns="http://www.w3.org/2000/svg"><g fill="none" fill-rule="evenodd" transform="translate(0 -1)"><path d="m0 0h284v73h-284z"/><path d="m169.69 1.54h113.77v18.3c-46.66 10.76-69.86-20.25-113.77-8.77z" fill="#ff7300"/><path d="m0 72.41h113.77v-18.29c-46.66-10.76-69.86 20.25-113.77 8.77z" fill="#7f7a76"/><g fill-rule="nonzero"><path d="m0 18.12c0-5.3333333 1.50333333-9.52666667 4.51-12.58 3.09097993-3.06161602 7.3125514-4.7053497 11.66-4.54 2.9483934-.04348227 5.8561302.69121279 8.43 2.13 2.4591216 1.38897203 4.4500463 3.47735455 5.72 6 1.3566969 2.6826287 2.042955 5.6541261 2 8.66.0542902 3.0536354-.6573779 6.0722083-2.07 8.78-1.3099286 2.5112143-3.3587857 4.5600714-5.87 5.87-2.5274716 1.3303262-5.3438517 2.0172482-8.2 2-2.9870847.0539539-5.932469-.7065914-8.52-2.2-2.44356333-1.3993125-4.42216182-3.4857081-5.69-6-1.30155407-2.5083167-1.97741832-5.2941124-1.97-8.12zm4.61.07c0 3.8933333 1.09333333 6.9566667 3.28 9.19 2.1508215 2.2305895 5.1426851 3.4505727 8.24 3.36 3.1225356.0999219 6.1402657-1.1326208 8.3-3.39 2.1666667-2.26 3.2533333-5.47 3.26-9.63.0508128-2.3689125-.427469-4.7193261-1.4-6.88-.8698227-1.89300888-2.2876147-3.4814933-4.07-4.56-1.8130105-1.08138945-3.8890928-1.64193169-6-1.62-3.0429936-.06657174-5.9919636 1.05633289-8.22 3.13-2.26 2.07333333-3.39 5.54-3.39 10.4zm57.52 4.34 4.47 1.08c-.7306351 3.1608427-2.5107585 5.9808401-5.05 8-2.5859374 1.8894113-5.7289405 2.8608209-8.93 2.76-3.0964524.1336921-6.1686526-.600588-8.87-2.12-2.3216659-1.4697663-4.1366292-3.6163094-5.2-6.15-1.1950553-2.7295858-1.8015628-5.6803472-1.78-8.66-.0762937-3.0508898.6112087-6.0724629 2-8.79 1.2901988-2.4228041 3.2892964-4.39399106 5.73-5.65 2.5207593-1.32907031 5.3303687-2.01601638 8.18-2 3.0324913-.09685177 6.0169238.77535913 8.52 2.49 2.3383168 1.70006525 4.0305719 4.14325854 4.8 6.93l-4.39 1c-.5685537-2.02621257-1.7618536-3.82141143-3.41-5.13-1.6527877-1.1242206-3.6226491-1.68854032-5.62-1.61-2.2974307-.08289734-4.565343.53816172-6.5 1.78-1.7149604 1.15159344-3.0043361 2.83445711-3.67 4.79-.7046731 1.987545-1.0632049 4.0812352-1.06 6.19-.0518486 2.4549227.372647 4.8966214 1.25 7.19.7417533 1.9311256 2.1213614 3.5506655 3.91 4.59 1.7441816 1.0079439 3.7255619 1.53263 5.74 1.52 2.2924215.0655399 4.536615-.6660319 6.35-2.07 1.8511726-1.5796448 3.0955454-3.7537621 3.52-6.15zm10.06 11.31v-32.27h24.4v3.81h-19.94v9.88h18.68v3.74h-18.68v11h20.73v3.81zm27.65 0 13-32.27h4.81l13.82 32.27h-5.09l-3.94-9.78h-14.15l-3.7 9.78zm9.74-13.25h11.42l-3.53-8.93c-1.07-2.71-1.87-4.94-2.39-6.69-.438894 2.10248027-1.047556 4.16590882-1.82 6.17l-3.71 9.46zm25.42 13.25v-32.27h4.58l17.73 25.34v-25.34h4.28v32.27h-4.59l-17.76-25.36v25.36z" fill="#ff7300"/><path d="m122.57 72.4v-32.27h4.43v32.27zm12.29 0v-32.27h4.58l17.73 25.34v-25.34h4.28v32.27h-4.58l-17.72-25.4v25.4zm42.72 0-12.05-32.27h4.84l9.52 27 9.92-27h4.56l-12.2 32.27zm20.88 0v-32.27h22.36v3.81h-17.9v9.88h16.63v3.79h-16.61v11h18.68v3.79zm27.81-10.4 4.21-.35c.122276 1.4284366.600129 2.8035527 1.39 4 .872073 1.1424705 2.051368 2.0130677 3.4 2.51 1.643035.6743247 3.404029 1.0142851 5.18 1 1.549995.0218884 3.091261-.2355539 4.55-.76 1.145453-.3719086 2.159313-1.0663337 2.92-2 .635271-.78465.987563-1.7605 1-2.77.014239-.9656977-.315399-1.9049894-.93-2.65-.816208-.8853016-1.850769-1.5405239-3-1.9-.91-.33-2.91-.86-6-1.58-2.237985-.434059-4.423566-1.1044825-6.52-2-1.445473-.666313-2.690404-1.7008814-3.61-3-.783758-1.1856708-1.194725-2.5787768-1.18-4-.037626-1.628714.422902-3.2300955 1.32-4.59 1.050636-1.4840901 2.53019-2.611203 4.24-3.23 1.975409-.7540788 4.075732-1.1273188 6.19-1.1 2.264007-.042949 4.515069.3509021 6.63 1.16 3.575772 1.3080006 5.984774 4.6734604 6.07 8.48l-4.28.31c-.109888-1.7966966-.956567-3.4683457-2.34-4.62-1.732584-1.1580879-3.801194-1.7069028-5.88-1.56-2.706667 0-4.676667.4733333-5.91 1.42-1.139008.768719-1.829937 2.0460038-1.85 3.42-.01072 1.0843804.466604 2.1161358 1.3 2.81.87.75 3.11 1.51 6.74 2.3 2.544113.4727182 5.043197 1.16189 7.47 2.06 1.722504.680151 3.226595 1.8177279 4.35 3.29.939277 1.3439589 1.429322 2.9506079 1.4 4.59-.005375 1.7360967-.542857 3.4288152-1.54 4.85-1.106487 1.5829148-2.644016 2.815021-4.43 3.55-2.055117.8686062-4.269181 1.297794-6.5 1.26-2.608854.0892882-5.210252-.3284297-7.66-1.23-1.967424-.770117-3.662227-2.1064715-4.87-3.84-1.175364-1.7084825-1.81904-3.7264921-1.85-5.8zm41.56 10.4v-28.46h-11.12v-3.81h26.75v3.81h-11.16v28.46z" fill="#7f7a76"/></g></g></svg>