<svg xmlns="http://www.w3.org/2000/svg" width="184" height="87" viewBox="0 0 184 87">
  <g fill="none" fill-rule="evenodd">
    <rect width="184" height="87"/>
    <path fill="#D7B56D" d="M0,0 L0,1.13729135 L0,85.2728802 L0,86.4088398 L1.13866794,86.4088398 L66.9718293,86.4088398 L68.1104972,86.4088398 L68.1104972,85.2728802 L68.1104972,1.13729135 L68.1104972,0 L0,0 Z M2.27733587,84.1355888 L65.8318265,84.1355888 L65.8318265,2.27325097 L2.27733587,2.27325097 L2.27733587,84.1355888 Z M5.76542417,6.22713624 L5.76542417,33.2651061 L19.9994408,47.4652673 L34.2561508,33.2424668 L48.5115258,47.4652673 L62.346408,33.6632912 L62.346408,6.22713624 L5.76542417,6.22713624 Z M19.9994408,53.1916757 L34.2561508,38.9688752 L48.5115258,53.1916757 L62.346408,39.3896997 L62.346408,80.1817035 L5.76542417,80.1817035 L5.76542417,38.9901828 L19.9994408,53.1916757 Z M82.3425414,43.2819132 L82.3425414,20.0526304 C82.3425414,19.0999973 83.1052462,18.2983425 84.0963617,18.2983425 L99.234248,18.2983425 C104.001487,18.2983425 108.919664,20.3585953 108.919664,25.9087184 C108.919664,27.8286816 108.271832,29.3210955 106.403139,30.8469117 C108.919664,32.1816669 109.986916,34.5091379 109.986916,37.0263339 C109.986916,42.3292801 105.335886,45.036201 100.111826,45.036201 L84.0963617,45.036201 C83.1052462,45.036201 82.3425414,44.2358823 82.3425414,43.2819132 Z M97.0449781,61.4714597 L94.2906923,61.4714597 C93.6655682,61.4714597 93.1379528,60.9450398 93.1379528,60.318413 L93.1379528,59.367116 C93.1379528,58.7404892 93.6655682,58.2140692 94.2906923,58.2140692 L100.427059,58.2140692 C101.053519,58.2140692 101.578463,58.7404892 101.578463,59.367116 L101.578463,60.7192403 C101.578463,65.2285484 98.8735995,67.8339263 93.4892512,67.8339263 L90.7349653,67.8339263 C85.4254181,67.8339263 82.3438772,65.0535204 82.3438772,58.9662886 C82.3438772,52.8790568 85.4254181,50.0986508 91.4108473,50.0986508 L94.1410899,50.0986508 C97.5472145,50.0986508 101.179078,51.9264237 101.179078,54.6079589 C101.179078,55.7342838 100.250742,55.9600832 99.9261588,55.9600832 L98.472879,55.9600832 C97.7729538,55.9600832 97.2453384,55.6086912 96.8205746,54.8070365 C96.3690961,53.9559463 95.2176925,53.555119 93.7149904,53.555119 L91.5364064,53.555119 C87.9299215,53.555119 86.9521634,54.8831937 86.9521634,58.9662886 C86.9521634,63.0493835 87.9299215,64.3774582 90.8591887,64.3774582 L93.3636921,64.3774582 C96.1179779,64.3774582 97.0195992,63.2244115 97.0449781,61.4714597 Z M111.672614,61.3204814 L108.691253,61.3204814 L108.691253,66.5820088 C108.691253,67.2072995 108.191688,67.7337195 107.539849,67.7337195 L105.235706,67.7337195 C104.609246,67.7337195 104.082967,67.2072995 104.082967,66.5820088 L104.082967,51.3265187 C104.082967,50.6745062 104.583867,50.1734719 105.210327,50.1734719 L115.304477,50.1734719 C118.960385,50.1734719 121.689291,52.2764796 121.689291,55.7476447 C121.689291,58.4652544 119.610888,59.7171719 117.082341,60.2182061 C118.108186,60.5949838 118.860204,61.4714597 119.862006,63.0493835 L122.091348,66.5820088 C122.492068,67.2326853 122.315751,67.7337195 121.663912,67.7337195 L118.734645,67.7337195 C118.108186,67.7337195 117.257322,67.2326853 116.856602,66.5820088 L114.776862,63.3246183 C114.150402,62.3479356 113.250117,61.3204814 111.672614,61.3204814 Z M167.271253,50.1734719 L176.612049,50.1734719 C181.271093,50.1734719 184,52.2764796 184,56.9995622 C184,61.7213088 181.271093,63.8256525 176.612049,63.8256525 L170.752179,63.8256525 L170.752179,66.5820088 C170.752179,67.2072995 170.251278,67.7337195 169.600775,67.7337195 L167.296632,67.7337195 C166.670172,67.7337195 166.143893,67.2072995 166.143893,66.5820088 L166.143893,51.3265187 C166.143893,50.6745062 166.644793,50.1734719 167.271253,50.1734719 Z M113.90062,53.6299401 L108.691253,53.6299401 L108.691253,57.8640133 L113.90062,57.8640133 C115.304477,57.8640133 117.082341,57.3629791 117.082341,55.7476447 C117.082341,54.1309743 115.304477,53.6299401 113.90062,53.6299401 Z M123.318888,58.9662886 C123.318888,52.4528437 126.898659,49.8220799 133.160585,49.8220799 C139.421175,49.8220799 143.003617,52.4528437 143.003617,58.9662886 C143.003617,65.4797335 139.421175,68.1104972 133.160585,68.1104972 C126.898659,68.1104972 123.318888,65.4797335 123.318888,58.9662886 Z M133.160585,53.1289058 C129.403162,53.1289058 127.925839,55.2078639 127.925839,58.9662886 C127.925839,62.7233772 129.403162,64.8023353 133.160585,64.8023353 C136.916672,64.8023353 138.395331,62.7233772 138.395331,58.9662886 C138.395331,55.2078639 136.916672,53.1289058 133.160585,53.1289058 Z M153.096432,64.3774582 L155.049277,64.3774582 C157.279954,64.3774582 158.28042,63.2244115 158.28042,60.8154389 L158.28042,51.3291909 C158.28042,50.6785144 158.8067,50.1734719 159.433159,50.1734719 L161.711923,50.1734719 C162.362426,50.1734719 162.888706,50.6785144 162.888706,51.3291909 L162.888706,60.7900532 C162.888706,65.2285484 160.284023,67.8339263 155.174836,67.8339263 L152.970873,67.8339263 C147.863022,67.8339263 145.258338,65.2285484 145.258338,60.7900532 L145.258338,51.3291909 C145.258338,50.6785144 145.783282,50.1734719 146.433785,50.1734719 L148.712549,50.1734719 C149.339009,50.1734719 149.865288,50.6785144 149.865288,51.3291909 L149.865288,60.8154389 C149.865288,63.2244115 150.86709,64.3774582 153.096432,64.3774582 Z M175.209527,53.6299401 L170.752179,53.6299401 L170.752179,60.3691844 L175.209527,60.3691844 C177.615186,60.3691844 179.39305,59.8681502 179.39305,56.9995622 C179.39305,54.1309743 177.615186,53.6299401 175.209527,53.6299401 Z M99.3103849,23.3327344 L89.3591581,23.3327344 L89.3591581,28.7118379 L99.3103849,28.7118379 C100.874531,28.7118379 101.904383,27.7511883 101.904383,26.0222862 C101.904383,24.2933841 100.874531,23.3327344 99.3103849,23.3327344 Z M99.9982885,33.5939154 L89.3591581,33.5939154 L89.3591581,40.0018091 L99.9982885,40.0018091 C101.980519,40.0018091 102.971635,38.7044645 102.971635,36.7978623 C102.971635,34.89126 101.980519,33.5939154 99.9982885,33.5939154 Z M119.063236,45.036201 L115.555596,45.036201 C114.601881,45.036201 113.801775,44.2358823 113.801775,43.2431665 L113.801775,20.091377 C113.801775,19.0999973 114.601881,18.2983425 115.555596,18.2983425 L119.063236,18.2983425 C120.016951,18.2983425 120.818392,19.0999973 120.818392,20.091377 L120.818392,29.0164667 L124.82159,29.0164667 C126.994831,29.0164667 128.558977,27.9101831 130.04565,25.2406728 L132.944196,20.091377 C133.629428,18.8701896 134.65928,18.2983425 135.612995,18.2983425 L139.92074,18.2983425 C140.874455,18.2983425 141.065465,19.0612507 140.493771,20.091377 L136.451836,27.4158294 C135.498121,29.1313706 134.241195,30.9230689 131.647197,31.5336627 C133.477154,31.9157848 135.384584,34.2419197 136.451836,35.8826397 L141.102866,43.2819132 C141.713297,44.2732929 141.447486,45.036201 140.45637,45.036201 L136.186025,45.036201 C135.23231,45.036201 133.935311,44.2732929 133.32488,43.2819132 L130.04565,38.0952069 C128.635114,35.8452292 127.224578,34.2806663 124.82159,34.2806663 L120.818392,34.2806663 L120.818392,43.3206598 C120.818392,44.2732929 120.016951,45.036201 119.063236,45.036201 Z M161.085464,18.2983425 L164.518303,18.2983425 C165.699093,18.2983425 166.423061,19.0679311 166.728945,20.0593108 L171.266437,34.8391525 L176.185949,20.0593108 C176.529233,19.0679311 177.405476,18.2983425 178.397927,18.2983425 L182.477262,18.2983425 C183.317439,18.2983425 184.002671,19.0305206 183.698124,19.8682498 L175.384508,43.1229183 C174.966423,44.3053591 174.050109,45.036201 172.71571,45.036201 L170.008174,45.036201 C168.673775,45.036201 167.72006,44.3053591 167.339376,43.1229183 L162.800548,28.7626094 L158.264391,43.1229183 C157.882371,44.3053591 156.928656,45.036201 155.594257,45.036201 L152.886721,45.036201 C151.550986,45.036201 150.637343,44.3053591 150.216587,43.1229183 L141.905643,19.8682498 C141.599759,19.0305206 142.284992,18.2983425 143.125169,18.2983425 L147.20584,18.2983425 C148.196955,18.2983425 149.073198,19.0679311 149.416481,20.0593108 L154.335994,34.8391525 L158.873486,20.0593108 C159.178034,19.0679311 159.902002,18.2983425 161.085464,18.2983425 Z"/>
  </g>
</svg>
