<svg xmlns="http://www.w3.org/2000/svg" width="55" height="38" viewBox="0 0 55 38">
  <path fill="#D7B56D" fill-rule="evenodd" d="M74.7068649,61.848 C70.1037067,61.848 66.7366323,60.2710158 64.6055405,57.117 C63.6678602,55.838345 62.9006787,54.1334971 62.303973,52.0024054 C61.7072673,49.8713137 61.4089189,47.5271479 61.4089189,44.9698378 C61.4089189,40.537167 62.5596912,36.4455323 64.8612703,32.6948108 C67.1628493,28.9440894 70.5299238,26.0458481 74.9625946,24 L76.1133784,26.3015676 C73.897043,27.3244916 71.9151574,28.7949228 70.1676622,30.7129054 C68.4201669,32.630888 67.2054629,34.6553948 66.5235135,36.7864865 C66.0972952,37.9798979 65.8841892,39.3863973 65.8841892,41.006027 C65.8841892,42.2846821 65.9694316,43.2223484 66.1399189,43.8190541 C68.3562543,41.1765003 71.4676016,39.8552432 75.4740541,39.8552432 C78.8838008,39.8552432 81.6115573,40.8142201 83.6574054,42.7322027 C85.7032535,44.6501853 86.7261622,47.3566312 86.7261622,50.8516216 C86.7261622,54.1761247 85.6180111,56.8399494 83.4016757,58.8431757 C81.1853403,60.8464019 78.287099,61.848 74.7068649,61.848 Z M45.2979459,61.848 C40.6947878,61.848 37.3277134,60.2710158 35.1966216,57.117 C34.2589413,55.838345 33.4917597,54.1334971 32.8950541,52.0024054 C32.2983484,49.8713137 32,47.5271479 32,44.9698378 C32,40.537167 33.1507723,36.4455323 35.4523514,32.6948108 C37.7539304,28.9440894 41.1210049,26.0458481 45.5536757,24 L46.7044595,26.3015676 C44.4881241,27.3244916 42.5062385,28.7949228 40.7587432,30.7129054 C39.011248,32.630888 37.796544,34.6553948 37.1145946,36.7864865 C36.6883762,37.9798979 36.4752703,39.3863973 36.4752703,41.006027 C36.4752703,42.2846821 36.5605127,43.2223484 36.731,43.8190541 C38.9473354,41.1765003 42.0586827,39.8552432 46.0651351,39.8552432 C49.4748819,39.8552432 52.2026384,40.8142201 54.2484865,42.7322027 C56.2943346,44.6501853 57.3172432,47.3566312 57.3172432,50.8516216 C57.3172432,54.1761247 56.2090922,56.8399494 53.9927568,58.8431757 C51.7764214,60.8464019 48.8781801,61.848 45.2979459,61.848 Z" transform="translate(-32 -24)"/>
</svg>
