<svg xmlns="http://www.w3.org/2000/svg" width="16" height="16" viewBox="0 0 16 16">
  <path fill="#F1F3F7" fill-rule="evenodd" d="M32,29.0814157 L30.3149546,32 L29.160254,32 L32,27.0814157 L32,29.0814157 Z M32,31.0814157 L32,32 L31.4696551,32 L32,31.0814157 Z M32,25.0814157 L28.0055535,32 L26.850853,32 L32,23.0814157 L32,25.0814157 Z M32,21.0814157 L25.6961524,32 L24.5414519,32 L32,19.0814157 L32,21.0814157 Z M32,17.0814157 L23.3867513,32 L22.2320508,32 L31.4696551,16 L32,16 L32,17.0814157 Z M30.3149546,16 L21.0773503,32 L19.9226497,32 L29.160254,16 L30.3149546,16 Z M28.0055535,16 L18.7679492,32 L17.6132487,32 L26.850853,16 L28.0055535,16 Z M25.6961524,16 L16.4585481,32 L16,32 L16,30.7942286 L24.5414519,16 L25.6961524,16 Z M23.3867513,16 L16,28.7942286 L16,26.7942286 L22.2320508,16 L23.3867513,16 Z M21.0773503,16 L16,24.7942286 L16,22.7942286 L19.9226497,16 L21.0773503,16 Z M18.7679492,16 L16,20.7942286 L16,18.7942286 L17.6132487,16 L18.7679492,16 Z M16.4585481,16 L16,16.7942286 L16,16 L16.4585481,16 Z" transform="translate(-16 -16)"/>
</svg>
