<svg xmlns="http://www.w3.org/2000/svg" width="16" height="16" viewBox="0 0 16 16">
  <g fill="none" fill-rule="evenodd">
    <rect width="16" height="16"/>
    <path fill="#D7B56D" d="M16,13.0814157 L14.3149546,16 L13.160254,16 L16,11.0814157 L16,13.0814157 Z M16,15.0814157 L16,16 L15.4696551,16 L16,15.0814157 Z M16,9.08141571 L14,12.5455173 L14,10.5455173 L16,7.08141571 L16,9.08141571 Z M12.0055535,16 L10.850853,16 L12.0055535,14 L13.160254,14 L12.0055535,16 Z M16,5.08141571 L14,8.54551733 L14,6.54551733 L16,3.08141571 L16,5.08141571 Z M9.69615242,16 L8.54145188,16 L9.69615242,14 L10.850853,14 L9.69615242,16 Z M16,1.08141571 L14,4.54551733 L14,2.54551733 L15.4696551,-9.43689571e-16 L16,0 L16,1.08141571 Z M7.38675135,16 L6.23205081,16 L7.38675135,14 L8.54145188,14 L7.38675135,16 Z M14.3149546,-2.22044605e-15 L13.160254,2 L12.0055535,2 L13.160254,4.4408921e-16 L14.3149546,0 Z M5.07735027,16 L3.92264973,16 L5.07735027,14 L6.23205081,14 L5.07735027,16 Z M12.0055535,-1.77635684e-15 L10.850853,2 L9.69615242,2 L10.850853,4.4408921e-16 L12.0055535,0 Z M2.76794919,16 L1.61324865,16 L2.76794919,14 L3.92264973,14 L2.76794919,16 Z M9.69615242,-1.33226763e-15 L8.54145188,2 L7.38675135,2 L8.54145188,0 L9.69615242,0 Z M0.458548116,16 L0,16 L0,14.7942286 L2,11.330127 L2,13.330127 L0.458548116,16 Z M7.38675135,-1.11022302e-15 L6.23205081,2 L5.07735027,2 L6.23205081,0 L7.38675135,0 Z M0,12.7942286 L0,10.7942286 L2,7.33012702 L2,9.33012702 L-8.8817842e-16,12.7942286 Z M5.07735027,4.4408921e-16 L3.92264973,2 L2.76794919,2 L3.92264973,8.8817842e-16 L5.07735027,0 Z M0,8.79422863 L0,6.79422863 L2,3.33012702 L2,5.33012702 L0,8.79422863 Z M2.76794919,-1.77635684e-15 L-8.8817842e-16,4.79422863 L0,2.79422863 L1.61324865,0 L2.76794919,0 Z M0.458548116,7.77156117e-16 L0,0.794228634 L0,0 L0.458548116,0 Z"/>
  </g>
</svg>
