<svg xmlns="http://www.w3.org/2000/svg" width="100" height="135" viewBox="0 0 100 135">
  <g fill="#B0B4BF" fill-rule="evenodd" opacity=".5" style="mix-blend-mode:multiply" transform="rotate(30 163.782 15.847)">
    <rect width="1" height="238"/>
    <rect width="1" height="238" x="4"/>
    <rect width="1" height="238" x="8"/>
    <rect width="1" height="238" x="12"/>
    <rect width="1" height="238" x="16"/>
    <rect width="1" height="238" x="20"/>
    <rect width="1" height="238" x="24"/>
    <rect width="1" height="238" x="28"/>
    <rect width="1" height="238" x="32"/>
    <rect width="1" height="238" x="36"/>
    <rect width="1" height="238" x="40"/>
    <rect width="1" height="238" x="44"/>
    <rect width="1" height="238" x="48"/>
    <rect width="1" height="238" x="52"/>
    <rect width="1" height="238" x="56"/>
    <rect width="1" height="238" x="60"/>
    <rect width="1" height="238" x="64"/>
    <rect width="1" height="238" x="68"/>
    <rect width="1" height="238" x="72"/>
    <rect width="1" height="238" x="76"/>
    <rect width="1" height="238" x="80"/>
    <rect width="1" height="238" x="84"/>
    <rect width="1" height="238" x="88"/>
    <rect width="1" height="238" x="92"/>
    <rect width="1" height="238" x="96"/>
    <rect width="1" height="238" x="100"/>
    <rect width="1" height="238" x="104"/>
    <rect width="1" height="238" x="108"/>
    <rect width="1" height="238" x="112"/>
    <rect width="1" height="238" x="116"/>
    <rect width="1" height="238" x="120"/>
    <rect width="1" height="238" x="124"/>
    <rect width="1" height="238" x="128"/>
    <rect width="1" height="238" x="132"/>
    <rect width="1" height="238" x="136"/>
    <rect width="1" height="238" x="140"/>
    <rect width="1" height="238" x="144"/>
    <rect width="1" height="238" x="148"/>
    <rect width="1" height="238" x="152"/>
    <rect width="1" height="238" x="156"/>
    <rect width="1" height="238" x="160"/>
    <rect width="1" height="238" x="164"/>
    <rect width="1" height="238" x="168"/>
    <rect width="1" height="238" x="172"/>
    <rect width="1" height="238" x="176"/>
    <rect width="1" height="238" x="180"/>
  </g>
</svg>
