<svg xmlns="http://www.w3.org/2000/svg" width="80" height="44" viewBox="0 0 80 44">
  <g fill="none" fill-rule="evenodd">
    <rect width="80" height="44"/>
    <g transform="translate(4 13)">
      <rect width="72" height="19"/>
      <path fill="#FF7300" d="M43.02,0.400821918 L71.8630986,0.400821918 L71.8630986,5.16383562 C60.0338028,7.96438356 54.1521127,-0.106712329 43.02,2.88123288 L43.02,0.400821918 Z"/>
      <path fill="#7F7A76" d="M0,18.8464384 L28.8430986,18.8464384 L28.8430986,14.0860274 C17.0138028,11.2854795 11.1321127,19.3565753 0,16.3686301 L0,18.8464384 Z"/>
      <path fill="#FF7300" fill-rule="nonzero" d="M-2.18291233e-15,4.71616438 C-2.18291233e-15,3.32803653 0.381126761,2.236621 1.14338028,1.44191781 C1.927009,0.645058843 2.99726656,0.21723775 4.09943662,0.260273973 C4.84691664,0.248956669 5.58408934,0.44017867 6.23661972,0.814657534 C6.860059,1.1761708 7.36480047,1.71972242 7.68676056,2.37630137 C8.0307119,3.07451979 8.20469282,3.84792323 8.19380282,4.63027397 C8.20756652,5.4250558 8.02714363,6.21071176 7.66901408,6.91547945 C7.33691952,7.56908318 6.81749096,8.10234736 6.18084507,8.44328767 C5.54007762,8.78953696 4.82606576,8.96832487 4.10197183,8.96383562 C3.34468275,8.9778784 2.59796561,8.77992827 1.94197183,8.39123288 C1.3224769,8.02702825 0.820860383,7.48399378 0.49943662,6.82958904 C0.169465164,6.1767395 -0.00188070052,5.45166937 -2.67632257e-15,4.71616438 Z M1.16873239,4.73438356 C1.16873239,5.74771689 1.44591549,6.54502283 2.00028169,7.12630137 C2.54556039,7.70686576 3.30406102,8.02439564 4.08929577,8.00082192 C4.88092453,8.02682899 5.64598284,7.7060302 6.19352113,7.11849315 C6.7428169,6.53027397 7.01830986,5.69479452 7.02,4.61205479 C7.03288212,3.99548853 6.91162757,3.38373705 6.66507042,2.82136986 C6.444552,2.32866892 6.08511177,1.91522777 5.63323944,1.63452055 C5.17360298,1.35306302 4.64727224,1.20716847 4.11211268,1.21287671 C3.34064952,1.19554982 2.59302332,1.48781267 2.02816901,2.02753425 C1.45521127,2.56716895 1.16873239,3.46945205 1.16873239,4.73438356 Z M15.7512676,5.8639726 L16.884507,6.14506849 C16.6992756,6.96775357 16.2479767,7.70172551 15.6042254,8.22726027 C14.9486356,8.71902485 14.1518179,8.97185751 13.3402817,8.94561644 C12.5552656,8.98041301 11.7763979,8.78929901 11.0915493,8.39383562 C10.5029579,8.01129371 10.0428264,7.45260441 9.77323944,6.79315068 C9.47026768,6.08271054 9.31650521,5.31470416 9.32197183,4.53917808 C9.30262977,3.74511088 9.47692616,2.95867404 9.82901408,2.25136986 C10.1561067,1.62077702 10.6629202,1.10772835 11.2816901,0.780821918 C11.9207559,0.434899509 12.6330512,0.256105326 13.355493,0.260273973 C14.1242936,0.235065978 14.8809103,0.462079773 15.515493,0.908356164 C16.1083057,1.3508389 16.5373281,1.98673852 16.7323944,2.71205479 L15.6194366,2.97232877 C15.4752962,2.44495837 15.1727695,1.97771483 14.7549296,1.63712329 C14.335913,1.34451793 13.8365115,1.19764019 13.3301408,1.21808219 C12.7476936,1.19650617 12.1727299,1.35815168 11.6822535,1.68136986 C11.2474748,1.98109966 10.9205909,2.41910527 10.751831,2.92808219 C10.5731815,3.44538842 10.4822861,3.99032149 10.4830986,4.53917808 C10.4699539,5.17813055 10.5775725,5.81364119 10.8,6.41054795 C10.9880501,6.91316968 11.3378099,7.33469377 11.7912676,7.60520548 C12.2334545,7.86754705 12.7357762,8.00410917 13.2464789,8.00082192 C13.8276562,8.01788024 14.3966066,7.82747116 14.856338,7.46205479 C15.3256494,7.05091437 15.6411242,6.48504821 15.7487324,5.86136986 L15.7512676,5.8639726 Z M18.3016901,8.80767123 L18.3016901,0.408630137 L24.4876056,0.408630137 L24.4876056,1.40027397 L19.4323944,1.40027397 L19.4323944,3.97178082 L24.168169,3.97178082 L24.168169,4.94520548 L19.4323944,4.94520548 L19.4323944,7.80821918 L24.6878873,7.80821918 L24.6878873,8.79986301 L18.3016901,8.80767123 Z M25.3115493,8.80767123 L28.6073239,0.408630137 L29.8267606,0.408630137 L33.3304225,8.80767123 L32.04,8.80767123 L31.0411268,6.26219178 L27.4538028,6.26219178 L26.5157746,8.80767123 L25.3115493,8.80767123 Z M27.7808451,5.3590411 L30.6760563,5.3590411 L29.7811268,3.03479452 C29.5098592,2.32945205 29.3070423,1.7490411 29.1752113,1.29356164 C29.0639423,1.84078254 28.9096338,2.37783928 28.7138028,2.89945205 L27.7732394,5.36164384 L27.7808451,5.3590411 Z M34.2253521,8.80767123 L34.2253521,0.408630137 L35.3864789,0.408630137 L39.8814085,7.0039726 L39.8814085,0.408630137 L40.9664789,0.408630137 L40.9664789,8.80767123 L39.8028169,8.80767123 L35.3002817,2.20712329 L35.3002817,8.80767123 L34.2253521,8.80767123 Z"/>
      <path fill="#7F7A76" fill-rule="nonzero" d="M31.0740845,18.8438356 L31.0740845,10.4447945 L32.1971831,10.4447945 L32.1971831,18.8438356 L31.0740845,18.8438356 Z M34.1898592,18.8438356 L34.1898592,10.4447945 L35.3509859,10.4447945 L39.8459155,17.040137 L39.8459155,10.4447945 L40.9309859,10.4447945 L40.9309859,18.8438356 L39.7698592,18.8438356 L35.2774648,12.2328767 L35.2774648,18.8438356 L34.1898592,18.8438356 Z M45.0202817,18.8438356 L41.9653521,10.4447945 L43.1923944,10.4447945 L45.6059155,17.4721918 L48.1208451,10.4447945 L49.2769014,10.4447945 L46.1839437,18.8438356 L45.0202817,18.8438356 Z M50.3138028,18.8438356 L50.3138028,10.4447945 L55.9825352,10.4447945 L55.9825352,11.4364384 L51.444507,11.4364384 L51.444507,14.0079452 L55.6605634,14.0079452 L55.6605634,14.9943836 L51.4495775,14.9943836 L51.4495775,17.8573973 L56.1853521,17.8573973 L56.1853521,18.8438356 L50.3138028,18.8438356 Z M57.3642254,16.1369863 L58.4315493,16.0458904 C58.4625488,16.4176753 58.5836946,16.7755822 58.7839437,17.0869863 C59.0050326,17.3843416 59.3040088,17.6109354 59.6459155,17.740274 C60.0624595,17.9157831 60.5089088,18.004266 60.9591549,18.0005479 C61.3521113,18.0062449 61.742855,17.9392394 62.1126761,17.8027397 C62.4030725,17.7059416 62.6601075,17.5252008 62.8529577,17.2821918 C63.0140124,17.0779678 63.103326,16.8239795 63.1064789,16.5612329 C63.1100887,16.3098869 63.0265185,16.0654137 62.8707042,15.8715068 C62.6637783,15.6410859 62.4014951,15.4705486 62.1101408,15.3769863 C61.8794366,15.2910959 61.3723944,15.1531507 60.5890141,14.9657534 C60.0216375,14.8527792 59.4675466,14.6782854 58.9360563,14.4452055 C58.5695983,14.2717815 58.2539821,14.0025103 58.0208451,13.6643836 C57.8221458,13.3557843 57.7179572,12.9931951 57.7216901,12.6232877 C57.7121512,12.1993758 57.8289047,11.7825779 58.056338,11.4286301 C58.3226965,11.0423601 58.6977947,10.749002 59.1312676,10.5879452 C59.6320755,10.3916781 60.1645518,10.2945335 60.7005634,10.3016438 C61.2745369,10.2904653 61.8452288,10.3929745 62.3814085,10.6035616 C63.2879421,10.9440002 63.8986751,11.8199417 63.9202817,12.8106849 L62.8352113,12.8913699 C62.8073524,12.4237365 62.5927013,11.9886498 62.2419718,11.6889041 C61.8027252,11.387484 61.2782889,11.2446417 60.7512676,11.2828767 C60.0650704,11.2828767 59.5656338,11.4060731 59.2529577,11.6524658 C58.9641952,11.8525433 58.7890301,12.1849873 58.7839437,12.5426027 C58.7812259,12.8248387 58.9022377,13.0933778 59.1135211,13.2739726 C59.3340845,13.4691781 59.9019718,13.6669863 60.8222535,13.8726027 C61.4672399,13.995639 62.1008106,14.1750125 62.7160563,14.4087671 C63.1527474,14.5857927 63.5340663,14.8818744 63.8188732,15.2650685 C64.0569997,15.614866 64.1812366,16.0330349 64.1738028,16.459726 C64.1724401,16.9115868 64.0361771,17.3521574 63.7833803,17.7220548 C63.5028626,18.1340463 63.1130663,18.4547315 62.6602817,18.6460274 C62.1392662,18.872103 61.5779541,18.9838094 61.0123944,18.9739726 C60.3509947,18.997212 59.6914853,18.8884909 59.0704225,18.6538356 C58.5716391,18.4533942 58.1419705,18.1055759 57.8357746,17.6543836 C57.537795,17.20971 57.3746096,16.6844747 57.3667606,16.1447945 L57.3642254,16.1369863 Z M67.9005634,18.8438356 L67.9005634,11.4364384 L65.0814085,11.4364384 L65.0814085,10.4447945 L71.8630986,10.4447945 L71.8630986,11.4364384 L69.0338028,11.4364384 L69.0338028,18.8438356 L67.9005634,18.8438356 Z"/>
    </g>
  </g>
</svg>
