<svg xmlns="http://www.w3.org/2000/svg" width="662" height="178" viewBox="0 0 662 178">
  <g fill="none" fill-rule="evenodd" transform="translate(1 -5)">
    <path stroke="#B0B4BF" stroke-dasharray="1 4" stroke-linecap="round" stroke-width="2" d="M0,26 L57.1106624,26 L102.110662,71 L199.935691,71 L244.935691,116 L420.500908,116 L465.500908,161 L660,161" transform="matrix(1 0 0 -1 0 187)"/>
    <g fill="#B0B4BF" transform="translate(52 22)">
      <rect width="8" height="8" y="135"/>
      <rect width="8" height="8" x="47" y="90"/>
      <rect width="8" height="8" x="144" y="90"/>
      <rect width="8" height="8" x="189" y="45"/>
      <rect width="8" height="8" x="364" y="45"/>
      <rect width="8" height="8" x="411"/>
    </g>
    <g transform="translate(62 167)">
      <text fill="#B0B4BF" font-family="Roboto-Regular, Roboto" font-size="12">
        <tspan x="8" y="13">2007</tspan>
      </text>
    </g>
    <g transform="translate(109 90)">
      <text>
        <tspan x="8" y="13">2008</tspan>
      </text>
    </g>
    <g transform="translate(206 122)">
      <text >
        <tspan x="8" y="13">2009</tspan>
      </text>
    </g>
    <g transform="translate(251 45)">
      <text >
        <tspan x="8" y="13">2010</tspan>
      </text>
    </g>
    <g transform="translate(426 77)">
      <text>
        <tspan x="8" y="13">2011</tspan>
      </text>
    </g>
    <g transform="translate(473)">
      <text>
        <tspan x="8" y="13">2012</tspan>
      </text>
    </g>
  </g>
</svg>
