<?xml version="1.0" standalone="no"?>
<!DOCTYPE svg PUBLIC "-//W3C//DTD SVG 20010904//EN"
 "http://www.w3.org/TR/2001/REC-SVG-20010904/DTD/svg10.dtd">
<svg version="1.0" xmlns="http://www.w3.org/2000/svg"
 width="512.000000pt" height="512.000000pt" viewBox="0 0 512.000000 512.000000"
 preserveAspectRatio="xMidYMid meet">
<metadata>
Created by potrace 1.11, written by Peter Selinger 2001-2013
</metadata>
<g transform="translate(0.000000,512.000000) scale(0.100000,-0.100000)"
fill="#000000" stroke="none">
<path d="M1119 4376 c-1 -14 -1 -3595 0 -3622 l1 -21 1438 1 1437 1 0 1825 0
1825 -1437 1 c-1029 0 -1438 -2 -1439 -10z m2781 -116 c1 -16 1 -775 1 -1685
0 -910 0 -1675 -1 -1700 l0 -45 -1343 0 -1343 0 0 1730 1 1730 1342 0 1343 0
0 -30z"/>
<path d="M1370 4120 c-11 -7 -11 -1123 0 -1141 5 -8 141 -146 302 -307 l293
-292 300 300 301 300 301 -300 301 -300 293 291 293 290 0 576 c1 361 -3 577
-9 581 -11 7 -2363 9 -2375 2z"/>
<path d="M2508 2682 c-31 -31 -167 -167 -301 -300 l-244 -244 -297 296 c-163
163 -298 296 -300 296 -2 0 -4 -389 -4 -864 0 -644 3 -866 11 -868 23 -7 2367
-2 2374 5 12 12 10 1717 -2 1707 -5 -5 -138 -135 -293 -291 l-284 -282 -301
301 -302 302 -57 -58z"/>
</g>
</svg>
